0
SECTION
2
HEADER
9
$INSUNITS
70
4
9
$ACADVER
1
AC1014
9
$HANDSEED
5
FFFF
0
ENDSEC
0
SECTION
2
TABLES
0
TABLE
2
VPORT
5
8
100
AcDbSymbolTable
0
ENDTAB
0
TABLE
2
LTYPE
5
5
100
AcDbSymbolTable
0
LTYPE
5
14
100
AcDbSymbolTableRecord
100
AcDbLinetypeTableRecord
2
BYBLOCK
70
0
0
LTYPE
5
15
100
AcDbSymbolTableRecord
100
AcDbLinetypeTableRecord
2
BYLAYER
70
0
0
LTYPE
5
16
100
AcDbSymbolTableRecord
100
AcDbLinetypeTableRecord
2
DASHED
70
0
3
Dashed __ __ __ __ __ __ __ __ __ __ __ __ __ _
72
65
73
2
40
0.75
49
0.5
74
0
49
-0.25
74
0
0
ENDTAB
0
TABLE
2
LAYER
5
2
100
AcDbSymbolTable
70
3
0
LAYER
5
50
100
AcDbSymbolTableRecord
100
AcDbLayerTableRecord
2
1
70
0
62
7
6
DASHED
0
LAYER
5
51
100
AcDbSymbolTableRecord
100
AcDbLayerTableRecord
2
0
70
0
62
7
6
CONTINUOUS
0
ENDTAB
0
TABLE
2
STYLE
5
3
100
AcDbSymbolTable
70
1
0
STYLE
5
11
100
AcDbSymbolTableRecord
100
AcDbTextStyleTableRecord
2
STANDARD
70
0
0
ENDTAB
0
TABLE
2
VIEW
5
6
100
AcDbSymbolTable
70
0
0
ENDTAB
0
TABLE
2
UCS
5
7
100
AcDbSymbolTable
70
0
0
ENDTAB
0
TABLE
2
APPID
5
9
100
AcDbSymbolTable
70
2
0
APPID
5
12
100
AcDbSymbolTableRecord
100
AcDbRegAppTableRecord
2
ACAD
70
0
0
ENDTAB
0
TABLE
2
DIMSTYLE
5
A
100
AcDbSymbolTable
70
1
0
ENDTAB
0
TABLE
2
BLOCK_RECORD
5
1
100
AcDbSymbolTable
70
1
0
BLOCK_RECORD
5
1F
100
AcDbSymbolTableRecord
100
AcDbBlockTableRecord
2
*MODEL_SPACE
0
BLOCK_RECORD
5
1B
100
AcDbSymbolTableRecord
100
AcDbBlockTableRecord
2
*PAPER_SPACE
0
ENDTAB
0
ENDSEC
0
SECTION
2
BLOCKS
0
BLOCK
5
20
100
AcDbEntity
100
AcDbBlockBegin
2
*MODEL_SPACE
0
ENDBLK
5
21
100
AcDbEntity
100
AcDbBlockEnd
0
BLOCK
5
1C
100
AcDbEntity
100
AcDbBlockBegin
2
*PAPER_SPACE
0
ENDBLK
5
1D
100
AcDbEntity
100
AcDbBlockEnd
0
ENDSEC
0
SECTION
2
ENTITIES
0
LWPOLYLINE
5
100
100
AcDbEntity
8
OUTER_PROFILES
100
AcDbPolyline
90
68
70
1
43
0.0
10
-0.30760000000007892
20
91.221517999999904
10
-20.96294501301827
20
91.221517999999904
42
-0.41421356237308982
10
-21.96294501301827
20
92.22151799999989
10
-21.962945013018285
20
120.61191799999996
42
-0.41421356237309631
10
-20.962945013018267
20
121.61191799999996
10
-8.4521450130183204
20
121.61191799999992
42
-0.41421356237309892
10
-7.452145013018324
20
120.6119179999999
10
-7.4521450130183098
20
119.61191799999995
10
-1.0000000000000853
20
119.61191799999995
10
-1.0000000000000853
20
120.61191799999992
42
-0.41421356237309365
10
-7.5778442619393056e-14
20
121.61191799999992
10
143.84641254389987
20
121.6119179999999
42
0.66245433036638113
10
144.56465277619043
20
123.30771320601903
10
126.32410835839968
20
142.13666279694311
42
-0.40957245367458328
10
126.33524180950371
20
143.53956478414875
10
163.13596704714072
20
180.34029002178636
42
-0.41421356237310974
10
164.5501806095138
20
180.34029002178636
10
208.8652097279747
20
136.02526090332606
42
-0.41421356237309503
10
208.8652097279747
20
134.61104734095295
10
193.76470045790325
20
119.51053807088131
42
1.0000000074505806
10
194.195752748503
20
119.07948577385839
10
196.435291755831
20
121.31902478118644
42
-0.19891236737964876
10
197.14239853701753
20
121.61191799999989
10
320.18451539999967
20
121.61191799999989
42
-0.41421356237308982
10
321.18451539999967
20
120.6119179999999
10
321.18451539999967
20
119.61191799999992
10
327.63666041301798
20
119.61191799999992
10
327.63666041301792
20
120.6119179999999
42
-0.41421356237311063
10
328.63666041301798
20
121.61191799999989
10
341.14746041301794
20
121.6119179999999
42
-0.41421356237310025
10
342.14746041301794
20
120.61191799999989
10
342.14746041301794
20
92.221517999999904
42
-0.41421356237311063
10
341.14746041301782
20
91.221517999999918
10
320.49211539999965
20
91.221517999999904
42
0.99999999999999989
10
320.49211539999965
20
90.611917999999889
10
324.67371539999965
20
90.611917999999903
42
-0.41421356237310025
10
325.67371539999965
20
89.611917999999889
10
325.67371539999965
20
31.221517999999897
42
-0.41421356237311585
10
324.67371539999959
20
30.221517999999893
10
320.49211539999965
20
30.221517999999893
42
0.99999999999999989
10
320.49211539999965
20
29.611917999999896
10
341.14746041301794
20
29.611917999999896
42
-0.41421356237310281
10
342.14746041301794
20
28.611917999999868
10
342.14746041301794
20
1.0000000000000364
42
-0.41421356237307388
10
341.147460413018
20
3.7608804959177178e-14
10
328.63666041301781
20
3.858025010572419e-14
42
-0.41421356237308055
10
327.63666041301792
20
1.0000000000000602
10
327.63666041301792
20
2.0000000000000382
10
321.18451539999967
20
2.0000000000000395
10
321.18451539999967
20
1.0000000000000222
42
-0.41421356237310136
10
320.18451539999967
20
6.9388939039072284e-16
10
0
20
0
42
-0.41421356237309548
10
-1
20
1.0000000000000013
10
-1.0000000000000142
20
1.9999999999999996
10
-7.4521450130183098
20
1.9999999999999996
10
-7.4521450130183098
20
1.0000000000000007
42
-0.41421356237309503
10
-8.452145013018324
20
8.3266726846886741e-16
10
-20.96294501301827
20
-2.7755575615628914e-16
42
-0.4142135623730947
10
-21.96294501301827
20
0.99999999999999956
10
-21.962945013018285
20
28.611917999999875
42
-0.41421356237309503
10
-20.96294501301827
20
29.611917999999875
10
-0.30760000000000792
20
29.611917999999893
42
0.99999999999999989
10
-0.30760000000000781
20
30.22151799999989
10
-4.489200000000011
20
30.22151799999989
42
-0.41421356237309631
10
-5.489200000000011
20
31.2215179999999
10
-5.4892000000000962
20
89.611917999999918
42
-0.41421356237309598
10
-4.4892000000000074
20
90.611917999999903
10
-0.30759999999993681
20
90.611917999999889
42
0.99999999999999989
0
CIRCLE
5
101
100
AcDbEntity
8
INTERIOR_PROFILES
100
AcDbCircle
10
-335.30866041301795
20
100.24616186437268
30
0
40
3.0000000000000071
210
0
220
0
230
-1
0
CIRCLE
5
102
100
AcDbEntity
8
INTERIOR_PROFILES
100
AcDbCircle
10
-335.30866041301795
20
21.365756135627386
30
0
40
3.0000000000000027
210
0
220
0
230
-1
0
CIRCLE
5
103
100
AcDbEntity
8
INTERIOR_PROFILES
100
AcDbCircle
10
-1.3107999999996522
20
35.800000000000018
30
0
40
1.5749999999999886
210
0
220
0
230
-1
0
CIRCLE
5
104
100
AcDbEntity
8
INTERIOR_PROFILES
100
AcDbCircle
10
-318.87371539999964
20
85.81191800000002
30
0
40
1.5750000000000242
210
0
220
0
230
-1
0
CIRCLE
5
105
100
AcDbEntity
8
INTERIOR_PROFILES
100
AcDbCircle
10
-1.3107999999996522
20
85.81191800000002
30
0
40
1.5749999999999886
210
0
220
0
230
-1
0
CIRCLE
5
106
100
AcDbEntity
8
INTERIOR_PROFILES
100
AcDbCircle
10
-318.87371539999964
20
40.562438000000029
30
0
40
1.5750000000000242
210
0
220
0
230
-1
0
CIRCLE
5
107
100
AcDbEntity
8
INTERIOR_PROFILES
100
AcDbCircle
10
-60.310799999999638
20
6.8000000000000194
30
0
40
1.5749999999999886
210
0
220
0
230
-1
0
CIRCLE
5
108
100
AcDbEntity
8
INTERIOR_PROFILES
100
AcDbCircle
10
-90.310799999999631
20
114.81191800000003
30
0
40
1.5749999999999886
210
0
220
0
230
-1
0
CIRCLE
5
109
100
AcDbEntity
8
INTERIOR_PROFILES
100
AcDbCircle
10
-229.87371539999967
20
114.81191800000003
30
0
40
1.5750000000000242
210
0
220
0
230
-1
0
CIRCLE
5
110
100
AcDbEntity
8
INTERIOR_PROFILES
100
AcDbCircle
10
-269.87371539999964
20
6.800000000000022
30
0
40
1.5749999999999886
210
0
220
0
230
-1
0
CIRCLE
5
111
100
AcDbEntity
8
INTERIOR_PROFILES
100
AcDbCircle
10
-159.27479999999969
20
6.8000000000000203
30
0
40
1.5749999999999886
210
0
220
0
230
-1
0
CIRCLE
5
112
100
AcDbEntity
8
INTERIOR_PROFILES
100
AcDbCircle
10
15.124145013027785
20
100.24616186437264
30
0
40
3.0000000000000071
210
0
220
0
230
-1
0
CIRCLE
5
113
100
AcDbEntity
8
INTERIOR_PROFILES
100
AcDbCircle
10
15.124145013027785
20
21.365756135627411
30
0
40
3.0000000000000004
210
0
220
0
230
-1
0
LINE
5
114
100
AcDbEntity
8
BEND
100
AcDbLine
10
196.53547893593702
20
122.28131654891502
30
-1.0051026949137827e-12
11
150.80623625510324
21
168.01055922974885
31
-9.7800278591581591e-13
0
LINE
5
115
100
AcDbEntity
8
BEND
100
AcDbLine
10
324.41058790650879
20
91.221517999999904
30
-1.7146225060481287e-14
11
324.41058790650879
21
119.61191799999992
31
-1.8494703985229451e-14
0
LINE
5
116
100
AcDbEntity
8
BEND
100
AcDbLine
10
324.41058790650879
20
2.0000000000000395
30
-1.6901794975679672e-14
11
324.41058790650879
21
29.611917999999903
31
-1.6960007275387502e-14
0
LINE
5
117
100
AcDbEntity
8
BEND
100
AcDbLine
10
-4.2260725065092686
20
119.61191799999995
30
-4.6512305530137573e-14
11
-4.2260725065092686
21
91.221517999999904
31
-6.4232441176232325e-14
0
LINE
5
118
100
AcDbEntity
8
BEND
100
AcDbLine
10
-4.2260725065091265
20
29.611917999999875
30
-5.5394089727133593e-14
11
-4.2260725065091265
21
2.0000000000000018
31
-4.4291859480882041e-14
0
LINE
5
119
100
AcDbEntity
8
BEND_EXTENT
100
AcDbLine
10
323.18451539999961
20
2.0000000000000395
30
0
11
323.18451539999961
21
29.611917999999893
31
0
0
LINE
5
120
100
AcDbEntity
8
BEND_EXTENT
100
AcDbLine
10
323.18451539999967
20
91.221517999999904
30
0
11
323.18451539999961
21
119.61191799999992
31
0
0
LINE
5
121
100
AcDbEntity
8
BEND_EXTENT
100
AcDbLine
10
195.66851475235833
20
121.41435236533638
30
0
11
149.93927207152453
21
167.14359504617016
31
0
0
LINE
5
122
100
AcDbEntity
8
BEND_EXTENT
100
AcDbLine
10
-3.0000000000001137
20
119.61191799999995
30
0
11
-3.0000000000001137
21
91.221517999999904
31
0
0
LINE
5
123
100
AcDbEntity
8
BEND_EXTENT
100
AcDbLine
10
-3.0000000000001137
20
29.611917999999893
30
0
11
-3.0000000000001137
21
2.0000000000000018
31
0
0
LINE
5
124
100
AcDbEntity
8
BEND_EXTENT
100
AcDbLine
10
325.63666041301792
20
119.61191799999992
30
-5.1070259132757201e-14
11
325.63666041301792
21
91.221517999999904
31
-2.4424906541753444e-14
0
LINE
5
125
100
AcDbEntity
8
BEND_EXTENT
100
AcDbLine
10
-5.4521450130182814
20
1.9999999999999996
30
-7.1054273576010019e-14
11
-5.4521450130182814
21
29.611917999999875
31
-7.1054273576010019e-14
0
LINE
5
126
100
AcDbEntity
8
BEND_EXTENT
100
AcDbLine
10
325.63666041301792
20
29.611917999999903
30
-1.9984014443252818e-14
11
325.63666041301792
21
2.0000000000000373
31
-1.5543122344752192e-14
0
LINE
5
127
100
AcDbEntity
8
BEND_EXTENT
100
AcDbLine
10
-5.4521450130182814
20
91.221517999999904
30
-1.4210854715202004e-13
11
-5.4521450130182814
21
119.61191799999995
31
-1.4210854715202004e-13
0
LINE
5
128
100
AcDbEntity
8
BEND_EXTENT
100
AcDbLine
10
151.67320043868176
20
168.87752341332745
30
-2.0461410343841635e-12
11
197.40244311951557
21
123.14828073249362
31
-2.1171953079601735e-12
0
ENDSEC
0
SECTION
2
OBJECTS
0
DICTIONARY
5
C
100
AcDbDictionary
3
ACAD_GROUP
350
D
3
ACAD_MLINESTYLE
350
17
0
DICTIONARY
5
D
100
AcDbDictionary
0
DICTIONARY
5
1A
330
C
100
AcDbDictionary
0
DICTIONARY
5
17
100
AcDbDictionary
0
ENDSEC
0
EOF
