0
SECTION
2
HEADER
9
$INSUNITS
70
4
9
$ACADVER
1
AC1014
9
$HANDSEED
5
FFFF
0
ENDSEC
0
SECTION
2
TABLES
0
TABLE
2
VPORT
5
8
100
AcDbSymbolTable
0
ENDTAB
0
TABLE
2
LTYPE
5
5
100
AcDbSymbolTable
0
LTYPE
5
14
100
AcDbSymbolTableRecord
100
AcDbLinetypeTableRecord
2
BYBLOCK
70
0
0
LTYPE
5
15
100
AcDbSymbolTableRecord
100
AcDbLinetypeTableRecord
2
BYLAYER
70
0
0
LTYPE
5
16
100
AcDbSymbolTableRecord
100
AcDbLinetypeTableRecord
2
DASHED
70
0
3
Dashed __ __ __ __ __ __ __ __ __ __ __ __ __ _
72
65
73
2
40
0.75
49
0.5
74
0
49
-0.25
74
0
0
ENDTAB
0
TABLE
2
LAYER
5
2
100
AcDbSymbolTable
70
3
0
LAYER
5
50
100
AcDbSymbolTableRecord
100
AcDbLayerTableRecord
2
1
70
0
62
7
6
DASHED
0
LAYER
5
51
100
AcDbSymbolTableRecord
100
AcDbLayerTableRecord
2
0
70
0
62
7
6
CONTINUOUS
0
ENDTAB
0
TABLE
2
STYLE
5
3
100
AcDbSymbolTable
70
1
0
STYLE
5
11
100
AcDbSymbolTableRecord
100
AcDbTextStyleTableRecord
2
STANDARD
70
0
0
ENDTAB
0
TABLE
2
VIEW
5
6
100
AcDbSymbolTable
70
0
0
ENDTAB
0
TABLE
2
UCS
5
7
100
AcDbSymbolTable
70
0
0
ENDTAB
0
TABLE
2
APPID
5
9
100
AcDbSymbolTable
70
2
0
APPID
5
12
100
AcDbSymbolTableRecord
100
AcDbRegAppTableRecord
2
ACAD
70
0
0
ENDTAB
0
TABLE
2
DIMSTYLE
5
A
100
AcDbSymbolTable
70
1
0
ENDTAB
0
TABLE
2
BLOCK_RECORD
5
1
100
AcDbSymbolTable
70
1
0
BLOCK_RECORD
5
1F
100
AcDbSymbolTableRecord
100
AcDbBlockTableRecord
2
*MODEL_SPACE
0
BLOCK_RECORD
5
1B
100
AcDbSymbolTableRecord
100
AcDbBlockTableRecord
2
*PAPER_SPACE
0
ENDTAB
0
ENDSEC
0
SECTION
2
BLOCKS
0
BLOCK
5
20
100
AcDbEntity
100
AcDbBlockBegin
2
*MODEL_SPACE
0
ENDBLK
5
21
100
AcDbEntity
100
AcDbBlockEnd
0
BLOCK
5
1C
100
AcDbEntity
100
AcDbBlockBegin
2
*PAPER_SPACE
0
ENDBLK
5
1D
100
AcDbEntity
100
AcDbBlockEnd
0
ENDSEC
0
SECTION
2
ENTITIES
0
LWPOLYLINE
5
100
100
AcDbEntity
8
OUTER_PROFILES
100
AcDbPolyline
90
64
70
1
43
0.0
10
-5.1032286421365214
20
139.9225355195274
10
-5.1032286421365036
20
141.22010687739092
42
0.41421356237309598
10
-6.1032286421365036
20
142.22010687739092
10
-19.339701148645645
20
142.22010687739089
42
0.41421356237310025
10
-20.339701148645645
20
141.22010687739089
10
-20.339701148645645
20
20.339701148645641
42
0.41421356237309503
10
-19.339701148645645
20
19.339701148645641
10
-6.1032286421365001
20
19.339701148645624
42
0.41421356237309503
10
-5.1032286421365001
20
20.339701148645624
10
-5.1032286421364859
20
21.637272506509131
10
1.2975713578635251
20
21.637272506509131
10
1.2975713578635251
20
15.236472506509138
10
3.5588369127962377e-14
20
15.236472506509141
42
0.41421356237309503
10
-0.99999999999996436
20
14.236472506509141
10
-0.99999999999996469
20
0.99999999999999645
42
0.41421356237308471
10
2.081668171172208e-16
20
-3.7470027081099033e-15
10
330.43140312874533
20
-1.7763568394002505e-14
42
0.41421356237309614
10
331.43140312874539
20
1
10
331.43140312874539
20
14.236472506509141
42
0.41421356237309503
10
330.43140312874533
20
15.236472506509141
10
329.1338317708819
20
15.236472506509138
10
329.1338317708819
20
21.637272506509149
10
335.5346317708819
20
21.637272506509149
10
335.5346317708819
20
20.339701148645659
42
0.41421356237307422
10
336.53463177088184
20
19.339701148645659
10
349.77110427739103
20
19.339701148645645
42
0.41421356237310153
10
350.77110427739109
20
20.33970114864568
10
350.77110427739109
20
141.22010687739086
42
0.41421356237310025
10
349.77110427739103
20
142.22010687739089
10
336.5346317708819
20
142.22010687739089
42
0.41421356237310025
10
335.5346317708819
20
141.22010687739086
10
335.5346317708819
20
139.9225355195274
10
329.13383177088184
20
139.9225355195274
10
329.13383177088184
20
146.3233355195274
10
330.43140312874533
20
146.32333551952738
42
0.41421356237310025
10
331.43140312874539
20
147.3233355195274
10
331.43140312874544
20
160.55980802603656
42
0.41421356237307422
10
330.4314031287455
20
161.55980802603659
10
205.46545717174592
20
161.55980802603659
42
0.41421356237309503
10
204.4654571717459
20
160.55980802603656
10
204.4654571717459
20
139.20446301301828
42
-0.99999999999999989
10
203.8558571717459
20
139.20446301301826
10
203.85585717174587
20
141.78586301301826
42
0.41421356237309503
10
202.85585717174587
20
142.78586301301826
10
184.29479687235161
20
142.78586301301826
42
-0.6624543303663728
10
183.57655664006109
20
144.48165821903743
10
200.73374397551851
20
162.19230369441499
10
202.4576942717336
20
163.93621013251607
10
213.92046088019256
20
175.39897674097477
42
0.41421356237309503
10
213.92046088019265
20
176.81319030334788
10
188.72235987388808
20
202.01129130965282
42
0.41421356237309503
10
187.308146311515
20
202.01129130965282
10
128.37561123369372
20
143.0787562318317
42
0.19891236737965801
10
128.08271801488027
20
142.37164945064515
10
128.0827180148803
20
139.20446301301828
42
-0.99999999999999989
10
127.4731180148803
20
139.20446301301828
10
127.47311801488024
20
160.55980802603656
42
0.41421356237310025
10
126.47311801488021
20
161.55980802603662
10
6.123233995736766e-17
20
161.55980802603662
42
0.41421356237309503
10
-1
20
160.55980802603659
10
-0.99999999999999645
20
147.32333551952743
42
0.41421356237309481
10
-7.6327832942978437e-16
20
146.32333551952743
10
1.2975713578635251
20
146.32333551952743
10
1.2975713578635251
20
139.9225355195274
0
LWPOLYLINE
5
101
100
AcDbEntity
8
INTERIOR_PROFILES
100
AcDbPolyline
90
20
70
1
43
0.0
10
282.69615926437268
20
54.787063013018269
42
-0.41421356237309503
10
281.69615926437268
20
53.787063013018269
10
236.07115926437271
20
53.787063013018269
42
0.41421356237307422
10
235.07115926437268
20
52.787063013018276
10
235.07115926437265
20
35.737123013018262
42
-0.41421356237309503
10
234.07115926437262
20
34.737123013018262
10
11.434243864372675
20
34.737123013018262
42
-0.41421356237309503
10
10.434243864372675
20
35.737123013018262
10
10.434243864372661
20
129.78586301301829
42
-0.41421356237309503
10
11.434243864372675
20
130.78586301301829
10
318.99715926437267
20
130.78586301301829
42
-0.41421356237309503
10
319.99715926437267
20
129.78586301301826
10
319.99715926437267
20
92.887163013018252
42
-0.41421356237309503
10
318.99715926437267
20
91.887163013018252
10
302.74615926437269
20
91.887163013018267
42
0.41421356237310542
10
301.74615926437269
20
90.887163013018281
10
301.74615926437269
20
73.837163013018269
42
-0.41421356237309503
10
300.74615926437269
20
72.837163013018269
10
283.69615926437268
20
72.837163013018269
42
0.41421356237310802
10
282.69615926437268
20
71.837163013018269
0
LWPOLYLINE
5
102
100
AcDbEntity
8
INTERIOR_PROFILES
100
AcDbPolyline
90
8
70
1
43
0.0
10
238.2336592643727
20
31.773945013018281
10
238.2336592643727
20
49.624628013018267
42
-0.41421356237309503
10
239.2336592643727
20
50.624628013018267
10
315.03365926437266
20
50.624628013018281
42
-0.41421356237309503
10
316.03365926437272
20
49.624628013018267
10
316.03365926437272
20
31.773945013018281
42
-0.41421356237310025
10
315.03365926437266
20
30.773945013018263
10
239.2336592643727
20
30.773945013018267
42
-0.41421356237310025
0
LWPOLYLINE
5
103
100
AcDbEntity
8
INTERIOR_PROFILES
100
AcDbPolyline
90
8
70
1
43
0.0
10
189.1606637311487
20
187.09172341640573
42
0.41421356237309503
10
189.1606637311487
20
184.26329629165957
10
196.23173154301409
20
177.19222847979404
42
0.41421356237310247
10
199.06015866776033
20
177.19222847979404
10
202.59569257369307
20
180.72776238572675
42
0.41421356237309137
10
202.59569257369307
20
183.5561895104729
10
195.52462476182765
20
190.62725732233847
42
0.41421356237309503
10
192.69619763708147
20
190.62725732233847
0
CIRCLE
5
104
100
AcDbEntity
8
INTERIOR_PROFILES
100
AcDbCircle
10
-220.46545717174592
20
152.95450802603557
30
0
40
2.0499999999999829
210
0
220
0
230
-1
0
CIRCLE
5
105
100
AcDbEntity
8
INTERIOR_PROFILES
100
AcDbCircle
10
-210.46545717174592
20
152.95450802603557
30
0
40
2.0499999999999829
210
0
220
0
230
-1
0
CIRCLE
5
106
100
AcDbEntity
8
INTERIOR_PROFILES
100
AcDbCircle
10
-341.61030427738319
20
120.22010687739089
30
0
40
2.0500000000000007
210
0
220
0
230
-1
0
CIRCLE
5
107
100
AcDbEntity
8
INTERIOR_PROFILES
100
AcDbCircle
10
-341.61030427738319
20
41.339701148645659
30
0
40
2.0500000000000007
210
0
220
0
230
-1
0
CIRCLE
5
108
100
AcDbEntity
8
INTERIOR_PROFILES
100
AcDbCircle
10
11.17890114864565
20
120.22010687739092
30
0
40
2.0500000000000007
210
0
220
0
230
-1
0
CIRCLE
5
109
100
AcDbEntity
8
INTERIOR_PROFILES
100
AcDbCircle
10
11.17890114864565
20
41.339701148645617
30
0
40
2.0500000000000007
210
0
220
0
230
-1
0
LINE
5
110
100
AcDbEntity
8
BEND
100
AcDbLine
10
329.13383177088184
20
143.1229355195274
30
9.9920072216264089e-14
11
204.4654571717459
21
143.1229355195274
31
9.7699626167013776e-14
0
LINE
5
111
100
AcDbEntity
8
BEND
100
AcDbLine
10
201.59571912362608
20
163.0642569134655
30
1.1251381977398461e-13
11
174.97841551947701
21
189.68156051761497
31
2.0362218648802875e-13
0
LINE
5
112
100
AcDbEntity
8
BEND
100
AcDbLine
10
332.33423177088184
20
21.637272506509131
30
1.2101430968414206e-13
11
332.33423177088184
21
139.9225355195274
31
1.4321877017664519e-13
0
LINE
5
113
100
AcDbEntity
8
BEND
100
AcDbLine
10
-1.9028286421364626
20
139.9225355195274
30
8.4252804681449611e-14
11
-1.9028286421364626
21
21.637272506509131
31
8.4223539305418386e-14
0
LINE
5
114
100
AcDbEntity
8
BEND
100
AcDbLine
10
1.2975713578635251
20
18.436872506509143
30
8.3142581656824266e-14
11
329.1338317708819
21
18.436872506509143
31
8.3113316280793078e-14
0
LINE
5
115
100
AcDbEntity
8
BEND
100
AcDbLine
10
127.47311801488024
20
143.12293551952746
30
9.6589403142388619e-14
11
1.2975713578635251
21
143.12293551952746
31
1.0769163338864018e-13
0
LINE
5
116
100
AcDbEntity
8
BEND_EXTENT
100
AcDbLine
10
-3.1289011486456175
20
21.637272506509131
30
7.9936057773011271e-14
11
-3.1289011486456175
21
139.9225355195274
31
7.9936057773011271e-14
0
LINE
5
117
100
AcDbEntity
8
BEND_EXTENT
100
AcDbLine
10
329.1338317708819
20
17.210800000000006
30
7.7715611723760958e-14
11
1.2975713578634895
21
17.210799999999988
31
7.7715611723760958e-14
0
LINE
5
118
100
AcDbEntity
8
BEND_EXTENT
100
AcDbLine
10
333.56030427739108
20
139.9225355195274
30
1.5987211554602254e-13
11
333.56030427739108
21
21.637272506509131
31
1.5987211554602254e-13
0
LINE
5
119
100
AcDbEntity
8
BEND_EXTENT
100
AcDbLine
10
204.4654571717459
20
144.34900802603659
30
1.0658141036401503e-13
11
329.13383177088184
21
144.34900802603659
31
1.0658141036401503e-13
0
LINE
5
120
100
AcDbEntity
8
BEND_EXTENT
100
AcDbLine
10
329.13383177088184
20
141.89686301301828
30
8.8817841970012523e-14
11
204.4654571717459
21
141.89686301301828
31
8.8817841970012523e-14
0
LINE
5
121
100
AcDbEntity
8
BEND_EXTENT
100
AcDbLine
10
331.10815926437272
20
21.637272506509131
30
8.8817841970012523e-14
11
331.10815926437272
21
139.9225355195274
31
8.8817841970012523e-14
0
LINE
5
122
100
AcDbEntity
8
BEND_EXTENT
100
AcDbLine
10
1.2975713578635251
20
144.34900802603661
30
1.0658141036401503e-13
11
127.47311801488024
21
144.34900802603661
31
1.0658141036401503e-13
0
LINE
5
123
100
AcDbEntity
8
BEND_EXTENT
100
AcDbLine
10
127.47311801488031
20
141.89686301301828
30
8.8817841970012523e-14
11
1.2975713578635251
21
141.89686301301828
31
8.8817841970012523e-14
0
LINE
5
124
100
AcDbEntity
8
BEND_EXTENT
100
AcDbLine
10
-0.67675613562734327
20
139.9225355195274
30
8.8817841970012523e-14
11
-0.67675613562734327
21
21.637272506509131
31
8.8817841970012523e-14
0
LINE
5
125
100
AcDbEntity
8
BEND_EXTENT
100
AcDbLine
10
1.2975713578635251
20
19.662945013018263
30
8.8817841970012523e-14
11
329.1338317708819
21
19.662945013018263
31
8.8817841970012523e-14
0
LINE
5
126
100
AcDbEntity
8
BEND_EXTENT
100
AcDbLine
10
175.84537970305604
20
190.548524701194
30
1.9539925233402755e-13
11
202.4576942717336
21
163.93621013251607
31
8.8817841970012523e-14
0
LINE
5
127
100
AcDbEntity
8
BEND_EXTENT
100
AcDbLine
10
200.73374397551851
20
162.19230369441499
30
8.8817841970012523e-14
11
174.11145133589795
21
188.81459633403594
31
8.8817841970012523e-14
0
ENDSEC
0
SECTION
2
OBJECTS
0
DICTIONARY
5
C
100
AcDbDictionary
3
ACAD_GROUP
350
D
3
ACAD_MLINESTYLE
350
17
0
DICTIONARY
5
D
100
AcDbDictionary
0
DICTIONARY
5
1A
330
C
100
AcDbDictionary
0
DICTIONARY
5
17
100
AcDbDictionary
0
ENDSEC
0
EOF
