0
SECTION
2
HEADER
9
$INSUNITS
70
4
9
$ACADVER
1
AC1014
9
$HANDSEED
5
FFFF
0
ENDSEC
0
SECTION
2
TABLES
0
TABLE
2
VPORT
5
8
100
AcDbSymbolTable
0
ENDTAB
0
TABLE
2
LTYPE
5
5
100
AcDbSymbolTable
0
LTYPE
5
14
100
AcDbSymbolTableRecord
100
AcDbLinetypeTableRecord
2
BYBLOCK
70
0
0
LTYPE
5
15
100
AcDbSymbolTableRecord
100
AcDbLinetypeTableRecord
2
BYLAYER
70
0
0
LTYPE
5
16
100
AcDbSymbolTableRecord
100
AcDbLinetypeTableRecord
2
DASHED
70
0
3
Dashed __ __ __ __ __ __ __ __ __ __ __ __ __ _
72
65
73
2
40
0.75
49
0.5
74
0
49
-0.25
74
0
0
ENDTAB
0
TABLE
2
LAYER
5
2
100
AcDbSymbolTable
70
3
0
LAYER
5
50
100
AcDbSymbolTableRecord
100
AcDbLayerTableRecord
2
1
70
0
62
7
6
DASHED
0
LAYER
5
51
100
AcDbSymbolTableRecord
100
AcDbLayerTableRecord
2
0
70
0
62
7
6
CONTINUOUS
0
ENDTAB
0
TABLE
2
STYLE
5
3
100
AcDbSymbolTable
70
1
0
STYLE
5
11
100
AcDbSymbolTableRecord
100
AcDbTextStyleTableRecord
2
STANDARD
70
0
0
ENDTAB
0
TABLE
2
VIEW
5
6
100
AcDbSymbolTable
70
0
0
ENDTAB
0
TABLE
2
UCS
5
7
100
AcDbSymbolTable
70
0
0
ENDTAB
0
TABLE
2
APPID
5
9
100
AcDbSymbolTable
70
2
0
APPID
5
12
100
AcDbSymbolTableRecord
100
AcDbRegAppTableRecord
2
ACAD
70
0
0
ENDTAB
0
TABLE
2
DIMSTYLE
5
A
100
AcDbSymbolTable
70
1
0
ENDTAB
0
TABLE
2
BLOCK_RECORD
5
1
100
AcDbSymbolTable
70
1
0
BLOCK_RECORD
5
1F
100
AcDbSymbolTableRecord
100
AcDbBlockTableRecord
2
*MODEL_SPACE
0
BLOCK_RECORD
5
1B
100
AcDbSymbolTableRecord
100
AcDbBlockTableRecord
2
*PAPER_SPACE
0
ENDTAB
0
ENDSEC
0
SECTION
2
BLOCKS
0
BLOCK
5
20
100
AcDbEntity
100
AcDbBlockBegin
2
*MODEL_SPACE
0
ENDBLK
5
21
100
AcDbEntity
100
AcDbBlockEnd
0
BLOCK
5
1C
100
AcDbEntity
100
AcDbBlockBegin
2
*PAPER_SPACE
0
ENDBLK
5
1D
100
AcDbEntity
100
AcDbBlockEnd
0
ENDSEC
0
SECTION
2
ENTITIES
0
LWPOLYLINE
5
100
100
AcDbEntity
8
0
100
AcDbPolyline
90
36
70
1
43
0.0
10
6.3107999999999986
20
6.8000000000000247
42
0.41421356237309309
10
4.3108000000000137
20
8.8000000000000256
10
-313.87371539999992
20
8.8000000000000167
42
0.4142135623730972
10
-315.87371539999987
20
6.8000000000000149
10
-315.87371539999987
20
-18.811917999999874
10
-315.18131539999973
20
-18.811917999999874
42
-0.99999999999999989
10
-315.18131539999968
20
-19.421517999999871
10
-315.87371400053593
20
-19.4215187997732
42
-0.25261606736392889
10
-317.486536550957
20
-20.425342203373731
42
0.39621197775955663
10
-319.36291539999968
20
-22.421517999999871
10
-319.36291539999968
20
-76.81929687030788
42
0.39653016554925813
10
-317.48434080378422
20
-78.815607435153879
42
-0.2517359950845855
10
-315.87371539999987
20
-79.811917999999878
10
-315.18131539999968
20
-79.811917999999878
42
-0.99999999999999989
10
-315.18131539999973
20
-80.421517999999878
10
-315.87371539999987
20
-80.421517999999878
10
-315.87371539999987
20
-106.81191799999991
42
0.41421356237309503
10
-313.87371539999987
20
-108.81191799999989
10
-121.0076350129778
20
-108.81191799999989
10
-121.10901494851953
20
-108.71053806445813
42
-0.9999999925494194
10
-120.67796265149668
20
-108.27948577385838
10
-120.14553042535518
20
-108.81191799999989
10
4.3107999999999969
20
-108.81191799999989
42
0.41421356237309537
10
6.3107999999999915
20
-106.81191799999991
10
6.3107999999999986
20
-80.421517999999878
10
5.6184000000000029
20
-80.421517999999878
42
-0.99999999999999989
10
5.6184000000000029
20
-79.811917999999878
10
6.3107999999999951
20
-79.811917999999878
42
-0.2517359950845971
10
7.9214254037844327
20
-78.815607435153879
42
0.39653016554926296
10
9.7999999999999936
20
-76.819296870307866
10
9.7999999999999972
20
-22.421517999999871
42
0.39621197775957834
10
7.9236211509571746
20
-20.425342203373731
42
-0.25261606736393716
10
6.3107986005360681
20
-19.42151879977321
10
5.6183999999999967
20
-19.421517999999871
42
-0.99999999999999989
10
5.6183999999999941
20
-18.811917999999874
10
6.3107999999999986
20
-18.811917999999874
0
CIRCLE
5
101
100
AcDbEntity
8
0
100
AcDbCircle
10
4
20
-75.011918000000009
30
0
40
2.6000000000000001
210
0
220
0
230
1
0
CIRCLE
5
102
100
AcDbEntity
8
0
100
AcDbCircle
10
-224.56291540000001
20
-104.01191800000001
30
0
40
2.5999999999999801
210
0
220
0
230
1
0
CIRCLE
5
103
100
AcDbEntity
8
0
100
AcDbCircle
10
-155.59891539999998
20
4
30
0
40
2.5999999999999979
210
0
220
0
230
1
0
CIRCLE
5
104
100
AcDbEntity
8
0
100
AcDbCircle
10
-254.56291540000001
20
4
30
0
40
2.6000000000000156
210
0
220
0
230
1
0
CIRCLE
5
105
100
AcDbEntity
8
0
100
AcDbCircle
10
4
20
-29.762438000000007
30
0
40
2.6000000000000014
210
0
220
0
230
1
0
CIRCLE
5
106
100
AcDbEntity
8
0
100
AcDbCircle
10
-313.56291540000001
20
-25
30
0
40
2.6000000000000156
210
0
220
0
230
1
0
CIRCLE
5
107
100
AcDbEntity
8
0
100
AcDbCircle
10
-45
20
4
30
0
40
2.5999999999999979
210
0
220
0
230
1
0
CIRCLE
5
108
100
AcDbEntity
8
0
100
AcDbCircle
10
-85
20
-104.01191800000001
30
0
40
2.5999999999999979
210
0
220
0
230
1
0
CIRCLE
5
109
100
AcDbEntity
8
0
100
AcDbCircle
10
-313.56291540000001
20
-75.011918000000009
30
0
40
2.5999999999999801
210
0
220
0
230
1
0
ENDSEC
0
SECTION
2
OBJECTS
0
DICTIONARY
5
C
100
AcDbDictionary
3
ACAD_GROUP
350
D
3
ACAD_MLINESTYLE
350
17
0
DICTIONARY
5
D
100
AcDbDictionary
0
DICTIONARY
5
1A
330
C
100
AcDbDictionary
0
DICTIONARY
5
17
100
AcDbDictionary
0
ENDSEC
0
EOF
