0
SECTION
2
HEADER
9
$INSUNITS
70
4
9
$ACADVER
1
AC1014
9
$HANDSEED
5
FFFF
0
ENDSEC
0
SECTION
2
TABLES
0
TABLE
2
VPORT
5
8
100
AcDbSymbolTable
0
ENDTAB
0
TABLE
2
LTYPE
5
5
100
AcDbSymbolTable
0
LTYPE
5
14
100
AcDbSymbolTableRecord
100
AcDbLinetypeTableRecord
2
BYBLOCK
70
0
0
LTYPE
5
15
100
AcDbSymbolTableRecord
100
AcDbLinetypeTableRecord
2
BYLAYER
70
0
0
LTYPE
5
16
100
AcDbSymbolTableRecord
100
AcDbLinetypeTableRecord
2
DASHED
70
0
3
Dashed __ __ __ __ __ __ __ __ __ __ __ __ __ _
72
65
73
2
40
0.75
49
0.5
74
0
49
-0.25
74
0
0
ENDTAB
0
TABLE
2
LAYER
5
2
100
AcDbSymbolTable
70
3
0
LAYER
5
50
100
AcDbSymbolTableRecord
100
AcDbLayerTableRecord
2
1
70
0
62
7
6
DASHED
0
LAYER
5
51
100
AcDbSymbolTableRecord
100
AcDbLayerTableRecord
2
0
70
0
62
7
6
CONTINUOUS
0
ENDTAB
0
TABLE
2
STYLE
5
3
100
AcDbSymbolTable
70
1
0
STYLE
5
11
100
AcDbSymbolTableRecord
100
AcDbTextStyleTableRecord
2
STANDARD
70
0
0
ENDTAB
0
TABLE
2
VIEW
5
6
100
AcDbSymbolTable
70
0
0
ENDTAB
0
TABLE
2
UCS
5
7
100
AcDbSymbolTable
70
0
0
ENDTAB
0
TABLE
2
APPID
5
9
100
AcDbSymbolTable
70
2
0
APPID
5
12
100
AcDbSymbolTableRecord
100
AcDbRegAppTableRecord
2
ACAD
70
0
0
ENDTAB
0
TABLE
2
DIMSTYLE
5
A
100
AcDbSymbolTable
70
1
0
ENDTAB
0
TABLE
2
BLOCK_RECORD
5
1
100
AcDbSymbolTable
70
1
0
BLOCK_RECORD
5
1F
100
AcDbSymbolTableRecord
100
AcDbBlockTableRecord
2
*MODEL_SPACE
0
BLOCK_RECORD
5
1B
100
AcDbSymbolTableRecord
100
AcDbBlockTableRecord
2
*PAPER_SPACE
0
ENDTAB
0
ENDSEC
0
SECTION
2
BLOCKS
0
BLOCK
5
20
100
AcDbEntity
100
AcDbBlockBegin
2
*MODEL_SPACE
0
ENDBLK
5
21
100
AcDbEntity
100
AcDbBlockEnd
0
BLOCK
5
1C
100
AcDbEntity
100
AcDbBlockBegin
2
*PAPER_SPACE
0
ENDBLK
5
1D
100
AcDbEntity
100
AcDbBlockEnd
0
ENDSEC
0
SECTION
2
ENTITIES
0
LWPOLYLINE
5
100
100
AcDbEntity
8
OUTER_PROFILES
100
AcDbPolyline
90
52
70
1
43
0.0
10
-21.458394674436008
20
189.63551363009717
10
-21.458394674436015
20
31.759058109280538
42
0.41421356237309537
10
-19.458394674436011
20
29.759058109280538
10
-6.8783946744360236
20
29.759058109280538
10
-6.8783946744360236
20
30.201326869688849
10
-3.5577312395916039
20
30.201326869688849
10
-3.5577312395916039
20
26.880663434844429
10
-3.9999999999999147
20
26.880663434844429
10
-3.9999999999999147
20
13.810663434844415
10
-3.4999999999999076
20
13.810663434844415
10
-3.5000000000000142
20
10.490000000000004
10
-4.0000000000000213
20
10.490000000000004
10
-4.0000000000000364
20
3.9999999999999996
42
0.41421356237309737
10
5.5511151231257827e-16
20
2.7755575615628914e-15
10
319.42745292081673
20
1.7763568394002505e-14
42
0.41421356237309503
10
323.42745292081673
20
4.0000000000000036
10
323.42745292081673
20
10.490000000000004
10
322.92745292081679
20
10.490000000000004
10
322.92745292081679
20
13.810663434844415
10
323.42745292081673
20
13.810663434844415
10
323.42745292081668
20
26.880663434844429
10
322.98518416040844
20
26.880663434844429
10
322.98518416040844
20
30.201326869688828
10
326.30584759525283
20
30.201326869688849
10
326.30584759525283
20
29.759058109280396
10
338.88584759525281
20
29.75905810928051
42
0.4142135623730937
10
340.88584759525281
20
31.759058109280531
10
340.88584759525276
20
189.63551363009717
42
0.41421356237309503
10
338.88584759525281
20
191.63551363009717
10
326.30584759525283
20
191.63551363009708
10
326.30584759525283
20
191.19324486968884
10
322.98518416040844
20
191.19324486968884
10
322.98518416040849
20
194.51390830453329
10
323.42745292081673
20
194.51390830453329
10
323.42745292081673
20
207.58390830453325
10
322.92745292081668
20
207.58390830453325
10
322.92745292081679
20
210.90457173937764
10
323.42745292081673
20
210.90457173937764
10
323.42745292081673
20
265.39457173937768
42
0.41421356237309503
10
319.42745292081679
20
269.39457173937768
10
3.577206614783448e-14
20
269.39457173937768
42
0.41421356237309243
10
-3.9999999999999645
20
265.39457173937774
10
-3.9999999999999858
20
210.90457173937764
10
-3.4999999999999787
20
210.90457173937764
10
-3.4999999999999432
20
207.58390830453325
10
-3.9999999999999503
20
207.58390830453325
10
-4.000000000000199
20
194.51390830453329
10
-3.5577312395916039
20
194.51390830453329
10
-3.5577312395916039
20
191.19324486968884
10
-6.8783946744360236
20
191.19324486968884
10
-6.8783946744360236
20
191.63551363009725
10
-19.458394674436015
20
191.63551363009717
42
0.41421356237309503
0
CIRCLE
5
101
100
AcDbEntity
8
INTERIOR_PROFILES
100
AcDbCircle
10
-6.0000000000000497
20
218.90457173937767
30
0
40
2.3999999999999999
210
0
220
0
230
-1
0
CIRCLE
5
102
100
AcDbEntity
8
INTERIOR_PROFILES
100
AcDbCircle
10
-313.42745292081679
20
218.90457173937767
30
0
40
2.3999999999999844
210
0
220
0
230
-1
0
CIRCLE
5
103
100
AcDbEntity
8
INTERIOR_PROFILES
100
AcDbCircle
10
-160.53118416040837
20
6.0000000000000231
30
0
40
1.4000000000000057
210
0
220
0
230
-1
0
CIRCLE
5
104
100
AcDbEntity
8
INTERIOR_PROFILES
100
AcDbCircle
10
-49.932268760408398
20
6.0000000000000231
30
0
40
1.3999999999999968
210
0
220
0
230
-1
0
CIRCLE
5
105
100
AcDbEntity
8
INTERIOR_PROFILES
100
AcDbCircle
10
-229.49518416040843
20
259.39457173937762
30
0
40
1.4000000000000057
210
0
220
0
230
-1
0
CIRCLE
5
106
100
AcDbEntity
8
INTERIOR_PROFILES
100
AcDbCircle
10
-89.932268760408391
20
259.39457173937762
30
0
40
1.4000000000000057
210
0
220
0
230
-1
0
CIRCLE
5
107
100
AcDbEntity
8
INTERIOR_PROFILES
100
AcDbCircle
10
-259.49518416040843
20
6.0000000000000231
30
0
40
1.4000000000000057
210
0
220
0
230
-1
0
LWPOLYLINE
5
108
100
AcDbEntity
8
INTERIOR_PROFILES
100
AcDbPolyline
90
20
70
1
43
0.0
10
4.9322687604083981
20
43.854504869688846
10
4.9322687604084159
20
137.70324486968886
42
-0.41421356237309631
10
5.9322687604084168
20
138.70324486968886
10
313.49518416040843
20
138.70324486968886
42
-0.41421356237309503
10
314.49518416040843
20
137.70324486968886
10
314.49518416040837
20
101.00454486968883
42
-0.41421356237308982
10
313.49518416040843
20
100.00454486968884
10
297.04418416040846
20
100.00454486968886
42
0.41421356237308982
10
296.04418416040846
20
99.004544869688857
10
296.04418416040846
20
81.954544869688831
42
-0.41421356237308982
10
295.04418416040841
20
80.954544869688846
10
277.99418416040845
20
80.954544869688874
42
0.41421356237309243
10
276.99418416040839
20
79.95454486968886
10
276.99418416040839
20
62.904444869688859
42
-0.41421356237309503
10
275.99418416040839
20
61.904444869688859
10
230.36918416040839
20
61.904444869688867
42
0.41421356237309503
10
229.36918416040839
20
60.904444869688852
10
229.36918416040839
20
43.854504869688846
42
-0.41421356237309503
10
228.36918416040839
20
42.854504869688846
10
5.9322687604084123
20
42.854504869688832
42
-0.41421356237309503
0
LWPOLYLINE
5
109
100
AcDbEntity
8
INTERIOR_PROFILES
100
AcDbPolyline
90
8
70
1
43
0.0
10
233.93168416040845
20
58.342009869688845
42
0.41421356237309243
10
232.93168416040842
20
57.342009869688859
10
232.93168416040842
20
39.691326869688851
42
0.41421356237309503
10
233.93168416040845
20
38.691326869688851
10
309.33168416040843
20
38.691326869688851
42
0.41421356237309503
10
310.33168416040843
20
39.691326869688851
10
310.33168416040843
20
57.342009869688859
42
0.41421356237309243
10
309.33168416040843
20
58.342009869688845
0
LINE
5
110
100
AcDbEntity
8
BEND
100
AcDbLine
10
-5.2180629570138848
20
191.19324486968884
30
2.8493677553225491e-14
11
-5.2180629570138848
21
30.201326869688856
31
2.8682808214969945e-14
0
LINE
5
111
100
AcDbEntity
8
BEND
100
AcDbLine
10
322.98518416040844
20
192.85357658711106
30
4.4055220607358929e-14
11
-3.5577312395916039
21
192.85357658711106
31
3.9766617751840389e-14
0
LINE
5
112
100
AcDbEntity
8
BEND
100
AcDbLine
10
-3.5000000000000142
20
12.150331717422214
30
1.8759628046603994e-14
11
322.92745292081668
21
12.150331717422214
31
1.8759628046603994e-14
0
LINE
5
113
100
AcDbEntity
8
BEND
100
AcDbLine
10
324.64551587783063
20
30.201326869688849
30
3.219646771412954e-14
11
324.64551587783063
21
191.19324486968884
31
6.3282712403633923e-14
0
LINE
5
114
100
AcDbEntity
8
BEND
100
AcDbLine
10
322.92745292081679
20
209.24424002195542
30
-1.4025053239194673e-14
11
-3.4999999999999432
21
209.24424002195542
31
-1.4025053239194673e-14
0
LINE
5
115
100
AcDbEntity
8
BEND
100
AcDbLine
10
-3.5577312395916039
20
28.540995152266639
30
2.8493677553225547e-14
11
322.98518416040844
21
28.540995152266639
31
2.8682808214970008e-14
0
LINE
5
116
100
AcDbEntity
8
BEND_EXTENT
100
AcDbLine
10
-3.4999999999999787
20
210.90457173937764
30
-8.2156503822261584e-14
11
322.92745292081679
21
210.90457173937764
31
-8.2156503822261584e-14
0
LINE
5
117
100
AcDbEntity
8
BEND_EXTENT
100
AcDbLine
10
322.92745292081668
20
207.58390830453325
30
-5.8841820305133297e-14
11
-3.4999999999999432
21
207.58390830453325
31
-5.8841820305133297e-14
0
LINE
5
118
100
AcDbEntity
8
BEND_EXTENT
100
AcDbLine
10
-3.4999999999999076
20
13.810663434844415
30
1.2212453270876722e-14
11
322.92745292081679
21
13.810663434844415
31
1.2212453270876722e-14
0
LINE
5
119
100
AcDbEntity
8
BEND_EXTENT
100
AcDbLine
10
322.92745292081679
20
10.490000000000004
30
1.2212453270876722e-14
11
-3.5000000000000142
21
10.490000000000004
31
1.2212453270876722e-14
0
LWPOLYLINE
5
120
100
AcDbEntity
8
BEND_EXTENT
100
AcDbPolyline
90
4
70
1
43
0.0
10
322.98518416040844
20
191.19324486968884
10
-3.5577312395916039
20
191.19324486968884
10
-3.5577312395916039
20
30.201326869688856
10
322.98518416040844
20
30.201326869688828
0
LINE
5
121
100
AcDbEntity
8
BEND_EXTENT
100
AcDbLine
10
-3.5577312395916039
20
194.51390830453329
30
6.5503158452884236e-14
11
322.98518416040849
21
194.51390830453329
31
6.5503158452884236e-14
0
LINE
5
122
100
AcDbEntity
8
BEND_EXTENT
100
AcDbLine
10
322.98518416040844
20
26.880663434844429
30
2.7755575615628914e-14
11
-3.5577312395916039
21
26.880663434844429
31
2.7755575615628914e-14
0
LINE
5
123
100
AcDbEntity
8
BEND_EXTENT
100
AcDbLine
10
326.30584759525283
20
191.19324486968884
30
1.0103029524088925e-13
11
326.30584759525283
21
30.201326869688856
31
1.0103029524088925e-13
0
LINE
5
124
100
AcDbEntity
8
BEND_EXTENT
100
AcDbLine
10
-6.8783946744360236
20
30.201326869688849
30
2.7755575615628914e-14
11
-6.8783946744360236
21
191.19324486968884
31
2.7755575615628914e-14
0
ENDSEC
0
SECTION
2
OBJECTS
0
DICTIONARY
5
C
100
AcDbDictionary
3
ACAD_GROUP
350
D
3
ACAD_MLINESTYLE
350
17
0
DICTIONARY
5
D
100
AcDbDictionary
0
DICTIONARY
5
1A
330
C
100
AcDbDictionary
0
DICTIONARY
5
17
100
AcDbDictionary
0
ENDSEC
0
EOF
