0
SECTION
2
HEADER
9
$INSUNITS
70
4
9
$ACADVER
1
AC1014
9
$HANDSEED
5
FFFF
0
ENDSEC
0
SECTION
2
TABLES
0
TABLE
2
VPORT
5
8
100
AcDbSymbolTable
0
ENDTAB
0
TABLE
2
LTYPE
5
5
100
AcDbSymbolTable
0
LTYPE
5
14
100
AcDbSymbolTableRecord
100
AcDbLinetypeTableRecord
2
BYBLOCK
70
0
0
LTYPE
5
15
100
AcDbSymbolTableRecord
100
AcDbLinetypeTableRecord
2
BYLAYER
70
0
0
LTYPE
5
16
100
AcDbSymbolTableRecord
100
AcDbLinetypeTableRecord
2
DASHED
70
0
3
Dashed __ __ __ __ __ __ __ __ __ __ __ __ __ _
72
65
73
2
40
0.75
49
0.5
74
0
49
-0.25
74
0
0
ENDTAB
0
TABLE
2
LAYER
5
2
100
AcDbSymbolTable
70
3
0
LAYER
5
50
100
AcDbSymbolTableRecord
100
AcDbLayerTableRecord
2
1
70
0
62
7
6
DASHED
0
LAYER
5
51
100
AcDbSymbolTableRecord
100
AcDbLayerTableRecord
2
0
70
0
62
7
6
CONTINUOUS
0
ENDTAB
0
TABLE
2
STYLE
5
3
100
AcDbSymbolTable
70
1
0
STYLE
5
11
100
AcDbSymbolTableRecord
100
AcDbTextStyleTableRecord
2
STANDARD
70
0
0
ENDTAB
0
TABLE
2
VIEW
5
6
100
AcDbSymbolTable
70
0
0
ENDTAB
0
TABLE
2
UCS
5
7
100
AcDbSymbolTable
70
0
0
ENDTAB
0
TABLE
2
APPID
5
9
100
AcDbSymbolTable
70
2
0
APPID
5
12
100
AcDbSymbolTableRecord
100
AcDbRegAppTableRecord
2
ACAD
70
0
0
ENDTAB
0
TABLE
2
DIMSTYLE
5
A
100
AcDbSymbolTable
70
1
0
ENDTAB
0
TABLE
2
BLOCK_RECORD
5
1
100
AcDbSymbolTable
70
1
0
BLOCK_RECORD
5
1F
100
AcDbSymbolTableRecord
100
AcDbBlockTableRecord
2
*MODEL_SPACE
0
BLOCK_RECORD
5
1B
100
AcDbSymbolTableRecord
100
AcDbBlockTableRecord
2
*PAPER_SPACE
0
ENDTAB
0
ENDSEC
0
SECTION
2
BLOCKS
0
BLOCK
5
20
100
AcDbEntity
100
AcDbBlockBegin
2
*MODEL_SPACE
0
ENDBLK
5
21
100
AcDbEntity
100
AcDbBlockEnd
0
BLOCK
5
1C
100
AcDbEntity
100
AcDbBlockBegin
2
*PAPER_SPACE
0
ENDBLK
5
1D
100
AcDbEntity
100
AcDbBlockEnd
0
ENDSEC
0
SECTION
2
ENTITIES
0
LWPOLYLINE
5
100
100
AcDbEntity
8
OUTER_PROFILES
100
AcDbPolyline
90
44
70
1
43
0.0
10
331.09604015103673
20
19.064117163149163
42
-0.41421356237308332
10
330.09604015103673
20
20.064117163149191
10
330.09604015103673
20
20.542013971395381
10
326.43844015103684
20
20.542013971395381
10
326.43844015103684
20
16.884413971395336
10
326.91633695928306
20
16.88441397139534
42
-0.41421356237307422
10
327.91633695928294
20
15.884413971395336
10
327.91633695928294
20
1.0000000000000222
42
-0.41421356237308055
10
326.91633695928306
20
8.3266726846886741e-16
10
2.7755575615628909e-16
20
-3.4694469519536142e-15
42
-0.41421356237309515
10
-1.0000000000000142
20
0.99999999999999645
10
-1.0000000000000002
20
15.884413971395336
42
-0.41421356237309503
10
0
20
16.88441397139534
10
0.47789680824614322
20
16.884413971395336
10
0.47789680824614322
20
20.542013971395342
10
-3.1797031917538732
20
20.542013971395342
10
-3.1797031917538519
20
20.064117163149142
42
-0.4142135623730937
10
-4.1797031917538519
20
19.064117163149142
10
-19.06411716314917
20
19.064117163149149
42
-0.41421356237309503
10
-20.064117163149184
20
20.064117163149149
10
-20.06411716314917
20
189.42945672243218
42
-0.41421356237309503
10
-19.06411716314917
20
190.42945672243218
10
-4.1797031917538465
20
190.42945672243221
42
-0.41421356237309342
10
-3.1797031917538732
20
189.42945672243218
10
-3.1797031917538732
20
188.95155991418602
10
0.47789680824614322
20
188.95155991418596
10
0.47789680824614322
20
192.60915991418599
10
-3.7053693446864574e-14
20
192.60915991418599
42
-0.41421356237309459
10
-1.0000000000000355
20
193.60915991418602
10
-1.0000000000000355
20
208.4935738855813
42
-0.41421356237310542
10
0
20
209.49357388558133
10
326.91633695928311
20
209.4935738855813
42
-0.41421356237307422
10
327.91633695928294
20
208.4935738855813
10
327.91633695928306
20
193.60915991418597
42
-0.4142135623730846
10
326.91633695928306
20
192.60915991418599
10
326.43844015103684
20
192.60915991418599
10
326.43844015103684
20
188.95155991418596
10
330.09604015103673
20
188.95155991418596
10
330.09604015103673
20
189.42945672243218
42
-0.41421356237311585
10
331.09604015103685
20
190.42945672243221
10
345.98045412243215
20
190.42945672243221
42
-0.41421356237311585
10
346.98045412243221
20
189.42945672243218
10
346.98045412243226
20
20.064117163149184
42
-0.41421356237308071
10
345.98045412243232
20
19.064117163149163
0
LWPOLYLINE
5
101
100
AcDbEntity
8
INTERIOR_PROFILES
100
AcDbPolyline
90
20
70
1
43
0.0
10
233.31362617964149
20
54.753945942790665
42
-0.41421356237309503
10
234.31362617964152
20
55.753945942790665
10
279.93862617964146
20
55.753945942790679
42
0.41421356237309503
10
280.93862617964146
20
56.753945942790679
10
280.93862617964146
20
73.80404594279068
42
-0.41421356237309503
10
281.93862617964152
20
74.804045942790665
10
298.98862617964147
20
74.804045942790665
42
0.41421356237309503
10
299.98862617964153
20
75.804045942790665
10
299.98862617964153
20
92.854045942790691
42
-0.41421356237308982
10
300.98862617964153
20
93.854045942790663
10
317.2396261796415
20
93.854045942790663
42
0.41421356237309503
10
318.2396261796415
20
94.854045942790663
10
318.2396261796415
20
131.75274594279068
42
0.41421356237309503
10
317.2396261796415
20
132.75274594279068
10
9.6767107796414855
20
132.75274594279065
42
0.41421356237309631
10
8.6767107796414678
20
131.75274594279068
10
8.676710779641482
20
37.704005942790666
42
0.41421356237309631
10
9.676710779641482
20
36.704005942790666
10
232.31362617964146
20
36.704005942790666
42
0.41421356237309503
10
233.31362617964146
20
37.704005942790666
0
LWPOLYLINE
5
102
100
AcDbEntity
8
INTERIOR_PROFILES
100
AcDbPolyline
90
8
70
1
43
0.0
10
219.91761117964148
20
204.3679738855835
42
0.41421356237309503
10
218.91761117964148
20
205.36797388558352
10
180.91761117964151
20
205.36797388558352
42
0.41421356237309503
10
179.91761117964148
20
204.3679738855835
10
179.91761117964148
20
198.8679738855833
42
0.41421356237309503
10
180.91761117964151
20
197.86797388558327
10
218.91761117964148
20
197.86797388558327
42
0.41421356237309503
10
219.91761117964148
20
198.8679738855833
0
LWPOLYLINE
5
103
100
AcDbEntity
8
INTERIOR_PROFILES
100
AcDbPolyline
90
8
70
1
43
0.0
10
314.27612617964149
20
51.591510942790677
42
0.41421356237309243
10
313.27612617964149
20
52.591510942790663
10
237.47612617964151
20
52.591510942790663
42
0.41421356237309243
10
236.47612617964148
20
51.591510942790677
10
236.47612617964148
20
33.740827942790659
42
0.4142135623730937
10
237.47612617964151
20
32.740827942790666
10
313.27612617964149
20
32.740827942790666
42
0.4142135623730937
10
314.27612617964149
20
33.740827942790659
0
CIRCLE
5
104
100
AcDbEntity
8
INTERIOR_PROFILES
100
AcDbCircle
10
-48.99999999999995
20
200.35136689988224
30
0
40
2.0500000000000007
210
0
220
0
230
-1
0
CIRCLE
5
105
100
AcDbEntity
8
INTERIOR_PROFILES
100
AcDbCircle
10
-8.9999999999999858
20
9.1422069856976762
30
0
40
2.0499999999999998
210
0
220
0
230
-1
0
CIRCLE
5
106
100
AcDbEntity
8
INTERIOR_PROFILES
100
AcDbCircle
10
-317.91633695928294
20
9.1422069856976762
30
0
40
2.0499999999999829
210
0
220
0
230
-1
0
CIRCLE
5
107
100
AcDbEntity
8
INTERIOR_PROFILES
100
AcDbCircle
10
-277.916336959283
20
200.35136689988224
30
0
40
2.0499999999999829
210
0
220
0
230
-1
0
CIRCLE
5
108
100
AcDbEntity
8
INTERIOR_PROFILES
100
AcDbCircle
10
10.921910177451508
20
140.42945672243218
30
0
40
2.0500000000000007
210
0
220
0
230
-1
0
CIRCLE
5
109
100
AcDbEntity
8
INTERIOR_PROFILES
100
AcDbCircle
10
-337.83824713672698
20
140.42945672243218
30
0
40
2.0500000000000007
210
0
220
0
230
-1
0
LINE
5
110
100
AcDbEntity
8
BEND
100
AcDbLine
10
-1.3509031917538294
20
188.95155991418596
30
-4.2441741790202471e-15
11
-1.3509031917538294
21
20.542013971395363
31
-3.249831237199582e-15
0
LINE
5
111
100
AcDbEntity
8
BEND
100
AcDbLine
10
326.43844015103684
20
190.78035991418599
30
-6.106226635438361e-15
11
0.47789680824621428
21
190.78035991418599
31
-1.4988010832439613e-14
0
LINE
5
112
100
AcDbEntity
8
BEND
100
AcDbLine
10
0.47789680824614322
20
18.713213971395337
30
-1.6653345369377348e-15
11
326.43844015103684
21
18.713213971395337
31
-1.6653345369377348e-15
0
LINE
5
113
100
AcDbEntity
8
BEND
100
AcDbLine
10
328.26724015103679
20
20.542013971395392
30
-4.9960036108132044e-15
11
328.26724015103679
21
188.95155991418596
31
-1.609823385706477e-14
0
LINE
5
114
100
AcDbEntity
8
BEND_EXTENT
100
AcDbLine
10
329.43785412243216
20
188.95155991418596
30
6.8833827526759706e-14
11
329.43785412243216
21
20.542013971395363
31
6.8833827526759706e-14
0
LINE
5
115
100
AcDbEntity
8
BEND_EXTENT
100
AcDbLine
10
326.43844015103684
20
17.542600000000011
30
-2.2204460492503131e-15
11
0.47789680824614322
21
17.542600000000011
31
-2.2204460492503131e-15
0
LINE
5
116
100
AcDbEntity
8
BEND_EXTENT
100
AcDbLine
10
0.47789680824614322
20
191.95097388558133
30
-2.2204460492503131e-15
11
326.43844015103684
21
191.95097388558133
31
-2.2204460492503131e-15
0
LINE
5
117
100
AcDbEntity
8
BEND_EXTENT
100
AcDbLine
10
-2.5215171631491984
20
20.542013971395345
30
-4.4408920985006262e-15
11
-2.5215171631491984
21
188.95155991418605
31
-4.4408920985006262e-15
0
LINE
5
118
100
AcDbEntity
8
BEND_EXTENT
100
AcDbLine
10
326.43844015103684
20
189.60974594279068
30
-2.2204460492503131e-15
11
0.47789680824614322
21
189.60974594279068
31
-2.2204460492503131e-15
0
LINE
5
119
100
AcDbEntity
8
BEND_EXTENT
100
AcDbLine
10
-0.18028922035853157
20
188.95155991418596
30
-2.2204460492503131e-15
11
-0.18028922035853157
21
20.542013971395328
31
-2.2204460492503131e-15
0
LINE
5
120
100
AcDbEntity
8
BEND_EXTENT
100
AcDbLine
10
0.47789680824614322
20
19.88382794279066
30
-2.2204460492503131e-15
11
326.43844015103684
21
19.88382794279066
31
-2.2204460492503131e-15
0
LINE
5
121
100
AcDbEntity
8
BEND_EXTENT
100
AcDbLine
10
327.09662617964148
20
20.542013971395381
30
-2.2204460492503131e-15
11
327.09662617964148
21
188.95155991418596
31
-2.2204460492503131e-15
0
ENDSEC
0
SECTION
2
OBJECTS
0
DICTIONARY
5
C
100
AcDbDictionary
3
ACAD_GROUP
350
D
3
ACAD_MLINESTYLE
350
17
0
DICTIONARY
5
D
100
AcDbDictionary
0
DICTIONARY
5
1A
330
C
100
AcDbDictionary
0
DICTIONARY
5
17
100
AcDbDictionary
0
ENDSEC
0
EOF
