0
SECTION
2
HEADER
9
$INSUNITS
70
4
9
$ACADVER
1
AC1014
9
$HANDSEED
5
FFFF
0
ENDSEC
0
SECTION
2
TABLES
0
TABLE
2
VPORT
5
8
100
AcDbSymbolTable
0
ENDTAB
0
TABLE
2
LTYPE
5
5
100
AcDbSymbolTable
0
LTYPE
5
14
100
AcDbSymbolTableRecord
100
AcDbLinetypeTableRecord
2
BYBLOCK
70
0
0
LTYPE
5
15
100
AcDbSymbolTableRecord
100
AcDbLinetypeTableRecord
2
BYLAYER
70
0
0
LTYPE
5
16
100
AcDbSymbolTableRecord
100
AcDbLinetypeTableRecord
2
DASHED
70
0
3
Dashed __ __ __ __ __ __ __ __ __ __ __ __ __ _
72
65
73
2
40
0.75
49
0.5
74
0
49
-0.25
74
0
0
ENDTAB
0
TABLE
2
LAYER
5
2
100
AcDbSymbolTable
70
3
0
LAYER
5
50
100
AcDbSymbolTableRecord
100
AcDbLayerTableRecord
2
1
70
0
62
7
6
DASHED
0
LAYER
5
51
100
AcDbSymbolTableRecord
100
AcDbLayerTableRecord
2
0
70
0
62
7
6
CONTINUOUS
0
ENDTAB
0
TABLE
2
STYLE
5
3
100
AcDbSymbolTable
70
1
0
STYLE
5
11
100
AcDbSymbolTableRecord
100
AcDbTextStyleTableRecord
2
STANDARD
70
0
0
ENDTAB
0
TABLE
2
VIEW
5
6
100
AcDbSymbolTable
70
0
0
ENDTAB
0
TABLE
2
UCS
5
7
100
AcDbSymbolTable
70
0
0
ENDTAB
0
TABLE
2
APPID
5
9
100
AcDbSymbolTable
70
2
0
APPID
5
12
100
AcDbSymbolTableRecord
100
AcDbRegAppTableRecord
2
ACAD
70
0
0
ENDTAB
0
TABLE
2
DIMSTYLE
5
A
100
AcDbSymbolTable
70
1
0
ENDTAB
0
TABLE
2
BLOCK_RECORD
5
1
100
AcDbSymbolTable
70
1
0
BLOCK_RECORD
5
1F
100
AcDbSymbolTableRecord
100
AcDbBlockTableRecord
2
*MODEL_SPACE
0
BLOCK_RECORD
5
1B
100
AcDbSymbolTableRecord
100
AcDbBlockTableRecord
2
*PAPER_SPACE
0
ENDTAB
0
ENDSEC
0
SECTION
2
BLOCKS
0
BLOCK
5
20
100
AcDbEntity
100
AcDbBlockBegin
2
*MODEL_SPACE
0
ENDBLK
5
21
100
AcDbEntity
100
AcDbBlockEnd
0
BLOCK
5
1C
100
AcDbEntity
100
AcDbBlockBegin
2
*PAPER_SPACE
0
ENDBLK
5
1D
100
AcDbEntity
100
AcDbBlockEnd
0
ENDSEC
0
SECTION
2
ENTITIES
0
LWPOLYLINE
5
100
100
AcDbEntity
8
OUTER_PROFILES
100
AcDbPolyline
90
64
70
1
43
0.0
10
0
20
0
10
322.00000000000017
20
-1.1102230246251565e-14
42
0.41421356237309848
10
323.00000000000017
20
1.0000000000000147
10
323.00000000000017
20
14.742600000000007
10
323.00000000000017
20
17.083827942790634
10
323.00000000000023
20
19.395227942790655
42
-0.41421356237309503
10
323.25400000000025
20
19.649227942790656
10
323.5814577000001
20
19.649227942790638
42
0.41421356237308721
10
324.58145769999999
20
20.649227942790699
10
324.58145769999999
20
126.32438694279062
42
0.41421356237309503
10
323.58145769999999
20
127.32438694279062
10
320.21265770000002
20
127.32438694279065
42
-0.99999999999999989
10
320.21265770000002
20
127.83238694279063
10
322.52405770000001
20
127.83238694279063
10
324.86528564279064
20
127.83238694279063
10
338.60788564279062
20
127.83238694279063
42
0.41421356237308982
10
339.60788564279062
20
128.83238694279063
10
339.60788564279062
20
142.83238694279066
42
0.41421356237311063
10
338.60788564279056
20
143.83238694279063
10
324.86528564279064
20
143.83238694279066
10
322.52405770000001
20
143.83238694279066
10
320.21265770000002
20
143.83238694279066
42
-0.99999999999999989
10
320.21265770000002
20
144.34038694279064
10
323.5814577000001
20
144.34038694279062
42
0.41421356237307944
10
324.58145769999999
20
145.34038694279064
10
324.58145769999999
20
179.01554594279065
42
0.41421356237311585
10
323.58145769999993
20
180.01554594279068
10
323.25400000000013
20
180.01554594279068
42
-0.41421356237309503
10
323.00000000000017
20
180.26954594279064
10
323.00000000000017
20
182.58094594279066
10
323.00000000000023
20
184.92217388558132
10
323.00000000000023
20
198.66477388558135
42
0.4142135623730846
10
322.00000000000034
20
199.66477388558138
10
2.2776579365113869e-16
20
199.66477388558135
42
0.41421356237308865
10
-0.99999999999997813
20
198.66477388558135
10
-0.999999999999994
20
184.9221738855814
10
-0.99999999999999423
20
182.58094594279069
10
-0.99999999999999445
20
180.26954594279067
42
-0.41421356237309503
10
-1.2540000000000064
20
180.01554594279068
10
-1.5814577000000243
20
180.01554594279071
42
0.41421356237309503
10
-2.5814577000000245
20
179.01554594279071
10
-2.5814577000000245
20
145.34038694279067
42
0.4142135623730947
10
-1.5814577000000289
20
144.34038694279067
10
1.7873422999999793
20
144.34038694279067
42
-0.99999999999999989
10
1.7873422999999797
20
143.83238694279066
10
-0.52405769999998442
20
143.83238694279069
10
-2.8652856427906115
20
143.83238694279069
10
-16.607885642790738
20
143.83238694279066
42
0.41421356237309892
10
-17.607885642790734
20
142.83238694279066
10
-17.607885642790727
20
128.83238694279069
42
0.41421356237309631
10
-16.607885642790727
20
127.83238694279069
10
-2.8652856427906093
20
127.83238694279066
10
-0.5240576999999863
20
127.83238694279066
10
1.7873422999999771
20
127.83238694279066
42
-0.99999999999999989
10
1.7873422999999771
20
127.32438694279055
10
-1.5814577000000303
20
127.32438694279067
42
0.41421356237310025
10
-2.5814577000000298
20
126.32438694279065
10
-2.5814577000000427
20
20.649227942790667
42
0.4142135623730937
10
-1.5814577000000418
20
19.64922794279067
10
-1.254000000000024
20
19.64922794279066
42
-0.41421356237309503
10
-1.000000000000024
20
19.395227942790662
10
-1.0000000000000122
20
17.08382794279067
10
-1.0000000000000124
20
14.74260000000001
10
-0.99999999999999845
20
0.99999999999999878
42
0.41421356237309498
0
CIRCLE
5
101
100
AcDbEntity
8
INTERIOR_PROFILES
100
AcDbCircle
10
-315.45816847964147
20
5.7289930143023255
30
0
40
3.0000000000000071
210
0
220
0
230
-1
0
CIRCLE
5
102
100
AcDbEntity
8
INTERIOR_PROFILES
100
AcDbCircle
10
-6.5418315203579533
20
5.7289930143023327
30
0
40
3.0000000000000107
210
0
220
0
230
-1
0
LWPOLYLINE
5
103
100
AcDbEntity
8
INTERIOR_PROFILES
100
AcDbPolyline
90
8
70
1
43
0.0
10
104.5405573
20
195.41917388557792
42
-0.41421356237309503
10
105.5405573
20
196.41917388557795
10
143.54055730000002
20
196.41917388557795
42
-0.41421356237309503
10
144.54055730000002
20
195.41917388557792
10
144.54055730000002
20
189.91917388557769
42
-0.41421356237309503
10
143.54055730000002
20
188.91917388557769
10
105.5405573
20
188.91917388557772
42
-0.41421356237309503
10
104.54055729999999
20
189.91917388557769
0
CIRCLE
5
104
100
AcDbEntity
8
INTERIOR_PROFILES
100
AcDbCircle
10
-160.18254229999997
20
23.826427942790652
30
0
40
1.5750000000000064
210
0
220
0
230
-1
0
CIRCLE
5
105
100
AcDbEntity
8
INTERIOR_PROFILES
100
AcDbCircle
10
-319.78145770000003
20
102.83834594279062
30
0
40
1.5749999999999886
210
0
220
0
230
-1
0
CIRCLE
5
106
100
AcDbEntity
8
INTERIOR_PROFILES
100
AcDbCircle
10
-2.2185422999999878
20
52.826427942790666
30
0
40
1.57499999999999
210
0
220
0
230
-1
0
CIRCLE
5
107
100
AcDbEntity
8
INTERIOR_PROFILES
100
AcDbCircle
10
-319.78145770000003
20
57.588865942790633
30
0
40
1.5749999999999886
210
0
220
0
230
-1
0
CIRCLE
5
108
100
AcDbEntity
8
INTERIOR_PROFILES
100
AcDbCircle
10
-61.218542299999967
20
23.826427942790662
30
0
40
1.5749999999999886
210
0
220
0
230
-1
0
CIRCLE
5
109
100
AcDbEntity
8
INTERIOR_PROFILES
100
AcDbCircle
10
-230.78145769999998
20
131.83834594279065
30
0
40
1.5750000000000242
210
0
220
0
230
-1
0
CIRCLE
5
110
100
AcDbEntity
8
INTERIOR_PROFILES
100
AcDbCircle
10
-91.218542299999982
20
131.83834594279065
30
0
40
1.5749999999999886
210
0
220
0
230
-1
0
CIRCLE
5
111
100
AcDbEntity
8
INTERIOR_PROFILES
100
AcDbCircle
10
-2.2185422999999926
20
102.83834594279065
30
0
40
1.57499999999999
210
0
220
0
230
-1
0
CIRCLE
5
112
100
AcDbEntity
8
INTERIOR_PROFILES
100
AcDbCircle
10
-304.58145769999999
20
166.58094594279063
30
0
40
3.0000000000000071
210
0
220
0
230
-1
0
CIRCLE
5
113
100
AcDbEntity
8
INTERIOR_PROFILES
100
AcDbCircle
10
-270.78145769999998
20
23.826427942790641
30
0
40
1.5749999999999886
210
0
220
0
230
-1
0
CIRCLE
5
114
100
AcDbEntity
8
INTERIOR_PROFILES
100
AcDbCircle
10
-17.41854229999996
20
166.58094594279066
30
0
40
3.0000000000000115
210
0
220
0
230
-1
0
CIRCLE
5
115
100
AcDbEntity
8
INTERIOR_PROFILES
100
AcDbCircle
10
-333.8788926284883
20
135.51505672243263
30
0
40
3.0000000000000071
210
0
220
0
230
-1
0
CIRCLE
5
116
100
AcDbEntity
8
INTERIOR_PROFILES
100
AcDbCircle
10
11.878892628495858
20
135.51505672243269
30
0
40
3.0000000000000071
210
0
220
0
230
-1
0
CIRCLE
5
117
100
AcDbEntity
8
INTERIOR_PROFILES
100
AcDbCircle
10
-275.45816847964153
20
193.93578087127895
30
0
40
3.0000000000000071
210
0
220
0
230
-1
0
CIRCLE
5
118
100
AcDbEntity
8
INTERIOR_PROFILES
100
AcDbCircle
10
-46.541831520357974
20
193.93578087127895
30
0
40
3.0000000000000071
210
0
220
0
230
-1
0
LINE
5
119
100
AcDbEntity
8
BEND
100
AcDbLine
10
323.69467167139538
20
127.83238694279063
30
5.7964978482939094e-14
11
323.69467167139538
21
143.83238694279066
31
6.2173179107062262e-14
0
LINE
5
120
100
AcDbEntity
8
BEND
100
AcDbLine
10
-1.0000000000000122
20
15.913213971395329
30
5.7937128843706507e-14
11
323.00000000000017
21
15.913213971395326
31
8.8881073233722546e-14
0
LINE
5
121
100
AcDbEntity
8
BEND
100
AcDbLine
10
-1.6946716713952892
20
143.83238694279069
30
1.06847352147895e-13
11
-1.6946716713952883
21
127.83238694279066
31
1.2905181264039813e-13
0
LINE
5
122
100
AcDbEntity
8
BEND
100
AcDbLine
10
323.00000000000017
20
183.75155991418598
30
7.6876091226745016e-14
11
-0.99999999999994316
21
183.75155991418603
31
4.467962351261576e-14
0
LINE
5
123
100
AcDbEntity
8
BEND_EXTENT
100
AcDbLine
10
-1.0000000000000122
20
17.08382794279067
30
7.5488312445963583e-14
11
323.00000000000017
21
17.083827942790634
31
7.7708758495213808e-14
0
LINE
5
124
100
AcDbEntity
8
BEND_EXTENT
100
AcDbLine
10
322.52405770000001
20
127.83238694279063
30
7.7705496753856693e-14
11
322.52405770000001
21
143.83238694279066
31
7.7705496753856693e-14
0
LINE
5
125
100
AcDbEntity
8
BEND_EXTENT
100
AcDbLine
10
323.00000000000017
20
182.58094594279066
30
7.7708758495213808e-14
11
-1.0000000000000142
21
182.58094594279069
31
7.5488312445963583e-14
0
LINE
5
126
100
AcDbEntity
8
BEND_EXTENT
100
AcDbLine
10
-0.52405769999998442
20
143.83238694279069
30
7.5491574187320711e-14
11
-0.52405769999998619
21
127.83238694279066
31
7.5491574187320711e-14
0
LINE
5
127
100
AcDbEntity
8
BEND_EXTENT
100
AcDbLine
10
-2.8652856427906093
20
127.83238694279066
30
1.8205693958116298e-13
11
-2.8652856427906115
21
143.83238694279069
31
1.8205693958116298e-13
0
LINE
5
128
100
AcDbEntity
8
BEND_EXTENT
100
AcDbLine
10
324.86528564279064
20
143.83238694279066
30
3.3312620739023154e-14
11
324.86528564279064
21
127.83238694279063
31
4.108418191139925e-14
0
LINE
5
129
100
AcDbEntity
8
BEND_EXTENT
100
AcDbLine
10
-0.999999999999994
20
184.9221738855814
30
9.3251880839966088e-14
11
323.00000000000023
21
184.92217388558132
31
7.7708758495213808e-14
0
LINE
5
130
100
AcDbEntity
8
BEND_EXTENT
100
AcDbLine
10
323.00000000000017
20
14.742600000000007
30
8.659054269221506e-14
11
-1.0000000000000142
21
14.74260000000001
31
5.3283851953460452e-14
0
ENDSEC
0
SECTION
2
OBJECTS
0
DICTIONARY
5
C
100
AcDbDictionary
3
ACAD_GROUP
350
D
3
ACAD_MLINESTYLE
350
17
0
DICTIONARY
5
D
100
AcDbDictionary
0
DICTIONARY
5
1A
330
C
100
AcDbDictionary
0
DICTIONARY
5
17
100
AcDbDictionary
0
ENDSEC
0
EOF
