0
SECTION
2
HEADER
9
$INSUNITS
70
4
9
$ACADVER
1
AC1014
9
$HANDSEED
5
FFFF
0
ENDSEC
0
SECTION
2
TABLES
0
TABLE
2
VPORT
5
8
100
AcDbSymbolTable
0
ENDTAB
0
TABLE
2
LTYPE
5
5
100
AcDbSymbolTable
0
LTYPE
5
14
100
AcDbSymbolTableRecord
100
AcDbLinetypeTableRecord
2
BYBLOCK
70
0
0
LTYPE
5
15
100
AcDbSymbolTableRecord
100
AcDbLinetypeTableRecord
2
BYLAYER
70
0
0
LTYPE
5
16
100
AcDbSymbolTableRecord
100
AcDbLinetypeTableRecord
2
DASHED
70
0
3
Dashed __ __ __ __ __ __ __ __ __ __ __ __ __ _
72
65
73
2
40
0.75
49
0.5
74
0
49
-0.25
74
0
0
ENDTAB
0
TABLE
2
LAYER
5
2
100
AcDbSymbolTable
70
3
0
LAYER
5
50
100
AcDbSymbolTableRecord
100
AcDbLayerTableRecord
2
1
70
0
62
7
6
DASHED
0
LAYER
5
51
100
AcDbSymbolTableRecord
100
AcDbLayerTableRecord
2
0
70
0
62
7
6
CONTINUOUS
0
ENDTAB
0
TABLE
2
STYLE
5
3
100
AcDbSymbolTable
70
1
0
STYLE
5
11
100
AcDbSymbolTableRecord
100
AcDbTextStyleTableRecord
2
STANDARD
70
0
0
ENDTAB
0
TABLE
2
VIEW
5
6
100
AcDbSymbolTable
70
0
0
ENDTAB
0
TABLE
2
UCS
5
7
100
AcDbSymbolTable
70
0
0
ENDTAB
0
TABLE
2
APPID
5
9
100
AcDbSymbolTable
70
2
0
APPID
5
12
100
AcDbSymbolTableRecord
100
AcDbRegAppTableRecord
2
ACAD
70
0
0
ENDTAB
0
TABLE
2
DIMSTYLE
5
A
100
AcDbSymbolTable
70
1
0
ENDTAB
0
TABLE
2
BLOCK_RECORD
5
1
100
AcDbSymbolTable
70
1
0
BLOCK_RECORD
5
1F
100
AcDbSymbolTableRecord
100
AcDbBlockTableRecord
2
*MODEL_SPACE
0
BLOCK_RECORD
5
1B
100
AcDbSymbolTableRecord
100
AcDbBlockTableRecord
2
*PAPER_SPACE
0
ENDTAB
0
ENDSEC
0
SECTION
2
BLOCKS
0
BLOCK
5
20
100
AcDbEntity
100
AcDbBlockBegin
2
*MODEL_SPACE
0
ENDBLK
5
21
100
AcDbEntity
100
AcDbBlockEnd
0
BLOCK
5
1C
100
AcDbEntity
100
AcDbBlockBegin
2
*PAPER_SPACE
0
ENDBLK
5
1D
100
AcDbEntity
100
AcDbBlockEnd
0
ENDSEC
0
SECTION
2
ENTITIES
0
LWPOLYLINE
5
100
100
AcDbEntity
8
OUTER_PROFILES
100
AcDbPolyline
90
84
70
1
43
0.0
10
323.58145769999993
20
184.63834594279064
42
-0.41421356237311585
10
324.58145769999999
20
183.63834594279064
10
324.58145769999999
20
147.65178694279069
42
-0.41421356237310025
10
323.58145769999999
20
146.65178694279066
10
320.21265770000002
20
146.65178694279066
42
0.99999999999999989
10
320.21265770000002
20
146.14378694279065
10
322.52405770000001
20
146.14378694279065
10
324.86528564279064
20
146.14378694279065
10
338.60788564279056
20
146.14378694279065
42
-0.41421356237311063
10
339.60788564279062
20
145.14378694279065
10
339.60788564279062
20
126.14378694279063
42
-0.41421356237308982
10
338.60788564279062
20
125.14378694279065
10
324.86528564279064
20
125.14378694279065
10
322.52405770000001
20
125.14378694279065
10
320.21265770000002
20
125.14378694279065
42
0.99999999999999989
10
320.21265770000002
20
124.63578694279066
10
323.58145769999999
20
124.63578694279065
42
-0.41421356237310025
10
324.58145769999999
20
123.63578694279063
10
324.58145769999999
20
20.649227942790702
42
-0.41421356237310936
10
323.58145769999999
20
19.649227942790656
10
323.25400000000025
20
19.649227942790631
42
0.41421356237309503
10
323.00000000000023
20
19.395227942790655
10
323.00000000000017
20
17.083827942790634
10
323.00000000000017
20
14.742600000000003
10
323.00000000000023
20
1.0000000000000129
42
-0.41421356237307771
10
322.00000000000034
20
8.3266726846886741e-16
10
4.8572257327350589e-16
20
-3.6082248300317588e-15
42
-0.41421356237309581
10
-0.99999999999994316
20
0.99999999999999867
10
-0.99999999999994316
20
14.742600000000007
10
-0.99999999999994316
20
17.08382794279067
10
-0.99999999999998979
20
19.395227942790662
42
0.41421356237309503
10
-1.2539999999999907
20
19.64922794279066
10
-1.581457699999973
20
19.64922794279067
42
-0.4142135623730937
10
-2.581457699999973
20
20.649227942790667
10
-2.5814576999999734
20
123.63578694279059
42
-0.41421356237309437
10
-1.5814576999999752
20
124.63578694279059
10
1.7873423000000344
20
124.63578694279062
42
0.99999999999999989
10
1.7873423000000344
20
125.1437869427906
10
-0.52405769999992913
20
125.14378694279058
10
-2.8652856427905249
20
125.14378694279058
10
-16.607885642790659
20
125.1437869427906
42
-0.41421356237309115
10
-17.607885642790663
20
126.14378694279057
10
-17.607885642790663
20
145.14378694279071
42
-0.41421356237308982
10
-16.607885642790663
20
146.14378694279068
10
-2.8652856427905249
20
146.14378694279068
10
-0.52405769999992913
20
146.14378694279068
10
1.7873423000000341
20
146.14378694279068
42
0.99999999999999989
10
1.7873423000000346
20
146.65178694279069
10
-1.5814576999999772
20
146.65178694279069
42
-0.41421356237309387
10
-2.5814576999999872
20
147.65178694279069
10
-2.581457699999973
20
183.63834594279066
42
-0.41421356237309764
10
-1.5814576999999641
20
184.63834594279066
10
30.910542300000003
20
184.63834594279066
42
-0.41421356237309764
10
31.91054230000001
20
183.63834594279066
10
31.910542300000095
20
180.26954594279064
42
0.99999999999999989
10
32.418542299999977
20
180.26954594279064
10
32.418542299999977
20
182.58094594279066
10
32.418542299999977
20
184.92217388558132
10
32.418542299999991
20
198.66477388558127
42
-0.41421356237309503
10
33.418542299999991
20
199.66477388558127
10
58.581457700000037
20
199.6647738855813
42
-0.41421356237309503
10
59.58145770000003
20
198.66477388558127
10
59.581457700000016
20
184.92217388558132
10
59.581457700000016
20
182.58094594279066
10
59.581457700000016
20
180.26954594279067
42
0.99999999999999989
10
60.08945770000004
20
180.26954594279067
10
60.089457700000025
20
183.63834594279066
42
-0.41421356237309503
10
61.089457700000018
20
184.63834594279066
10
258.58145769999993
20
184.63834594279064
42
-0.41421356237309503
10
259.58145769999999
20
183.63834594279064
10
259.58145769999993
20
180.26954594279067
42
0.99999999999999989
10
260.08945769999991
20
180.26954594279061
10
260.08945769999991
20
182.58094594279066
10
260.08945770000003
20
184.92217388558129
10
260.08945770000003
20
198.66477388558135
42
-0.41421356237309503
10
261.08945770000003
20
199.66477388558135
10
288.58145769999993
20
199.66477388558133
42
-0.41421356237309503
10
289.58145770000004
20
198.66477388558133
10
289.58145770000004
20
184.92217388558129
10
289.58145770000004
20
182.58094594279061
10
289.58145769999999
20
180.26954594279064
42
0.99999999999999989
10
290.08945770000003
20
180.26954594279064
10
290.08945770000003
20
183.63834594279064
42
-0.41421356237309503
10
291.08945770000003
20
184.63834594279064
0
CIRCLE
5
101
100
AcDbEntity
8
INTERIOR_PROFILES
100
AcDbCircle
10
11.878892628495805
20
135.51505672243269
30
0
40
3.0000000000000071
210
0
220
0
230
-1
0
CIRCLE
5
102
100
AcDbEntity
8
INTERIOR_PROFILES
100
AcDbCircle
10
-6.541831520357988
20
5.7289930143023309
30
0
40
3.0000000000000107
210
0
220
0
230
-1
0
CIRCLE
5
103
100
AcDbEntity
8
INTERIOR_PROFILES
100
AcDbCircle
10
-275.45816847964153
20
193.93578087127892
30
0
40
3.0000000000000071
210
0
220
0
230
-1
0
CIRCLE
5
104
100
AcDbEntity
8
INTERIOR_PROFILES
100
AcDbCircle
10
-333.8788926284883
20
135.51505672243266
30
0
40
3.0000000000000071
210
0
220
0
230
-1
0
CIRCLE
5
105
100
AcDbEntity
8
INTERIOR_PROFILES
100
AcDbCircle
10
-46.541831520357988
20
193.93578087127889
30
0
40
3.0000000000000071
210
0
220
0
230
-1
0
CIRCLE
5
106
100
AcDbEntity
8
INTERIOR_PROFILES
100
AcDbCircle
10
-315.45816847964153
20
5.7289930143023238
30
0
40
3.0000000000000071
210
0
220
0
230
-1
0
CIRCLE
5
107
100
AcDbEntity
8
INTERIOR_PROFILES
100
AcDbCircle
10
-2.2185423000000526
20
52.826427942790666
30
0
40
1.57499999999999
210
0
220
0
230
-1
0
CIRCLE
5
108
100
AcDbEntity
8
INTERIOR_PROFILES
100
AcDbCircle
10
-17.418542299999977
20
166.58094594279066
30
0
40
3.0000000000000115
210
0
220
0
230
-1
0
CIRCLE
5
109
100
AcDbEntity
8
INTERIOR_PROFILES
100
AcDbCircle
10
-61.218542300000003
20
23.826427942790662
30
0
40
1.5749999999999886
210
0
220
0
230
-1
0
CIRCLE
5
110
100
AcDbEntity
8
INTERIOR_PROFILES
100
AcDbCircle
10
-160.18254229999999
20
23.826427942790652
30
0
40
1.5750000000000064
210
0
220
0
230
-1
0
CIRCLE
5
111
100
AcDbEntity
8
INTERIOR_PROFILES
100
AcDbCircle
10
-230.78145770000006
20
131.83834594279065
30
0
40
1.5750000000000242
210
0
220
0
230
-1
0
CIRCLE
5
112
100
AcDbEntity
8
INTERIOR_PROFILES
100
AcDbCircle
10
-2.2185423000000526
20
102.83834594279068
30
0
40
1.57499999999999
210
0
220
0
230
-1
0
CIRCLE
5
113
100
AcDbEntity
8
INTERIOR_PROFILES
100
AcDbCircle
10
-91.218542300000038
20
131.83834594279065
30
0
40
1.5749999999999886
210
0
220
0
230
-1
0
CIRCLE
5
114
100
AcDbEntity
8
INTERIOR_PROFILES
100
AcDbCircle
10
-270.78145770000003
20
23.826427942790641
30
0
40
1.5749999999999886
210
0
220
0
230
-1
0
CIRCLE
5
115
100
AcDbEntity
8
INTERIOR_PROFILES
100
AcDbCircle
10
-319.78145770000003
20
57.588865942790633
30
0
40
1.5749999999999886
210
0
220
0
230
-1
0
CIRCLE
5
116
100
AcDbEntity
8
INTERIOR_PROFILES
100
AcDbCircle
10
-319.78145770000003
20
102.83834594279064
30
0
40
1.5749999999999886
210
0
220
0
230
-1
0
CIRCLE
5
117
100
AcDbEntity
8
INTERIOR_PROFILES
100
AcDbCircle
10
-304.58145770000004
20
166.58094594279063
30
0
40
3.0000000000000071
210
0
220
0
230
-1
0
LINE
5
118
100
AcDbEntity
8
BEND
100
AcDbLine
10
59.581457700000016
20
183.75155991418595
30
5.8417478383449981e-14
11
32.418542299999977
21
183.75155991418598
31
9.381511632702255e-15
0
LINE
5
119
100
AcDbEntity
8
BEND
100
AcDbLine
10
-1.694671671395156
20
146.14378694279068
30
1.146189133202711e-13
11
-1.694671671395156
21
125.14378694279058
31
9.796556795089375e-14
0
LINE
5
120
100
AcDbEntity
8
BEND
100
AcDbLine
10
-0.99999999999994316
20
15.913213971395324
30
5.7937128843706419e-14
11
323.00000000000023
21
15.913213971395319
31
8.8881073233722521e-14
0
LINE
5
121
100
AcDbEntity
8
BEND
100
AcDbLine
10
323.69467167139527
20
125.14378694279065
30
5.6341181926646738e-14
11
323.69467167139527
21
146.14378694279065
31
5.2655445561074699e-14
0
LINE
5
122
100
AcDbEntity
8
BEND
100
AcDbLine
10
289.58145770000004
20
183.75155991418603
30
7.664706631865316e-14
11
260.08945770000003
21
183.75155991418603
31
6.4232497631466285e-14
0
LINE
5
123
100
AcDbEntity
8
BEND_EXTENT
100
AcDbLine
10
322.52405770000001
20
125.14378694279065
30
7.7705496753856693e-14
11
322.52405770000001
21
146.14378694279065
31
7.7705496753856693e-14
0
LINE
5
124
100
AcDbEntity
8
BEND_EXTENT
100
AcDbLine
10
289.58145770000004
20
182.58094594279061
30
7.7479733587122028e-14
11
260.08945769999991
21
182.58094594279066
31
7.7277618170811875e-14
0
LINE
5
125
100
AcDbEntity
8
BEND_EXTENT
100
AcDbLine
10
59.581457700000016
20
182.58094594279066
30
7.5903491021296259e-14
11
32.418542299999977
21
182.58094594279066
31
7.5717337354055363e-14
0
LINE
5
126
100
AcDbEntity
8
BEND_EXTENT
100
AcDbLine
10
-0.52405769999992913
20
146.14378694279068
30
7.5491574187320711e-14
11
-0.52405769999992913
21
125.14378694279058
31
7.5491574187320711e-14
0
LINE
5
127
100
AcDbEntity
8
BEND_EXTENT
100
AcDbLine
10
-0.99999999999994316
20
17.08382794279067
30
7.5488312445963583e-14
11
323.00000000000017
21
17.083827942790634
31
7.7708758495213808e-14
0
LINE
5
128
100
AcDbEntity
8
BEND_EXTENT
100
AcDbLine
10
260.08945770000003
20
184.92217388558129
30
7.7277618170811875e-14
11
289.58145770000004
21
184.92217388558129
31
7.7479733587122028e-14
0
LINE
5
129
100
AcDbEntity
8
BEND_EXTENT
100
AcDbLine
10
32.418542299999977
20
184.92217388558132
30
5.7953768960052858e-14
11
59.581457700000016
21
184.92217388558132
31
5.8139922627293742e-14
0
LINE
5
130
100
AcDbEntity
8
BEND_EXTENT
100
AcDbLine
10
-2.8652856427905249
20
125.14378694279058
30
7.5475529217147975e-14
11
-2.8652856427905249
21
146.14378694279068
31
7.5475529217147975e-14
0
LINE
5
131
100
AcDbEntity
8
BEND_EXTENT
100
AcDbLine
10
324.86528564279064
20
146.14378694279065
30
3.2202397714397997e-14
11
324.86528564279064
21
125.14378694279065
31
2.6651282591272212e-14
0
LINE
5
132
100
AcDbEntity
8
BEND_EXTENT
100
AcDbLine
10
323.00000000000017
20
14.742600000000003
30
8.659054269221506e-14
11
-0.99999999999994316
21
14.742600000000007
31
5.3283851953460452e-14
0
ENDSEC
0
SECTION
2
OBJECTS
0
DICTIONARY
5
C
100
AcDbDictionary
3
ACAD_GROUP
350
D
3
ACAD_MLINESTYLE
350
17
0
DICTIONARY
5
D
100
AcDbDictionary
0
DICTIONARY
5
1A
330
C
100
AcDbDictionary
0
DICTIONARY
5
17
100
AcDbDictionary
0
ENDSEC
0
EOF
