  0
SECTION
  2
HEADER
  9
$ACADVER
  1
AC1009
  9
$FILLMODE
 70
 0
  9
$SPLFRAME
 70
 1
  9
$EXTMIN
 10
0
 20
0
 30
0.0
  9
$EXTMAX
 10
1058.33
 20
1058.33
 30
0.0
  0
ENDSEC
  0
SECTION
  2
TABLES
  0
TABLE
  2
LAYER
 70
1
  0
LAYER
  2
0
 70
     0
 62
     7
  6
CONTINUOUS
  0
ENDTAB
  0
ENDSEC
  0
SECTION
  2
ENTITIES
  0
LINE
  8
0
 62
     0
 10
0.0950846
 20
100.446
 30
0.0
 11
309.658
 21
100.446
 31
0.0
  0
LINE
  8
0
 62
     0
 10
309.658
 20
100.446
 30
0.0
 11
309.658
 21
0.434082
 31
0.0
  0
LINE
  8
0
 62
     0
 10
309.658
 20
0.434082
 30
0.0
 11
0.0950846
 21
0.434082
 31
0.0
  0
LINE
  8
0
 62
     0
 10
0.0950846
 20
0.434082
 30
0.0
 11
0.0950846
 21
100.446
 31
0.0
  0
LINE
  8
0
 62
     0
 10
231.22
 20
16.9595
 30
0.0
 11
245.219
 21
16.9595
 31
0.0
  0
LINE
  8
0
 62
     0
 10
245.219
 20
16.9595
 30
0.0
 11
245.219
 21
2.96003
 31
0.0
  0
LINE
  8
0
 62
     0
 10
245.219
 20
2.96003
 30
0.0
 11
231.22
 21
2.96003
 31
0.0
  0
LINE
  8
0
 62
     0
 10
231.22
 20
2.96003
 30
0.0
 11
231.22
 21
16.9595
 31
0.0
  0
LINE
  8
0
 62
     0
 10
250.27
 20
16.9595
 30
0.0
 11
264.269
 21
16.9595
 31
0.0
  0
LINE
  8
0
 62
     0
 10
264.269
 20
16.9595
 30
0.0
 11
264.269
 21
2.96003
 31
0.0
  0
LINE
  8
0
 62
     0
 10
264.269
 20
2.96003
 30
0.0
 11
250.27
 21
2.96003
 31
0.0
  0
LINE
  8
0
 62
     0
 10
250.27
 20
2.96003
 30
0.0
 11
250.27
 21
16.9595
 31
0.0
  0
LINE
  8
0
 62
     0
 10
269.32
 20
16.9595
 30
0.0
 11
283.319
 21
16.9595
 31
0.0
  0
LINE
  8
0
 62
     0
 10
283.319
 20
16.9595
 30
0.0
 11
283.319
 21
2.96003
 31
0.0
  0
LINE
  8
0
 62
     0
 10
283.319
 20
2.96003
 30
0.0
 11
269.32
 21
2.96003
 31
0.0
  0
LINE
  8
0
 62
     0
 10
269.32
 20
2.96003
 30
0.0
 11
269.32
 21
16.9595
 31
0.0
  0
LINE
  8
0
 62
     0
 10
288.37
 20
16.9595
 30
0.0
 11
302.369
 21
16.9595
 31
0.0
  0
LINE
  8
0
 62
     0
 10
302.369
 20
16.9595
 30
0.0
 11
302.369
 21
2.96003
 31
0.0
  0
LINE
  8
0
 62
     0
 10
302.369
 20
2.96003
 30
0.0
 11
288.37
 21
2.96003
 31
0.0
  0
LINE
  8
0
 62
     0
 10
288.37
 20
2.96003
 30
0.0
 11
288.37
 21
16.9595
 31
0.0
  0
LINE
  8
0
 62
     0
 10
105.012
 20
21.722
 30
0.0
 11
105.012
 21
17.0215
 31
0.0
  0
LINE
  8
0
 62
     0
 10
105.012
 20
17.0215
 30
0.0
 11
103.488
 21
17.0215
 31
0.0
  0
LINE
  8
0
 62
     0
 10
103.488
 20
17.0215
 30
0.0
 11
103.488
 21
20.2517
 31
0.0
  0
LINE
  8
0
 62
     0
 10
103.488
 20
20.2517
 30
0.0
 11
96.737
 21
20.2517
 31
0.0
  0
LINE
  8
0
 62
     0
 10
96.737
 20
20.2517
 30
0.0
 11
96.737
 21
17.0215
 31
0.0
  0
LINE
  8
0
 62
     0
 10
96.737
 20
17.0215
 30
0.0
 11
95.9129
 21
17.0215
 31
0.0
  0
LINE
  8
0
 62
     0
 10
95.9129
 20
17.0215
 30
0.0
 11
95.9129
 21
14.2227
 31
0.0
  0
LINE
  8
0
 62
     0
 10
95.9129
 20
14.2227
 30
0.0
 11
96.737
 21
14.2227
 31
0.0
  0
LINE
  8
0
 62
     0
 10
96.737
 20
14.2227
 30
0.0
 11
96.737
 21
7.95267
 31
0.0
  0
LINE
  8
0
 62
     0
 10
96.737
 20
7.95267
 30
0.0
 11
98.462
 21
7.95267
 31
0.0
  0
LINE
  8
0
 62
     0
 10
98.462
 20
7.95267
 30
0.0
 11
98.462
 21
6.75238
 31
0.0
  0
LINE
  8
0
 62
     0
 10
98.462
 20
6.75238
 30
0.0
 11
101.763
 21
6.75238
 31
0.0
  0
LINE
  8
0
 62
     0
 10
101.763
 20
6.75238
 30
0.0
 11
101.763
 21
7.95267
 31
0.0
  0
LINE
  8
0
 62
     0
 10
101.763
 20
7.95267
 30
0.0
 11
103.488
 21
7.95267
 31
0.0
  0
LINE
  8
0
 62
     0
 10
103.488
 20
7.95267
 30
0.0
 11
103.488
 21
12.423
 31
0.0
  0
LINE
  8
0
 62
     0
 10
103.488
 20
12.423
 30
0.0
 11
105.012
 21
12.423
 31
0.0
  0
LINE
  8
0
 62
     0
 10
105.012
 20
12.423
 30
0.0
 11
105.012
 21
7.72252
 31
0.0
  0
LINE
  8
0
 62
     0
 10
105.012
 20
7.72252
 30
0.0
 11
119.013
 21
7.72252
 31
0.0
  0
LINE
  8
0
 62
     0
 10
119.013
 20
7.72252
 30
0.0
 11
119.013
 21
12.423
 31
0.0
  0
LINE
  8
0
 62
     0
 10
119.013
 20
12.423
 30
0.0
 11
120.537
 21
12.423
 31
0.0
  0
LINE
  8
0
 62
     0
 10
120.537
 20
12.423
 30
0.0
 11
120.537
 21
7.95267
 31
0.0
  0
LINE
  8
0
 62
     0
 10
120.537
 20
7.95267
 30
0.0
 11
122.262
 21
7.95267
 31
0.0
  0
LINE
  8
0
 62
     0
 10
122.262
 20
7.95267
 30
0.0
 11
122.262
 21
6.75238
 31
0.0
  0
LINE
  8
0
 62
     0
 10
122.262
 20
6.75238
 30
0.0
 11
125.561
 21
6.75238
 31
0.0
  0
LINE
  8
0
 62
     0
 10
125.561
 20
6.75238
 30
0.0
 11
125.561
 21
7.95267
 31
0.0
  0
LINE
  8
0
 62
     0
 10
125.561
 20
7.95267
 30
0.0
 11
127.288
 21
7.95267
 31
0.0
  0
LINE
  8
0
 62
     0
 10
127.288
 20
7.95267
 30
0.0
 11
127.288
 21
14.2227
 31
0.0
  0
LINE
  8
0
 62
     0
 10
127.288
 20
14.2227
 30
0.0
 11
128.112
 21
14.2227
 31
0.0
  0
LINE
  8
0
 62
     0
 10
128.112
 20
14.2227
 30
0.0
 11
128.112
 21
17.0215
 31
0.0
  0
LINE
  8
0
 62
     0
 10
128.112
 20
17.0215
 30
0.0
 11
127.288
 21
17.0215
 31
0.0
  0
LINE
  8
0
 62
     0
 10
127.288
 20
17.0215
 30
0.0
 11
127.288
 21
20.2517
 31
0.0
  0
LINE
  8
0
 62
     0
 10
127.288
 20
20.2517
 30
0.0
 11
120.537
 21
20.2517
 31
0.0
  0
LINE
  8
0
 62
     0
 10
120.537
 20
20.2517
 30
0.0
 11
120.537
 21
17.0215
 31
0.0
  0
LINE
  8
0
 62
     0
 10
120.537
 20
17.0215
 30
0.0
 11
119.013
 21
17.0215
 31
0.0
  0
LINE
  8
0
 62
     0
 10
119.013
 20
17.0215
 30
0.0
 11
119.013
 21
21.722
 31
0.0
  0
LINE
  8
0
 62
     0
 10
119.013
 20
21.722
 30
0.0
 11
105.012
 21
21.722
 31
0.0
  0
LINE
  8
0
 62
     0
 10
152.637
 20
21.722
 30
0.0
 11
152.637
 21
17.0215
 31
0.0
  0
LINE
  8
0
 62
     0
 10
152.637
 20
17.0215
 30
0.0
 11
151.113
 21
17.0215
 31
0.0
  0
LINE
  8
0
 62
     0
 10
151.113
 20
17.0215
 30
0.0
 11
151.113
 21
20.2517
 31
0.0
  0
LINE
  8
0
 62
     0
 10
151.113
 20
20.2517
 30
0.0
 11
144.362
 21
20.2517
 31
0.0
  0
LINE
  8
0
 62
     0
 10
144.362
 20
20.2517
 30
0.0
 11
144.362
 21
17.0215
 31
0.0
  0
LINE
  8
0
 62
     0
 10
144.362
 20
17.0215
 30
0.0
 11
143.538
 21
17.0215
 31
0.0
  0
LINE
  8
0
 62
     0
 10
143.538
 20
17.0215
 30
0.0
 11
143.538
 21
14.2227
 31
0.0
  0
LINE
  8
0
 62
     0
 10
143.538
 20
14.2227
 30
0.0
 11
144.362
 21
14.2227
 31
0.0
  0
LINE
  8
0
 62
     0
 10
144.362
 20
14.2227
 30
0.0
 11
144.362
 21
7.95267
 31
0.0
  0
LINE
  8
0
 62
     0
 10
144.362
 20
7.95267
 30
0.0
 11
146.087
 21
7.95267
 31
0.0
  0
LINE
  8
0
 62
     0
 10
146.087
 20
7.95267
 30
0.0
 11
146.087
 21
6.75238
 31
0.0
  0
LINE
  8
0
 62
     0
 10
146.087
 20
6.75238
 30
0.0
 11
149.388
 21
6.75238
 31
0.0
  0
LINE
  8
0
 62
     0
 10
149.388
 20
6.75238
 30
0.0
 11
149.388
 21
7.95267
 31
0.0
  0
LINE
  8
0
 62
     0
 10
149.388
 20
7.95267
 30
0.0
 11
151.113
 21
7.95267
 31
0.0
  0
LINE
  8
0
 62
     0
 10
151.113
 20
7.95267
 30
0.0
 11
151.113
 21
12.423
 31
0.0
  0
LINE
  8
0
 62
     0
 10
151.113
 20
12.423
 30
0.0
 11
152.637
 21
12.423
 31
0.0
  0
LINE
  8
0
 62
     0
 10
152.637
 20
12.423
 30
0.0
 11
152.637
 21
7.72252
 31
0.0
  0
LINE
  8
0
 62
     0
 10
152.637
 20
7.72252
 30
0.0
 11
166.638
 21
7.72252
 31
0.0
  0
LINE
  8
0
 62
     0
 10
166.638
 20
7.72252
 30
0.0
 11
166.638
 21
12.423
 31
0.0
  0
LINE
  8
0
 62
     0
 10
166.638
 20
12.423
 30
0.0
 11
168.162
 21
12.423
 31
0.0
  0
LINE
  8
0
 62
     0
 10
168.162
 20
12.423
 30
0.0
 11
168.162
 21
7.95267
 31
0.0
  0
LINE
  8
0
 62
     0
 10
168.162
 20
7.95267
 30
0.0
 11
169.887
 21
7.95267
 31
0.0
  0
LINE
  8
0
 62
     0
 10
169.887
 20
7.95267
 30
0.0
 11
169.887
 21
6.75238
 31
0.0
  0
LINE
  8
0
 62
     0
 10
169.887
 20
6.75238
 30
0.0
 11
173.188
 21
6.75238
 31
0.0
  0
LINE
  8
0
 62
     0
 10
173.188
 20
6.75238
 30
0.0
 11
173.188
 21
7.95267
 31
0.0
  0
LINE
  8
0
 62
     0
 10
173.188
 20
7.95267
 30
0.0
 11
174.913
 21
7.95267
 31
0.0
  0
LINE
  8
0
 62
     0
 10
174.913
 20
7.95267
 30
0.0
 11
174.913
 21
14.2227
 31
0.0
  0
LINE
  8
0
 62
     0
 10
174.913
 20
14.2227
 30
0.0
 11
175.737
 21
14.2227
 31
0.0
  0
LINE
  8
0
 62
     0
 10
175.737
 20
14.2227
 30
0.0
 11
175.737
 21
17.0215
 31
0.0
  0
LINE
  8
0
 62
     0
 10
175.737
 20
17.0215
 30
0.0
 11
174.913
 21
17.0215
 31
0.0
  0
LINE
  8
0
 62
     0
 10
174.913
 20
17.0215
 30
0.0
 11
174.913
 21
20.2517
 31
0.0
  0
LINE
  8
0
 62
     0
 10
174.913
 20
20.2517
 30
0.0
 11
168.162
 21
20.2517
 31
0.0
  0
LINE
  8
0
 62
     0
 10
168.162
 20
20.2517
 30
0.0
 11
168.162
 21
17.0215
 31
0.0
  0
LINE
  8
0
 62
     0
 10
168.162
 20
17.0215
 30
0.0
 11
166.638
 21
17.0215
 31
0.0
  0
LINE
  8
0
 62
     0
 10
166.638
 20
17.0215
 30
0.0
 11
166.638
 21
21.722
 31
0.0
  0
LINE
  8
0
 62
     0
 10
166.638
 20
21.722
 30
0.0
 11
152.637
 21
21.722
 31
0.0
  0
LINE
  8
0
 62
     0
 10
5.00091
 20
21.722
 30
0.0
 11
19.0004
 21
21.722
 31
0.0
  0
LINE
  8
0
 62
     0
 10
19.0004
 20
21.722
 30
0.0
 11
19.0004
 21
7.72252
 31
0.0
  0
LINE
  8
0
 62
     0
 10
19.0004
 20
7.72252
 30
0.0
 11
5.00091
 21
7.72252
 31
0.0
  0
LINE
  8
0
 62
     0
 10
5.00091
 20
7.72252
 30
0.0
 11
5.00091
 21
21.722
 31
0.0
  0
LINE
  8
0
 62
     0
 10
31.1947
 20
21.722
 30
0.0
 11
45.194
 21
21.722
 31
0.0
  0
LINE
  8
0
 62
     0
 10
45.194
 20
21.722
 30
0.0
 11
45.194
 21
7.72252
 31
0.0
  0
LINE
  8
0
 62
     0
 10
45.194
 20
7.72252
 30
0.0
 11
31.1947
 21
7.72252
 31
0.0
  0
LINE
  8
0
 62
     0
 10
31.1947
 20
7.72252
 30
0.0
 11
31.1947
 21
21.722
 31
0.0
  0
LINE
  8
0
 62
     0
 10
55.0072
 20
21.722
 30
0.0
 11
69.0065
 21
21.722
 31
0.0
  0
LINE
  8
0
 62
     0
 10
69.0065
 20
21.722
 30
0.0
 11
69.0065
 21
7.72252
 31
0.0
  0
LINE
  8
0
 62
     0
 10
69.0065
 20
7.72252
 30
0.0
 11
55.0072
 21
7.72252
 31
0.0
  0
LINE
  8
0
 62
     0
 10
55.0072
 20
7.72252
 30
0.0
 11
55.0072
 21
21.722
 31
0.0
  0
LINE
  8
0
 62
     0
 10
74.0572
 20
21.722
 30
0.0
 11
88.0565
 21
21.722
 31
0.0
  0
LINE
  8
0
 62
     0
 10
88.0565
 20
21.722
 30
0.0
 11
88.0565
 21
7.72252
 31
0.0
  0
LINE
  8
0
 62
     0
 10
88.0565
 20
7.72252
 30
0.0
 11
74.0572
 21
7.72252
 31
0.0
  0
LINE
  8
0
 62
     0
 10
74.0572
 20
7.72252
 30
0.0
 11
74.0572
 21
21.722
 31
0.0
  0
LINE
  8
0
 62
     0
 10
188.357
 20
21.722
 30
0.0
 11
202.357
 21
21.722
 31
0.0
  0
LINE
  8
0
 62
     0
 10
202.357
 20
21.722
 30
0.0
 11
202.357
 21
7.72252
 31
0.0
  0
LINE
  8
0
 62
     0
 10
202.357
 20
7.72252
 30
0.0
 11
188.357
 21
7.72252
 31
0.0
  0
LINE
  8
0
 62
     0
 10
188.357
 20
7.72252
 30
0.0
 11
188.357
 21
21.722
 31
0.0
  0
LINE
  8
0
 62
     0
 10
207.407
 20
21.722
 30
0.0
 11
221.407
 21
21.722
 31
0.0
  0
LINE
  8
0
 62
     0
 10
221.407
 20
21.722
 30
0.0
 11
221.407
 21
7.72252
 31
0.0
  0
LINE
  8
0
 62
     0
 10
221.407
 20
7.72252
 30
0.0
 11
207.407
 21
7.72252
 31
0.0
  0
LINE
  8
0
 62
     0
 10
207.407
 20
7.72252
 30
0.0
 11
207.407
 21
21.722
 31
0.0
  0
LINE
  8
0
 62
     0
 10
5.00091
 20
40.7719
 30
0.0
 11
19.0004
 21
40.7719
 31
0.0
  0
LINE
  8
0
 62
     0
 10
19.0004
 20
40.7719
 30
0.0
 11
19.0004
 21
26.7725
 31
0.0
  0
LINE
  8
0
 62
     0
 10
19.0004
 20
26.7725
 30
0.0
 11
5.00091
 21
26.7725
 31
0.0
  0
LINE
  8
0
 62
     0
 10
5.00091
 20
26.7725
 30
0.0
 11
5.00091
 21
40.7719
 31
0.0
  0
LINE
  8
0
 62
     0
 10
31.1947
 20
40.7719
 30
0.0
 11
45.194
 21
40.7719
 31
0.0
  0
LINE
  8
0
 62
     0
 10
45.194
 20
40.7719
 30
0.0
 11
45.194
 21
26.7725
 31
0.0
  0
LINE
  8
0
 62
     0
 10
45.194
 20
26.7725
 30
0.0
 11
31.1947
 21
26.7725
 31
0.0
  0
LINE
  8
0
 62
     0
 10
31.1947
 20
26.7725
 30
0.0
 11
31.1947
 21
40.7719
 31
0.0
  0
LINE
  8
0
 62
     0
 10
55.0072
 20
40.7719
 30
0.0
 11
69.0065
 21
40.7719
 31
0.0
  0
LINE
  8
0
 62
     0
 10
69.0065
 20
40.7719
 30
0.0
 11
69.0065
 21
26.7725
 31
0.0
  0
LINE
  8
0
 62
     0
 10
69.0065
 20
26.7725
 30
0.0
 11
55.0072
 21
26.7725
 31
0.0
  0
LINE
  8
0
 62
     0
 10
55.0072
 20
26.7725
 30
0.0
 11
55.0072
 21
40.7719
 31
0.0
  0
LINE
  8
0
 62
     0
 10
74.0572
 20
40.7719
 30
0.0
 11
88.0565
 21
40.7719
 31
0.0
  0
LINE
  8
0
 62
     0
 10
88.0565
 20
40.7719
 30
0.0
 11
88.0565
 21
26.7725
 31
0.0
  0
LINE
  8
0
 62
     0
 10
88.0565
 20
26.7725
 30
0.0
 11
74.0572
 21
26.7725
 31
0.0
  0
LINE
  8
0
 62
     0
 10
74.0572
 20
26.7725
 30
0.0
 11
74.0572
 21
40.7719
 31
0.0
  0
LINE
  8
0
 62
     0
 10
93.1072
 20
40.7719
 30
0.0
 11
107.107
 21
40.7719
 31
0.0
  0
LINE
  8
0
 62
     0
 10
107.107
 20
40.7719
 30
0.0
 11
107.107
 21
26.7725
 31
0.0
  0
LINE
  8
0
 62
     0
 10
107.107
 20
26.7725
 30
0.0
 11
93.1072
 21
26.7725
 31
0.0
  0
LINE
  8
0
 62
     0
 10
93.1072
 20
26.7725
 30
0.0
 11
93.1072
 21
40.7719
 31
0.0
  0
LINE
  8
0
 62
     0
 10
112.157
 20
40.7719
 30
0.0
 11
126.157
 21
40.7719
 31
0.0
  0
LINE
  8
0
 62
     0
 10
126.157
 20
40.7719
 30
0.0
 11
126.157
 21
26.7725
 31
0.0
  0
LINE
  8
0
 62
     0
 10
126.157
 20
26.7725
 30
0.0
 11
112.157
 21
26.7725
 31
0.0
  0
LINE
  8
0
 62
     0
 10
112.157
 20
26.7725
 30
0.0
 11
112.157
 21
40.7719
 31
0.0
  0
LINE
  8
0
 62
     0
 10
131.207
 20
40.7719
 30
0.0
 11
145.207
 21
40.7719
 31
0.0
  0
LINE
  8
0
 62
     0
 10
145.207
 20
40.7719
 30
0.0
 11
145.207
 21
26.7725
 31
0.0
  0
LINE
  8
0
 62
     0
 10
145.207
 20
26.7725
 30
0.0
 11
131.207
 21
26.7725
 31
0.0
  0
LINE
  8
0
 62
     0
 10
131.207
 20
26.7725
 30
0.0
 11
131.207
 21
40.7719
 31
0.0
  0
LINE
  8
0
 62
     0
 10
150.257
 20
40.7719
 30
0.0
 11
164.257
 21
40.7719
 31
0.0
  0
LINE
  8
0
 62
     0
 10
164.257
 20
40.7719
 30
0.0
 11
164.257
 21
26.7725
 31
0.0
  0
LINE
  8
0
 62
     0
 10
164.257
 20
26.7725
 30
0.0
 11
150.257
 21
26.7725
 31
0.0
  0
LINE
  8
0
 62
     0
 10
150.257
 20
26.7725
 30
0.0
 11
150.257
 21
40.7719
 31
0.0
  0
LINE
  8
0
 62
     0
 10
169.307
 20
40.7719
 30
0.0
 11
183.307
 21
40.7719
 31
0.0
  0
LINE
  8
0
 62
     0
 10
183.307
 20
40.7719
 30
0.0
 11
183.307
 21
26.7725
 31
0.0
  0
LINE
  8
0
 62
     0
 10
183.307
 20
26.7725
 30
0.0
 11
169.307
 21
26.7725
 31
0.0
  0
LINE
  8
0
 62
     0
 10
169.307
 20
26.7725
 30
0.0
 11
169.307
 21
40.7719
 31
0.0
  0
LINE
  8
0
 62
     0
 10
188.357
 20
40.7719
 30
0.0
 11
202.357
 21
40.7719
 31
0.0
  0
LINE
  8
0
 62
     0
 10
202.357
 20
40.7719
 30
0.0
 11
202.357
 21
26.7725
 31
0.0
  0
LINE
  8
0
 62
     0
 10
202.357
 20
26.7725
 30
0.0
 11
188.357
 21
26.7725
 31
0.0
  0
LINE
  8
0
 62
     0
 10
188.357
 20
26.7725
 30
0.0
 11
188.357
 21
40.7719
 31
0.0
  0
LINE
  8
0
 62
     0
 10
207.407
 20
40.7719
 30
0.0
 11
221.407
 21
40.7719
 31
0.0
  0
LINE
  8
0
 62
     0
 10
221.407
 20
40.7719
 30
0.0
 11
221.407
 21
26.7725
 31
0.0
  0
LINE
  8
0
 62
     0
 10
221.407
 20
26.7725
 30
0.0
 11
207.407
 21
26.7725
 31
0.0
  0
LINE
  8
0
 62
     0
 10
207.407
 20
26.7725
 30
0.0
 11
207.407
 21
40.7719
 31
0.0
  0
LINE
  8
0
 62
     0
 10
226.457
 20
40.7719
 30
0.0
 11
240.457
 21
40.7719
 31
0.0
  0
LINE
  8
0
 62
     0
 10
240.457
 20
40.7719
 30
0.0
 11
240.457
 21
26.7725
 31
0.0
  0
LINE
  8
0
 62
     0
 10
240.457
 20
26.7725
 30
0.0
 11
226.457
 21
26.7725
 31
0.0
  0
LINE
  8
0
 62
     0
 10
226.457
 20
26.7725
 30
0.0
 11
226.457
 21
40.7719
 31
0.0
  0
LINE
  8
0
 62
     0
 10
250.27
 20
40.7719
 30
0.0
 11
264.269
 21
40.7719
 31
0.0
  0
LINE
  8
0
 62
     0
 10
264.269
 20
40.7719
 30
0.0
 11
264.269
 21
26.7725
 31
0.0
  0
LINE
  8
0
 62
     0
 10
264.269
 20
26.7725
 30
0.0
 11
250.27
 21
26.7725
 31
0.0
  0
LINE
  8
0
 62
     0
 10
250.27
 20
26.7725
 30
0.0
 11
250.27
 21
40.7719
 31
0.0
  0
LINE
  8
0
 62
     0
 10
5.00091
 20
59.8219
 30
0.0
 11
19.0004
 21
59.8219
 31
0.0
  0
LINE
  8
0
 62
     0
 10
19.0004
 20
59.8219
 30
0.0
 11
19.0004
 21
45.8227
 31
0.0
  0
LINE
  8
0
 62
     0
 10
19.0004
 20
45.8227
 30
0.0
 11
5.00091
 21
45.8227
 31
0.0
  0
LINE
  8
0
 62
     0
 10
5.00091
 20
45.8227
 30
0.0
 11
5.00091
 21
59.8219
 31
0.0
  0
LINE
  8
0
 62
     0
 10
31.1947
 20
59.8219
 30
0.0
 11
45.194
 21
59.8219
 31
0.0
  0
LINE
  8
0
 62
     0
 10
45.194
 20
59.8219
 30
0.0
 11
45.194
 21
45.8227
 31
0.0
  0
LINE
  8
0
 62
     0
 10
45.194
 20
45.8227
 30
0.0
 11
31.1947
 21
45.8227
 31
0.0
  0
LINE
  8
0
 62
     0
 10
31.1947
 20
45.8227
 30
0.0
 11
31.1947
 21
59.8219
 31
0.0
  0
LINE
  8
0
 62
     0
 10
55.0072
 20
59.8219
 30
0.0
 11
69.0065
 21
59.8219
 31
0.0
  0
LINE
  8
0
 62
     0
 10
69.0065
 20
59.8219
 30
0.0
 11
69.0065
 21
45.8227
 31
0.0
  0
LINE
  8
0
 62
     0
 10
69.0065
 20
45.8227
 30
0.0
 11
55.0072
 21
45.8227
 31
0.0
  0
LINE
  8
0
 62
     0
 10
55.0072
 20
45.8227
 30
0.0
 11
55.0072
 21
59.8219
 31
0.0
  0
LINE
  8
0
 62
     0
 10
74.0572
 20
59.8219
 30
0.0
 11
88.0565
 21
59.8219
 31
0.0
  0
LINE
  8
0
 62
     0
 10
88.0565
 20
59.8219
 30
0.0
 11
88.0565
 21
45.8227
 31
0.0
  0
LINE
  8
0
 62
     0
 10
88.0565
 20
45.8227
 30
0.0
 11
74.0572
 21
45.8227
 31
0.0
  0
LINE
  8
0
 62
     0
 10
74.0572
 20
45.8227
 30
0.0
 11
74.0572
 21
59.8219
 31
0.0
  0
LINE
  8
0
 62
     0
 10
93.1072
 20
59.8219
 30
0.0
 11
107.107
 21
59.8219
 31
0.0
  0
LINE
  8
0
 62
     0
 10
107.107
 20
59.8219
 30
0.0
 11
107.107
 21
45.8227
 31
0.0
  0
LINE
  8
0
 62
     0
 10
107.107
 20
45.8227
 30
0.0
 11
93.1072
 21
45.8227
 31
0.0
  0
LINE
  8
0
 62
     0
 10
93.1072
 20
45.8227
 30
0.0
 11
93.1072
 21
59.8219
 31
0.0
  0
LINE
  8
0
 62
     0
 10
112.157
 20
59.8219
 30
0.0
 11
126.157
 21
59.8219
 31
0.0
  0
LINE
  8
0
 62
     0
 10
126.157
 20
59.8219
 30
0.0
 11
126.157
 21
45.8227
 31
0.0
  0
LINE
  8
0
 62
     0
 10
126.157
 20
45.8227
 30
0.0
 11
112.157
 21
45.8227
 31
0.0
  0
LINE
  8
0
 62
     0
 10
112.157
 20
45.8227
 30
0.0
 11
112.157
 21
59.8219
 31
0.0
  0
LINE
  8
0
 62
     0
 10
131.207
 20
59.8219
 30
0.0
 11
145.207
 21
59.8219
 31
0.0
  0
LINE
  8
0
 62
     0
 10
145.207
 20
59.8219
 30
0.0
 11
145.207
 21
45.8227
 31
0.0
  0
LINE
  8
0
 62
     0
 10
145.207
 20
45.8227
 30
0.0
 11
131.207
 21
45.8227
 31
0.0
  0
LINE
  8
0
 62
     0
 10
131.207
 20
45.8227
 30
0.0
 11
131.207
 21
59.8219
 31
0.0
  0
LINE
  8
0
 62
     0
 10
150.257
 20
59.8219
 30
0.0
 11
164.257
 21
59.8219
 31
0.0
  0
LINE
  8
0
 62
     0
 10
164.257
 20
59.8219
 30
0.0
 11
164.257
 21
45.8227
 31
0.0
  0
LINE
  8
0
 62
     0
 10
164.257
 20
45.8227
 30
0.0
 11
150.257
 21
45.8227
 31
0.0
  0
LINE
  8
0
 62
     0
 10
150.257
 20
45.8227
 30
0.0
 11
150.257
 21
59.8219
 31
0.0
  0
LINE
  8
0
 62
     0
 10
169.307
 20
59.8219
 30
0.0
 11
183.307
 21
59.8219
 31
0.0
  0
LINE
  8
0
 62
     0
 10
183.307
 20
59.8219
 30
0.0
 11
183.307
 21
45.8227
 31
0.0
  0
LINE
  8
0
 62
     0
 10
183.307
 20
45.8227
 30
0.0
 11
169.307
 21
45.8227
 31
0.0
  0
LINE
  8
0
 62
     0
 10
169.307
 20
45.8227
 30
0.0
 11
169.307
 21
59.8219
 31
0.0
  0
LINE
  8
0
 62
     0
 10
188.357
 20
59.8219
 30
0.0
 11
202.357
 21
59.8219
 31
0.0
  0
LINE
  8
0
 62
     0
 10
202.357
 20
59.8219
 30
0.0
 11
202.357
 21
45.8227
 31
0.0
  0
LINE
  8
0
 62
     0
 10
202.357
 20
45.8227
 30
0.0
 11
188.357
 21
45.8227
 31
0.0
  0
LINE
  8
0
 62
     0
 10
188.357
 20
45.8227
 30
0.0
 11
188.357
 21
59.8219
 31
0.0
  0
LINE
  8
0
 62
     0
 10
207.407
 20
59.8219
 30
0.0
 11
221.407
 21
59.8219
 31
0.0
  0
LINE
  8
0
 62
     0
 10
221.407
 20
59.8219
 30
0.0
 11
221.407
 21
45.8227
 31
0.0
  0
LINE
  8
0
 62
     0
 10
221.407
 20
45.8227
 30
0.0
 11
207.407
 21
45.8227
 31
0.0
  0
LINE
  8
0
 62
     0
 10
207.407
 20
45.8227
 30
0.0
 11
207.407
 21
59.8219
 31
0.0
  0
LINE
  8
0
 62
     0
 10
226.457
 20
59.8219
 30
0.0
 11
240.457
 21
59.8219
 31
0.0
  0
LINE
  8
0
 62
     0
 10
240.457
 20
59.8219
 30
0.0
 11
240.457
 21
45.8227
 31
0.0
  0
LINE
  8
0
 62
     0
 10
240.457
 20
45.8227
 30
0.0
 11
226.457
 21
45.8227
 31
0.0
  0
LINE
  8
0
 62
     0
 10
226.457
 20
45.8227
 30
0.0
 11
226.457
 21
59.8219
 31
0.0
  0
LINE
  8
0
 62
     0
 10
245.507
 20
59.8219
 30
0.0
 11
259.507
 21
59.8219
 31
0.0
  0
LINE
  8
0
 62
     0
 10
259.507
 20
59.8219
 30
0.0
 11
259.507
 21
45.8227
 31
0.0
  0
LINE
  8
0
 62
     0
 10
259.507
 20
45.8227
 30
0.0
 11
245.507
 21
45.8227
 31
0.0
  0
LINE
  8
0
 62
     0
 10
245.507
 20
45.8227
 30
0.0
 11
245.507
 21
59.8219
 31
0.0
  0
LINE
  8
0
 62
     0
 10
269.32
 20
59.8219
 30
0.0
 11
283.319
 21
59.8219
 31
0.0
  0
LINE
  8
0
 62
     0
 10
283.319
 20
59.8219
 30
0.0
 11
283.319
 21
45.8227
 31
0.0
  0
LINE
  8
0
 62
     0
 10
283.319
 20
45.8227
 30
0.0
 11
269.32
 21
45.8227
 31
0.0
  0
LINE
  8
0
 62
     0
 10
269.32
 20
45.8227
 30
0.0
 11
269.32
 21
59.8219
 31
0.0
  0
LINE
  8
0
 62
     0
 10
5.00091
 20
78.8719
 30
0.0
 11
19.0004
 21
78.8719
 31
0.0
  0
LINE
  8
0
 62
     0
 10
19.0004
 20
78.8719
 30
0.0
 11
19.0004
 21
64.8727
 31
0.0
  0
LINE
  8
0
 62
     0
 10
19.0004
 20
64.8727
 30
0.0
 11
5.00091
 21
64.8727
 31
0.0
  0
LINE
  8
0
 62
     0
 10
5.00091
 20
64.8727
 30
0.0
 11
5.00091
 21
78.8719
 31
0.0
  0
LINE
  8
0
 62
     0
 10
31.1947
 20
78.8719
 30
0.0
 11
45.194
 21
78.8719
 31
0.0
  0
LINE
  8
0
 62
     0
 10
45.194
 20
78.8719
 30
0.0
 11
45.194
 21
64.8727
 31
0.0
  0
LINE
  8
0
 62
     0
 10
45.194
 20
64.8727
 30
0.0
 11
31.1947
 21
64.8727
 31
0.0
  0
LINE
  8
0
 62
     0
 10
31.1947
 20
64.8727
 30
0.0
 11
31.1947
 21
78.8719
 31
0.0
  0
LINE
  8
0
 62
     0
 10
55.0072
 20
78.8719
 30
0.0
 11
69.0065
 21
78.8719
 31
0.0
  0
LINE
  8
0
 62
     0
 10
69.0065
 20
78.8719
 30
0.0
 11
69.0065
 21
64.8727
 31
0.0
  0
LINE
  8
0
 62
     0
 10
69.0065
 20
64.8727
 30
0.0
 11
55.0072
 21
64.8727
 31
0.0
  0
LINE
  8
0
 62
     0
 10
55.0072
 20
64.8727
 30
0.0
 11
55.0072
 21
78.8719
 31
0.0
  0
LINE
  8
0
 62
     0
 10
74.0572
 20
78.8719
 30
0.0
 11
88.0565
 21
78.8719
 31
0.0
  0
LINE
  8
0
 62
     0
 10
88.0565
 20
78.8719
 30
0.0
 11
88.0565
 21
64.8727
 31
0.0
  0
LINE
  8
0
 62
     0
 10
88.0565
 20
64.8727
 30
0.0
 11
74.0572
 21
64.8727
 31
0.0
  0
LINE
  8
0
 62
     0
 10
74.0572
 20
64.8727
 30
0.0
 11
74.0572
 21
78.8719
 31
0.0
  0
LINE
  8
0
 62
     0
 10
93.1072
 20
78.8719
 30
0.0
 11
107.107
 21
78.8719
 31
0.0
  0
LINE
  8
0
 62
     0
 10
107.107
 20
78.8719
 30
0.0
 11
107.107
 21
64.8727
 31
0.0
  0
LINE
  8
0
 62
     0
 10
107.107
 20
64.8727
 30
0.0
 11
93.1072
 21
64.8727
 31
0.0
  0
LINE
  8
0
 62
     0
 10
93.1072
 20
64.8727
 30
0.0
 11
93.1072
 21
78.8719
 31
0.0
  0
LINE
  8
0
 62
     0
 10
112.157
 20
78.8719
 30
0.0
 11
126.157
 21
78.8719
 31
0.0
  0
LINE
  8
0
 62
     0
 10
126.157
 20
78.8719
 30
0.0
 11
126.157
 21
64.8727
 31
0.0
  0
LINE
  8
0
 62
     0
 10
126.157
 20
64.8727
 30
0.0
 11
112.157
 21
64.8727
 31
0.0
  0
LINE
  8
0
 62
     0
 10
112.157
 20
64.8727
 30
0.0
 11
112.157
 21
78.8719
 31
0.0
  0
LINE
  8
0
 62
     0
 10
131.207
 20
78.8719
 30
0.0
 11
145.207
 21
78.8719
 31
0.0
  0
LINE
  8
0
 62
     0
 10
145.207
 20
78.8719
 30
0.0
 11
145.207
 21
64.8727
 31
0.0
  0
LINE
  8
0
 62
     0
 10
145.207
 20
64.8727
 30
0.0
 11
131.207
 21
64.8727
 31
0.0
  0
LINE
  8
0
 62
     0
 10
131.207
 20
64.8727
 30
0.0
 11
131.207
 21
78.8719
 31
0.0
  0
LINE
  8
0
 62
     0
 10
150.257
 20
78.8719
 30
0.0
 11
164.257
 21
78.8719
 31
0.0
  0
LINE
  8
0
 62
     0
 10
164.257
 20
78.8719
 30
0.0
 11
164.257
 21
64.8727
 31
0.0
  0
LINE
  8
0
 62
     0
 10
164.257
 20
64.8727
 30
0.0
 11
150.257
 21
64.8727
 31
0.0
  0
LINE
  8
0
 62
     0
 10
150.257
 20
64.8727
 30
0.0
 11
150.257
 21
78.8719
 31
0.0
  0
LINE
  8
0
 62
     0
 10
169.307
 20
78.8719
 30
0.0
 11
183.307
 21
78.8719
 31
0.0
  0
LINE
  8
0
 62
     0
 10
183.307
 20
78.8719
 30
0.0
 11
183.307
 21
64.8727
 31
0.0
  0
LINE
  8
0
 62
     0
 10
183.307
 20
64.8727
 30
0.0
 11
169.307
 21
64.8727
 31
0.0
  0
LINE
  8
0
 62
     0
 10
169.307
 20
64.8727
 30
0.0
 11
169.307
 21
78.8719
 31
0.0
  0
LINE
  8
0
 62
     0
 10
188.357
 20
78.8719
 30
0.0
 11
202.357
 21
78.8719
 31
0.0
  0
LINE
  8
0
 62
     0
 10
202.357
 20
78.8719
 30
0.0
 11
202.357
 21
64.8727
 31
0.0
  0
LINE
  8
0
 62
     0
 10
202.357
 20
64.8727
 30
0.0
 11
188.357
 21
64.8727
 31
0.0
  0
LINE
  8
0
 62
     0
 10
188.357
 20
64.8727
 30
0.0
 11
188.357
 21
78.8719
 31
0.0
  0
LINE
  8
0
 62
     0
 10
207.407
 20
78.8719
 30
0.0
 11
221.407
 21
78.8719
 31
0.0
  0
LINE
  8
0
 62
     0
 10
221.407
 20
78.8719
 30
0.0
 11
221.407
 21
64.8727
 31
0.0
  0
LINE
  8
0
 62
     0
 10
221.407
 20
64.8727
 30
0.0
 11
207.407
 21
64.8727
 31
0.0
  0
LINE
  8
0
 62
     0
 10
207.407
 20
64.8727
 30
0.0
 11
207.407
 21
78.8719
 31
0.0
  0
LINE
  8
0
 62
     0
 10
226.457
 20
78.8719
 30
0.0
 11
240.457
 21
78.8719
 31
0.0
  0
LINE
  8
0
 62
     0
 10
240.457
 20
78.8719
 30
0.0
 11
240.457
 21
64.8727
 31
0.0
  0
LINE
  8
0
 62
     0
 10
240.457
 20
64.8727
 30
0.0
 11
226.457
 21
64.8727
 31
0.0
  0
LINE
  8
0
 62
     0
 10
226.457
 20
64.8727
 30
0.0
 11
226.457
 21
78.8719
 31
0.0
  0
LINE
  8
0
 62
     0
 10
245.507
 20
78.8719
 30
0.0
 11
259.507
 21
78.8719
 31
0.0
  0
LINE
  8
0
 62
     0
 10
259.507
 20
78.8719
 30
0.0
 11
259.507
 21
64.8727
 31
0.0
  0
LINE
  8
0
 62
     0
 10
259.507
 20
64.8727
 30
0.0
 11
245.507
 21
64.8727
 31
0.0
  0
LINE
  8
0
 62
     0
 10
245.507
 20
64.8727
 30
0.0
 11
245.507
 21
78.8719
 31
0.0
  0
LINE
  8
0
 62
     0
 10
264.557
 20
78.8719
 30
0.0
 11
278.557
 21
78.8719
 31
0.0
  0
LINE
  8
0
 62
     0
 10
278.557
 20
78.8719
 30
0.0
 11
278.557
 21
64.8727
 31
0.0
  0
LINE
  8
0
 62
     0
 10
278.557
 20
64.8727
 30
0.0
 11
264.557
 21
64.8727
 31
0.0
  0
LINE
  8
0
 62
     0
 10
264.557
 20
64.8727
 30
0.0
 11
264.557
 21
78.8719
 31
0.0
  0
LINE
  8
0
 62
     0
 10
288.37
 20
78.8719
 30
0.0
 11
302.369
 21
78.8719
 31
0.0
  0
LINE
  8
0
 62
     0
 10
302.369
 20
78.8719
 30
0.0
 11
302.369
 21
64.8727
 31
0.0
  0
LINE
  8
0
 62
     0
 10
302.369
 20
64.8727
 30
0.0
 11
288.37
 21
64.8727
 31
0.0
  0
LINE
  8
0
 62
     0
 10
288.37
 20
64.8727
 30
0.0
 11
288.37
 21
78.8719
 31
0.0
  0
LINE
  8
0
 62
     0
 10
5.00091
 20
97.9219
 30
0.0
 11
19.0004
 21
97.9219
 31
0.0
  0
LINE
  8
0
 62
     0
 10
19.0004
 20
97.9219
 30
0.0
 11
19.0004
 21
83.9227
 31
0.0
  0
LINE
  8
0
 62
     0
 10
19.0004
 20
83.9227
 30
0.0
 11
5.00091
 21
83.9227
 31
0.0
  0
LINE
  8
0
 62
     0
 10
5.00091
 20
83.9227
 30
0.0
 11
5.00091
 21
97.9219
 31
0.0
  0
LINE
  8
0
 62
     0
 10
31.1947
 20
97.9219
 30
0.0
 11
45.194
 21
97.9219
 31
0.0
  0
LINE
  8
0
 62
     0
 10
45.194
 20
97.9219
 30
0.0
 11
45.194
 21
83.9227
 31
0.0
  0
LINE
  8
0
 62
     0
 10
45.194
 20
83.9227
 30
0.0
 11
31.1947
 21
83.9227
 31
0.0
  0
LINE
  8
0
 62
     0
 10
31.1947
 20
83.9227
 30
0.0
 11
31.1947
 21
97.9219
 31
0.0
  0
LINE
  8
0
 62
     0
 10
55.0072
 20
97.9219
 30
0.0
 11
69.0065
 21
97.9219
 31
0.0
  0
LINE
  8
0
 62
     0
 10
69.0065
 20
97.9219
 30
0.0
 11
69.0065
 21
83.9227
 31
0.0
  0
LINE
  8
0
 62
     0
 10
69.0065
 20
83.9227
 30
0.0
 11
55.0072
 21
83.9227
 31
0.0
  0
LINE
  8
0
 62
     0
 10
55.0072
 20
83.9227
 30
0.0
 11
55.0072
 21
97.9219
 31
0.0
  0
LINE
  8
0
 62
     0
 10
74.0572
 20
97.9219
 30
0.0
 11
88.0565
 21
97.9219
 31
0.0
  0
LINE
  8
0
 62
     0
 10
88.0565
 20
97.9219
 30
0.0
 11
88.0565
 21
83.9227
 31
0.0
  0
LINE
  8
0
 62
     0
 10
88.0565
 20
83.9227
 30
0.0
 11
74.0572
 21
83.9227
 31
0.0
  0
LINE
  8
0
 62
     0
 10
74.0572
 20
83.9227
 30
0.0
 11
74.0572
 21
97.9219
 31
0.0
  0
LINE
  8
0
 62
     0
 10
93.1072
 20
97.9219
 30
0.0
 11
107.107
 21
97.9219
 31
0.0
  0
LINE
  8
0
 62
     0
 10
107.107
 20
97.9219
 30
0.0
 11
107.107
 21
83.9227
 31
0.0
  0
LINE
  8
0
 62
     0
 10
107.107
 20
83.9227
 30
0.0
 11
93.1072
 21
83.9227
 31
0.0
  0
LINE
  8
0
 62
     0
 10
93.1072
 20
83.9227
 30
0.0
 11
93.1072
 21
97.9219
 31
0.0
  0
LINE
  8
0
 62
     0
 10
112.157
 20
97.9219
 30
0.0
 11
126.157
 21
97.9219
 31
0.0
  0
LINE
  8
0
 62
     0
 10
126.157
 20
97.9219
 30
0.0
 11
126.157
 21
83.9227
 31
0.0
  0
LINE
  8
0
 62
     0
 10
126.157
 20
83.9227
 30
0.0
 11
112.157
 21
83.9227
 31
0.0
  0
LINE
  8
0
 62
     0
 10
112.157
 20
83.9227
 30
0.0
 11
112.157
 21
97.9219
 31
0.0
  0
LINE
  8
0
 62
     0
 10
131.207
 20
97.9219
 30
0.0
 11
145.207
 21
97.9219
 31
0.0
  0
LINE
  8
0
 62
     0
 10
145.207
 20
97.9219
 30
0.0
 11
145.207
 21
83.9227
 31
0.0
  0
LINE
  8
0
 62
     0
 10
145.207
 20
83.9227
 30
0.0
 11
131.207
 21
83.9227
 31
0.0
  0
LINE
  8
0
 62
     0
 10
131.207
 20
83.9227
 30
0.0
 11
131.207
 21
97.9219
 31
0.0
  0
LINE
  8
0
 62
     0
 10
150.257
 20
97.9219
 30
0.0
 11
164.257
 21
97.9219
 31
0.0
  0
LINE
  8
0
 62
     0
 10
164.257
 20
97.9219
 30
0.0
 11
164.257
 21
83.9227
 31
0.0
  0
LINE
  8
0
 62
     0
 10
164.257
 20
83.9227
 30
0.0
 11
150.257
 21
83.9227
 31
0.0
  0
LINE
  8
0
 62
     0
 10
150.257
 20
83.9227
 30
0.0
 11
150.257
 21
97.9219
 31
0.0
  0
LINE
  8
0
 62
     0
 10
169.307
 20
97.9219
 30
0.0
 11
183.307
 21
97.9219
 31
0.0
  0
LINE
  8
0
 62
     0
 10
183.307
 20
97.9219
 30
0.0
 11
183.307
 21
83.9227
 31
0.0
  0
LINE
  8
0
 62
     0
 10
183.307
 20
83.9227
 30
0.0
 11
169.307
 21
83.9227
 31
0.0
  0
LINE
  8
0
 62
     0
 10
169.307
 20
83.9227
 30
0.0
 11
169.307
 21
97.9219
 31
0.0
  0
LINE
  8
0
 62
     0
 10
188.357
 20
97.9219
 30
0.0
 11
202.357
 21
97.9219
 31
0.0
  0
LINE
  8
0
 62
     0
 10
202.357
 20
97.9219
 30
0.0
 11
202.357
 21
83.9227
 31
0.0
  0
LINE
  8
0
 62
     0
 10
202.357
 20
83.9227
 30
0.0
 11
188.357
 21
83.9227
 31
0.0
  0
LINE
  8
0
 62
     0
 10
188.357
 20
83.9227
 30
0.0
 11
188.357
 21
97.9219
 31
0.0
  0
LINE
  8
0
 62
     0
 10
207.407
 20
97.9219
 30
0.0
 11
221.407
 21
97.9219
 31
0.0
  0
LINE
  8
0
 62
     0
 10
221.407
 20
97.9219
 30
0.0
 11
221.407
 21
83.9227
 31
0.0
  0
LINE
  8
0
 62
     0
 10
221.407
 20
83.9227
 30
0.0
 11
207.407
 21
83.9227
 31
0.0
  0
LINE
  8
0
 62
     0
 10
207.407
 20
83.9227
 30
0.0
 11
207.407
 21
97.9219
 31
0.0
  0
LINE
  8
0
 62
     0
 10
226.457
 20
97.9219
 30
0.0
 11
240.457
 21
97.9219
 31
0.0
  0
LINE
  8
0
 62
     0
 10
240.457
 20
97.9219
 30
0.0
 11
240.457
 21
83.9227
 31
0.0
  0
LINE
  8
0
 62
     0
 10
240.457
 20
83.9227
 30
0.0
 11
226.457
 21
83.9227
 31
0.0
  0
LINE
  8
0
 62
     0
 10
226.457
 20
83.9227
 30
0.0
 11
226.457
 21
97.9219
 31
0.0
  0
LINE
  8
0
 62
     0
 10
245.507
 20
97.9219
 30
0.0
 11
259.507
 21
97.9219
 31
0.0
  0
LINE
  8
0
 62
     0
 10
259.507
 20
97.9219
 30
0.0
 11
259.507
 21
83.9227
 31
0.0
  0
LINE
  8
0
 62
     0
 10
259.507
 20
83.9227
 30
0.0
 11
245.507
 21
83.9227
 31
0.0
  0
LINE
  8
0
 62
     0
 10
245.507
 20
83.9227
 30
0.0
 11
245.507
 21
97.9219
 31
0.0
  0
LINE
  8
0
 62
     0
 10
264.557
 20
97.9219
 30
0.0
 11
278.557
 21
97.9219
 31
0.0
  0
LINE
  8
0
 62
     0
 10
278.557
 20
97.9219
 30
0.0
 11
278.557
 21
83.9227
 31
0.0
  0
LINE
  8
0
 62
     0
 10
278.557
 20
83.9227
 30
0.0
 11
264.557
 21
83.9227
 31
0.0
  0
LINE
  8
0
 62
     0
 10
264.557
 20
83.9227
 30
0.0
 11
264.557
 21
97.9219
 31
0.0
  0
LINE
  8
0
 62
     0
 10
288.37
 20
97.9219
 30
0.0
 11
302.369
 21
97.9219
 31
0.0
  0
LINE
  8
0
 62
     0
 10
302.369
 20
97.9219
 30
0.0
 11
302.369
 21
83.9227
 31
0.0
  0
LINE
  8
0
 62
     0
 10
302.369
 20
83.9227
 30
0.0
 11
288.37
 21
83.9227
 31
0.0
  0
LINE
  8
0
 62
     0
 10
288.37
 20
83.9227
 30
0.0
 11
288.37
 21
97.9219
 31
0.0
  0
ENDSEC
  0
EOF
