0
SECTION
2
HEADER
9
$INSUNITS
70
4
9
$ACADVER
1
AC1014
9
$HANDSEED
5
FFFF
0
ENDSEC
0
SECTION
2
TABLES
0
TABLE
2
VPORT
5
8
100
AcDbSymbolTable
0
ENDTAB
0
TABLE
2
LTYPE
5
5
100
AcDbSymbolTable
0
LTYPE
5
14
100
AcDbSymbolTableRecord
100
AcDbLinetypeTableRecord
2
BYBLOCK
70
0
0
LTYPE
5
15
100
AcDbSymbolTableRecord
100
AcDbLinetypeTableRecord
2
BYLAYER
70
0
0
LTYPE
5
16
100
AcDbSymbolTableRecord
100
AcDbLinetypeTableRecord
2
DASHED
70
0
3
Dashed __ __ __ __ __ __ __ __ __ __ __ __ __ _
72
65
73
2
40
0.75
49
0.5
74
0
49
-0.25
74
0
0
ENDTAB
0
TABLE
2
LAYER
5
2
100
AcDbSymbolTable
70
3
0
LAYER
5
50
100
AcDbSymbolTableRecord
100
AcDbLayerTableRecord
2
1
70
0
62
7
6
DASHED
0
LAYER
5
51
100
AcDbSymbolTableRecord
100
AcDbLayerTableRecord
2
0
70
0
62
7
6
CONTINUOUS
0
ENDTAB
0
TABLE
2
STYLE
5
3
100
AcDbSymbolTable
70
1
0
STYLE
5
11
100
AcDbSymbolTableRecord
100
AcDbTextStyleTableRecord
2
STANDARD
70
0
0
ENDTAB
0
TABLE
2
VIEW
5
6
100
AcDbSymbolTable
70
0
0
ENDTAB
0
TABLE
2
UCS
5
7
100
AcDbSymbolTable
70
0
0
ENDTAB
0
TABLE
2
APPID
5
9
100
AcDbSymbolTable
70
2
0
APPID
5
12
100
AcDbSymbolTableRecord
100
AcDbRegAppTableRecord
2
ACAD
70
0
0
ENDTAB
0
TABLE
2
DIMSTYLE
5
A
100
AcDbSymbolTable
70
1
0
ENDTAB
0
TABLE
2
BLOCK_RECORD
5
1
100
AcDbSymbolTable
70
1
0
BLOCK_RECORD
5
1F
100
AcDbSymbolTableRecord
100
AcDbBlockTableRecord
2
*MODEL_SPACE
0
BLOCK_RECORD
5
1B
100
AcDbSymbolTableRecord
100
AcDbBlockTableRecord
2
*PAPER_SPACE
0
ENDTAB
0
ENDSEC
0
SECTION
2
BLOCKS
0
BLOCK
5
20
100
AcDbEntity
100
AcDbBlockBegin
2
*MODEL_SPACE
0
ENDBLK
5
21
100
AcDbEntity
100
AcDbBlockEnd
0
BLOCK
5
1C
100
AcDbEntity
100
AcDbBlockBegin
2
*PAPER_SPACE
0
ENDBLK
5
1D
100
AcDbEntity
100
AcDbBlockEnd
0
ENDSEC
0
SECTION
2
ENTITIES
0
LWPOLYLINE
5
100
100
AcDbEntity
8
OUTER_PROFILES
100
AcDbPolyline
90
80
70
1
43
0.0
10
100.99333695928311
20
214.54880182837195
10
100.99333695928308
20
212.09440182837199
42
-0.99999999999999989
10
100.4853369592831
20
212.09440182837199
10
100.48533695928302
20
271.60402977116263
42
0.41421356237309631
10
96.485336959283018
20
275.60402977116263
10
7.1299202935839489e-14
20
275.60402977116263
42
0.41421356237309503
10
-3.9999999999999289
20
271.60402977116263
10
-3.9999999999999503
20
218.94702977116268
42
0.4142135623730937
10
-2.9999999999999405
20
217.94702977116265
10
-2.7999999999999403
20
217.94702977116265
10
-2.7999999999999403
20
213.20580182837199
10
-2.999999999999972
20
213.20580182837199
42
0.41421356237308449
10
-3.9999999999999365
20
212.20580182837196
10
-3.9999999999999503
20
201.66438785697665
42
0.41421356237308449
10
-2.999999999999972
20
200.66438785697665
10
-2.5221031917537573
20
200.66438785697665
10
-2.5221031917537573
20
197.00678785697664
10
-6.1797031917537737
20
197.00678785697662
10
-6.1797031917537382
20
197.48468466522283
42
0.4142135623730937
10
-7.1797031917537479
20
198.48468466522286
10
-20.064117163149078
20
198.48468466522286
42
0.41421356237309503
10
-21.064117163149078
20
197.48468466522283
10
-21.064117163149078
20
32.119345105939807
42
0.41421356237309764
10
-20.064117163149078
20
31.119345105939797
10
-7.1797031917537524
20
31.119345105939793
42
0.4142135623730937
10
-6.1797031917537524
20
32.119345105939786
10
-6.1797031917537737
20
32.597241914185979
10
-2.5221031917537573
20
32.597241914185979
10
-2.5221031917537573
20
28.939641914185977
10
-2.999999999999901
20
28.939641914185977
42
0.41421356237309492
10
-3.9999999999999005
20
27.939641914185977
10
-3.9999999999999014
20
17.398227942790641
42
0.41421356237309404
10
-2.9999999999999014
20
16.398227942790641
10
-2.7999999999999758
20
16.398227942790644
10
-2.7999999999999758
20
11.657000000000007
10
-2.999999999999972
20
11.657000000000007
42
0.41421356237309492
10
-3.9999999999999716
20
10.657000000000005
10
-4
20
4
42
0.41421356237309515
10
1.3877787807814457e-15
20
-1.1102230246251565e-15
10
320.91633695928306
20
1.3322676295501878e-14
42
0.41421356237309503
10
324.91633695928306
20
3.9999999999999991
10
324.91633695928306
20
10.657
42
0.41421356237307422
10
323.91633695928311
20
11.657000000000002
10
323.71633695928313
20
11.657000000000002
10
323.71633695928313
20
16.398227942790644
10
323.91633695928311
20
16.398227942790626
42
0.41421356237308071
10
324.91633695928306
20
17.398227942790662
10
324.91633695928306
20
27.939641914185984
42
0.41421356237307422
10
323.91633695928311
20
28.939641914185984
10
323.43844015103684
20
28.939641914185977
10
323.43844015103684
20
32.597241914185979
10
327.09604015103685
20
32.597241914185979
10
327.09604015103685
20
32.119345105939828
42
0.41421356237308071
10
328.09604015103679
20
31.1193451059398
10
340.98045412243221
20
31.119345105939789
42
0.41421356237310414
10
341.98045412243226
20
32.119345105939836
10
341.98045412243226
20
197.48468466522286
42
0.41421356237309503
10
340.98045412243221
20
198.48468466522289
10
328.09604015103685
20
198.48468466522286
42
0.41421356237309503
10
327.09604015103685
20
197.48468466522283
10
327.09604015103685
20
197.00678785697662
10
323.43844015103684
20
197.00678785697662
10
323.43844015103684
20
200.66438785697665
10
323.91633695928306
20
200.66438785697665
42
0.4142135623730846
10
324.91633695928317
20
201.66438785697662
10
324.91633695928317
20
212.20580182837199
42
0.41421356237310542
10
323.91633695928306
20
213.20580182837199
10
323.71633695928313
20
213.20580182837199
10
323.71633695928313
20
217.94702977116265
10
323.91633695928306
20
217.94702977116265
42
0.4142135623730846
10
324.91633695928306
20
218.9470297711627
10
324.91633695928306
20
270.68962977116269
42
0.41421356237309503
10
320.91633695928306
20
274.68962977116269
10
224.99333695928306
20
274.68962977116269
42
0.41421356237309503
10
220.99333695928308
20
270.68962977116269
10
220.99333695928308
20
212.09440182837193
42
-0.99999999999999989
10
220.48533695928307
20
212.09440182837196
10
220.4853369592831
20
214.54880182837195
42
0.41421356237309503
10
219.48533695928307
20
215.54880182837195
10
101.99333695928311
20
215.54880182837192
42
0.41421356237310025
0
LWPOLYLINE
5
101
100
AcDbEntity
8
INTERIOR_PROFILES
100
AcDbPolyline
90
8
70
1
43
0.0
10
176.9176111796416
20
206.7232018283716
42
0.41421356237309503
10
177.9176111796416
20
205.7232018283716
10
215.91761117964157
20
205.7232018283716
42
0.41421356237309503
10
216.9176111796416
20
206.7232018283716
10
216.9176111796416
20
212.42320182837182
42
0.41421356237309503
10
215.91761117964157
20
213.42320182837184
10
177.9176111796416
20
213.42320182837184
42
0.41421356237309503
10
176.9176111796416
20
212.42320182837182
0
LWPOLYLINE
5
102
100
AcDbEntity
8
INTERIOR_PROFILES
100
AcDbPolyline
90
8
70
1
43
0.0
10
233.4761261796416
20
43.796055885581296
10
233.4761261796416
20
61.646738885581307
42
-0.41421356237309503
10
234.4761261796416
20
62.6467388855813
10
310.27612617964161
20
62.646738885581321
42
-0.41421356237309243
10
311.27612617964161
20
61.646738885581314
10
311.27612617964161
20
43.796055885581296
42
-0.41421356237309503
10
310.27612617964161
20
42.796055885581303
10
234.4761261796416
20
42.796055885581282
42
-0.41421356237309503
0
LWPOLYLINE
5
103
100
AcDbEntity
8
INTERIOR_PROFILES
100
AcDbPolyline
90
20
70
1
43
0.0
10
6.6767107796415814
20
142.8079738855813
10
314.23962617964156
20
142.8079738855813
42
-0.41421356237309503
10
315.23962617964162
20
141.8079738855813
10
315.23962617964162
20
104.90927388558131
42
-0.41421356237309503
10
314.23962617964156
20
103.90927388558131
10
297.98862617964164
20
103.90927388558133
42
0.41421356237308982
10
296.98862617964159
20
102.90927388558133
10
296.98862617964159
20
85.859273885581274
42
-0.41421356237308982
10
295.98862617964159
20
84.859273885581302
10
278.93862617964157
20
84.859273885581317
42
0.41421356237308982
10
277.93862617964157
20
83.859273885581317
10
277.93862617964157
20
66.809173885581302
42
-0.41421356237309503
10
276.93862617964157
20
65.809173885581316
10
231.3136261796416
20
65.80917388558133
42
0.41421356237309503
10
230.3136261796416
20
64.809173885581316
10
230.31362617964157
20
47.759233885581303
42
-0.41421356237309503
10
229.31362617964155
20
46.75923388558131
10
6.6767107796415814
20
46.75923388558131
42
-0.41421356237309503
10
5.6767107796415814
20
47.759233885581303
10
5.676710779641585
20
141.80797388558133
42
-0.41421356237308982
0
CIRCLE
5
104
100
AcDbEntity
8
INTERIOR_PROFILES
100
AcDbCircle
10
-50.676710779641567
20
5.9999999999999876
30
0
40
1.3999999999999968
210
0
220
0
230
-1
0
CIRCLE
5
105
100
AcDbEntity
8
INTERIOR_PROFILES
100
AcDbCircle
10
-230.23962617964159
20
267.60402977116257
30
0
40
1.5749999999999886
210
0
220
0
230
-1
0
CIRCLE
5
106
100
AcDbEntity
8
INTERIOR_PROFILES
100
AcDbCircle
10
-314.91633695928306
20
224.7470297711626
30
0
40
2.5750000000000028
210
0
220
0
230
-1
0
CIRCLE
5
107
100
AcDbEntity
8
INTERIOR_PROFILES
100
AcDbCircle
10
-161.27562617964156
20
5.9999999999999876
30
0
40
1.4000000000000057
210
0
220
0
230
-1
0
CIRCLE
5
108
100
AcDbEntity
8
INTERIOR_PROFILES
100
AcDbCircle
10
-254.91633695928306
20
224.7470297711626
30
0
40
2.5750000000000028
210
0
220
0
230
-1
0
CIRCLE
5
109
100
AcDbEntity
8
INTERIOR_PROFILES
100
AcDbCircle
10
-6.0000000000000497
20
224.7470297711626
30
0
40
2.5750000000000002
210
0
220
0
230
-1
0
CIRCLE
5
110
100
AcDbEntity
8
INTERIOR_PROFILES
100
AcDbCircle
10
-90.676710779641567
20
267.60402977116257
30
0
40
1.5750000000000064
210
0
220
0
230
-1
0
CIRCLE
5
111
100
AcDbEntity
8
INTERIOR_PROFILES
100
AcDbCircle
10
-260.23962617964162
20
5.9999999999999876
30
0
40
1.4000000000000057
210
0
220
0
230
-1
0
CIRCLE
5
112
100
AcDbEntity
8
INTERIOR_PROFILES
100
AcDbCircle
10
-66.000000000000014
20
224.7470297711626
30
0
40
2.5750000000000028
210
0
220
0
230
-1
0
LINE
5
113
100
AcDbEntity
8
BEND
100
AcDbLine
10
323.71633695928313
20
215.57641579976732
30
1.4012181308941448e-13
11
220.99333695928308
21
215.57641579976732
31
1.2281277338281694e-13
0
LINE
5
114
100
AcDbEntity
8
BEND
100
AcDbLine
10
323.43844015103684
20
198.83558785697664
30
3.9412917374193057e-14
11
-2.5221031917537573
21
198.83558785697664
31
3.0531133177191805e-14
0
LINE
5
115
100
AcDbEntity
8
BEND
100
AcDbLine
10
100.48533695928306
20
215.57641579976723
30
1.2278477095946546e-13
11
-2.7999999999999403
21
215.57641579976723
31
1.401218130894141e-13
0
LINE
5
116
100
AcDbEntity
8
BEND
100
AcDbLine
10
-4.35090319175373
20
197.0067878569767
30
4.5715861929111798e-14
11
-4.35090319175373
21
32.597241914185986
31
4.4489758821682152e-14
0
LINE
5
117
100
AcDbEntity
8
BEND
100
AcDbLine
10
-2.7999999999999758
20
14.027613971395319
30
6.8938183241415008e-15
11
323.71633695928313
21
14.027613971395319
31
6.8938183241415008e-15
0
LINE
5
118
100
AcDbEntity
8
BEND
100
AcDbLine
10
325.26724015103696
20
32.597241914185986
30
4.496403249731884e-14
11
325.26724015103696
21
197.00678785697662
31
3.1641356201816961e-14
0
LINE
5
119
100
AcDbEntity
8
BEND
100
AcDbLine
10
-2.5221031917537573
20
30.768441914185942
30
4.0846491745521699e-14
11
323.43844015103684
21
30.768441914185942
31
4.0754900564427117e-14
0
LINE
5
120
100
AcDbEntity
8
BEND_EXTENT
100
AcDbLine
10
323.43844015103684
20
29.597827942790659
30
4.2188474935755949e-14
11
-2.5221031917537573
21
29.597827942790659
31
4.2188474935755949e-14
0
LINE
5
121
100
AcDbEntity
8
BEND_EXTENT
100
AcDbLine
10
-2.7999999999999758
20
15.198227942790643
30
6.6613381477509392e-15
11
323.71633695928313
21
15.198227942790643
31
4.4408920985006262e-15
0
LINE
5
122
100
AcDbEntity
8
BEND_EXTENT
100
AcDbLine
10
323.71633695928313
20
12.857000000000003
30
1.1102230246251565e-15
11
-2.8000000000000114
21
12.857000000000003
31
1.1102230246251565e-15
0
LINE
5
123
100
AcDbEntity
8
BEND_EXTENT
100
AcDbLine
10
323.71633695928313
20
214.40580182837195
30
1.1546319456101628e-13
11
220.99333695928308
21
214.40580182837195
31
1.1546319456101628e-13
0
LINE
5
124
100
AcDbEntity
8
BEND_EXTENT
100
AcDbLine
10
100.4853369592831
20
214.40580182837195
30
1.1546319456101628e-13
11
-2.7999999999999403
21
214.40580182837195
31
1.1546319456101628e-13
0
LINE
5
125
100
AcDbEntity
8
BEND_EXTENT
100
AcDbLine
10
-2.5221031917537573
20
200.00620182837196
30
4.4408920985006262e-14
11
323.43844015103684
21
200.00620182837196
31
4.4408920985006262e-14
0
LINE
5
126
100
AcDbEntity
8
BEND_EXTENT
100
AcDbLine
10
-2.7999999999999403
20
216.74702977116269
30
1.2101430968414206e-13
11
100.48533695928306
21
216.74702977116269
31
1.2101430968414206e-13
0
LINE
5
127
100
AcDbEntity
8
BEND_EXTENT
100
AcDbLine
10
220.99333695928308
20
216.74702977116269
30
1.2101430968414206e-13
11
323.71633695928313
21
216.74702977116269
31
1.2101430968414206e-13
0
LINE
5
128
100
AcDbEntity
8
BEND_EXTENT
100
AcDbLine
10
323.43844015103684
20
197.66497388558133
30
4.4408920985006262e-14
11
-2.5221031917537573
21
197.66497388558133
31
4.4408920985006262e-14
0
LINE
5
129
100
AcDbEntity
8
BEND_EXTENT
100
AcDbLine
10
-3.1802892203584321
20
197.00678785697664
30
4.4408920985006262e-14
11
-3.1802892203584321
21
32.597241914185986
31
4.4408920985006262e-14
0
LINE
5
130
100
AcDbEntity
8
BEND_EXTENT
100
AcDbLine
10
-2.5221031917537573
20
31.939055885581304
30
4.4408920985006262e-14
11
323.43844015103684
21
31.939055885581304
31
4.4408920985006262e-14
0
LINE
5
131
100
AcDbEntity
8
BEND_EXTENT
100
AcDbLine
10
324.09662617964159
20
32.597241914185979
30
4.4408920985006262e-14
11
324.09662617964159
21
197.00678785697662
31
4.4408920985006262e-14
0
LINE
5
132
100
AcDbEntity
8
BEND_EXTENT
100
AcDbLine
10
326.43785412243227
20
197.00678785697662
30
1.1546319456101628e-13
11
326.43785412243227
21
32.597241914185986
31
1.1546319456101628e-13
0
LINE
5
133
100
AcDbEntity
8
BEND_EXTENT
100
AcDbLine
10
-5.5215171631490989
20
32.597241914185979
30
4.6629367034256575e-14
11
-5.5215171631490989
21
197.00678785697662
31
4.6629367034256575e-14
0
ENDSEC
0
SECTION
2
OBJECTS
0
DICTIONARY
5
C
100
AcDbDictionary
3
ACAD_GROUP
350
D
3
ACAD_MLINESTYLE
350
17
0
DICTIONARY
5
D
100
AcDbDictionary
0
DICTIONARY
5
1A
330
C
100
AcDbDictionary
0
DICTIONARY
5
17
100
AcDbDictionary
0
ENDSEC
0
EOF
