0
SECTION
2
HEADER
9
$INSUNITS
70
4
9
$ACADVER
1
AC1014
9
$HANDSEED
5
FFFF
0
ENDSEC
0
SECTION
2
TABLES
0
TABLE
2
VPORT
5
8
100
AcDbSymbolTable
0
ENDTAB
0
TABLE
2
LTYPE
5
5
100
AcDbSymbolTable
0
LTYPE
5
14
100
AcDbSymbolTableRecord
100
AcDbLinetypeTableRecord
2
BYBLOCK
70
0
0
LTYPE
5
15
100
AcDbSymbolTableRecord
100
AcDbLinetypeTableRecord
2
BYLAYER
70
0
0
LTYPE
5
16
100
AcDbSymbolTableRecord
100
AcDbLinetypeTableRecord
2
DASHED
70
0
3
Dashed __ __ __ __ __ __ __ __ __ __ __ __ __ _
72
65
73
2
40
0.75
49
0.5
74
0
49
-0.25
74
0
0
ENDTAB
0
TABLE
2
LAYER
5
2
100
AcDbSymbolTable
70
3
0
LAYER
5
50
100
AcDbSymbolTableRecord
100
AcDbLayerTableRecord
2
1
70
0
62
7
6
DASHED
0
LAYER
5
51
100
AcDbSymbolTableRecord
100
AcDbLayerTableRecord
2
0
70
0
62
7
6
CONTINUOUS
0
ENDTAB
0
TABLE
2
STYLE
5
3
100
AcDbSymbolTable
70
1
0
STYLE
5
11
100
AcDbSymbolTableRecord
100
AcDbTextStyleTableRecord
2
STANDARD
70
0
0
ENDTAB
0
TABLE
2
VIEW
5
6
100
AcDbSymbolTable
70
0
0
ENDTAB
0
TABLE
2
UCS
5
7
100
AcDbSymbolTable
70
0
0
ENDTAB
0
TABLE
2
APPID
5
9
100
AcDbSymbolTable
70
2
0
APPID
5
12
100
AcDbSymbolTableRecord
100
AcDbRegAppTableRecord
2
ACAD
70
0
0
ENDTAB
0
TABLE
2
DIMSTYLE
5
A
100
AcDbSymbolTable
70
1
0
ENDTAB
0
TABLE
2
BLOCK_RECORD
5
1
100
AcDbSymbolTable
70
1
0
BLOCK_RECORD
5
1F
100
AcDbSymbolTableRecord
100
AcDbBlockTableRecord
2
*MODEL_SPACE
0
BLOCK_RECORD
5
1B
100
AcDbSymbolTableRecord
100
AcDbBlockTableRecord
2
*PAPER_SPACE
0
ENDTAB
0
ENDSEC
0
SECTION
2
BLOCKS
0
BLOCK
5
20
100
AcDbEntity
100
AcDbBlockBegin
2
*MODEL_SPACE
0
ENDBLK
5
21
100
AcDbEntity
100
AcDbBlockEnd
0
BLOCK
5
1C
100
AcDbEntity
100
AcDbBlockBegin
2
*PAPER_SPACE
0
ENDBLK
5
1D
100
AcDbEntity
100
AcDbBlockEnd
0
ENDSEC
0
SECTION
2
ENTITIES
0
LWPOLYLINE
5
100
100
AcDbEntity
8
0
100
AcDbPolyline
90
4
70
1
43
0.0
10
-282.86841540000006
20
-68.438618000000005
10
-282.86841540000006
20
-93.48781799999999
10
-284.86841540000006
20
-93.48781799999999
10
-284.86841540000006
20
-68.438618000000005
0
LWPOLYLINE
5
101
100
AcDbEntity
8
0
100
AcDbPolyline
90
4
70
1
43
0.0
10
-133.6929154
20
-7.5185879999999994
10
-133.6929154
20
-19.817618000000003
10
-138.6929154
20
-19.817618000000003
10
-138.6929154
20
-7.5185879999999994
0
LWPOLYLINE
5
102
100
AcDbEntity
8
0
100
AcDbPolyline
90
4
70
1
43
0.0
10
-24.002315400000015
20
-10.762438000000003
10
-24.002315400000015
20
-94.011918000000009
10
-26.002315400000015
20
-94.011918000000009
10
-26.002315400000015
20
-10.762438000000003
0
LWPOLYLINE
5
103
100
AcDbEntity
8
0
100
AcDbPolyline
90
4
70
1
43
0.0
10
-49.005415400000018
20
-94.011918000000009
10
-51.005415400000018
20
-94.011918000000009
10
-51.005415400000018
20
-10.762438000000003
10
-49.005415400000018
20
-10.762438000000003
0
CIRCLE
5
104
100
AcDbEntity
8
0
100
AcDbCircle
10
-224.56291540000001
20
-104.01191800000001
30
0
40
1.5749999999999886
210
0
220
0
230
1
0
CIRCLE
5
105
100
AcDbEntity
8
0
100
AcDbCircle
10
-85
20
-104.01191800000001
30
0
40
1.5750000000000064
210
0
220
0
230
1
0
CIRCLE
5
106
100
AcDbEntity
8
0
100
AcDbCircle
10
-313.56291540000001
20
-75.011918000000009
30
0
40
1.5749999999999886
210
0
220
0
230
1
0
CIRCLE
5
107
100
AcDbEntity
8
0
100
AcDbCircle
10
-254.56291540000001
20
4
30
0
40
1.5749999999999886
210
0
220
0
230
1
0
CIRCLE
5
108
100
AcDbEntity
8
0
100
AcDbCircle
10
4
20
-75.011918000000009
30
0
40
1.5749999999999997
210
0
220
0
230
1
0
CIRCLE
5
109
100
AcDbEntity
8
0
100
AcDbCircle
10
4
20
-29.762438000000007
30
0
40
1.5749999999999997
210
0
220
0
230
1
0
CIRCLE
5
110
100
AcDbEntity
8
0
100
AcDbCircle
10
-313.56291540000001
20
-25
30
0
40
1.5749999999999886
210
0
220
0
230
1
0
LWPOLYLINE
5
111
100
AcDbEntity
8
0
100
AcDbPolyline
90
40
70
1
43
0.0
10
-249.56291540000001
20
-6.6251990086920913e-31
10
-249.56291540000001
20
8
10
-259.56291540000001
20
8
10
-259.56291540000001
20
0
10
-309.56291540000001
20
0
10
-309.56291540000001
20
-20
10
-317.56291540000001
20
-20
10
-317.56291540000001
20
-30
10
-309.56291540000001
20
-30
10
-309.56291540000001
20
-70.011918000000009
10
-317.56291540000001
20
-70.011918000000009
10
-317.56291540000001
20
-80.011918000000009
10
-309.56291540000001
20
-80.011918000000009
10
-309.56291540000001
20
-100.01191800000001
10
-229.56291540000001
20
-100.01191800000001
10
-229.56291540000001
20
-108.01191800000001
10
-219.56291540000001
20
-108.01191800000001
10
-219.56291540000001
20
-100.01191800000001
10
-90
20
-100.01191800000001
10
-90
20
-108.01191800000001
10
-80
20
-108.01191800000001
10
-80
20
-100.01191800000001
10
0
20
-100.01191800000001
10
0
20
-80.011918000000009
10
8
20
-80.011918000000009
10
8
20
-70.011918000000009
10
0
20
-70.011918000000009
10
-1.0785207688568521e-31
20
-34.762438000000003
10
8
20
-34.762438000000003
10
8
20
-24.762438000000007
10
0
20
-24.762438000000007
10
0
20
0
10
-40
20
0
10
-40
20
8.0000000000000018
10
-50
20
8.0000000000000018
10
-50
20
0
10
-150.59891539999998
20
0
10
-150.59891539999998
20
8
10
-160.59891539999998
20
8
10
-160.59891539999998
20
0
0
LWPOLYLINE
5
112
100
AcDbEntity
8
0
100
AcDbPolyline
90
4
70
1
43
0.0
10
-302.27391540000008
20
-83.488618000000017
10
-288.27491540000005
20
-83.488618000000017
10
-288.27491540000005
20
-97.487818000000004
10
-302.27391540000008
20
-97.487818000000004
0
LWPOLYLINE
5
113
100
AcDbEntity
8
0
100
AcDbPolyline
90
4
70
1
43
0.0
10
-164.16191540000003
20
-45.388618000000001
10
-150.1619154
20
-45.388618000000001
10
-150.1619154
20
-59.387818000000003
10
-164.16191540000003
20
-59.387818000000003
0
LWPOLYLINE
5
114
100
AcDbEntity
8
0
100
AcDbPolyline
90
4
70
1
43
0.0
10
-302.27391540000008
20
-64.438617999999991
10
-288.27491540000005
20
-64.438617999999991
10
-288.27491540000005
20
-78.437818000000007
10
-302.27391540000008
20
-78.437818000000007
0
LWPOLYLINE
5
115
100
AcDbEntity
8
0
100
AcDbPolyline
90
4
70
1
43
0.0
10
-221.31191540000003
20
-26.338418000000008
10
-207.31191540000003
20
-26.338418000000008
10
-207.31191540000003
20
-40.337818000000006
10
-221.31191540000003
20
-40.337818000000006
0
LWPOLYLINE
5
116
100
AcDbEntity
8
0
100
AcDbPolyline
90
4
70
1
43
0.0
10
-283.22391540000007
20
-45.388618000000001
10
-269.22491540000004
20
-45.388618000000001
10
-269.22491540000004
20
-59.387818000000003
10
-283.22391540000007
20
-59.387818000000003
0
LWPOLYLINE
5
117
100
AcDbEntity
8
0
100
AcDbPolyline
90
4
70
1
43
0.0
10
-302.27391540000008
20
-2.5259480000000067
10
-288.27491540000005
20
-2.5259480000000067
10
-288.27491540000005
20
-16.525417999999998
10
-302.27391540000008
20
-16.525417999999998
0
LWPOLYLINE
5
118
100
AcDbEntity
8
0
100
AcDbPolyline
90
4
70
1
43
0.0
10
-164.16191540000003
20
-83.488618000000017
10
-150.1619154
20
-83.488618000000017
10
-150.1619154
20
-97.487818000000004
10
-164.16191540000003
20
-97.487818000000004
0
LWPOLYLINE
5
119
100
AcDbEntity
8
0
100
AcDbPolyline
90
4
70
1
43
0.0
10
-264.17391540000006
20
-26.338418000000008
10
-250.17491540000003
20
-26.338418000000008
10
-250.17491540000003
20
-40.337818000000006
10
-264.17391540000006
20
-40.337818000000006
0
LWPOLYLINE
5
120
100
AcDbEntity
8
0
100
AcDbPolyline
90
4
70
1
43
0.0
10
-126.06191540000005
20
-83.488618000000017
10
-112.06191540000003
20
-83.488618000000017
10
-112.06191540000003
20
-97.487818000000004
10
-126.06191540000005
20
-97.487818000000004
0
LWPOLYLINE
5
121
100
AcDbEntity
8
0
100
AcDbPolyline
90
4
70
1
43
0.0
10
-68.911415399999996
20
-26.338418000000008
10
-54.912115400000019
20
-26.338418000000008
10
-54.912115400000019
20
-40.337818000000006
10
-68.911415399999996
20
-40.337818000000006
0
LWPOLYLINE
5
122
100
AcDbEntity
8
0
100
AcDbPolyline
90
4
70
1
43
0.0
10
-221.31191540000003
20
-45.388618000000001
10
-207.31191540000003
20
-45.388618000000001
10
-207.31191540000003
20
-59.387818000000003
10
-221.31191540000003
20
-59.387818000000003
0
LWPOLYLINE
5
123
100
AcDbEntity
8
0
100
AcDbPolyline
90
4
70
1
43
0.0
10
-240.36191540000002
20
-26.338418000000008
10
-226.36191540000002
20
-26.338418000000008
10
-226.36191540000002
20
-40.337818000000006
10
-240.36191540000002
20
-40.337818000000006
0
LWPOLYLINE
5
124
100
AcDbEntity
8
0
100
AcDbPolyline
90
4
70
1
43
0.0
10
-259.4119154
20
-64.438617999999991
10
-245.41191540000003
20
-64.438617999999991
10
-245.41191540000003
20
-78.437818000000007
10
-259.4119154
20
-78.437818000000007
0
LWPOLYLINE
5
125
100
AcDbEntity
8
0
100
AcDbPolyline
90
4
70
1
43
0.0
10
-107.01191540000003
20
-83.488618000000017
10
-93.012115400000042
20
-83.488618000000017
10
-93.012115400000042
20
-97.487818000000004
10
-107.01191540000003
20
-97.487818000000004
0
LWPOLYLINE
5
126
100
AcDbEntity
8
0
100
AcDbPolyline
90
4
70
1
43
0.0
10
-240.36191540000002
20
-83.488618000000017
10
-226.36191540000002
20
-83.488618000000017
10
-226.36191540000002
20
-97.487818000000004
10
-240.36191540000002
20
-97.487818000000004
0
LWPOLYLINE
5
127
100
AcDbEntity
8
0
100
AcDbPolyline
90
4
70
1
43
0.0
10
-240.36191540000002
20
-45.388618000000001
10
-226.36191540000002
20
-45.388618000000001
10
-226.36191540000002
20
-59.387818000000003
10
-240.36191540000002
20
-59.387818000000003
0
LWPOLYLINE
5
128
100
AcDbEntity
8
0
100
AcDbPolyline
90
4
70
1
43
0.0
10
-87.961415400000007
20
-83.488618000000017
10
-73.962115399999988
20
-83.488618000000017
10
-73.962115399999988
20
-97.487818000000004
10
-87.961415400000007
20
-97.487818000000004
0
LWPOLYLINE
5
129
100
AcDbEntity
8
0
100
AcDbPolyline
90
36
70
1
43
0.0
10
-152.54191539999999
20
-21.287918000000001
10
-166.54291540000003
20
-21.287918000000001
10
-166.54291540000003
20
-16.587417999999996
10
-168.06691540000003
20
-16.587417999999996
10
-168.06691540000003
20
-19.817618000000003
10
-174.8179154
20
-19.817618000000003
10
-174.8179154
20
-16.587417999999996
10
-175.64191539999999
20
-16.587417999999996
10
-175.64191539999999
20
-13.788618000000001
10
-174.8179154
20
-13.788618000000001
10
-174.8179154
20
-7.5185879999999994
10
-173.09291540000001
20
-7.5185879999999994
10
-173.09291540000001
20
-6.3182980000000022
10
-169.79191540000002
20
-6.3182980000000022
10
-169.79191540000002
20
-7.5185879999999994
10
-168.06691540000003
20
-7.5185879999999994
10
-168.06691540000003
20
-11.988918000000002
10
-166.54291540000003
20
-11.988918000000002
10
-166.54291540000003
20
-7.2884379999999993
10
-152.54191539999999
20
-7.2884379999999993
10
-152.54191539999999
20
-11.988918000000002
10
-151.01791539999999
20
-11.988918000000002
10
-151.01791539999999
20
-7.5185879999999994
10
-149.29291540000003
20
-7.5185879999999994
10
-149.29291540000003
20
-6.3182980000000022
10
-145.99191540000004
20
-6.3182980000000022
10
-145.99191540000004
20
-7.5185879999999994
10
-144.26691540000002
20
-7.5185879999999994
10
-144.26691540000002
20
-13.788618000000001
10
-143.4429154
20
-13.788618000000001
10
-143.4429154
20
-16.587417999999996
10
-144.26691540000002
20
-16.587417999999996
10
-144.26691540000002
20
-19.817618000000003
10
-151.01791539999999
20
-19.817618000000003
10
-151.01791539999999
20
-16.587417999999996
10
-152.54191539999999
20
-16.587417999999996
0
LWPOLYLINE
5
130
100
AcDbEntity
8
0
100
AcDbPolyline
90
4
70
1
43
0.0
10
-126.06191540000005
20
-26.338418000000008
10
-112.06191540000003
20
-26.338418000000008
10
-112.06191540000003
20
-40.337818000000006
10
-126.06191540000005
20
-40.337818000000006
0
LWPOLYLINE
5
131
100
AcDbEntity
8
0
100
AcDbPolyline
90
4
70
1
43
0.0
10
-245.12391540000004
20
-2.5259480000000067
10
-231.12491540000002
20
-2.5259480000000067
10
-231.12491540000002
20
-16.525417999999998
10
-245.12391540000004
20
-16.525417999999998
0
LWPOLYLINE
5
132
100
AcDbEntity
8
0
100
AcDbPolyline
90
4
70
1
43
0.0
10
-18.905315400000013
20
-7.2884379999999993
10
-4.905825400000019
20
-7.2884379999999993
10
-4.905825400000019
20
-21.287918000000001
10
-18.905315400000013
20
-21.287918000000001
0
LWPOLYLINE
5
133
100
AcDbEntity
8
0
100
AcDbPolyline
90
4
70
1
43
0.0
10
-259.4119154
20
-45.388618000000001
10
-245.41191540000003
20
-45.388618000000001
10
-245.41191540000003
20
-59.387818000000003
10
-259.4119154
20
-59.387818000000003
0
LWPOLYLINE
5
134
100
AcDbEntity
8
0
100
AcDbPolyline
90
4
70
1
43
0.0
10
-183.21191540000004
20
-45.388618000000001
10
-169.21191540000001
20
-45.388618000000001
10
-169.21191540000001
20
-59.387818000000003
10
-183.21191540000004
20
-59.387818000000003
0
LWPOLYLINE
5
135
100
AcDbEntity
8
0
100
AcDbPolyline
90
4
70
1
43
0.0
10
-145.11191540000002
20
-45.388618000000001
10
-131.11191539999999
20
-45.388618000000001
10
-131.11191539999999
20
-59.387818000000003
10
-145.11191540000002
20
-59.387818000000003
0
LWPOLYLINE
5
136
100
AcDbEntity
8
0
100
AcDbPolyline
90
4
70
1
43
0.0
10
-87.961415400000007
20
-26.338418000000008
10
-73.962115399999988
20
-26.338418000000008
10
-73.962115399999988
20
-40.337818000000006
10
-87.961415400000007
20
-40.337818000000006
0
LWPOLYLINE
5
137
100
AcDbEntity
8
0
100
AcDbPolyline
90
4
70
1
43
0.0
10
-107.01191540000003
20
-64.438617999999991
10
-93.012115400000042
20
-64.438617999999991
10
-93.012115400000042
20
-78.437818000000007
10
-107.01191540000003
20
-78.437818000000007
0
LWPOLYLINE
5
138
100
AcDbEntity
8
0
100
AcDbPolyline
90
4
70
1
43
0.0
10
-18.905315400000013
20
-83.488618000000017
10
-4.905825400000019
20
-83.488618000000017
10
-4.905825400000019
20
-97.487818000000004
10
-18.905315400000013
20
-97.487818000000004
0
LWPOLYLINE
5
139
100
AcDbEntity
8
0
100
AcDbPolyline
90
4
70
1
43
0.0
10
-202.26191540000002
20
-26.338418000000008
10
-188.26191539999999
20
-26.338418000000008
10
-188.26191539999999
20
-40.337818000000006
10
-202.26191540000002
20
-40.337818000000006
0
LWPOLYLINE
5
140
100
AcDbEntity
8
0
100
AcDbPolyline
90
4
70
1
43
0.0
10
-18.905315400000013
20
-64.438617999999991
10
-4.905825400000019
20
-64.438617999999991
10
-4.905825400000019
20
-78.437818000000007
10
-18.905315400000013
20
-78.437818000000007
0
LWPOLYLINE
5
141
100
AcDbEntity
8
0
100
AcDbPolyline
90
4
70
1
43
0.0
10
-126.06191540000005
20
-64.438617999999991
10
-112.06191540000003
20
-64.438617999999991
10
-112.06191540000003
20
-78.437818000000007
10
-126.06191540000005
20
-78.437818000000007
0
LWPOLYLINE
5
142
100
AcDbEntity
8
0
100
AcDbPolyline
90
4
70
1
43
0.0
10
-264.17391540000006
20
-2.5259480000000067
10
-250.17491540000003
20
-2.5259480000000067
10
-250.17491540000003
20
-16.525417999999998
10
-264.17391540000006
20
-16.525417999999998
0
LWPOLYLINE
5
143
100
AcDbEntity
8
0
100
AcDbPolyline
90
4
70
1
43
0.0
10
-45.098915400000017
20
-45.388618000000001
10
-31.099615400000005
20
-45.388618000000001
10
-31.099615400000005
20
-59.387818000000003
10
-45.098915400000017
20
-59.387818000000003
0
LWPOLYLINE
5
144
100
AcDbEntity
8
0
100
AcDbPolyline
90
4
70
1
43
0.0
10
-183.21191540000004
20
-64.438617999999991
10
-169.21191540000001
20
-64.438617999999991
10
-169.21191540000001
20
-78.437818000000007
10
-183.21191540000004
20
-78.437818000000007
0
LWPOLYLINE
5
145
100
AcDbEntity
8
0
100
AcDbPolyline
90
4
70
1
43
0.0
10
-221.31191540000003
20
-64.438617999999991
10
-207.31191540000003
20
-64.438617999999991
10
-207.31191540000003
20
-78.437818000000007
10
-221.31191540000003
20
-78.437818000000007
0
LWPOLYLINE
5
146
100
AcDbEntity
8
0
100
AcDbPolyline
90
4
70
1
43
0.0
10
-278.46191540000001
20
-64.438617999999991
10
-264.46191540000007
20
-64.438617999999991
10
-264.46191540000007
20
-78.437818000000007
10
-278.46191540000001
20
-78.437818000000007
0
LWPOLYLINE
5
147
100
AcDbEntity
8
0
100
AcDbPolyline
90
4
70
1
43
0.0
10
-259.4119154
20
-83.488618000000017
10
-245.41191540000003
20
-83.488618000000017
10
-245.41191540000003
20
-97.487818000000004
10
-259.4119154
20
-97.487818000000004
0
LWPOLYLINE
5
148
100
AcDbEntity
8
0
100
AcDbPolyline
90
4
70
1
43
0.0
10
-164.16191540000003
20
-26.338418000000008
10
-150.1619154
20
-26.338418000000008
10
-150.1619154
20
-40.337818000000006
10
-164.16191540000003
20
-40.337818000000006
0
LWPOLYLINE
5
149
100
AcDbEntity
8
0
100
AcDbPolyline
90
4
70
1
43
0.0
10
-202.26191540000002
20
-83.488618000000017
10
-188.26191539999999
20
-83.488618000000017
10
-188.26191539999999
20
-97.487818000000004
10
-202.26191540000002
20
-97.487818000000004
0
LWPOLYLINE
5
150
100
AcDbEntity
8
0
100
AcDbPolyline
90
4
70
1
43
0.0
10
-45.098915400000017
20
-83.488618000000017
10
-31.099615400000005
20
-83.488618000000017
10
-31.099615400000005
20
-97.487818000000004
10
-45.098915400000017
20
-97.487818000000004
0
LWPOLYLINE
5
151
100
AcDbEntity
8
0
100
AcDbPolyline
90
4
70
1
43
0.0
10
-45.098915400000017
20
-26.338418000000008
10
-31.099615400000005
20
-26.338418000000008
10
-31.099615400000005
20
-40.337818000000006
10
-45.098915400000017
20
-40.337818000000006
0
LWPOLYLINE
5
152
100
AcDbEntity
8
0
100
AcDbPolyline
90
4
70
1
43
0.0
10
-68.911415399999996
20
-45.388618000000001
10
-54.912115400000019
20
-45.388618000000001
10
-54.912115400000019
20
-59.387818000000003
10
-68.911415399999996
20
-59.387818000000003
0
LWPOLYLINE
5
153
100
AcDbEntity
8
0
100
AcDbPolyline
90
4
70
1
43
0.0
10
-107.01191540000003
20
-26.338418000000008
10
-93.012115400000042
20
-26.338418000000008
10
-93.012115400000042
20
-40.337818000000006
10
-107.01191540000003
20
-40.337818000000006
0
LWPOLYLINE
5
154
100
AcDbEntity
8
0
100
AcDbPolyline
90
4
70
1
43
0.0
10
-145.11191540000002
20
-64.438617999999991
10
-131.11191539999999
20
-64.438617999999991
10
-131.11191539999999
20
-78.437818000000007
10
-145.11191540000002
20
-78.437818000000007
0
LWPOLYLINE
5
155
100
AcDbEntity
8
0
100
AcDbPolyline
90
4
70
1
43
0.0
10
-278.46191540000001
20
-83.488618000000017
10
-264.46191540000007
20
-83.488618000000017
10
-264.46191540000007
20
-97.487818000000004
10
-278.46191540000001
20
-97.487818000000004
0
LWPOLYLINE
5
156
100
AcDbEntity
8
0
100
AcDbPolyline
90
4
70
1
43
0.0
10
-221.31191540000003
20
-7.2884379999999993
10
-207.31191540000003
20
-7.2884379999999993
10
-207.31191540000003
20
-21.287918000000001
10
-221.31191540000003
20
-21.287918000000001
0
LWPOLYLINE
5
157
100
AcDbEntity
8
0
100
AcDbPolyline
90
4
70
1
43
0.0
10
-202.26191540000002
20
-64.438617999999991
10
-188.26191539999999
20
-64.438617999999991
10
-188.26191539999999
20
-78.437818000000007
10
-202.26191540000002
20
-78.437818000000007
0
LWPOLYLINE
5
158
100
AcDbEntity
8
0
100
AcDbPolyline
90
4
70
1
43
0.0
10
-183.21191540000004
20
-83.488618000000017
10
-169.21191540000001
20
-83.488618000000017
10
-169.21191540000001
20
-97.487818000000004
10
-183.21191540000004
20
-97.487818000000004
0
LWPOLYLINE
5
159
100
AcDbEntity
8
0
100
AcDbPolyline
90
4
70
1
43
0.0
10
-283.22391540000007
20
-2.5259480000000067
10
-269.22491540000004
20
-2.5259480000000067
10
-269.22491540000004
20
-16.525417999999998
10
-283.22391540000007
20
-16.525417999999998
0
LWPOLYLINE
5
160
100
AcDbEntity
8
0
100
AcDbPolyline
90
4
70
1
43
0.0
10
-202.26191540000002
20
-45.388618000000001
10
-188.26191539999999
20
-45.388618000000001
10
-188.26191539999999
20
-59.387818000000003
10
-202.26191540000002
20
-59.387818000000003
0
LWPOLYLINE
5
161
100
AcDbEntity
8
0
100
AcDbPolyline
90
4
70
1
43
0.0
10
-221.31191540000003
20
-83.488618000000017
10
-207.31191540000003
20
-83.488618000000017
10
-207.31191540000003
20
-97.487818000000004
10
-221.31191540000003
20
-97.487818000000004
0
LWPOLYLINE
5
162
100
AcDbEntity
8
0
100
AcDbPolyline
90
4
70
1
43
0.0
10
-145.11191540000002
20
-83.488618000000017
10
-131.11191539999999
20
-83.488618000000017
10
-131.11191539999999
20
-97.487818000000004
10
-145.11191540000002
20
-97.487818000000004
0
LWPOLYLINE
5
163
100
AcDbEntity
8
0
100
AcDbPolyline
90
4
70
1
43
0.0
10
-18.905315400000013
20
-26.338418000000008
10
-4.905825400000019
20
-26.338418000000008
10
-4.905825400000019
20
-40.337818000000006
10
-18.905315400000013
20
-40.337818000000006
0
LWPOLYLINE
5
164
100
AcDbEntity
8
0
100
AcDbPolyline
90
4
70
1
43
0.0
10
-164.16191540000003
20
-64.438617999999991
10
-150.1619154
20
-64.438617999999991
10
-150.1619154
20
-78.437818000000007
10
-164.16191540000003
20
-78.437818000000007
0
LWPOLYLINE
5
165
100
AcDbEntity
8
0
100
AcDbPolyline
90
4
70
1
43
0.0
10
-240.36191540000002
20
-64.438617999999991
10
-226.36191540000002
20
-64.438617999999991
10
-226.36191540000002
20
-78.437818000000007
10
-240.36191540000002
20
-78.437818000000007
0
LWPOLYLINE
5
166
100
AcDbEntity
8
0
100
AcDbPolyline
90
4
70
1
43
0.0
10
-68.911415399999996
20
-7.2884379999999993
10
-54.912115400000019
20
-7.2884379999999993
10
-54.912115400000019
20
-21.287918000000001
10
-68.911415399999996
20
-21.287918000000001
0
LWPOLYLINE
5
167
100
AcDbEntity
8
0
100
AcDbPolyline
90
4
70
1
43
0.0
10
-45.098915400000017
20
-64.438617999999991
10
-31.099615400000005
20
-64.438617999999991
10
-31.099615400000005
20
-78.437818000000007
10
-45.098915400000017
20
-78.437818000000007
0
LWPOLYLINE
5
168
100
AcDbEntity
8
0
100
AcDbPolyline
90
4
70
1
43
0.0
10
-87.961415400000007
20
-45.388618000000001
10
-73.962115399999988
20
-45.388618000000001
10
-73.962115399999988
20
-59.387818000000003
10
-87.961415400000007
20
-59.387818000000003
0
LWPOLYLINE
5
169
100
AcDbEntity
8
0
100
AcDbPolyline
90
4
70
1
43
0.0
10
-183.21191540000004
20
-26.338418000000008
10
-169.21191540000001
20
-26.338418000000008
10
-169.21191540000001
20
-40.337818000000006
10
-183.21191540000004
20
-40.337818000000006
0
LWPOLYLINE
5
170
100
AcDbEntity
8
0
100
AcDbPolyline
90
36
70
1
43
0.0
10
-104.91691540000002
20
-21.287918000000001
10
-118.9179154
20
-21.287918000000001
10
-118.9179154
20
-16.587417999999996
10
-120.4419154
20
-16.587417999999996
10
-120.4419154
20
-19.817618000000003
10
-127.1929154
20
-19.817618000000003
10
-127.1929154
20
-16.587417999999996
10
-128.01691540000002
20
-16.587417999999996
10
-128.01691540000002
20
-13.788618000000001
10
-127.1929154
20
-13.788618000000001
10
-127.1929154
20
-7.5185879999999994
10
-125.46591540000001
20
-7.5185879999999994
10
-125.46591540000001
20
-6.3182980000000022
10
-122.16691539999999
20
-6.3182980000000022
10
-122.16691539999999
20
-7.5185879999999994
10
-120.4419154
20
-7.5185879999999994
10
-120.4419154
20
-11.988918000000002
10
-118.9179154
20
-11.988918000000002
10
-118.9179154
20
-7.2884379999999993
10
-104.91691540000002
20
-7.2884379999999993
10
-104.91691540000002
20
-11.988918000000002
10
-103.39291540000002
20
-11.988918000000002
10
-103.39291540000002
20
-7.5185879999999994
10
-101.66791539999998
20
-7.5185879999999994
10
-101.66791539999998
20
-6.3182980000000022
10
-98.366915400000039
20
-6.3182980000000022
10
-98.366915400000039
20
-7.5185879999999994
10
-96.641915400000045
20
-7.5185879999999994
10
-96.641915400000045
20
-13.788618000000001
10
-95.817815400000015
20
-13.788618000000001
10
-95.817815400000015
20
-16.587417999999996
10
-96.641915400000045
20
-16.587417999999996
10
-96.641915400000045
20
-19.817618000000003
10
-103.39291540000002
20
-19.817618000000003
10
-103.39291540000002
20
-16.587417999999996
10
-104.91691540000002
20
-16.587417999999996
0
LWPOLYLINE
5
171
100
AcDbEntity
8
0
100
AcDbPolyline
90
4
70
1
43
0.0
10
-68.911415399999996
20
-64.438617999999991
10
-54.912115400000019
20
-64.438617999999991
10
-54.912115400000019
20
-78.437818000000007
10
-68.911415399999996
20
-78.437818000000007
0
LWPOLYLINE
5
172
100
AcDbEntity
8
0
100
AcDbPolyline
90
4
70
1
43
0.0
10
-107.01191540000003
20
-45.388618000000001
10
-93.012115400000042
20
-45.388618000000001
10
-93.012115400000042
20
-59.387818000000003
10
-107.01191540000003
20
-59.387818000000003
0
LWPOLYLINE
5
173
100
AcDbEntity
8
0
100
AcDbPolyline
90
4
70
1
43
0.0
10
-145.11191540000002
20
-26.338418000000008
10
-131.11191539999999
20
-26.338418000000008
10
-131.11191539999999
20
-40.337818000000006
10
-145.11191540000002
20
-40.337818000000006
0
LWPOLYLINE
5
174
100
AcDbEntity
8
0
100
AcDbPolyline
90
4
70
1
43
0.0
10
-202.26191540000002
20
-7.2884379999999993
10
-188.26191539999999
20
-7.2884379999999993
10
-188.26191539999999
20
-21.287918000000001
10
-202.26191540000002
20
-21.287918000000001
0
LWPOLYLINE
5
175
100
AcDbEntity
8
0
100
AcDbPolyline
90
4
70
1
43
0.0
10
-126.06191540000005
20
-45.388618000000001
10
-112.06191540000003
20
-45.388618000000001
10
-112.06191540000003
20
-59.387818000000003
10
-126.06191540000005
20
-59.387818000000003
0
LWPOLYLINE
5
176
100
AcDbEntity
8
0
100
AcDbPolyline
90
4
70
1
43
0.0
10
-87.961415400000007
20
-7.2884379999999993
10
-73.962115399999988
20
-7.2884379999999993
10
-73.962115399999988
20
-21.287918000000001
10
-87.961415400000007
20
-21.287918000000001
0
LWPOLYLINE
5
177
100
AcDbEntity
8
0
100
AcDbPolyline
90
4
70
1
43
0.0
10
-68.911415399999996
20
-83.488618000000017
10
-54.912115400000019
20
-83.488618000000017
10
-54.912115400000019
20
-97.487818000000004
10
-68.911415399999996
20
-97.487818000000004
0
LWPOLYLINE
5
178
100
AcDbEntity
8
0
100
AcDbPolyline
90
4
70
1
43
0.0
10
-87.961415400000007
20
-64.438617999999991
10
-73.962115399999988
20
-64.438617999999991
10
-73.962115399999988
20
-78.437818000000007
10
-87.961415400000007
20
-78.437818000000007
0
LWPOLYLINE
5
179
100
AcDbEntity
8
0
100
AcDbPolyline
90
4
70
1
43
0.0
10
-18.905315400000013
20
-45.388618000000001
10
-4.905825400000019
20
-45.388618000000001
10
-4.905825400000019
20
-59.387818000000003
10
-18.905315400000013
20
-59.387818000000003
0
LWPOLYLINE
5
180
100
AcDbEntity
8
0
100
AcDbPolyline
90
4
70
1
43
0.0
10
-45.098915400000017
20
-7.2884379999999993
10
-31.099615400000005
20
-7.2884379999999993
10
-31.099615400000005
20
-21.287918000000001
10
-45.098915400000017
20
-21.287918000000001
0
CIRCLE
5
181
100
AcDbEntity
8
0
100
AcDbCircle
10
-155.59891539999998
20
4
30
0
40
1.5750000000000064
210
0
220
0
230
1
0
CIRCLE
5
182
100
AcDbEntity
8
0
100
AcDbCircle
10
-45
20
4
30
0
40
1.5749999999999975
210
0
220
0
230
1
0
ENDSEC
0
SECTION
2
OBJECTS
0
DICTIONARY
5
C
100
AcDbDictionary
3
ACAD_GROUP
350
D
3
ACAD_MLINESTYLE
350
17
0
DICTIONARY
5
D
100
AcDbDictionary
0
DICTIONARY
5
1A
330
C
100
AcDbDictionary
0
DICTIONARY
5
17
100
AcDbDictionary
0
ENDSEC
0
EOF
