G04 #@! TF.GenerationSoftware,KiCad,Pcbnew,8.0.4*
G04 #@! TF.CreationDate,2024-11-10T19:34:56-05:00*
G04 #@! TF.ProjectId,small-fry-pcb,736d616c-6c2d-4667-9279-2d7063622e6b,1.0*
G04 #@! TF.SameCoordinates,Original*
G04 #@! TF.FileFunction,Soldermask,Top*
G04 #@! TF.FilePolarity,Negative*
%FSLAX46Y46*%
G04 Gerber Fmt 4.6, Leading zero omitted, Abs format (unit mm)*
G04 Created by KiCad (PCBNEW 8.0.4) date 2024-11-10 19:34:56*
%MOMM*%
%LPD*%
G01*
G04 APERTURE LIST*
G04 Aperture macros list*
%AMHorizOval*
0 Thick line with rounded ends*
0 $1 width*
0 $2 $3 position (X,Y) of the first rounded end (center of the circle)*
0 $4 $5 position (X,Y) of the second rounded end (center of the circle)*
0 Add line between two ends*
20,1,$1,$2,$3,$4,$5,0*
0 Add two circle primitives to create the rounded ends*
1,1,$1,$2,$3*
1,1,$1,$4,$5*%
%AMRotRect*
0 Rectangle, with rotation*
0 The origin of the aperture is its center*
0 $1 length*
0 $2 width*
0 $3 Rotation angle, in degrees counterclockwise*
0 Add horizontal line*
21,1,$1,$2,0,0,$3*%
G04 Aperture macros list end*
%ADD10C,1.750000*%
%ADD11C,3.987800*%
%ADD12C,3.048000*%
%ADD13C,1.701800*%
%ADD14HorizOval,1.800000X0.000000X0.000000X0.000000X0.000000X0*%
%ADD15HorizOval,1.500000X0.000000X0.000000X0.000000X0.000000X0*%
%ADD16HorizOval,1.700000X0.000000X0.000000X0.000000X0.000000X0*%
%ADD17RotRect,3.500000X1.700000X315.000000*%
%ADD18RotRect,1.700000X1.700000X315.000000*%
%ADD19RotRect,3.500000X1.700000X45.000000*%
G04 APERTURE END LIST*
D10*
G04 #@! TO.C,MX51*
X183126250Y-136950000D03*
D11*
X188206250Y-136950000D03*
D10*
X193286250Y-136950000D03*
G04 #@! TD*
G04 #@! TO.C,MX44*
X321238750Y-117900000D03*
D11*
X326318750Y-117900000D03*
D10*
X331398750Y-117900000D03*
G04 #@! TD*
G04 #@! TO.C,MX11*
X259326250Y-79800000D03*
D11*
X264406250Y-79800000D03*
D10*
X269486250Y-79800000D03*
G04 #@! TD*
G04 #@! TO.C,MX23*
X202176250Y-98850000D03*
D11*
X207256250Y-98850000D03*
D10*
X212336250Y-98850000D03*
G04 #@! TD*
G04 #@! TO.C,MX32*
X83113750Y-117900000D03*
D11*
X88193750Y-117900000D03*
D10*
X93273750Y-117900000D03*
G04 #@! TD*
G04 #@! TO.C,MX59*
X83113750Y-156000000D03*
D11*
X88193750Y-156000000D03*
D10*
X93273750Y-156000000D03*
G04 #@! TD*
G04 #@! TO.C,MX2*
X83113750Y-79800000D03*
D11*
X88193750Y-79800000D03*
D10*
X93273750Y-79800000D03*
G04 #@! TD*
G04 #@! TO.C,MX1*
X56920000Y-79800000D03*
D11*
X62000000Y-79800000D03*
D10*
X67080000Y-79800000D03*
G04 #@! TD*
G04 #@! TO.C,MX54*
X240276250Y-136950000D03*
D11*
X245356250Y-136950000D03*
D10*
X250436250Y-136950000D03*
G04 #@! TD*
G04 #@! TO.C,MX5*
X145026250Y-79800000D03*
D11*
X150106250Y-79800000D03*
D10*
X155186250Y-79800000D03*
G04 #@! TD*
G04 #@! TO.C,MX45*
X56920000Y-136950000D03*
D11*
X62000000Y-136950000D03*
D10*
X67080000Y-136950000D03*
G04 #@! TD*
D11*
G04 #@! TO.C,MX62*
X150074500Y-147745000D03*
D12*
X150074500Y-162985000D03*
D13*
X156932500Y-156000000D03*
D11*
X162012500Y-156000000D03*
D13*
X167092500Y-156000000D03*
D11*
X173950500Y-147745000D03*
D12*
X173950500Y-162985000D03*
G04 #@! TD*
D10*
G04 #@! TO.C,MX66*
X283138750Y-160762500D03*
D11*
X288218750Y-160762500D03*
D10*
X293298750Y-160762500D03*
G04 #@! TD*
G04 #@! TO.C,MX50*
X164076250Y-136950000D03*
D11*
X169156250Y-136950000D03*
D10*
X174236250Y-136950000D03*
G04 #@! TD*
G04 #@! TO.C,MX65*
X259326250Y-156000000D03*
D11*
X264406250Y-156000000D03*
D10*
X269486250Y-156000000D03*
G04 #@! TD*
G04 #@! TO.C,MX34*
X125976250Y-117900000D03*
D11*
X131056250Y-117900000D03*
D10*
X136136250Y-117900000D03*
G04 #@! TD*
G04 #@! TO.C,MX12*
X278376250Y-79800000D03*
D11*
X283456250Y-79800000D03*
D10*
X288536250Y-79800000D03*
G04 #@! TD*
G04 #@! TO.C,MX35*
X145026250Y-117900000D03*
D11*
X150106250Y-117900000D03*
D10*
X155186250Y-117900000D03*
G04 #@! TD*
G04 #@! TO.C,MX46*
X83113750Y-136950000D03*
D11*
X88193750Y-136950000D03*
D10*
X93273750Y-136950000D03*
G04 #@! TD*
G04 #@! TO.C,MX9*
X221226250Y-79800000D03*
D11*
X226306250Y-79800000D03*
D10*
X231386250Y-79800000D03*
G04 #@! TD*
G04 #@! TO.C,MX18*
X106926250Y-98850000D03*
D11*
X112006250Y-98850000D03*
D10*
X117086250Y-98850000D03*
G04 #@! TD*
G04 #@! TO.C,MX57*
X302188750Y-136950000D03*
D11*
X307268750Y-136950000D03*
D10*
X312348750Y-136950000D03*
G04 #@! TD*
G04 #@! TO.C,MX43*
X297426250Y-117900000D03*
D11*
X302506250Y-117900000D03*
D10*
X307586250Y-117900000D03*
G04 #@! TD*
G04 #@! TO.C,MX3*
X106926250Y-79800000D03*
D11*
X112006250Y-79800000D03*
D10*
X117086250Y-79800000D03*
G04 #@! TD*
G04 #@! TO.C,MX31*
X56920000Y-117900000D03*
D11*
X62000000Y-117900000D03*
D10*
X67080000Y-117900000D03*
G04 #@! TD*
G04 #@! TO.C,MX37*
X183126250Y-117900000D03*
D11*
X188206250Y-117900000D03*
D10*
X193286250Y-117900000D03*
G04 #@! TD*
G04 #@! TO.C,MX17*
X83113750Y-98850000D03*
D11*
X88193750Y-98850000D03*
D10*
X93273750Y-98850000D03*
G04 #@! TD*
G04 #@! TO.C,MX36*
X164076250Y-117900000D03*
D11*
X169156250Y-117900000D03*
D10*
X174236250Y-117900000D03*
G04 #@! TD*
D14*
G04 #@! TO.C,U1*
X220839748Y-27334161D03*
D15*
X218909346Y-29688826D03*
X222338815Y-33118295D03*
D14*
X224693480Y-31187893D03*
D16*
X216572358Y-22882924D03*
D17*
X215935962Y-22246528D03*
D16*
X214776307Y-24678975D03*
D17*
X214139911Y-24042579D03*
D18*
X212980256Y-26475027D03*
D17*
X212343860Y-25838631D03*
D16*
X211184204Y-28271078D03*
D17*
X210547808Y-27634682D03*
D16*
X209388153Y-30067129D03*
D17*
X208751757Y-29430733D03*
D16*
X207592102Y-31863180D03*
D17*
X206955706Y-31226784D03*
D16*
X205796051Y-33659231D03*
D17*
X205159655Y-33022835D03*
D18*
X203999999Y-35455283D03*
D17*
X203363603Y-34818887D03*
D16*
X202203949Y-37251334D03*
D17*
X201567553Y-36614938D03*
D16*
X200407897Y-39047385D03*
D17*
X199771501Y-38410989D03*
D16*
X198611846Y-40843436D03*
D17*
X197975450Y-40207040D03*
D16*
X196815795Y-42639488D03*
D17*
X196179399Y-42003092D03*
D18*
X195019744Y-44435539D03*
D17*
X194383348Y-43799143D03*
D16*
X193223692Y-46231590D03*
D17*
X192587296Y-45595194D03*
D16*
X191427642Y-48027641D03*
D17*
X190791246Y-47391245D03*
D16*
X189631590Y-49823692D03*
D17*
X188995194Y-49187296D03*
D16*
X187835539Y-51619743D03*
D17*
X187199143Y-50983347D03*
D18*
X186039488Y-53415795D03*
D17*
X185403092Y-52779399D03*
D16*
X184243437Y-55211845D03*
D17*
X183607041Y-54575449D03*
D16*
X182447385Y-57007897D03*
D17*
X181810989Y-56371501D03*
D16*
X195019744Y-69580256D03*
D17*
X195656140Y-70216652D03*
D16*
X196815795Y-67784205D03*
D17*
X197452191Y-68420601D03*
D18*
X198611846Y-65988153D03*
D17*
X199248242Y-66624549D03*
D16*
X200407898Y-64192102D03*
D17*
X201044294Y-64828498D03*
D16*
X202203949Y-62396051D03*
D17*
X202840345Y-63032447D03*
D16*
X204000000Y-60600000D03*
D17*
X204636396Y-61236396D03*
D16*
X205796051Y-58803949D03*
D17*
X206432447Y-59440345D03*
D18*
X207592103Y-57007897D03*
D17*
X208228499Y-57644293D03*
D16*
X209388153Y-55211846D03*
D17*
X210024549Y-55848242D03*
D16*
X211184205Y-53415795D03*
D17*
X211820601Y-54052191D03*
D16*
X212980256Y-51619744D03*
D17*
X213616652Y-52256140D03*
D16*
X214776307Y-49823692D03*
D17*
X215412703Y-50460088D03*
D18*
X216572358Y-48027641D03*
D17*
X217208754Y-48664037D03*
D16*
X218368410Y-46231590D03*
D17*
X219004806Y-46867986D03*
D16*
X220164460Y-44435539D03*
D17*
X220800856Y-45071935D03*
D16*
X221960512Y-42639488D03*
D17*
X222596908Y-43275884D03*
D16*
X223756563Y-40843437D03*
D17*
X224392959Y-41479833D03*
D18*
X225552614Y-39047385D03*
D17*
X226189010Y-39683781D03*
D16*
X227348665Y-37251335D03*
D17*
X227985061Y-37887731D03*
D16*
X229144717Y-35455283D03*
D17*
X229781113Y-36091679D03*
D16*
X187100148Y-61335390D03*
D19*
X186463752Y-61971786D03*
D18*
X188896199Y-63131442D03*
D19*
X188259803Y-63767838D03*
D16*
X190692249Y-64927494D03*
D19*
X190055853Y-65563890D03*
G04 #@! TD*
D10*
G04 #@! TO.C,MX47*
X106926250Y-136950000D03*
D11*
X112006250Y-136950000D03*
D10*
X117086250Y-136950000D03*
G04 #@! TD*
G04 #@! TO.C,MX25*
X240276250Y-98850000D03*
D11*
X245356250Y-98850000D03*
D10*
X250436250Y-98850000D03*
G04 #@! TD*
G04 #@! TO.C,MX61*
X125976250Y-156000000D03*
D11*
X131056250Y-156000000D03*
D10*
X136136250Y-156000000D03*
G04 #@! TD*
G04 #@! TO.C,MX26*
X259326250Y-98850000D03*
D11*
X264406250Y-98850000D03*
D10*
X269486250Y-98850000D03*
G04 #@! TD*
G04 #@! TO.C,MX15*
X340288750Y-79800000D03*
D11*
X345368750Y-79800000D03*
D10*
X350448750Y-79800000D03*
G04 #@! TD*
G04 #@! TO.C,MX58*
X56920000Y-156000000D03*
D11*
X62000000Y-156000000D03*
D10*
X67080000Y-156000000D03*
G04 #@! TD*
D11*
G04 #@! TO.C,MX63*
X197699500Y-147745000D03*
D12*
X197699500Y-162985000D03*
D13*
X204557500Y-156000000D03*
D11*
X209637500Y-156000000D03*
D13*
X214717500Y-156000000D03*
D11*
X221575500Y-147745000D03*
D12*
X221575500Y-162985000D03*
G04 #@! TD*
D10*
G04 #@! TO.C,MX28*
X297426250Y-98850000D03*
D11*
X302506250Y-98850000D03*
D10*
X307586250Y-98850000D03*
G04 #@! TD*
G04 #@! TO.C,MX8*
X202176250Y-79800000D03*
D11*
X207256250Y-79800000D03*
D10*
X212336250Y-79800000D03*
G04 #@! TD*
G04 #@! TO.C,MX10*
X240276250Y-79800000D03*
D11*
X245356250Y-79800000D03*
D10*
X250436250Y-79800000D03*
G04 #@! TD*
G04 #@! TO.C,MX53*
X221226250Y-136950000D03*
D11*
X226306250Y-136950000D03*
D10*
X231386250Y-136950000D03*
G04 #@! TD*
G04 #@! TO.C,MX64*
X240276250Y-156000000D03*
D11*
X245356250Y-156000000D03*
D10*
X250436250Y-156000000D03*
G04 #@! TD*
G04 #@! TO.C,MX49*
X145026250Y-136950000D03*
D11*
X150106250Y-136950000D03*
D10*
X155186250Y-136950000D03*
G04 #@! TD*
G04 #@! TO.C,MX27*
X278376250Y-98850000D03*
D11*
X283456250Y-98850000D03*
D10*
X288536250Y-98850000D03*
G04 #@! TD*
G04 #@! TO.C,MX33*
X106926250Y-117900000D03*
D11*
X112006250Y-117900000D03*
D10*
X117086250Y-117900000D03*
G04 #@! TD*
G04 #@! TO.C,MX21*
X164076250Y-98850000D03*
D11*
X169156250Y-98850000D03*
D10*
X174236250Y-98850000D03*
G04 #@! TD*
G04 #@! TO.C,MX19*
X125976250Y-98850000D03*
D11*
X131056250Y-98850000D03*
D10*
X136136250Y-98850000D03*
G04 #@! TD*
G04 #@! TO.C,MX55*
X259326250Y-136950000D03*
D11*
X264406250Y-136950000D03*
D10*
X269486250Y-136950000D03*
G04 #@! TD*
G04 #@! TO.C,MX29*
X316476250Y-98850000D03*
D11*
X321556250Y-98850000D03*
D10*
X326636250Y-98850000D03*
G04 #@! TD*
G04 #@! TO.C,MX7*
X183126250Y-79800000D03*
D11*
X188206250Y-79800000D03*
D10*
X193286250Y-79800000D03*
G04 #@! TD*
G04 #@! TO.C,MX13*
X297426250Y-79800000D03*
D11*
X302506250Y-79800000D03*
D10*
X307586250Y-79800000D03*
G04 #@! TD*
G04 #@! TO.C,MX4*
X125976250Y-79800000D03*
D11*
X131056250Y-79800000D03*
D10*
X136136250Y-79800000D03*
G04 #@! TD*
G04 #@! TO.C,MX41*
X259326250Y-117900000D03*
D11*
X264406250Y-117900000D03*
D10*
X269486250Y-117900000D03*
G04 #@! TD*
G04 #@! TO.C,MX52*
X202176250Y-136950000D03*
D11*
X207256250Y-136950000D03*
D10*
X212336250Y-136950000D03*
G04 #@! TD*
G04 #@! TO.C,MX16*
X56920000Y-98850000D03*
D11*
X62000000Y-98850000D03*
D10*
X67080000Y-98850000D03*
G04 #@! TD*
G04 #@! TO.C,MX20*
X145026250Y-98850000D03*
D11*
X150106250Y-98850000D03*
D10*
X155186250Y-98850000D03*
G04 #@! TD*
G04 #@! TO.C,MX69*
X340288750Y-160762500D03*
D11*
X345368750Y-160762500D03*
D10*
X350448750Y-160762500D03*
G04 #@! TD*
G04 #@! TO.C,MX6*
X164076250Y-79800000D03*
D11*
X169156250Y-79800000D03*
D10*
X174236250Y-79800000D03*
G04 #@! TD*
G04 #@! TO.C,MX38*
X202176250Y-117900000D03*
D11*
X207256250Y-117900000D03*
D10*
X212336250Y-117900000D03*
G04 #@! TD*
G04 #@! TO.C,MX68*
X321238750Y-160762500D03*
D11*
X326318750Y-160762500D03*
D10*
X331398750Y-160762500D03*
G04 #@! TD*
G04 #@! TO.C,MX42*
X278376250Y-117900000D03*
D11*
X283456250Y-117900000D03*
D10*
X288536250Y-117900000D03*
G04 #@! TD*
G04 #@! TO.C,MX60*
X106926250Y-156000000D03*
D11*
X112006250Y-156000000D03*
D10*
X117086250Y-156000000D03*
G04 #@! TD*
G04 #@! TO.C,MX48*
X125976250Y-136950000D03*
D11*
X131056250Y-136950000D03*
D10*
X136136250Y-136950000D03*
G04 #@! TD*
G04 #@! TO.C,MX67*
X302188750Y-160762500D03*
D11*
X307268750Y-160762500D03*
D10*
X312348750Y-160762500D03*
G04 #@! TD*
G04 #@! TO.C,MX40*
X240276250Y-117900000D03*
D11*
X245356250Y-117900000D03*
D10*
X250436250Y-117900000D03*
G04 #@! TD*
G04 #@! TO.C,MX39*
X221226250Y-117900000D03*
D11*
X226306250Y-117900000D03*
D10*
X231386250Y-117900000D03*
G04 #@! TD*
G04 #@! TO.C,MX30*
X340288750Y-98850000D03*
D11*
X345368750Y-98850000D03*
D10*
X350448750Y-98850000D03*
G04 #@! TD*
G04 #@! TO.C,MX56*
X278376250Y-136950000D03*
D11*
X283456250Y-136950000D03*
D10*
X288536250Y-136950000D03*
G04 #@! TD*
G04 #@! TO.C,MX14*
X316476250Y-79800000D03*
D11*
X321556250Y-79800000D03*
D10*
X326636250Y-79800000D03*
G04 #@! TD*
G04 #@! TO.C,MX24*
X221226250Y-98850000D03*
D11*
X226306250Y-98850000D03*
D10*
X231386250Y-98850000D03*
G04 #@! TD*
G04 #@! TO.C,MX22*
X183126250Y-98850000D03*
D11*
X188206250Y-98850000D03*
D10*
X193286250Y-98850000D03*
G04 #@! TD*
M02*
