M48
; DRILL file {KiCad 8.0.4} date 2024-11-10T19:35:57-0500
; FORMAT={-:-/ absolute / inch / decimal}
; #@! TF.CreationDate,2024-11-10T19:35:57-05:00
; #@! TF.GenerationSoftware,Kicad,Pcbnew,8.0.4
; #@! TF.FileFunction,NonPlated,1,2,NPTH
FMAT,2
INCH
; #@! TA.AperFunction,NonPlated,NPTH,ComponentDrill
T1C0.0591
; #@! TA.AperFunction,NonPlated,NPTH,ComponentDrill
T2C0.0670
; #@! TA.AperFunction,NonPlated,NPTH,ComponentDrill
T3C0.0689
; #@! TA.AperFunction,NonPlated,NPTH,ComponentDrill
T4C0.0709
; #@! TA.AperFunction,NonPlated,NPTH,ComponentDrill
T5C0.1200
; #@! TA.AperFunction,NonPlated,NPTH,ComponentDrill
T6C0.1570
%
G90
G05
T1
X8.6185Y-1.1689
X8.7535Y-1.3039
T2
X6.1784Y-6.1417
X6.5784Y-6.1417
X8.0534Y-6.1417
X8.4534Y-6.1417
T3
X2.2409Y-3.1417
X2.2409Y-3.8917
X2.2409Y-4.6417
X2.2409Y-5.3917
X2.2409Y-6.1417
X2.6409Y-3.1417
X2.6409Y-3.8917
X2.6409Y-4.6417
X2.6409Y-5.3917
X2.6409Y-6.1417
X3.2722Y-3.1417
X3.2722Y-3.8917
X3.2722Y-4.6417
X3.2722Y-5.3917
X3.2722Y-6.1417
X3.6722Y-3.1417
X3.6722Y-3.8917
X3.6722Y-4.6417
X3.6722Y-5.3917
X3.6722Y-6.1417
X4.2097Y-3.1417
X4.2097Y-3.8917
X4.2097Y-4.6417
X4.2097Y-5.3917
X4.2097Y-6.1417
X4.6097Y-3.1417
X4.6097Y-3.8917
X4.6097Y-4.6417
X4.6097Y-5.3917
X4.6097Y-6.1417
X4.9597Y-3.1417
X4.9597Y-3.8917
X4.9597Y-4.6417
X4.9597Y-5.3917
X4.9597Y-6.1417
X5.3597Y-3.1417
X5.3597Y-3.8917
X5.3597Y-4.6417
X5.3597Y-5.3917
X5.3597Y-6.1417
X5.7097Y-3.1417
X5.7097Y-3.8917
X5.7097Y-4.6417
X5.7097Y-5.3917
X6.1097Y-3.1417
X6.1097Y-3.8917
X6.1097Y-4.6417
X6.1097Y-5.3917
X6.4597Y-3.1417
X6.4597Y-3.8917
X6.4597Y-4.6417
X6.4597Y-5.3917
X6.8597Y-3.1417
X6.8597Y-3.8917
X6.8597Y-4.6417
X6.8597Y-5.3917
X7.2097Y-3.1417
X7.2097Y-3.8917
X7.2097Y-4.6417
X7.2097Y-5.3917
X7.6097Y-3.1417
X7.6097Y-3.8917
X7.6097Y-4.6417
X7.6097Y-5.3917
X7.9597Y-3.1417
X7.9597Y-3.8917
X7.9597Y-4.6417
X7.9597Y-5.3917
X8.3597Y-3.1417
X8.3597Y-3.8917
X8.3597Y-4.6417
X8.3597Y-5.3917
X8.7097Y-3.1417
X8.7097Y-3.8917
X8.7097Y-4.6417
X8.7097Y-5.3917
X9.1097Y-3.1417
X9.1097Y-3.8917
X9.1097Y-4.6417
X9.1097Y-5.3917
X9.4597Y-3.1417
X9.4597Y-3.8917
X9.4597Y-4.6417
X9.4597Y-5.3917
X9.4597Y-6.1417
X9.8597Y-3.1417
X9.8597Y-3.8917
X9.8597Y-4.6417
X9.8597Y-5.3917
X9.8597Y-6.1417
X10.2097Y-3.1417
X10.2097Y-3.8917
X10.2097Y-4.6417
X10.2097Y-5.3917
X10.2097Y-6.1417
X10.6097Y-3.1417
X10.6097Y-3.8917
X10.6097Y-4.6417
X10.6097Y-5.3917
X10.6097Y-6.1417
X10.9597Y-3.1417
X10.9597Y-3.8917
X10.9597Y-4.6417
X10.9597Y-5.3917
X11.1472Y-6.3292
X11.3597Y-3.1417
X11.3597Y-3.8917
X11.3597Y-4.6417
X11.3597Y-5.3917
X11.5472Y-6.3292
X11.7097Y-3.1417
X11.7097Y-3.8917
X11.7097Y-4.6417
X11.8972Y-5.3917
X11.8972Y-6.3292
X12.1097Y-3.1417
X12.1097Y-3.8917
X12.1097Y-4.6417
X12.2972Y-5.3917
X12.2972Y-6.3292
X12.4597Y-3.1417
X12.4597Y-3.8917
X12.6472Y-4.6417
X12.6472Y-6.3292
X12.8597Y-3.1417
X12.8597Y-3.8917
X13.0472Y-4.6417
X13.0472Y-6.3292
X13.3972Y-3.1417
X13.3972Y-3.8917
X13.3972Y-6.3292
X13.7972Y-3.1417
X13.7972Y-3.8917
X13.7972Y-6.3292
T4
X8.6945Y-1.0761
X8.8462Y-1.2279
T5
X5.9084Y-6.4167
X6.8484Y-6.4167
X7.7834Y-6.4167
X8.7234Y-6.4167
T6
X2.4409Y-3.1417
X2.4409Y-3.8917
X2.4409Y-4.6417
X2.4409Y-5.3917
X2.4409Y-6.1417
X3.4722Y-3.1417
X3.4722Y-3.8917
X3.4722Y-4.6417
X3.4722Y-5.3917
X3.4722Y-6.1417
X4.4097Y-3.1417
X4.4097Y-3.8917
X4.4097Y-4.6417
X4.4097Y-5.3917
X4.4097Y-6.1417
X5.1597Y-3.1417
X5.1597Y-3.8917
X5.1597Y-4.6417
X5.1597Y-5.3917
X5.1597Y-6.1417
X5.9084Y-5.8167
X5.9097Y-3.1417
X5.9097Y-3.8917
X5.9097Y-4.6417
X5.9097Y-5.3917
X6.3784Y-6.1417
X6.6597Y-3.1417
X6.6597Y-3.8917
X6.6597Y-4.6417
X6.6597Y-5.3917
X6.8484Y-5.8167
X7.4097Y-3.1417
X7.4097Y-3.8917
X7.4097Y-4.6417
X7.4097Y-5.3917
X7.7834Y-5.8167
X8.1597Y-3.1417
X8.1597Y-3.8917
X8.1597Y-4.6417
X8.1597Y-5.3917
X8.2534Y-6.1417
X8.7234Y-5.8167
X8.9097Y-3.1417
X8.9097Y-3.8917
X8.9097Y-4.6417
X8.9097Y-5.3917
X9.6597Y-3.1417
X9.6597Y-3.8917
X9.6597Y-4.6417
X9.6597Y-5.3917
X9.6597Y-6.1417
X10.4097Y-3.1417
X10.4097Y-3.8917
X10.4097Y-4.6417
X10.4097Y-5.3917
X10.4097Y-6.1417
X11.1597Y-3.1417
X11.1597Y-3.8917
X11.1597Y-4.6417
X11.1597Y-5.3917
X11.3472Y-6.3292
X11.9097Y-3.1417
X11.9097Y-3.8917
X11.9097Y-4.6417
X12.0972Y-5.3917
X12.0972Y-6.3292
X12.6597Y-3.1417
X12.6597Y-3.8917
X12.8472Y-4.6417
X12.8472Y-6.3292
X13.5972Y-3.1417
X13.5972Y-3.8917
X13.5972Y-6.3292
M30
