G04 #@! TF.GenerationSoftware,KiCad,Pcbnew,8.0.4*
G04 #@! TF.CreationDate,2024-09-28T17:45:49-04:00*
G04 #@! TF.ProjectId,small-fry-pcb,736d616c-6c2d-4667-9279-2d7063622e6b,1.0*
G04 #@! TF.SameCoordinates,Original*
G04 #@! TF.FileFunction,Profile,NP*
%FSLAX46Y46*%
G04 Gerber Fmt 4.6, Leading zero omitted, Abs format (unit mm)*
G04 Created by KiCad (PCBNEW 8.0.4) date 2024-09-28 17:45:49*
%MOMM*%
%LPD*%
G01*
G04 APERTURE LIST*
G04 #@! TA.AperFunction,Profile*
%ADD10C,0.090000*%
G04 #@! TD*
%ADD11C,0.090000*%
G04 APERTURE END LIST*
D10*
X234094381Y-38837633D02*
X206646664Y-67170761D01*
D11*
X234079651Y-36982452D02*
X234169487Y-37081738D01*
X234247502Y-37187501D01*
X234313688Y-37298828D01*
X234368038Y-37414809D01*
X234410544Y-37534530D01*
X234441200Y-37657081D01*
X234459998Y-37781550D01*
X234466931Y-37907025D01*
X234461991Y-38032594D01*
X234445172Y-38157346D01*
X234416466Y-38280369D01*
X234375866Y-38400750D01*
X234323365Y-38517579D01*
X234258955Y-38629944D01*
X234182629Y-38736932D01*
X234094381Y-38837633D01*
D10*
X214935075Y-17837876D02*
X234079651Y-36982452D01*
D11*
X214000004Y-17450553D02*
X214098204Y-17454201D01*
X214195281Y-17465045D01*
X214290868Y-17482933D01*
X214384601Y-17507714D01*
X214476113Y-17539236D01*
X214565039Y-17577347D01*
X214651012Y-17621897D01*
X214733666Y-17672732D01*
X214812637Y-17729703D01*
X214887558Y-17792657D01*
X214935075Y-17837876D01*
X213064931Y-17837870D02*
X213136948Y-17771011D01*
X213213260Y-17710035D01*
X213293500Y-17655094D01*
X213377301Y-17606337D01*
X213464299Y-17563918D01*
X213554128Y-17527987D01*
X213646421Y-17498695D01*
X213740813Y-17476196D01*
X213836938Y-17460639D01*
X213934430Y-17452178D01*
X214000004Y-17450553D01*
D10*
X162774754Y-68128047D02*
X213064931Y-17837870D01*
D11*
X158490113Y-69902801D02*
X158640570Y-69900935D01*
X158790581Y-69895354D01*
X158940081Y-69886084D01*
X159089009Y-69873150D01*
X159237304Y-69856579D01*
X159384902Y-69836396D01*
X159531742Y-69812626D01*
X159677762Y-69785296D01*
X159822900Y-69754431D01*
X159967093Y-69720056D01*
X160110280Y-69682199D01*
X160252398Y-69640883D01*
X160393386Y-69596135D01*
X160533180Y-69547982D01*
X160671720Y-69496447D01*
X160808943Y-69441558D01*
X160944787Y-69383339D01*
X161079190Y-69321817D01*
X161212090Y-69257017D01*
X161343425Y-69188966D01*
X161473132Y-69117688D01*
X161601150Y-69043209D01*
X161727416Y-68965555D01*
X161851869Y-68884753D01*
X161974446Y-68800826D01*
X162095086Y-68713802D01*
X162213725Y-68623707D01*
X162330303Y-68530564D01*
X162444757Y-68434401D01*
X162557025Y-68335244D01*
X162667044Y-68233117D01*
X162774754Y-68128047D01*
D10*
X59097199Y-69902801D02*
X158490113Y-69902801D01*
D11*
X55000000Y-74000000D02*
X55005331Y-73789158D01*
X55021153Y-73581085D01*
X55047209Y-73376037D01*
X55083241Y-73174272D01*
X55128991Y-72976046D01*
X55184203Y-72781619D01*
X55248618Y-72591246D01*
X55321979Y-72405186D01*
X55404029Y-72223695D01*
X55494511Y-72047032D01*
X55593166Y-71875454D01*
X55699738Y-71709218D01*
X55813970Y-71548582D01*
X55935602Y-71393802D01*
X56064379Y-71245137D01*
X56200043Y-71102844D01*
X56342336Y-70967180D01*
X56491001Y-70838403D01*
X56645781Y-70716771D01*
X56806417Y-70602539D01*
X56972653Y-70495967D01*
X57144231Y-70397312D01*
X57320894Y-70306830D01*
X57502385Y-70224780D01*
X57688445Y-70151419D01*
X57878818Y-70087004D01*
X58073245Y-70031792D01*
X58271471Y-69986042D01*
X58473236Y-69950010D01*
X58678284Y-69923954D01*
X58886357Y-69908132D01*
X59097199Y-69902801D01*
D10*
X55000000Y-163805602D02*
X55000000Y-74000000D01*
D11*
X59097210Y-167902801D02*
X58886368Y-167897470D01*
X58678294Y-167881648D01*
X58473246Y-167855592D01*
X58271480Y-167819561D01*
X58073254Y-167773811D01*
X57878826Y-167718600D01*
X57688453Y-167654185D01*
X57502392Y-167580824D01*
X57320902Y-167498774D01*
X57144238Y-167408293D01*
X56972659Y-167309637D01*
X56806423Y-167203065D01*
X56645786Y-167088834D01*
X56491006Y-166967201D01*
X56342341Y-166838425D01*
X56200047Y-166702761D01*
X56064383Y-166560468D01*
X55935605Y-166411803D01*
X55813972Y-166257023D01*
X55699741Y-166096386D01*
X55593169Y-165930150D01*
X55494513Y-165758572D01*
X55404031Y-165581908D01*
X55321980Y-165400418D01*
X55248619Y-165214357D01*
X55184203Y-165023984D01*
X55128992Y-164829556D01*
X55083241Y-164631331D01*
X55047209Y-164429565D01*
X55021153Y-164224517D01*
X55005331Y-164016443D01*
X55000000Y-163805602D01*
D10*
X352902790Y-167902801D02*
X59097210Y-167902801D01*
D11*
X355799954Y-166702760D02*
X355727123Y-166773805D01*
X355652731Y-166842861D01*
X355576818Y-166909909D01*
X355499428Y-166974931D01*
X355420601Y-167037912D01*
X355340380Y-167098832D01*
X355258806Y-167157676D01*
X355175923Y-167214424D01*
X355091771Y-167269061D01*
X355006393Y-167321568D01*
X354919830Y-167371929D01*
X354832126Y-167420125D01*
X354743321Y-167466140D01*
X354653457Y-167509956D01*
X354562577Y-167551555D01*
X354470723Y-167590921D01*
X354377936Y-167628036D01*
X354284259Y-167662882D01*
X354189734Y-167695442D01*
X354094402Y-167725699D01*
X353998305Y-167753636D01*
X353901486Y-167779234D01*
X353803986Y-167802477D01*
X353705848Y-167823347D01*
X353607113Y-167841827D01*
X353507823Y-167857900D01*
X353408021Y-167871547D01*
X353307748Y-167882752D01*
X353207047Y-167891497D01*
X353105958Y-167897765D01*
X353004525Y-167901539D01*
X352902790Y-167902801D01*
X357000000Y-163805599D02*
X356998738Y-163907334D01*
X356994964Y-164008767D01*
X356988696Y-164109856D01*
X356979950Y-164210557D01*
X356968745Y-164310830D01*
X356955097Y-164410632D01*
X356939025Y-164509922D01*
X356920545Y-164608657D01*
X356899674Y-164706795D01*
X356876431Y-164804294D01*
X356850833Y-164901114D01*
X356822896Y-164997210D01*
X356792639Y-165092542D01*
X356760078Y-165187068D01*
X356725232Y-165280745D01*
X356688117Y-165373531D01*
X356648751Y-165465386D01*
X356607151Y-165556265D01*
X356563335Y-165646129D01*
X356517321Y-165734934D01*
X356469124Y-165822638D01*
X356418763Y-165909200D01*
X356366256Y-165994578D01*
X356311619Y-166078730D01*
X356254870Y-166161613D01*
X356196027Y-166243187D01*
X356135106Y-166323408D01*
X356072126Y-166402234D01*
X356007103Y-166479625D01*
X355940055Y-166555537D01*
X355870999Y-166629929D01*
X355799954Y-166702760D01*
D10*
X357000000Y-145414188D02*
X357000000Y-163805599D01*
D11*
X356281598Y-143679810D02*
X356365469Y-143767944D01*
X356444532Y-143859718D01*
X356518705Y-143954932D01*
X356587903Y-144053384D01*
X356652045Y-144154872D01*
X356711046Y-144259197D01*
X356764822Y-144366156D01*
X356813292Y-144475549D01*
X356856371Y-144587175D01*
X356893977Y-144700833D01*
X356926026Y-144816321D01*
X356952434Y-144933439D01*
X356973119Y-145051986D01*
X356987997Y-145171760D01*
X356996985Y-145292561D01*
X357000000Y-145414188D01*
D10*
X337801790Y-125200002D02*
X356281598Y-143679810D01*
D11*
X336967152Y-123185009D02*
X336970654Y-123326314D01*
X336981096Y-123466659D01*
X336998381Y-123605813D01*
X337022412Y-123743540D01*
X337053093Y-123879607D01*
X337090327Y-124013781D01*
X337134017Y-124145828D01*
X337184067Y-124275515D01*
X337240379Y-124402608D01*
X337302857Y-124526872D01*
X337371404Y-124648076D01*
X337445923Y-124765985D01*
X337526318Y-124880366D01*
X337612492Y-124990984D01*
X337704348Y-125097607D01*
X337801790Y-125200002D01*
X337801790Y-121170016D02*
X337704348Y-121272410D01*
X337612492Y-121379033D01*
X337526318Y-121489651D01*
X337445923Y-121604032D01*
X337371404Y-121721941D01*
X337302857Y-121843145D01*
X337240379Y-121967409D01*
X337184067Y-122094502D01*
X337134017Y-122224189D01*
X337090327Y-122356236D01*
X337053093Y-122490410D01*
X337022412Y-122626477D01*
X336998381Y-122764204D01*
X336981096Y-122903358D01*
X336970654Y-123043703D01*
X336967152Y-123185009D01*
D10*
X356281598Y-102690208D02*
X337801790Y-121170016D01*
D11*
X357000000Y-100955822D02*
X356996985Y-101077448D01*
X356987998Y-101198250D01*
X356973120Y-101318024D01*
X356952435Y-101436572D01*
X356926027Y-101553690D01*
X356893978Y-101669179D01*
X356856373Y-101782837D01*
X356813294Y-101894464D01*
X356764824Y-102003858D01*
X356711047Y-102110818D01*
X356652046Y-102215143D01*
X356587905Y-102316632D01*
X356518706Y-102415084D01*
X356444533Y-102510298D01*
X356365469Y-102602073D01*
X356281598Y-102690208D01*
D10*
X357000000Y-74000004D02*
X357000000Y-100955822D01*
D11*
X355799954Y-71102842D02*
X355870999Y-71175672D01*
X355940055Y-71250064D01*
X356007103Y-71325976D01*
X356072126Y-71403367D01*
X356135106Y-71482194D01*
X356196027Y-71562414D01*
X356254870Y-71643988D01*
X356311619Y-71726871D01*
X356366256Y-71811023D01*
X356418763Y-71896401D01*
X356469124Y-71982963D01*
X356517321Y-72070668D01*
X356563335Y-72159473D01*
X356607151Y-72249336D01*
X356648751Y-72340216D01*
X356688117Y-72432070D01*
X356725232Y-72524857D01*
X356760078Y-72618534D01*
X356792639Y-72713059D01*
X356822896Y-72808392D01*
X356850833Y-72904488D01*
X356876431Y-73001307D01*
X356899674Y-73098807D01*
X356920545Y-73196945D01*
X356939025Y-73295680D01*
X356955097Y-73394970D01*
X356968745Y-73494772D01*
X356979950Y-73595045D01*
X356988696Y-73695746D01*
X356994964Y-73796835D01*
X356998738Y-73898268D01*
X357000000Y-74000004D01*
X352902789Y-69902801D02*
X353004524Y-69904062D01*
X353105957Y-69907836D01*
X353207046Y-69914104D01*
X353307747Y-69922849D01*
X353408020Y-69934054D01*
X353507822Y-69947701D01*
X353607112Y-69963773D01*
X353705847Y-69982253D01*
X353803985Y-70003123D01*
X353901485Y-70026366D01*
X353998304Y-70051965D01*
X354094401Y-70079901D01*
X354189733Y-70110158D01*
X354284258Y-70142719D01*
X354377936Y-70177565D01*
X354470722Y-70214680D01*
X354562577Y-70254045D01*
X354653456Y-70295645D01*
X354743320Y-70339461D01*
X354832125Y-70385476D01*
X354919830Y-70433672D01*
X355006392Y-70484033D01*
X355091770Y-70536540D01*
X355175922Y-70591177D01*
X355258806Y-70647925D01*
X355340379Y-70706769D01*
X355420600Y-70767689D01*
X355499427Y-70830669D01*
X355576818Y-70895692D01*
X355652731Y-70962740D01*
X355727123Y-71031796D01*
X355799954Y-71102842D01*
D10*
X207803796Y-69902801D02*
X352902789Y-69902801D01*
D11*
X206320307Y-68920054D02*
X206371440Y-69029264D01*
X206429957Y-69133321D01*
X206495465Y-69231965D01*
X206567569Y-69324932D01*
X206645875Y-69411964D01*
X206729988Y-69492797D01*
X206819514Y-69567172D01*
X206914059Y-69634826D01*
X207013229Y-69695499D01*
X207116630Y-69748930D01*
X207223866Y-69794858D01*
X207334545Y-69833020D01*
X207448272Y-69863157D01*
X207564652Y-69885007D01*
X207683291Y-69898308D01*
X207803796Y-69902801D01*
X206646664Y-67170761D02*
X206566043Y-67260437D01*
X206493048Y-67354904D01*
X206427765Y-67453696D01*
X206370280Y-67556348D01*
X206320680Y-67662396D01*
X206279052Y-67771373D01*
X206245482Y-67882817D01*
X206220058Y-67996261D01*
X206202866Y-68111241D01*
X206193993Y-68227292D01*
X206193526Y-68343949D01*
X206201550Y-68460747D01*
X206218154Y-68577221D01*
X206243423Y-68692907D01*
X206277445Y-68807339D01*
X206320307Y-68920054D01*
M02*
