G04 #@! TF.GenerationSoftware,KiCad,Pcbnew,8.0.4*
G04 #@! TF.CreationDate,2024-09-28T17:45:49-04:00*
G04 #@! TF.ProjectId,small-fry-pcb,736d616c-6c2d-4667-9279-2d7063622e6b,1.0*
G04 #@! TF.SameCoordinates,Original*
G04 #@! TF.FileFunction,Copper,L2,Bot*
G04 #@! TF.FilePolarity,Positive*
%FSLAX46Y46*%
G04 Gerber Fmt 4.6, Leading zero omitted, Abs format (unit mm)*
G04 Created by KiCad (PCBNEW 8.0.4) date 2024-09-28 17:45:49*
%MOMM*%
%LPD*%
G01*
G04 APERTURE LIST*
G04 Aperture macros list*
%AMRoundRect*
0 Rectangle with rounded corners*
0 $1 Rounding radius*
0 $2 $3 $4 $5 $6 $7 $8 $9 X,Y pos of 4 corners*
0 Add a 4 corners polygon primitive as box body*
4,1,4,$2,$3,$4,$5,$6,$7,$8,$9,$2,$3,0*
0 Add four circle primitives for the rounded corners*
1,1,$1+$1,$2,$3*
1,1,$1+$1,$4,$5*
1,1,$1+$1,$6,$7*
1,1,$1+$1,$8,$9*
0 Add four rect primitives between the rounded corners*
20,1,$1+$1,$2,$3,$4,$5,0*
20,1,$1+$1,$4,$5,$6,$7,0*
20,1,$1+$1,$6,$7,$8,$9,0*
20,1,$1+$1,$8,$9,$2,$3,0*%
%AMHorizOval*
0 Thick line with rounded ends*
0 $1 width*
0 $2 $3 position (X,Y) of the first rounded end (center of the circle)*
0 $4 $5 position (X,Y) of the second rounded end (center of the circle)*
0 Add line between two ends*
20,1,$1,$2,$3,$4,$5,0*
0 Add two circle primitives to create the rounded ends*
1,1,$1,$2,$3*
1,1,$1,$4,$5*%
%AMRotRect*
0 Rectangle, with rotation*
0 The origin of the aperture is its center*
0 $1 length*
0 $2 width*
0 $3 Rotation angle, in degrees counterclockwise*
0 Add horizontal line*
21,1,$1,$2,0,0,$3*%
G04 Aperture macros list end*
G04 #@! TA.AperFunction,ComponentPad*
%ADD10C,2.300000*%
G04 #@! TD*
G04 #@! TA.AperFunction,ComponentPad*
%ADD11HorizOval,1.700000X0.000000X0.000000X0.000000X0.000000X0*%
G04 #@! TD*
G04 #@! TA.AperFunction,ComponentPad*
%ADD12RotRect,1.700000X1.700000X315.000000*%
G04 #@! TD*
G04 #@! TA.AperFunction,SMDPad,CuDef*
%ADD13RoundRect,0.225000X0.375000X-0.225000X0.375000X0.225000X-0.375000X0.225000X-0.375000X-0.225000X0*%
G04 #@! TD*
G04 #@! TA.AperFunction,ViaPad*
%ADD14C,0.500000*%
G04 #@! TD*
G04 #@! TA.AperFunction,Conductor*
%ADD15C,0.250000*%
G04 #@! TD*
G04 APERTURE END LIST*
D10*
G04 #@! TO.P,MX51,1,COL*
G04 #@! TO.N,col6*
X184396250Y-134410000D03*
G04 #@! TO.P,MX51,2,ROW*
G04 #@! TO.N,Net-(D51-A)*
X190746250Y-131870000D03*
G04 #@! TD*
G04 #@! TO.P,MX44,1,COL*
G04 #@! TO.N,col13*
X322508750Y-115360000D03*
G04 #@! TO.P,MX44,2,ROW*
G04 #@! TO.N,Net-(D44-A)*
X328858750Y-112820000D03*
G04 #@! TD*
G04 #@! TO.P,MX11,1,COL*
G04 #@! TO.N,col10*
X260596250Y-77260000D03*
G04 #@! TO.P,MX11,2,ROW*
G04 #@! TO.N,Net-(D11-A)*
X266946250Y-74720000D03*
G04 #@! TD*
G04 #@! TO.P,MX23,1,COL*
G04 #@! TO.N,col7*
X203446250Y-96310000D03*
G04 #@! TO.P,MX23,2,ROW*
G04 #@! TO.N,Net-(D23-A)*
X209796250Y-93770000D03*
G04 #@! TD*
G04 #@! TO.P,MX32,1,COL*
G04 #@! TO.N,col1*
X84383750Y-115360000D03*
G04 #@! TO.P,MX32,2,ROW*
G04 #@! TO.N,Net-(D32-A)*
X90733750Y-112820000D03*
G04 #@! TD*
G04 #@! TO.P,MX59,1,COL*
G04 #@! TO.N,col1*
X84383750Y-153460000D03*
G04 #@! TO.P,MX59,2,ROW*
G04 #@! TO.N,Net-(D59-A)*
X90733750Y-150920000D03*
G04 #@! TD*
G04 #@! TO.P,MX2,1,COL*
G04 #@! TO.N,col1*
X84383750Y-77260000D03*
G04 #@! TO.P,MX2,2,ROW*
G04 #@! TO.N,Net-(D2-A)*
X90733750Y-74720000D03*
G04 #@! TD*
G04 #@! TO.P,MX1,1,COL*
G04 #@! TO.N,col0*
X58190000Y-77260000D03*
G04 #@! TO.P,MX1,2,ROW*
G04 #@! TO.N,Net-(D1-A)*
X64540000Y-74720000D03*
G04 #@! TD*
G04 #@! TO.P,MX54,1,COL*
G04 #@! TO.N,col9*
X241546250Y-134410000D03*
G04 #@! TO.P,MX54,2,ROW*
G04 #@! TO.N,Net-(D54-A)*
X247896250Y-131870000D03*
G04 #@! TD*
G04 #@! TO.P,MX5,1,COL*
G04 #@! TO.N,col4*
X146296250Y-77260000D03*
G04 #@! TO.P,MX5,2,ROW*
G04 #@! TO.N,Net-(D5-A)*
X152646250Y-74720000D03*
G04 #@! TD*
G04 #@! TO.P,MX45,1,COL*
G04 #@! TO.N,col0*
X58190000Y-134410000D03*
G04 #@! TO.P,MX45,2,ROW*
G04 #@! TO.N,Net-(D45-A)*
X64540000Y-131870000D03*
G04 #@! TD*
G04 #@! TO.P,MX62,1,COL*
G04 #@! TO.N,col5*
X158202500Y-153460000D03*
G04 #@! TO.P,MX62,2,ROW*
G04 #@! TO.N,Net-(D62-A)*
X164552500Y-150920000D03*
G04 #@! TD*
G04 #@! TO.P,MX66,1,COL*
G04 #@! TO.N,col11*
X284408750Y-158222500D03*
G04 #@! TO.P,MX66,2,ROW*
G04 #@! TO.N,Net-(D66-A)*
X290758750Y-155682500D03*
G04 #@! TD*
G04 #@! TO.P,MX50,1,COL*
G04 #@! TO.N,col5*
X165346250Y-134410000D03*
G04 #@! TO.P,MX50,2,ROW*
G04 #@! TO.N,Net-(D50-A)*
X171696250Y-131870000D03*
G04 #@! TD*
G04 #@! TO.P,MX65,1,COL*
G04 #@! TO.N,col10*
X260596250Y-153460000D03*
G04 #@! TO.P,MX65,2,ROW*
G04 #@! TO.N,Net-(D65-A)*
X266946250Y-150920000D03*
G04 #@! TD*
G04 #@! TO.P,MX34,1,COL*
G04 #@! TO.N,col3*
X127246250Y-115360000D03*
G04 #@! TO.P,MX34,2,ROW*
G04 #@! TO.N,Net-(D34-A)*
X133596250Y-112820000D03*
G04 #@! TD*
G04 #@! TO.P,MX12,1,COL*
G04 #@! TO.N,col11*
X279646250Y-77260000D03*
G04 #@! TO.P,MX12,2,ROW*
G04 #@! TO.N,Net-(D12-A)*
X285996250Y-74720000D03*
G04 #@! TD*
G04 #@! TO.P,MX35,1,COL*
G04 #@! TO.N,col4*
X146296250Y-115360000D03*
G04 #@! TO.P,MX35,2,ROW*
G04 #@! TO.N,Net-(D35-A)*
X152646250Y-112820000D03*
G04 #@! TD*
G04 #@! TO.P,MX46,1,COL*
G04 #@! TO.N,col1*
X84383750Y-134410000D03*
G04 #@! TO.P,MX46,2,ROW*
G04 #@! TO.N,Net-(D46-A)*
X90733750Y-131870000D03*
G04 #@! TD*
G04 #@! TO.P,MX9,1,COL*
G04 #@! TO.N,col8*
X222496250Y-77260000D03*
G04 #@! TO.P,MX9,2,ROW*
G04 #@! TO.N,Net-(D9-A)*
X228846250Y-74720000D03*
G04 #@! TD*
G04 #@! TO.P,MX18,1,COL*
G04 #@! TO.N,col2*
X108196250Y-96310000D03*
G04 #@! TO.P,MX18,2,ROW*
G04 #@! TO.N,Net-(D18-A)*
X114546250Y-93770000D03*
G04 #@! TD*
G04 #@! TO.P,MX57,1,COL*
G04 #@! TO.N,col12*
X303458750Y-134410000D03*
G04 #@! TO.P,MX57,2,ROW*
G04 #@! TO.N,Net-(D57-A)*
X309808750Y-131870000D03*
G04 #@! TD*
G04 #@! TO.P,MX43,1,COL*
G04 #@! TO.N,col12*
X298696250Y-115360000D03*
G04 #@! TO.P,MX43,2,ROW*
G04 #@! TO.N,Net-(D43-A)*
X305046250Y-112820000D03*
G04 #@! TD*
G04 #@! TO.P,MX3,1,COL*
G04 #@! TO.N,col2*
X108196250Y-77260000D03*
G04 #@! TO.P,MX3,2,ROW*
G04 #@! TO.N,Net-(D3-A)*
X114546250Y-74720000D03*
G04 #@! TD*
G04 #@! TO.P,MX31,1,COL*
G04 #@! TO.N,col0*
X58190000Y-115360000D03*
G04 #@! TO.P,MX31,2,ROW*
G04 #@! TO.N,Net-(D31-A)*
X64540000Y-112820000D03*
G04 #@! TD*
G04 #@! TO.P,MX37,1,COL*
G04 #@! TO.N,col6*
X184396250Y-115360000D03*
G04 #@! TO.P,MX37,2,ROW*
G04 #@! TO.N,Net-(D37-A)*
X190746250Y-112820000D03*
G04 #@! TD*
G04 #@! TO.P,MX17,1,COL*
G04 #@! TO.N,col1*
X84383750Y-96310000D03*
G04 #@! TO.P,MX17,2,ROW*
G04 #@! TO.N,Net-(D17-A)*
X90733750Y-93770000D03*
G04 #@! TD*
G04 #@! TO.P,MX36,1,COL*
G04 #@! TO.N,col5*
X165346250Y-115360000D03*
G04 #@! TO.P,MX36,2,ROW*
G04 #@! TO.N,Net-(D36-A)*
X171696250Y-112820000D03*
G04 #@! TD*
D11*
G04 #@! TO.P,U1,43,SWDIO*
G04 #@! TO.N,unconnected-(U1-SWDIO-Pad43)_1*
X190692249Y-64927494D03*
D12*
G04 #@! TO.P,U1,42,GND*
G04 #@! TO.N,unconnected-(U1-GND-Pad42)_1*
X188896199Y-63131442D03*
D11*
G04 #@! TO.P,U1,41,SWCLK*
G04 #@! TO.N,unconnected-(U1-SWCLK-Pad41)*
X187100148Y-61335390D03*
G04 #@! TO.P,U1,40,VBUS*
G04 #@! TO.N,unconnected-(U1-VBUS-Pad40)*
X229144717Y-35455283D03*
G04 #@! TO.P,U1,39,VSYS*
G04 #@! TO.N,unconnected-(U1-VSYS-Pad39)*
X227348665Y-37251335D03*
D12*
G04 #@! TO.P,U1,38,GND*
G04 #@! TO.N,unconnected-(U1-GND-Pad38)*
X225552614Y-39047385D03*
D11*
G04 #@! TO.P,U1,37,3V3_EN*
G04 #@! TO.N,unconnected-(U1-3V3_EN-Pad37)*
X223756563Y-40843437D03*
G04 #@! TO.P,U1,36,3V3*
G04 #@! TO.N,unconnected-(U1-3V3-Pad36)*
X221960512Y-42639488D03*
G04 #@! TO.P,U1,35,ADC_VREF*
G04 #@! TO.N,unconnected-(U1-ADC_VREF-Pad35)_1*
X220164460Y-44435539D03*
G04 #@! TO.P,U1,34,GPIO28_ADC2*
G04 #@! TO.N,unconnected-(U1-GPIO28_ADC2-Pad34)*
X218368410Y-46231590D03*
D12*
G04 #@! TO.P,U1,33,AGND*
G04 #@! TO.N,unconnected-(U1-AGND-Pad33)*
X216572358Y-48027641D03*
D11*
G04 #@! TO.P,U1,32,GPIO27_ADC1*
G04 #@! TO.N,col7*
X214776307Y-49823692D03*
G04 #@! TO.P,U1,31,GPIO26_ADC0*
G04 #@! TO.N,col8*
X212980256Y-51619744D03*
G04 #@! TO.P,U1,30,RUN*
G04 #@! TO.N,unconnected-(U1-RUN-Pad30)_1*
X211184205Y-53415795D03*
G04 #@! TO.P,U1,29,GPIO22*
G04 #@! TO.N,col9*
X209388153Y-55211846D03*
D12*
G04 #@! TO.P,U1,28,GND*
G04 #@! TO.N,unconnected-(U1-GND-Pad28)*
X207592103Y-57007897D03*
D11*
G04 #@! TO.P,U1,27,GPIO21*
G04 #@! TO.N,col10*
X205796051Y-58803949D03*
G04 #@! TO.P,U1,26,GPIO20*
G04 #@! TO.N,col11*
X204000000Y-60600000D03*
G04 #@! TO.P,U1,25,GPIO19*
G04 #@! TO.N,col12*
X202203949Y-62396051D03*
G04 #@! TO.P,U1,24,GPIO18*
G04 #@! TO.N,col13*
X200407898Y-64192102D03*
D12*
G04 #@! TO.P,U1,23,GND*
G04 #@! TO.N,unconnected-(U1-GND-Pad23)_1*
X198611846Y-65988153D03*
D11*
G04 #@! TO.P,U1,22,GPIO17*
G04 #@! TO.N,col14*
X196815795Y-67784205D03*
G04 #@! TO.P,U1,21,GPIO16*
G04 #@! TO.N,unconnected-(U1-GPIO16-Pad21)_1*
X195019744Y-69580256D03*
G04 #@! TO.P,U1,20,GPIO15*
G04 #@! TO.N,col0*
X182447385Y-57007897D03*
G04 #@! TO.P,U1,19,GPIO14*
G04 #@! TO.N,col1*
X184243437Y-55211845D03*
D12*
G04 #@! TO.P,U1,18,GND*
G04 #@! TO.N,unconnected-(U1-GND-Pad18)*
X186039488Y-53415795D03*
D11*
G04 #@! TO.P,U1,17,GPIO13*
G04 #@! TO.N,col2*
X187835539Y-51619743D03*
G04 #@! TO.P,U1,16,GPIO12*
G04 #@! TO.N,col3*
X189631590Y-49823692D03*
G04 #@! TO.P,U1,15,GPIO11*
G04 #@! TO.N,col4*
X191427642Y-48027641D03*
G04 #@! TO.P,U1,14,GPIO10*
G04 #@! TO.N,col5*
X193223692Y-46231590D03*
D12*
G04 #@! TO.P,U1,13,GND*
G04 #@! TO.N,unconnected-(U1-GND-Pad13)_1*
X195019744Y-44435539D03*
D11*
G04 #@! TO.P,U1,12,GPIO9*
G04 #@! TO.N,col6*
X196815795Y-42639488D03*
G04 #@! TO.P,U1,11,GPIO8*
G04 #@! TO.N,row4*
X198611846Y-40843436D03*
G04 #@! TO.P,U1,10,GPIO7*
G04 #@! TO.N,row3*
X200407897Y-39047385D03*
G04 #@! TO.P,U1,9,GPIO6*
G04 #@! TO.N,row2*
X202203949Y-37251334D03*
D12*
G04 #@! TO.P,U1,8,GND*
G04 #@! TO.N,unconnected-(U1-GND-Pad8)*
X203999999Y-35455283D03*
D11*
G04 #@! TO.P,U1,7,GPIO5*
G04 #@! TO.N,row1*
X205796051Y-33659231D03*
G04 #@! TO.P,U1,6,GPIO4*
G04 #@! TO.N,row0*
X207592102Y-31863180D03*
G04 #@! TO.P,U1,5,GPIO3*
G04 #@! TO.N,unconnected-(U1-GPIO3-Pad5)_1*
X209388153Y-30067129D03*
G04 #@! TO.P,U1,4,GPIO2*
G04 #@! TO.N,unconnected-(U1-GPIO2-Pad4)*
X211184204Y-28271078D03*
D12*
G04 #@! TO.P,U1,3,GND*
G04 #@! TO.N,unconnected-(U1-GND-Pad3)*
X212980256Y-26475027D03*
D11*
G04 #@! TO.P,U1,2,GPIO1*
G04 #@! TO.N,unconnected-(U1-GPIO1-Pad2)*
X214776307Y-24678975D03*
G04 #@! TO.P,U1,1,GPIO0*
G04 #@! TO.N,unconnected-(U1-GPIO0-Pad1)_1*
X216572358Y-22882924D03*
G04 #@! TD*
D10*
G04 #@! TO.P,MX47,1,COL*
G04 #@! TO.N,col2*
X108196250Y-134410000D03*
G04 #@! TO.P,MX47,2,ROW*
G04 #@! TO.N,Net-(D47-A)*
X114546250Y-131870000D03*
G04 #@! TD*
G04 #@! TO.P,MX25,1,COL*
G04 #@! TO.N,col9*
X241546250Y-96310000D03*
G04 #@! TO.P,MX25,2,ROW*
G04 #@! TO.N,Net-(D25-A)*
X247896250Y-93770000D03*
G04 #@! TD*
G04 #@! TO.P,MX61,1,COL*
G04 #@! TO.N,col3*
X127246250Y-153460000D03*
G04 #@! TO.P,MX61,2,ROW*
G04 #@! TO.N,Net-(D61-A)*
X133596250Y-150920000D03*
G04 #@! TD*
G04 #@! TO.P,MX26,1,COL*
G04 #@! TO.N,col10*
X260596250Y-96310000D03*
G04 #@! TO.P,MX26,2,ROW*
G04 #@! TO.N,Net-(D26-A)*
X266946250Y-93770000D03*
G04 #@! TD*
G04 #@! TO.P,MX15,1,COL*
G04 #@! TO.N,col14*
X341558750Y-77260000D03*
G04 #@! TO.P,MX15,2,ROW*
G04 #@! TO.N,Net-(D15-A)*
X347908750Y-74720000D03*
G04 #@! TD*
G04 #@! TO.P,MX58,1,COL*
G04 #@! TO.N,col0*
X58190000Y-153460000D03*
G04 #@! TO.P,MX58,2,ROW*
G04 #@! TO.N,Net-(D58-A)*
X64540000Y-150920000D03*
G04 #@! TD*
G04 #@! TO.P,MX63,1,COL*
G04 #@! TO.N,col8*
X205827500Y-153460000D03*
G04 #@! TO.P,MX63,2,ROW*
G04 #@! TO.N,Net-(D63-A)*
X212177500Y-150920000D03*
G04 #@! TD*
G04 #@! TO.P,MX28,1,COL*
G04 #@! TO.N,col12*
X298696250Y-96310000D03*
G04 #@! TO.P,MX28,2,ROW*
G04 #@! TO.N,Net-(D28-A)*
X305046250Y-93770000D03*
G04 #@! TD*
G04 #@! TO.P,MX8,1,COL*
G04 #@! TO.N,col7*
X203446250Y-77260000D03*
G04 #@! TO.P,MX8,2,ROW*
G04 #@! TO.N,Net-(D8-A)*
X209796250Y-74720000D03*
G04 #@! TD*
G04 #@! TO.P,MX10,1,COL*
G04 #@! TO.N,col9*
X241546250Y-77260000D03*
G04 #@! TO.P,MX10,2,ROW*
G04 #@! TO.N,Net-(D10-A)*
X247896250Y-74720000D03*
G04 #@! TD*
G04 #@! TO.P,MX53,1,COL*
G04 #@! TO.N,col8*
X222496250Y-134410000D03*
G04 #@! TO.P,MX53,2,ROW*
G04 #@! TO.N,Net-(D53-A)*
X228846250Y-131870000D03*
G04 #@! TD*
G04 #@! TO.P,MX64,1,COL*
G04 #@! TO.N,col9*
X241546250Y-153460000D03*
G04 #@! TO.P,MX64,2,ROW*
G04 #@! TO.N,Net-(D64-A)*
X247896250Y-150920000D03*
G04 #@! TD*
G04 #@! TO.P,MX49,1,COL*
G04 #@! TO.N,col4*
X146296250Y-134410000D03*
G04 #@! TO.P,MX49,2,ROW*
G04 #@! TO.N,Net-(D49-A)*
X152646250Y-131870000D03*
G04 #@! TD*
G04 #@! TO.P,MX27,1,COL*
G04 #@! TO.N,col11*
X279646250Y-96310000D03*
G04 #@! TO.P,MX27,2,ROW*
G04 #@! TO.N,Net-(D27-A)*
X285996250Y-93770000D03*
G04 #@! TD*
G04 #@! TO.P,MX33,1,COL*
G04 #@! TO.N,col2*
X108196250Y-115360000D03*
G04 #@! TO.P,MX33,2,ROW*
G04 #@! TO.N,Net-(D33-A)*
X114546250Y-112820000D03*
G04 #@! TD*
G04 #@! TO.P,MX21,1,COL*
G04 #@! TO.N,col5*
X165346250Y-96310000D03*
G04 #@! TO.P,MX21,2,ROW*
G04 #@! TO.N,Net-(D21-A)*
X171696250Y-93770000D03*
G04 #@! TD*
G04 #@! TO.P,MX19,1,COL*
G04 #@! TO.N,col3*
X127246250Y-96310000D03*
G04 #@! TO.P,MX19,2,ROW*
G04 #@! TO.N,Net-(D19-A)*
X133596250Y-93770000D03*
G04 #@! TD*
G04 #@! TO.P,MX55,1,COL*
G04 #@! TO.N,col10*
X260596250Y-134410000D03*
G04 #@! TO.P,MX55,2,ROW*
G04 #@! TO.N,Net-(D55-A)*
X266946250Y-131870000D03*
G04 #@! TD*
G04 #@! TO.P,MX29,1,COL*
G04 #@! TO.N,col13*
X317746250Y-96310000D03*
G04 #@! TO.P,MX29,2,ROW*
G04 #@! TO.N,Net-(D29-A)*
X324096250Y-93770000D03*
G04 #@! TD*
G04 #@! TO.P,MX7,1,COL*
G04 #@! TO.N,col6*
X184396250Y-77260000D03*
G04 #@! TO.P,MX7,2,ROW*
G04 #@! TO.N,Net-(D7-A)*
X190746250Y-74720000D03*
G04 #@! TD*
G04 #@! TO.P,MX13,1,COL*
G04 #@! TO.N,col12*
X298696250Y-77260000D03*
G04 #@! TO.P,MX13,2,ROW*
G04 #@! TO.N,Net-(D13-A)*
X305046250Y-74720000D03*
G04 #@! TD*
G04 #@! TO.P,MX4,1,COL*
G04 #@! TO.N,col3*
X127246250Y-77260000D03*
G04 #@! TO.P,MX4,2,ROW*
G04 #@! TO.N,Net-(D4-A)*
X133596250Y-74720000D03*
G04 #@! TD*
G04 #@! TO.P,MX41,1,COL*
G04 #@! TO.N,col10*
X260596250Y-115360000D03*
G04 #@! TO.P,MX41,2,ROW*
G04 #@! TO.N,Net-(D41-A)*
X266946250Y-112820000D03*
G04 #@! TD*
G04 #@! TO.P,MX52,1,COL*
G04 #@! TO.N,col7*
X203446250Y-134410000D03*
G04 #@! TO.P,MX52,2,ROW*
G04 #@! TO.N,Net-(D52-A)*
X209796250Y-131870000D03*
G04 #@! TD*
G04 #@! TO.P,MX16,1,COL*
G04 #@! TO.N,col0*
X58190000Y-96310000D03*
G04 #@! TO.P,MX16,2,ROW*
G04 #@! TO.N,Net-(D16-A)*
X64540000Y-93770000D03*
G04 #@! TD*
G04 #@! TO.P,MX20,1,COL*
G04 #@! TO.N,col4*
X146296250Y-96310000D03*
G04 #@! TO.P,MX20,2,ROW*
G04 #@! TO.N,Net-(D20-A)*
X152646250Y-93770000D03*
G04 #@! TD*
G04 #@! TO.P,MX69,1,COL*
G04 #@! TO.N,col14*
X341558750Y-158222500D03*
G04 #@! TO.P,MX69,2,ROW*
G04 #@! TO.N,Net-(D69-A)*
X347908750Y-155682500D03*
G04 #@! TD*
G04 #@! TO.P,MX6,1,COL*
G04 #@! TO.N,col5*
X165346250Y-77260000D03*
G04 #@! TO.P,MX6,2,ROW*
G04 #@! TO.N,Net-(D6-A)*
X171696250Y-74720000D03*
G04 #@! TD*
G04 #@! TO.P,MX38,1,COL*
G04 #@! TO.N,col7*
X203446250Y-115360000D03*
G04 #@! TO.P,MX38,2,ROW*
G04 #@! TO.N,Net-(D38-A)*
X209796250Y-112820000D03*
G04 #@! TD*
G04 #@! TO.P,MX68,1,COL*
G04 #@! TO.N,col13*
X322508750Y-158222500D03*
G04 #@! TO.P,MX68,2,ROW*
G04 #@! TO.N,Net-(D68-A)*
X328858750Y-155682500D03*
G04 #@! TD*
G04 #@! TO.P,MX42,1,COL*
G04 #@! TO.N,col11*
X279646250Y-115360000D03*
G04 #@! TO.P,MX42,2,ROW*
G04 #@! TO.N,Net-(D42-A)*
X285996250Y-112820000D03*
G04 #@! TD*
G04 #@! TO.P,MX60,1,COL*
G04 #@! TO.N,col2*
X108196250Y-153460000D03*
G04 #@! TO.P,MX60,2,ROW*
G04 #@! TO.N,Net-(D60-A)*
X114546250Y-150920000D03*
G04 #@! TD*
G04 #@! TO.P,MX48,1,COL*
G04 #@! TO.N,col3*
X127246250Y-134410000D03*
G04 #@! TO.P,MX48,2,ROW*
G04 #@! TO.N,Net-(D48-A)*
X133596250Y-131870000D03*
G04 #@! TD*
G04 #@! TO.P,MX67,1,COL*
G04 #@! TO.N,col12*
X303458750Y-158222500D03*
G04 #@! TO.P,MX67,2,ROW*
G04 #@! TO.N,Net-(D67-A)*
X309808750Y-155682500D03*
G04 #@! TD*
G04 #@! TO.P,MX40,1,COL*
G04 #@! TO.N,col9*
X241546250Y-115360000D03*
G04 #@! TO.P,MX40,2,ROW*
G04 #@! TO.N,Net-(D40-A)*
X247896250Y-112820000D03*
G04 #@! TD*
G04 #@! TO.P,MX39,1,COL*
G04 #@! TO.N,col8*
X222496250Y-115360000D03*
G04 #@! TO.P,MX39,2,ROW*
G04 #@! TO.N,Net-(D39-A)*
X228846250Y-112820000D03*
G04 #@! TD*
G04 #@! TO.P,MX30,1,COL*
G04 #@! TO.N,col14*
X341558750Y-96310000D03*
G04 #@! TO.P,MX30,2,ROW*
G04 #@! TO.N,Net-(D30-A)*
X347908750Y-93770000D03*
G04 #@! TD*
G04 #@! TO.P,MX56,1,COL*
G04 #@! TO.N,col11*
X279646250Y-134410000D03*
G04 #@! TO.P,MX56,2,ROW*
G04 #@! TO.N,Net-(D56-A)*
X285996250Y-131870000D03*
G04 #@! TD*
G04 #@! TO.P,MX14,1,COL*
G04 #@! TO.N,col13*
X317746250Y-77260000D03*
G04 #@! TO.P,MX14,2,ROW*
G04 #@! TO.N,Net-(D14-A)*
X324096250Y-74720000D03*
G04 #@! TD*
G04 #@! TO.P,MX24,1,COL*
G04 #@! TO.N,col8*
X222496250Y-96310000D03*
G04 #@! TO.P,MX24,2,ROW*
G04 #@! TO.N,Net-(D24-A)*
X228846250Y-93770000D03*
G04 #@! TD*
G04 #@! TO.P,MX22,1,COL*
G04 #@! TO.N,col6*
X184396250Y-96310000D03*
G04 #@! TO.P,MX22,2,ROW*
G04 #@! TO.N,Net-(D22-A)*
X190746250Y-93770000D03*
G04 #@! TD*
D13*
G04 #@! TO.P,D29,1,K*
G04 #@! TO.N,row1*
X329556250Y-101500000D03*
G04 #@! TO.P,D29,2,A*
G04 #@! TO.N,Net-(D29-A)*
X329556250Y-98200000D03*
G04 #@! TD*
G04 #@! TO.P,D30,1,K*
G04 #@! TO.N,row1*
X353368750Y-101500000D03*
G04 #@! TO.P,D30,2,A*
G04 #@! TO.N,Net-(D30-A)*
X353368750Y-98200000D03*
G04 #@! TD*
G04 #@! TO.P,D55,1,K*
G04 #@! TO.N,row3*
X272406250Y-139600000D03*
G04 #@! TO.P,D55,2,A*
G04 #@! TO.N,Net-(D55-A)*
X272406250Y-136300000D03*
G04 #@! TD*
G04 #@! TO.P,D11,1,K*
G04 #@! TO.N,row0*
X272406250Y-82450000D03*
G04 #@! TO.P,D11,2,A*
G04 #@! TO.N,Net-(D11-A)*
X272406250Y-79150000D03*
G04 #@! TD*
G04 #@! TO.P,D20,1,K*
G04 #@! TO.N,row1*
X158106250Y-101500000D03*
G04 #@! TO.P,D20,2,A*
G04 #@! TO.N,Net-(D20-A)*
X158106250Y-98200000D03*
G04 #@! TD*
G04 #@! TO.P,D25,1,K*
G04 #@! TO.N,row1*
X253356250Y-101500000D03*
G04 #@! TO.P,D25,2,A*
G04 #@! TO.N,Net-(D25-A)*
X253356250Y-98200000D03*
G04 #@! TD*
G04 #@! TO.P,D63,1,K*
G04 #@! TO.N,row4*
X217637500Y-158650000D03*
G04 #@! TO.P,D63,2,A*
G04 #@! TO.N,Net-(D63-A)*
X217637500Y-155350000D03*
G04 #@! TD*
G04 #@! TO.P,D18,1,K*
G04 #@! TO.N,row1*
X120006250Y-101500000D03*
G04 #@! TO.P,D18,2,A*
G04 #@! TO.N,Net-(D18-A)*
X120006250Y-98200000D03*
G04 #@! TD*
G04 #@! TO.P,D60,1,K*
G04 #@! TO.N,row4*
X120006250Y-158650000D03*
G04 #@! TO.P,D60,2,A*
G04 #@! TO.N,Net-(D60-A)*
X120006250Y-155350000D03*
G04 #@! TD*
G04 #@! TO.P,D26,1,K*
G04 #@! TO.N,row1*
X272406250Y-101500000D03*
G04 #@! TO.P,D26,2,A*
G04 #@! TO.N,Net-(D26-A)*
X272406250Y-98200000D03*
G04 #@! TD*
G04 #@! TO.P,D6,1,K*
G04 #@! TO.N,row0*
X177156250Y-82450000D03*
G04 #@! TO.P,D6,2,A*
G04 #@! TO.N,Net-(D6-A)*
X177156250Y-79150000D03*
G04 #@! TD*
G04 #@! TO.P,D34,1,K*
G04 #@! TO.N,row2*
X139056250Y-120550000D03*
G04 #@! TO.P,D34,2,A*
G04 #@! TO.N,Net-(D34-A)*
X139056250Y-117250000D03*
G04 #@! TD*
G04 #@! TO.P,D32,1,K*
G04 #@! TO.N,row2*
X96193750Y-120550000D03*
G04 #@! TO.P,D32,2,A*
G04 #@! TO.N,Net-(D32-A)*
X96193750Y-117250000D03*
G04 #@! TD*
G04 #@! TO.P,D57,1,K*
G04 #@! TO.N,row3*
X315268750Y-139600000D03*
G04 #@! TO.P,D57,2,A*
G04 #@! TO.N,Net-(D57-A)*
X315268750Y-136300000D03*
G04 #@! TD*
G04 #@! TO.P,D41,1,K*
G04 #@! TO.N,row2*
X272406250Y-120550000D03*
G04 #@! TO.P,D41,2,A*
G04 #@! TO.N,Net-(D41-A)*
X272406250Y-117250000D03*
G04 #@! TD*
G04 #@! TO.P,D35,1,K*
G04 #@! TO.N,row2*
X158106250Y-120550000D03*
G04 #@! TO.P,D35,2,A*
G04 #@! TO.N,Net-(D35-A)*
X158106250Y-117250000D03*
G04 #@! TD*
G04 #@! TO.P,D56,1,K*
G04 #@! TO.N,row3*
X291456250Y-139600000D03*
G04 #@! TO.P,D56,2,A*
G04 #@! TO.N,Net-(D56-A)*
X291456250Y-136300000D03*
G04 #@! TD*
G04 #@! TO.P,D47,1,K*
G04 #@! TO.N,row3*
X120006250Y-139600000D03*
G04 #@! TO.P,D47,2,A*
G04 #@! TO.N,Net-(D47-A)*
X120006250Y-136300000D03*
G04 #@! TD*
G04 #@! TO.P,D4,1,K*
G04 #@! TO.N,row0*
X139056250Y-82450000D03*
G04 #@! TO.P,D4,2,A*
G04 #@! TO.N,Net-(D4-A)*
X139056250Y-79150000D03*
G04 #@! TD*
G04 #@! TO.P,D24,1,K*
G04 #@! TO.N,row1*
X234306250Y-101500000D03*
G04 #@! TO.P,D24,2,A*
G04 #@! TO.N,Net-(D24-A)*
X234306250Y-98200000D03*
G04 #@! TD*
G04 #@! TO.P,D40,1,K*
G04 #@! TO.N,row2*
X253356250Y-120550000D03*
G04 #@! TO.P,D40,2,A*
G04 #@! TO.N,Net-(D40-A)*
X253356250Y-117250000D03*
G04 #@! TD*
G04 #@! TO.P,D44,1,K*
G04 #@! TO.N,row2*
X334318750Y-120550000D03*
G04 #@! TO.P,D44,2,A*
G04 #@! TO.N,Net-(D44-A)*
X334318750Y-117250000D03*
G04 #@! TD*
G04 #@! TO.P,D9,1,K*
G04 #@! TO.N,row0*
X234306250Y-82450000D03*
G04 #@! TO.P,D9,2,A*
G04 #@! TO.N,Net-(D9-A)*
X234306250Y-79150000D03*
G04 #@! TD*
G04 #@! TO.P,D2,1,K*
G04 #@! TO.N,row0*
X96193750Y-82450000D03*
G04 #@! TO.P,D2,2,A*
G04 #@! TO.N,Net-(D2-A)*
X96193750Y-79150000D03*
G04 #@! TD*
G04 #@! TO.P,D54,1,K*
G04 #@! TO.N,row3*
X253356250Y-139600000D03*
G04 #@! TO.P,D54,2,A*
G04 #@! TO.N,Net-(D54-A)*
X253356250Y-136300000D03*
G04 #@! TD*
G04 #@! TO.P,D65,1,K*
G04 #@! TO.N,row4*
X272406250Y-158650000D03*
G04 #@! TO.P,D65,2,A*
G04 #@! TO.N,Net-(D65-A)*
X272406250Y-155350000D03*
G04 #@! TD*
G04 #@! TO.P,D64,1,K*
G04 #@! TO.N,row4*
X253356250Y-158650000D03*
G04 #@! TO.P,D64,2,A*
G04 #@! TO.N,Net-(D64-A)*
X253356250Y-155350000D03*
G04 #@! TD*
G04 #@! TO.P,D59,1,K*
G04 #@! TO.N,row4*
X96193750Y-158650000D03*
G04 #@! TO.P,D59,2,A*
G04 #@! TO.N,Net-(D59-A)*
X96193750Y-155350000D03*
G04 #@! TD*
G04 #@! TO.P,D67,1,K*
G04 #@! TO.N,row4*
X315268750Y-163412500D03*
G04 #@! TO.P,D67,2,A*
G04 #@! TO.N,Net-(D67-A)*
X315268750Y-160112500D03*
G04 #@! TD*
G04 #@! TO.P,D21,1,K*
G04 #@! TO.N,row1*
X177156250Y-101500000D03*
G04 #@! TO.P,D21,2,A*
G04 #@! TO.N,Net-(D21-A)*
X177156250Y-98200000D03*
G04 #@! TD*
G04 #@! TO.P,D27,1,K*
G04 #@! TO.N,row1*
X291456250Y-101500000D03*
G04 #@! TO.P,D27,2,A*
G04 #@! TO.N,Net-(D27-A)*
X291456250Y-98200000D03*
G04 #@! TD*
G04 #@! TO.P,D53,1,K*
G04 #@! TO.N,row3*
X234306250Y-139600000D03*
G04 #@! TO.P,D53,2,A*
G04 #@! TO.N,Net-(D53-A)*
X234306250Y-136300000D03*
G04 #@! TD*
G04 #@! TO.P,D52,1,K*
G04 #@! TO.N,row3*
X215256250Y-139600000D03*
G04 #@! TO.P,D52,2,A*
G04 #@! TO.N,Net-(D52-A)*
X215256250Y-136300000D03*
G04 #@! TD*
G04 #@! TO.P,D31,1,K*
G04 #@! TO.N,row2*
X70000000Y-120550000D03*
G04 #@! TO.P,D31,2,A*
G04 #@! TO.N,Net-(D31-A)*
X70000000Y-117250000D03*
G04 #@! TD*
G04 #@! TO.P,D38,1,K*
G04 #@! TO.N,row2*
X215256250Y-120550000D03*
G04 #@! TO.P,D38,2,A*
G04 #@! TO.N,Net-(D38-A)*
X215256250Y-117250000D03*
G04 #@! TD*
G04 #@! TO.P,D14,1,K*
G04 #@! TO.N,row0*
X329556250Y-82450000D03*
G04 #@! TO.P,D14,2,A*
G04 #@! TO.N,Net-(D14-A)*
X329556250Y-79150000D03*
G04 #@! TD*
G04 #@! TO.P,D22,1,K*
G04 #@! TO.N,row1*
X196206250Y-101500000D03*
G04 #@! TO.P,D22,2,A*
G04 #@! TO.N,Net-(D22-A)*
X196206250Y-98200000D03*
G04 #@! TD*
G04 #@! TO.P,D12,1,K*
G04 #@! TO.N,row0*
X291456250Y-82450000D03*
G04 #@! TO.P,D12,2,A*
G04 #@! TO.N,Net-(D12-A)*
X291456250Y-79150000D03*
G04 #@! TD*
G04 #@! TO.P,D58,1,K*
G04 #@! TO.N,row4*
X70000000Y-158650000D03*
G04 #@! TO.P,D58,2,A*
G04 #@! TO.N,Net-(D58-A)*
X70000000Y-155350000D03*
G04 #@! TD*
G04 #@! TO.P,D50,1,K*
G04 #@! TO.N,row3*
X177156250Y-139600000D03*
G04 #@! TO.P,D50,2,A*
G04 #@! TO.N,Net-(D50-A)*
X177156250Y-136300000D03*
G04 #@! TD*
G04 #@! TO.P,D17,1,K*
G04 #@! TO.N,row1*
X96193750Y-101500000D03*
G04 #@! TO.P,D17,2,A*
G04 #@! TO.N,Net-(D17-A)*
X96193750Y-98200000D03*
G04 #@! TD*
G04 #@! TO.P,D10,1,K*
G04 #@! TO.N,row0*
X253356250Y-82450000D03*
G04 #@! TO.P,D10,2,A*
G04 #@! TO.N,Net-(D10-A)*
X253356250Y-79150000D03*
G04 #@! TD*
G04 #@! TO.P,D43,1,K*
G04 #@! TO.N,row2*
X310506250Y-120550000D03*
G04 #@! TO.P,D43,2,A*
G04 #@! TO.N,Net-(D43-A)*
X310506250Y-117250000D03*
G04 #@! TD*
G04 #@! TO.P,D49,1,K*
G04 #@! TO.N,row3*
X158106250Y-139600000D03*
G04 #@! TO.P,D49,2,A*
G04 #@! TO.N,Net-(D49-A)*
X158106250Y-136300000D03*
G04 #@! TD*
G04 #@! TO.P,D51,1,K*
G04 #@! TO.N,row3*
X196206250Y-139600000D03*
G04 #@! TO.P,D51,2,A*
G04 #@! TO.N,Net-(D51-A)*
X196206250Y-136300000D03*
G04 #@! TD*
G04 #@! TO.P,D3,1,K*
G04 #@! TO.N,row0*
X120006250Y-82450000D03*
G04 #@! TO.P,D3,2,A*
G04 #@! TO.N,Net-(D3-A)*
X120006250Y-79150000D03*
G04 #@! TD*
G04 #@! TO.P,D66,1,K*
G04 #@! TO.N,row4*
X296218750Y-163412500D03*
G04 #@! TO.P,D66,2,A*
G04 #@! TO.N,Net-(D66-A)*
X296218750Y-160112500D03*
G04 #@! TD*
G04 #@! TO.P,D45,1,K*
G04 #@! TO.N,row3*
X70000000Y-139600000D03*
G04 #@! TO.P,D45,2,A*
G04 #@! TO.N,Net-(D45-A)*
X70000000Y-136300000D03*
G04 #@! TD*
G04 #@! TO.P,D15,1,K*
G04 #@! TO.N,row0*
X353368750Y-82450000D03*
G04 #@! TO.P,D15,2,A*
G04 #@! TO.N,Net-(D15-A)*
X353368750Y-79150000D03*
G04 #@! TD*
G04 #@! TO.P,D42,1,K*
G04 #@! TO.N,row2*
X291456250Y-120550000D03*
G04 #@! TO.P,D42,2,A*
G04 #@! TO.N,Net-(D42-A)*
X291456250Y-117250000D03*
G04 #@! TD*
G04 #@! TO.P,D48,1,K*
G04 #@! TO.N,row3*
X139056250Y-139600000D03*
G04 #@! TO.P,D48,2,A*
G04 #@! TO.N,Net-(D48-A)*
X139056250Y-136300000D03*
G04 #@! TD*
G04 #@! TO.P,D1,1,K*
G04 #@! TO.N,row0*
X70000000Y-82450000D03*
G04 #@! TO.P,D1,2,A*
G04 #@! TO.N,Net-(D1-A)*
X70000000Y-79150000D03*
G04 #@! TD*
G04 #@! TO.P,D68,1,K*
G04 #@! TO.N,row4*
X334318750Y-163412500D03*
G04 #@! TO.P,D68,2,A*
G04 #@! TO.N,Net-(D68-A)*
X334318750Y-160112500D03*
G04 #@! TD*
G04 #@! TO.P,D61,1,K*
G04 #@! TO.N,row4*
X139056250Y-158650000D03*
G04 #@! TO.P,D61,2,A*
G04 #@! TO.N,Net-(D61-A)*
X139056250Y-155350000D03*
G04 #@! TD*
G04 #@! TO.P,D19,1,K*
G04 #@! TO.N,row1*
X139056250Y-101500000D03*
G04 #@! TO.P,D19,2,A*
G04 #@! TO.N,Net-(D19-A)*
X139056250Y-98200000D03*
G04 #@! TD*
G04 #@! TO.P,D69,1,K*
G04 #@! TO.N,row4*
X353368750Y-163412500D03*
G04 #@! TO.P,D69,2,A*
G04 #@! TO.N,Net-(D69-A)*
X353368750Y-160112500D03*
G04 #@! TD*
G04 #@! TO.P,D16,1,K*
G04 #@! TO.N,row1*
X70000000Y-101500000D03*
G04 #@! TO.P,D16,2,A*
G04 #@! TO.N,Net-(D16-A)*
X70000000Y-98200000D03*
G04 #@! TD*
G04 #@! TO.P,D5,1,K*
G04 #@! TO.N,row0*
X158106250Y-82450000D03*
G04 #@! TO.P,D5,2,A*
G04 #@! TO.N,Net-(D5-A)*
X158106250Y-79150000D03*
G04 #@! TD*
G04 #@! TO.P,D33,1,K*
G04 #@! TO.N,row2*
X120006250Y-120550000D03*
G04 #@! TO.P,D33,2,A*
G04 #@! TO.N,Net-(D33-A)*
X120006250Y-117250000D03*
G04 #@! TD*
G04 #@! TO.P,D8,1,K*
G04 #@! TO.N,row0*
X215256250Y-82450000D03*
G04 #@! TO.P,D8,2,A*
G04 #@! TO.N,Net-(D8-A)*
X215256250Y-79150000D03*
G04 #@! TD*
G04 #@! TO.P,D37,1,K*
G04 #@! TO.N,row2*
X196206250Y-120550000D03*
G04 #@! TO.P,D37,2,A*
G04 #@! TO.N,Net-(D37-A)*
X196206250Y-117250000D03*
G04 #@! TD*
G04 #@! TO.P,D46,1,K*
G04 #@! TO.N,row3*
X96193750Y-139600000D03*
G04 #@! TO.P,D46,2,A*
G04 #@! TO.N,Net-(D46-A)*
X96193750Y-136300000D03*
G04 #@! TD*
G04 #@! TO.P,D62,1,K*
G04 #@! TO.N,row4*
X170012500Y-158650000D03*
G04 #@! TO.P,D62,2,A*
G04 #@! TO.N,Net-(D62-A)*
X170012500Y-155350000D03*
G04 #@! TD*
G04 #@! TO.P,D39,1,K*
G04 #@! TO.N,row2*
X234306250Y-120550000D03*
G04 #@! TO.P,D39,2,A*
G04 #@! TO.N,Net-(D39-A)*
X234306250Y-117250000D03*
G04 #@! TD*
G04 #@! TO.P,D7,1,K*
G04 #@! TO.N,row0*
X196206250Y-82450000D03*
G04 #@! TO.P,D7,2,A*
G04 #@! TO.N,Net-(D7-A)*
X196206250Y-79150000D03*
G04 #@! TD*
G04 #@! TO.P,D23,1,K*
G04 #@! TO.N,row1*
X215256250Y-101500000D03*
G04 #@! TO.P,D23,2,A*
G04 #@! TO.N,Net-(D23-A)*
X215256250Y-98200000D03*
G04 #@! TD*
G04 #@! TO.P,D28,1,K*
G04 #@! TO.N,row1*
X310506250Y-101500000D03*
G04 #@! TO.P,D28,2,A*
G04 #@! TO.N,Net-(D28-A)*
X310506250Y-98200000D03*
G04 #@! TD*
G04 #@! TO.P,D13,1,K*
G04 #@! TO.N,row0*
X310506250Y-82450000D03*
G04 #@! TO.P,D13,2,A*
G04 #@! TO.N,Net-(D13-A)*
X310506250Y-79150000D03*
G04 #@! TD*
G04 #@! TO.P,D36,1,K*
G04 #@! TO.N,row2*
X177156250Y-120550000D03*
G04 #@! TO.P,D36,2,A*
G04 #@! TO.N,Net-(D36-A)*
X177156250Y-117250000D03*
G04 #@! TD*
D14*
G04 #@! TO.N,row1*
X199400000Y-79200000D03*
X199400000Y-99800000D03*
G04 #@! TO.N,row2*
X198800000Y-119000000D03*
X198800000Y-80000000D03*
G04 #@! TO.N,row4*
X194400000Y-156850000D03*
X197600000Y-81600000D03*
G04 #@! TO.N,row3*
X198200000Y-80800000D03*
X198200000Y-138000000D03*
G04 #@! TD*
D15*
G04 #@! TO.N,row2*
X158106250Y-120550000D02*
X177156250Y-120550000D01*
G04 #@! TO.N,row0*
X207592102Y-52448314D02*
X207592102Y-31863180D01*
X191600000Y-70200000D02*
X191600000Y-68440416D01*
X200000000Y-78600000D02*
X191600000Y-70200000D01*
X200000000Y-81200000D02*
X200000000Y-78600000D01*
X201250000Y-82450000D02*
X200000000Y-81200000D01*
X191600000Y-68440416D02*
X207592102Y-52448314D01*
G04 #@! TO.N,row1*
X191200000Y-68200000D02*
X205796051Y-53603949D01*
X205796051Y-53603949D02*
X205796051Y-33659231D01*
X191200000Y-70400000D02*
X191200000Y-68200000D01*
X199400000Y-78600000D02*
X191200000Y-70400000D01*
X199400000Y-79200000D02*
X199400000Y-78600000D01*
G04 #@! TO.N,row2*
X202203949Y-56596051D02*
X202203949Y-37251334D01*
X198800000Y-78600000D02*
X190600000Y-70400000D01*
X190600000Y-70400000D02*
X190600000Y-68200000D01*
X198800000Y-80000000D02*
X198800000Y-78600000D01*
X190600000Y-68200000D02*
X202203949Y-56596051D01*
G04 #@! TO.N,row3*
X190000000Y-68200000D02*
X200407897Y-57792103D01*
X190000000Y-70500000D02*
X190000000Y-68200000D01*
X198200000Y-78700000D02*
X190000000Y-70500000D01*
X198200000Y-80800000D02*
X198200000Y-78700000D01*
X200407897Y-57792103D02*
X200407897Y-39047385D01*
G04 #@! TO.N,row4*
X189600000Y-70800000D02*
X189600000Y-68000000D01*
X197600000Y-78800000D02*
X189600000Y-70800000D01*
X189600000Y-68000000D02*
X198611846Y-58988154D01*
X197600000Y-81600000D02*
X197600000Y-78800000D01*
X198611846Y-58988154D02*
X198611846Y-40843436D01*
X196200000Y-158650000D02*
X203200000Y-158650000D01*
X194400000Y-156850000D02*
X196200000Y-158650000D01*
X192600000Y-158650000D02*
X196200000Y-158650000D01*
G04 #@! TO.N,row0*
X272406250Y-82450000D02*
X291456250Y-82450000D01*
X291456250Y-82450000D02*
X310506250Y-82450000D01*
X310506250Y-82450000D02*
X329556250Y-82450000D01*
X120006250Y-82450000D02*
X96193750Y-82450000D01*
X253356250Y-82450000D02*
X272406250Y-82450000D01*
X196206250Y-82450000D02*
X201800000Y-82450000D01*
X253356250Y-82450000D02*
X234306250Y-82450000D01*
X177156250Y-82450000D02*
X196206250Y-82450000D01*
X120006250Y-82450000D02*
X139056250Y-82450000D01*
X329556250Y-82450000D02*
X353368750Y-82450000D01*
X158106250Y-82450000D02*
X177156250Y-82450000D01*
X201800000Y-82450000D02*
X215256250Y-82450000D01*
X158106250Y-82450000D02*
X139056250Y-82450000D01*
X215256250Y-82450000D02*
X234306250Y-82450000D01*
X70000000Y-82450000D02*
X96193750Y-82450000D01*
G04 #@! TO.N,Net-(D1-A)*
X70000000Y-79150000D02*
X68970000Y-79150000D01*
X68970000Y-79150000D02*
X64540000Y-74720000D01*
G04 #@! TO.N,Net-(D2-A)*
X95163750Y-79150000D02*
X90733750Y-74720000D01*
X96193750Y-79150000D02*
X95163750Y-79150000D01*
G04 #@! TO.N,Net-(D3-A)*
X118976250Y-79150000D02*
X120006250Y-79150000D01*
X114546250Y-74720000D02*
X118976250Y-79150000D01*
G04 #@! TO.N,Net-(D4-A)*
X133596250Y-74720000D02*
X138026250Y-79150000D01*
X138026250Y-79150000D02*
X139056250Y-79150000D01*
G04 #@! TO.N,Net-(D5-A)*
X157076250Y-79150000D02*
X158106250Y-79150000D01*
X152646250Y-74720000D02*
X157076250Y-79150000D01*
G04 #@! TO.N,Net-(D6-A)*
X176126250Y-79150000D02*
X171696250Y-74720000D01*
X177156250Y-79150000D02*
X176126250Y-79150000D01*
G04 #@! TO.N,Net-(D7-A)*
X190746250Y-74720000D02*
X195176250Y-79150000D01*
X195176250Y-79150000D02*
X196206250Y-79150000D01*
G04 #@! TO.N,Net-(D8-A)*
X214226250Y-79150000D02*
X215256250Y-79150000D01*
X209796250Y-74720000D02*
X214226250Y-79150000D01*
G04 #@! TO.N,Net-(D9-A)*
X233276250Y-79150000D02*
X234306250Y-79150000D01*
X228846250Y-74720000D02*
X233276250Y-79150000D01*
G04 #@! TO.N,Net-(D10-A)*
X247896250Y-74720000D02*
X252326250Y-79150000D01*
X252326250Y-79150000D02*
X253356250Y-79150000D01*
G04 #@! TO.N,Net-(D11-A)*
X271376250Y-79150000D02*
X272406250Y-79150000D01*
X266946250Y-74720000D02*
X271376250Y-79150000D01*
G04 #@! TO.N,Net-(D12-A)*
X285996250Y-74720000D02*
X290426250Y-79150000D01*
X290426250Y-79150000D02*
X291456250Y-79150000D01*
G04 #@! TO.N,Net-(D13-A)*
X305046250Y-74720000D02*
X309476250Y-79150000D01*
X309476250Y-79150000D02*
X310506250Y-79150000D01*
G04 #@! TO.N,Net-(D14-A)*
X328526250Y-79150000D02*
X329556250Y-79150000D01*
X324096250Y-74720000D02*
X328526250Y-79150000D01*
G04 #@! TO.N,Net-(D15-A)*
X352338750Y-79150000D02*
X353368750Y-79150000D01*
X347908750Y-74720000D02*
X352338750Y-79150000D01*
G04 #@! TO.N,row1*
X196206250Y-101500000D02*
X201000000Y-101500000D01*
X96193750Y-101500000D02*
X120006250Y-101500000D01*
X310506250Y-101500000D02*
X329556250Y-101500000D01*
X201000000Y-101500000D02*
X215256250Y-101500000D01*
X120006250Y-101500000D02*
X139056250Y-101500000D01*
X253356250Y-101500000D02*
X272406250Y-101500000D01*
X215256250Y-101500000D02*
X234306250Y-101500000D01*
X177156250Y-101500000D02*
X196206250Y-101500000D01*
X199400000Y-99900000D02*
X201000000Y-101500000D01*
X139056250Y-101500000D02*
X158106250Y-101500000D01*
X272406250Y-101500000D02*
X291456250Y-101500000D01*
X234306250Y-101500000D02*
X253356250Y-101500000D01*
X199400000Y-99800000D02*
X199400000Y-99900000D01*
X291456250Y-101500000D02*
X310506250Y-101500000D01*
X70000000Y-101500000D02*
X96193750Y-101500000D01*
X158106250Y-101500000D02*
X177156250Y-101500000D01*
X329556250Y-101500000D02*
X353368750Y-101500000D01*
G04 #@! TO.N,Net-(D16-A)*
X68970000Y-98200000D02*
X70000000Y-98200000D01*
X64540000Y-93770000D02*
X68970000Y-98200000D01*
G04 #@! TO.N,Net-(D17-A)*
X95163750Y-98200000D02*
X96193750Y-98200000D01*
X90733750Y-93770000D02*
X95163750Y-98200000D01*
G04 #@! TO.N,Net-(D18-A)*
X118976250Y-98200000D02*
X120006250Y-98200000D01*
X114546250Y-93770000D02*
X118976250Y-98200000D01*
G04 #@! TO.N,Net-(D19-A)*
X133596250Y-93770000D02*
X138026250Y-98200000D01*
X138026250Y-98200000D02*
X139056250Y-98200000D01*
G04 #@! TO.N,Net-(D20-A)*
X152646250Y-93770000D02*
X157076250Y-98200000D01*
X157076250Y-98200000D02*
X158106250Y-98200000D01*
G04 #@! TO.N,Net-(D21-A)*
X171696250Y-93770000D02*
X176126250Y-98200000D01*
X176126250Y-98200000D02*
X177156250Y-98200000D01*
G04 #@! TO.N,Net-(D22-A)*
X195176250Y-98200000D02*
X196206250Y-98200000D01*
X190746250Y-93770000D02*
X195176250Y-98200000D01*
G04 #@! TO.N,Net-(D23-A)*
X209796250Y-93770000D02*
X214226250Y-98200000D01*
X214226250Y-98200000D02*
X215256250Y-98200000D01*
G04 #@! TO.N,Net-(D24-A)*
X233276250Y-98200000D02*
X234306250Y-98200000D01*
X228846250Y-93770000D02*
X233276250Y-98200000D01*
G04 #@! TO.N,Net-(D25-A)*
X247896250Y-93770000D02*
X252326250Y-98200000D01*
X252326250Y-98200000D02*
X253356250Y-98200000D01*
G04 #@! TO.N,Net-(D26-A)*
X266946250Y-93770000D02*
X271376250Y-98200000D01*
X271376250Y-98200000D02*
X272406250Y-98200000D01*
G04 #@! TO.N,Net-(D27-A)*
X290426250Y-98200000D02*
X291456250Y-98200000D01*
X285996250Y-93770000D02*
X290426250Y-98200000D01*
G04 #@! TO.N,Net-(D28-A)*
X309476250Y-98200000D02*
X310506250Y-98200000D01*
X305046250Y-93770000D02*
X309476250Y-98200000D01*
G04 #@! TO.N,Net-(D29-A)*
X324096250Y-93770000D02*
X328526250Y-98200000D01*
X328526250Y-98200000D02*
X329556250Y-98200000D01*
G04 #@! TO.N,Net-(D30-A)*
X352338750Y-98200000D02*
X353368750Y-98200000D01*
X347908750Y-93770000D02*
X352338750Y-98200000D01*
G04 #@! TO.N,Net-(D31-A)*
X68970000Y-117250000D02*
X70000000Y-117250000D01*
X64540000Y-112820000D02*
X68970000Y-117250000D01*
G04 #@! TO.N,row2*
X334318750Y-120550000D02*
X310506250Y-120550000D01*
X291456250Y-120550000D02*
X310506250Y-120550000D01*
X234306250Y-120550000D02*
X253356250Y-120550000D01*
X253356250Y-120550000D02*
X272406250Y-120550000D01*
X96193750Y-120550000D02*
X120006250Y-120550000D01*
X198800000Y-119150000D02*
X200200000Y-120550000D01*
X198800000Y-119000000D02*
X198800000Y-119150000D01*
X177156250Y-120550000D02*
X196206250Y-120550000D01*
X215256250Y-120550000D02*
X234306250Y-120550000D01*
X196206250Y-120550000D02*
X200200000Y-120550000D01*
X120006250Y-120550000D02*
X139056250Y-120550000D01*
X272406250Y-120550000D02*
X291456250Y-120550000D01*
X70000000Y-120550000D02*
X96193750Y-120550000D01*
X200200000Y-120550000D02*
X215256250Y-120550000D01*
X139056250Y-120550000D02*
X158106250Y-120550000D01*
G04 #@! TO.N,Net-(D32-A)*
X90733750Y-112820000D02*
X95163750Y-117250000D01*
X95163750Y-117250000D02*
X96193750Y-117250000D01*
G04 #@! TO.N,Net-(D33-A)*
X118976250Y-117250000D02*
X120006250Y-117250000D01*
X114546250Y-112820000D02*
X118976250Y-117250000D01*
G04 #@! TO.N,Net-(D34-A)*
X138026250Y-117250000D02*
X139056250Y-117250000D01*
X133596250Y-112820000D02*
X138026250Y-117250000D01*
G04 #@! TO.N,Net-(D35-A)*
X157076250Y-117250000D02*
X158106250Y-117250000D01*
X152646250Y-112820000D02*
X157076250Y-117250000D01*
G04 #@! TO.N,Net-(D36-A)*
X176126250Y-117250000D02*
X177156250Y-117250000D01*
X171696250Y-112820000D02*
X176126250Y-117250000D01*
G04 #@! TO.N,Net-(D37-A)*
X195176250Y-117250000D02*
X196206250Y-117250000D01*
X190746250Y-112820000D02*
X195176250Y-117250000D01*
G04 #@! TO.N,Net-(D38-A)*
X209796250Y-112820000D02*
X214226250Y-117250000D01*
X214226250Y-117250000D02*
X215256250Y-117250000D01*
G04 #@! TO.N,Net-(D39-A)*
X233276250Y-117250000D02*
X234306250Y-117250000D01*
X228846250Y-112820000D02*
X233276250Y-117250000D01*
G04 #@! TO.N,Net-(D40-A)*
X247896250Y-112820000D02*
X252326250Y-117250000D01*
X252326250Y-117250000D02*
X253356250Y-117250000D01*
G04 #@! TO.N,Net-(D41-A)*
X271376250Y-117250000D02*
X272406250Y-117250000D01*
X266946250Y-112820000D02*
X271376250Y-117250000D01*
G04 #@! TO.N,Net-(D42-A)*
X290426250Y-117250000D02*
X291456250Y-117250000D01*
X285996250Y-112820000D02*
X290426250Y-117250000D01*
G04 #@! TO.N,Net-(D43-A)*
X309476250Y-117250000D02*
X310506250Y-117250000D01*
X305046250Y-112820000D02*
X309476250Y-117250000D01*
G04 #@! TO.N,Net-(D44-A)*
X333288750Y-117250000D02*
X334318750Y-117250000D01*
X328858750Y-112820000D02*
X333288750Y-117250000D01*
G04 #@! TO.N,Net-(D45-A)*
X68970000Y-136300000D02*
X70000000Y-136300000D01*
X64540000Y-131870000D02*
X68970000Y-136300000D01*
G04 #@! TO.N,Net-(D46-A)*
X95163750Y-136300000D02*
X96193750Y-136300000D01*
X90733750Y-131870000D02*
X95163750Y-136300000D01*
G04 #@! TO.N,Net-(D47-A)*
X118976250Y-136300000D02*
X120006250Y-136300000D01*
X114546250Y-131870000D02*
X118976250Y-136300000D01*
G04 #@! TO.N,Net-(D48-A)*
X138026250Y-136300000D02*
X139056250Y-136300000D01*
X133596250Y-131870000D02*
X138026250Y-136300000D01*
G04 #@! TO.N,Net-(D49-A)*
X152646250Y-131870000D02*
X157076250Y-136300000D01*
X157076250Y-136300000D02*
X158106250Y-136300000D01*
G04 #@! TO.N,Net-(D50-A)*
X171696250Y-131870000D02*
X176126250Y-136300000D01*
X176126250Y-136300000D02*
X177156250Y-136300000D01*
G04 #@! TO.N,Net-(D51-A)*
X190746250Y-131870000D02*
X195176250Y-136300000D01*
X195176250Y-136300000D02*
X196206250Y-136300000D01*
G04 #@! TO.N,Net-(D52-A)*
X209796250Y-131870000D02*
X214226250Y-136300000D01*
X214226250Y-136300000D02*
X215256250Y-136300000D01*
G04 #@! TO.N,Net-(D53-A)*
X233276250Y-136300000D02*
X228846250Y-131870000D01*
X234306250Y-136300000D02*
X233276250Y-136300000D01*
G04 #@! TO.N,Net-(D54-A)*
X252326250Y-136300000D02*
X247896250Y-131870000D01*
X253356250Y-136300000D02*
X252326250Y-136300000D01*
G04 #@! TO.N,Net-(D55-A)*
X266946250Y-131870000D02*
X271376250Y-136300000D01*
X271376250Y-136300000D02*
X272406250Y-136300000D01*
G04 #@! TO.N,Net-(D56-A)*
X290426250Y-136300000D02*
X285996250Y-131870000D01*
X291456250Y-136300000D02*
X290426250Y-136300000D01*
G04 #@! TO.N,Net-(D57-A)*
X309808750Y-131870000D02*
X314238750Y-136300000D01*
X314238750Y-136300000D02*
X315268750Y-136300000D01*
G04 #@! TO.N,row4*
X170012500Y-158650000D02*
X139056250Y-158650000D01*
X170012500Y-158650000D02*
X192600000Y-158650000D01*
X315268750Y-163412500D02*
X296218750Y-163412500D01*
X353368750Y-163412500D02*
X334318750Y-163412500D01*
X296218750Y-163412500D02*
X277168750Y-163412500D01*
X334318750Y-163412500D02*
X315268750Y-163412500D01*
X272406250Y-158650000D02*
X253356250Y-158650000D01*
X217637500Y-158650000D02*
X253356250Y-158650000D01*
X70000000Y-158650000D02*
X96193750Y-158650000D01*
X120006250Y-158650000D02*
X139056250Y-158650000D01*
X96193750Y-158650000D02*
X120006250Y-158650000D01*
X203200000Y-158650000D02*
X217637500Y-158650000D01*
X277168750Y-163412500D02*
X272406250Y-158650000D01*
G04 #@! TO.N,Net-(D58-A)*
X68970000Y-155350000D02*
X70000000Y-155350000D01*
X64540000Y-150920000D02*
X68970000Y-155350000D01*
G04 #@! TO.N,Net-(D59-A)*
X90733750Y-150920000D02*
X95163750Y-155350000D01*
X95163750Y-155350000D02*
X96193750Y-155350000D01*
G04 #@! TO.N,Net-(D60-A)*
X114546250Y-150920000D02*
X118976250Y-155350000D01*
X118976250Y-155350000D02*
X120006250Y-155350000D01*
G04 #@! TO.N,Net-(D61-A)*
X133596250Y-150920000D02*
X138026250Y-155350000D01*
X138026250Y-155350000D02*
X139056250Y-155350000D01*
G04 #@! TO.N,Net-(D62-A)*
X164552500Y-150920000D02*
X168982500Y-155350000D01*
X168982500Y-155350000D02*
X170012500Y-155350000D01*
G04 #@! TO.N,Net-(D63-A)*
X212177500Y-150920000D02*
X216607500Y-155350000D01*
X216607500Y-155350000D02*
X217637500Y-155350000D01*
G04 #@! TO.N,Net-(D64-A)*
X252326250Y-155350000D02*
X253356250Y-155350000D01*
X247896250Y-150920000D02*
X252326250Y-155350000D01*
G04 #@! TO.N,Net-(D65-A)*
X266946250Y-150920000D02*
X271376250Y-155350000D01*
X271376250Y-155350000D02*
X272406250Y-155350000D01*
G04 #@! TO.N,Net-(D66-A)*
X295188750Y-160112500D02*
X296218750Y-160112500D01*
X290758750Y-155682500D02*
X295188750Y-160112500D01*
G04 #@! TO.N,Net-(D67-A)*
X314238750Y-160112500D02*
X315268750Y-160112500D01*
X309808750Y-155682500D02*
X314238750Y-160112500D01*
G04 #@! TO.N,Net-(D68-A)*
X328858750Y-155682500D02*
X333288750Y-160112500D01*
X333288750Y-160112500D02*
X334318750Y-160112500D01*
G04 #@! TO.N,Net-(D69-A)*
X352338750Y-160112500D02*
X353368750Y-160112500D01*
X347908750Y-155682500D02*
X352338750Y-160112500D01*
G04 #@! TO.N,row3*
X96193750Y-139600000D02*
X120006250Y-139600000D01*
X199800000Y-139600000D02*
X196206250Y-139600000D01*
X291456250Y-139600000D02*
X272406250Y-139600000D01*
X139056250Y-139600000D02*
X158106250Y-139600000D01*
X215256250Y-139600000D02*
X199800000Y-139600000D01*
X196206250Y-139600000D02*
X177156250Y-139600000D01*
X253356250Y-139600000D02*
X234306250Y-139600000D01*
X272406250Y-139600000D02*
X253356250Y-139600000D01*
X158106250Y-139600000D02*
X177156250Y-139600000D01*
X198200000Y-138000000D02*
X199800000Y-139600000D01*
X234306250Y-139600000D02*
X215256250Y-139600000D01*
X120006250Y-139600000D02*
X139056250Y-139600000D01*
X96193750Y-139600000D02*
X70000000Y-139600000D01*
X315268750Y-139600000D02*
X291456250Y-139600000D01*
G04 #@! TD*
M02*
