G04 #@! TF.GenerationSoftware,KiCad,Pcbnew,8.0.4*
G04 #@! TF.CreationDate,2024-11-10T19:34:56-05:00*
G04 #@! TF.ProjectId,small-fry-pcb,736d616c-6c2d-4667-9279-2d7063622e6b,1.0*
G04 #@! TF.SameCoordinates,Original*
G04 #@! TF.FileFunction,Legend,Bot*
G04 #@! TF.FilePolarity,Positive*
%FSLAX46Y46*%
G04 Gerber Fmt 4.6, Leading zero omitted, Abs format (unit mm)*
G04 Created by KiCad (PCBNEW 8.0.4) date 2024-11-10 19:34:56*
%MOMM*%
%LPD*%
G01*
G04 APERTURE LIST*
G04 Aperture macros list*
%AMRoundRect*
0 Rectangle with rounded corners*
0 $1 Rounding radius*
0 $2 $3 $4 $5 $6 $7 $8 $9 X,Y pos of 4 corners*
0 Add a 4 corners polygon primitive as box body*
4,1,4,$2,$3,$4,$5,$6,$7,$8,$9,$2,$3,0*
0 Add four circle primitives for the rounded corners*
1,1,$1+$1,$2,$3*
1,1,$1+$1,$4,$5*
1,1,$1+$1,$6,$7*
1,1,$1+$1,$8,$9*
0 Add four rect primitives between the rounded corners*
20,1,$1+$1,$2,$3,$4,$5,0*
20,1,$1+$1,$4,$5,$6,$7,0*
20,1,$1+$1,$6,$7,$8,$9,0*
20,1,$1+$1,$8,$9,$2,$3,0*%
%AMHorizOval*
0 Thick line with rounded ends*
0 $1 width*
0 $2 $3 position (X,Y) of the first rounded end (center of the circle)*
0 $4 $5 position (X,Y) of the second rounded end (center of the circle)*
0 Add line between two ends*
20,1,$1,$2,$3,$4,$5,0*
0 Add two circle primitives to create the rounded ends*
1,1,$1,$2,$3*
1,1,$1,$4,$5*%
%AMRotRect*
0 Rectangle, with rotation*
0 The origin of the aperture is its center*
0 $1 length*
0 $2 width*
0 $3 Rotation angle, in degrees counterclockwise*
0 Add horizontal line*
21,1,$1,$2,0,0,$3*%
G04 Aperture macros list end*
%ADD10C,0.150000*%
%ADD11C,0.120000*%
%ADD12C,1.750000*%
%ADD13C,3.987800*%
%ADD14C,2.300000*%
%ADD15C,3.048000*%
%ADD16C,1.701800*%
%ADD17HorizOval,1.800000X0.000000X0.000000X0.000000X0.000000X0*%
%ADD18HorizOval,1.500000X0.000000X0.000000X0.000000X0.000000X0*%
%ADD19HorizOval,1.700000X0.000000X0.000000X0.000000X0.000000X0*%
%ADD20RotRect,1.700000X1.700000X315.000000*%
%ADD21RoundRect,0.225000X0.375000X-0.225000X0.375000X0.225000X-0.375000X0.225000X-0.375000X-0.225000X0*%
G04 APERTURE END LIST*
D10*
X332011069Y-98635714D02*
X331011069Y-98635714D01*
X331011069Y-98635714D02*
X331011069Y-98873809D01*
X331011069Y-98873809D02*
X331058688Y-99016666D01*
X331058688Y-99016666D02*
X331153926Y-99111904D01*
X331153926Y-99111904D02*
X331249164Y-99159523D01*
X331249164Y-99159523D02*
X331439640Y-99207142D01*
X331439640Y-99207142D02*
X331582497Y-99207142D01*
X331582497Y-99207142D02*
X331772973Y-99159523D01*
X331772973Y-99159523D02*
X331868211Y-99111904D01*
X331868211Y-99111904D02*
X331963450Y-99016666D01*
X331963450Y-99016666D02*
X332011069Y-98873809D01*
X332011069Y-98873809D02*
X332011069Y-98635714D01*
X331106307Y-99588095D02*
X331058688Y-99635714D01*
X331058688Y-99635714D02*
X331011069Y-99730952D01*
X331011069Y-99730952D02*
X331011069Y-99969047D01*
X331011069Y-99969047D02*
X331058688Y-100064285D01*
X331058688Y-100064285D02*
X331106307Y-100111904D01*
X331106307Y-100111904D02*
X331201545Y-100159523D01*
X331201545Y-100159523D02*
X331296783Y-100159523D01*
X331296783Y-100159523D02*
X331439640Y-100111904D01*
X331439640Y-100111904D02*
X332011069Y-99540476D01*
X332011069Y-99540476D02*
X332011069Y-100159523D01*
X332011069Y-100635714D02*
X332011069Y-100826190D01*
X332011069Y-100826190D02*
X331963450Y-100921428D01*
X331963450Y-100921428D02*
X331915830Y-100969047D01*
X331915830Y-100969047D02*
X331772973Y-101064285D01*
X331772973Y-101064285D02*
X331582497Y-101111904D01*
X331582497Y-101111904D02*
X331201545Y-101111904D01*
X331201545Y-101111904D02*
X331106307Y-101064285D01*
X331106307Y-101064285D02*
X331058688Y-101016666D01*
X331058688Y-101016666D02*
X331011069Y-100921428D01*
X331011069Y-100921428D02*
X331011069Y-100730952D01*
X331011069Y-100730952D02*
X331058688Y-100635714D01*
X331058688Y-100635714D02*
X331106307Y-100588095D01*
X331106307Y-100588095D02*
X331201545Y-100540476D01*
X331201545Y-100540476D02*
X331439640Y-100540476D01*
X331439640Y-100540476D02*
X331534878Y-100588095D01*
X331534878Y-100588095D02*
X331582497Y-100635714D01*
X331582497Y-100635714D02*
X331630116Y-100730952D01*
X331630116Y-100730952D02*
X331630116Y-100921428D01*
X331630116Y-100921428D02*
X331582497Y-101016666D01*
X331582497Y-101016666D02*
X331534878Y-101064285D01*
X331534878Y-101064285D02*
X331439640Y-101111904D01*
X355823569Y-98635714D02*
X354823569Y-98635714D01*
X354823569Y-98635714D02*
X354823569Y-98873809D01*
X354823569Y-98873809D02*
X354871188Y-99016666D01*
X354871188Y-99016666D02*
X354966426Y-99111904D01*
X354966426Y-99111904D02*
X355061664Y-99159523D01*
X355061664Y-99159523D02*
X355252140Y-99207142D01*
X355252140Y-99207142D02*
X355394997Y-99207142D01*
X355394997Y-99207142D02*
X355585473Y-99159523D01*
X355585473Y-99159523D02*
X355680711Y-99111904D01*
X355680711Y-99111904D02*
X355775950Y-99016666D01*
X355775950Y-99016666D02*
X355823569Y-98873809D01*
X355823569Y-98873809D02*
X355823569Y-98635714D01*
X354823569Y-99540476D02*
X354823569Y-100159523D01*
X354823569Y-100159523D02*
X355204521Y-99826190D01*
X355204521Y-99826190D02*
X355204521Y-99969047D01*
X355204521Y-99969047D02*
X355252140Y-100064285D01*
X355252140Y-100064285D02*
X355299759Y-100111904D01*
X355299759Y-100111904D02*
X355394997Y-100159523D01*
X355394997Y-100159523D02*
X355633092Y-100159523D01*
X355633092Y-100159523D02*
X355728330Y-100111904D01*
X355728330Y-100111904D02*
X355775950Y-100064285D01*
X355775950Y-100064285D02*
X355823569Y-99969047D01*
X355823569Y-99969047D02*
X355823569Y-99683333D01*
X355823569Y-99683333D02*
X355775950Y-99588095D01*
X355775950Y-99588095D02*
X355728330Y-99540476D01*
X354823569Y-100778571D02*
X354823569Y-100873809D01*
X354823569Y-100873809D02*
X354871188Y-100969047D01*
X354871188Y-100969047D02*
X354918807Y-101016666D01*
X354918807Y-101016666D02*
X355014045Y-101064285D01*
X355014045Y-101064285D02*
X355204521Y-101111904D01*
X355204521Y-101111904D02*
X355442616Y-101111904D01*
X355442616Y-101111904D02*
X355633092Y-101064285D01*
X355633092Y-101064285D02*
X355728330Y-101016666D01*
X355728330Y-101016666D02*
X355775950Y-100969047D01*
X355775950Y-100969047D02*
X355823569Y-100873809D01*
X355823569Y-100873809D02*
X355823569Y-100778571D01*
X355823569Y-100778571D02*
X355775950Y-100683333D01*
X355775950Y-100683333D02*
X355728330Y-100635714D01*
X355728330Y-100635714D02*
X355633092Y-100588095D01*
X355633092Y-100588095D02*
X355442616Y-100540476D01*
X355442616Y-100540476D02*
X355204521Y-100540476D01*
X355204521Y-100540476D02*
X355014045Y-100588095D01*
X355014045Y-100588095D02*
X354918807Y-100635714D01*
X354918807Y-100635714D02*
X354871188Y-100683333D01*
X354871188Y-100683333D02*
X354823569Y-100778571D01*
X274861069Y-136735714D02*
X273861069Y-136735714D01*
X273861069Y-136735714D02*
X273861069Y-136973809D01*
X273861069Y-136973809D02*
X273908688Y-137116666D01*
X273908688Y-137116666D02*
X274003926Y-137211904D01*
X274003926Y-137211904D02*
X274099164Y-137259523D01*
X274099164Y-137259523D02*
X274289640Y-137307142D01*
X274289640Y-137307142D02*
X274432497Y-137307142D01*
X274432497Y-137307142D02*
X274622973Y-137259523D01*
X274622973Y-137259523D02*
X274718211Y-137211904D01*
X274718211Y-137211904D02*
X274813450Y-137116666D01*
X274813450Y-137116666D02*
X274861069Y-136973809D01*
X274861069Y-136973809D02*
X274861069Y-136735714D01*
X273861069Y-138211904D02*
X273861069Y-137735714D01*
X273861069Y-137735714D02*
X274337259Y-137688095D01*
X274337259Y-137688095D02*
X274289640Y-137735714D01*
X274289640Y-137735714D02*
X274242021Y-137830952D01*
X274242021Y-137830952D02*
X274242021Y-138069047D01*
X274242021Y-138069047D02*
X274289640Y-138164285D01*
X274289640Y-138164285D02*
X274337259Y-138211904D01*
X274337259Y-138211904D02*
X274432497Y-138259523D01*
X274432497Y-138259523D02*
X274670592Y-138259523D01*
X274670592Y-138259523D02*
X274765830Y-138211904D01*
X274765830Y-138211904D02*
X274813450Y-138164285D01*
X274813450Y-138164285D02*
X274861069Y-138069047D01*
X274861069Y-138069047D02*
X274861069Y-137830952D01*
X274861069Y-137830952D02*
X274813450Y-137735714D01*
X274813450Y-137735714D02*
X274765830Y-137688095D01*
X273861069Y-139164285D02*
X273861069Y-138688095D01*
X273861069Y-138688095D02*
X274337259Y-138640476D01*
X274337259Y-138640476D02*
X274289640Y-138688095D01*
X274289640Y-138688095D02*
X274242021Y-138783333D01*
X274242021Y-138783333D02*
X274242021Y-139021428D01*
X274242021Y-139021428D02*
X274289640Y-139116666D01*
X274289640Y-139116666D02*
X274337259Y-139164285D01*
X274337259Y-139164285D02*
X274432497Y-139211904D01*
X274432497Y-139211904D02*
X274670592Y-139211904D01*
X274670592Y-139211904D02*
X274765830Y-139164285D01*
X274765830Y-139164285D02*
X274813450Y-139116666D01*
X274813450Y-139116666D02*
X274861069Y-139021428D01*
X274861069Y-139021428D02*
X274861069Y-138783333D01*
X274861069Y-138783333D02*
X274813450Y-138688095D01*
X274813450Y-138688095D02*
X274765830Y-138640476D01*
X274861069Y-79585714D02*
X273861069Y-79585714D01*
X273861069Y-79585714D02*
X273861069Y-79823809D01*
X273861069Y-79823809D02*
X273908688Y-79966666D01*
X273908688Y-79966666D02*
X274003926Y-80061904D01*
X274003926Y-80061904D02*
X274099164Y-80109523D01*
X274099164Y-80109523D02*
X274289640Y-80157142D01*
X274289640Y-80157142D02*
X274432497Y-80157142D01*
X274432497Y-80157142D02*
X274622973Y-80109523D01*
X274622973Y-80109523D02*
X274718211Y-80061904D01*
X274718211Y-80061904D02*
X274813450Y-79966666D01*
X274813450Y-79966666D02*
X274861069Y-79823809D01*
X274861069Y-79823809D02*
X274861069Y-79585714D01*
X274861069Y-81109523D02*
X274861069Y-80538095D01*
X274861069Y-80823809D02*
X273861069Y-80823809D01*
X273861069Y-80823809D02*
X274003926Y-80728571D01*
X274003926Y-80728571D02*
X274099164Y-80633333D01*
X274099164Y-80633333D02*
X274146783Y-80538095D01*
X274861069Y-82061904D02*
X274861069Y-81490476D01*
X274861069Y-81776190D02*
X273861069Y-81776190D01*
X273861069Y-81776190D02*
X274003926Y-81680952D01*
X274003926Y-81680952D02*
X274099164Y-81585714D01*
X274099164Y-81585714D02*
X274146783Y-81490476D01*
X160561069Y-98635714D02*
X159561069Y-98635714D01*
X159561069Y-98635714D02*
X159561069Y-98873809D01*
X159561069Y-98873809D02*
X159608688Y-99016666D01*
X159608688Y-99016666D02*
X159703926Y-99111904D01*
X159703926Y-99111904D02*
X159799164Y-99159523D01*
X159799164Y-99159523D02*
X159989640Y-99207142D01*
X159989640Y-99207142D02*
X160132497Y-99207142D01*
X160132497Y-99207142D02*
X160322973Y-99159523D01*
X160322973Y-99159523D02*
X160418211Y-99111904D01*
X160418211Y-99111904D02*
X160513450Y-99016666D01*
X160513450Y-99016666D02*
X160561069Y-98873809D01*
X160561069Y-98873809D02*
X160561069Y-98635714D01*
X159656307Y-99588095D02*
X159608688Y-99635714D01*
X159608688Y-99635714D02*
X159561069Y-99730952D01*
X159561069Y-99730952D02*
X159561069Y-99969047D01*
X159561069Y-99969047D02*
X159608688Y-100064285D01*
X159608688Y-100064285D02*
X159656307Y-100111904D01*
X159656307Y-100111904D02*
X159751545Y-100159523D01*
X159751545Y-100159523D02*
X159846783Y-100159523D01*
X159846783Y-100159523D02*
X159989640Y-100111904D01*
X159989640Y-100111904D02*
X160561069Y-99540476D01*
X160561069Y-99540476D02*
X160561069Y-100159523D01*
X159561069Y-100778571D02*
X159561069Y-100873809D01*
X159561069Y-100873809D02*
X159608688Y-100969047D01*
X159608688Y-100969047D02*
X159656307Y-101016666D01*
X159656307Y-101016666D02*
X159751545Y-101064285D01*
X159751545Y-101064285D02*
X159942021Y-101111904D01*
X159942021Y-101111904D02*
X160180116Y-101111904D01*
X160180116Y-101111904D02*
X160370592Y-101064285D01*
X160370592Y-101064285D02*
X160465830Y-101016666D01*
X160465830Y-101016666D02*
X160513450Y-100969047D01*
X160513450Y-100969047D02*
X160561069Y-100873809D01*
X160561069Y-100873809D02*
X160561069Y-100778571D01*
X160561069Y-100778571D02*
X160513450Y-100683333D01*
X160513450Y-100683333D02*
X160465830Y-100635714D01*
X160465830Y-100635714D02*
X160370592Y-100588095D01*
X160370592Y-100588095D02*
X160180116Y-100540476D01*
X160180116Y-100540476D02*
X159942021Y-100540476D01*
X159942021Y-100540476D02*
X159751545Y-100588095D01*
X159751545Y-100588095D02*
X159656307Y-100635714D01*
X159656307Y-100635714D02*
X159608688Y-100683333D01*
X159608688Y-100683333D02*
X159561069Y-100778571D01*
X255811069Y-98635714D02*
X254811069Y-98635714D01*
X254811069Y-98635714D02*
X254811069Y-98873809D01*
X254811069Y-98873809D02*
X254858688Y-99016666D01*
X254858688Y-99016666D02*
X254953926Y-99111904D01*
X254953926Y-99111904D02*
X255049164Y-99159523D01*
X255049164Y-99159523D02*
X255239640Y-99207142D01*
X255239640Y-99207142D02*
X255382497Y-99207142D01*
X255382497Y-99207142D02*
X255572973Y-99159523D01*
X255572973Y-99159523D02*
X255668211Y-99111904D01*
X255668211Y-99111904D02*
X255763450Y-99016666D01*
X255763450Y-99016666D02*
X255811069Y-98873809D01*
X255811069Y-98873809D02*
X255811069Y-98635714D01*
X254906307Y-99588095D02*
X254858688Y-99635714D01*
X254858688Y-99635714D02*
X254811069Y-99730952D01*
X254811069Y-99730952D02*
X254811069Y-99969047D01*
X254811069Y-99969047D02*
X254858688Y-100064285D01*
X254858688Y-100064285D02*
X254906307Y-100111904D01*
X254906307Y-100111904D02*
X255001545Y-100159523D01*
X255001545Y-100159523D02*
X255096783Y-100159523D01*
X255096783Y-100159523D02*
X255239640Y-100111904D01*
X255239640Y-100111904D02*
X255811069Y-99540476D01*
X255811069Y-99540476D02*
X255811069Y-100159523D01*
X254811069Y-101064285D02*
X254811069Y-100588095D01*
X254811069Y-100588095D02*
X255287259Y-100540476D01*
X255287259Y-100540476D02*
X255239640Y-100588095D01*
X255239640Y-100588095D02*
X255192021Y-100683333D01*
X255192021Y-100683333D02*
X255192021Y-100921428D01*
X255192021Y-100921428D02*
X255239640Y-101016666D01*
X255239640Y-101016666D02*
X255287259Y-101064285D01*
X255287259Y-101064285D02*
X255382497Y-101111904D01*
X255382497Y-101111904D02*
X255620592Y-101111904D01*
X255620592Y-101111904D02*
X255715830Y-101064285D01*
X255715830Y-101064285D02*
X255763450Y-101016666D01*
X255763450Y-101016666D02*
X255811069Y-100921428D01*
X255811069Y-100921428D02*
X255811069Y-100683333D01*
X255811069Y-100683333D02*
X255763450Y-100588095D01*
X255763450Y-100588095D02*
X255715830Y-100540476D01*
X220092319Y-155785714D02*
X219092319Y-155785714D01*
X219092319Y-155785714D02*
X219092319Y-156023809D01*
X219092319Y-156023809D02*
X219139938Y-156166666D01*
X219139938Y-156166666D02*
X219235176Y-156261904D01*
X219235176Y-156261904D02*
X219330414Y-156309523D01*
X219330414Y-156309523D02*
X219520890Y-156357142D01*
X219520890Y-156357142D02*
X219663747Y-156357142D01*
X219663747Y-156357142D02*
X219854223Y-156309523D01*
X219854223Y-156309523D02*
X219949461Y-156261904D01*
X219949461Y-156261904D02*
X220044700Y-156166666D01*
X220044700Y-156166666D02*
X220092319Y-156023809D01*
X220092319Y-156023809D02*
X220092319Y-155785714D01*
X219092319Y-157214285D02*
X219092319Y-157023809D01*
X219092319Y-157023809D02*
X219139938Y-156928571D01*
X219139938Y-156928571D02*
X219187557Y-156880952D01*
X219187557Y-156880952D02*
X219330414Y-156785714D01*
X219330414Y-156785714D02*
X219520890Y-156738095D01*
X219520890Y-156738095D02*
X219901842Y-156738095D01*
X219901842Y-156738095D02*
X219997080Y-156785714D01*
X219997080Y-156785714D02*
X220044700Y-156833333D01*
X220044700Y-156833333D02*
X220092319Y-156928571D01*
X220092319Y-156928571D02*
X220092319Y-157119047D01*
X220092319Y-157119047D02*
X220044700Y-157214285D01*
X220044700Y-157214285D02*
X219997080Y-157261904D01*
X219997080Y-157261904D02*
X219901842Y-157309523D01*
X219901842Y-157309523D02*
X219663747Y-157309523D01*
X219663747Y-157309523D02*
X219568509Y-157261904D01*
X219568509Y-157261904D02*
X219520890Y-157214285D01*
X219520890Y-157214285D02*
X219473271Y-157119047D01*
X219473271Y-157119047D02*
X219473271Y-156928571D01*
X219473271Y-156928571D02*
X219520890Y-156833333D01*
X219520890Y-156833333D02*
X219568509Y-156785714D01*
X219568509Y-156785714D02*
X219663747Y-156738095D01*
X219092319Y-157642857D02*
X219092319Y-158261904D01*
X219092319Y-158261904D02*
X219473271Y-157928571D01*
X219473271Y-157928571D02*
X219473271Y-158071428D01*
X219473271Y-158071428D02*
X219520890Y-158166666D01*
X219520890Y-158166666D02*
X219568509Y-158214285D01*
X219568509Y-158214285D02*
X219663747Y-158261904D01*
X219663747Y-158261904D02*
X219901842Y-158261904D01*
X219901842Y-158261904D02*
X219997080Y-158214285D01*
X219997080Y-158214285D02*
X220044700Y-158166666D01*
X220044700Y-158166666D02*
X220092319Y-158071428D01*
X220092319Y-158071428D02*
X220092319Y-157785714D01*
X220092319Y-157785714D02*
X220044700Y-157690476D01*
X220044700Y-157690476D02*
X219997080Y-157642857D01*
X122461069Y-98635714D02*
X121461069Y-98635714D01*
X121461069Y-98635714D02*
X121461069Y-98873809D01*
X121461069Y-98873809D02*
X121508688Y-99016666D01*
X121508688Y-99016666D02*
X121603926Y-99111904D01*
X121603926Y-99111904D02*
X121699164Y-99159523D01*
X121699164Y-99159523D02*
X121889640Y-99207142D01*
X121889640Y-99207142D02*
X122032497Y-99207142D01*
X122032497Y-99207142D02*
X122222973Y-99159523D01*
X122222973Y-99159523D02*
X122318211Y-99111904D01*
X122318211Y-99111904D02*
X122413450Y-99016666D01*
X122413450Y-99016666D02*
X122461069Y-98873809D01*
X122461069Y-98873809D02*
X122461069Y-98635714D01*
X122461069Y-100159523D02*
X122461069Y-99588095D01*
X122461069Y-99873809D02*
X121461069Y-99873809D01*
X121461069Y-99873809D02*
X121603926Y-99778571D01*
X121603926Y-99778571D02*
X121699164Y-99683333D01*
X121699164Y-99683333D02*
X121746783Y-99588095D01*
X121889640Y-100730952D02*
X121842021Y-100635714D01*
X121842021Y-100635714D02*
X121794402Y-100588095D01*
X121794402Y-100588095D02*
X121699164Y-100540476D01*
X121699164Y-100540476D02*
X121651545Y-100540476D01*
X121651545Y-100540476D02*
X121556307Y-100588095D01*
X121556307Y-100588095D02*
X121508688Y-100635714D01*
X121508688Y-100635714D02*
X121461069Y-100730952D01*
X121461069Y-100730952D02*
X121461069Y-100921428D01*
X121461069Y-100921428D02*
X121508688Y-101016666D01*
X121508688Y-101016666D02*
X121556307Y-101064285D01*
X121556307Y-101064285D02*
X121651545Y-101111904D01*
X121651545Y-101111904D02*
X121699164Y-101111904D01*
X121699164Y-101111904D02*
X121794402Y-101064285D01*
X121794402Y-101064285D02*
X121842021Y-101016666D01*
X121842021Y-101016666D02*
X121889640Y-100921428D01*
X121889640Y-100921428D02*
X121889640Y-100730952D01*
X121889640Y-100730952D02*
X121937259Y-100635714D01*
X121937259Y-100635714D02*
X121984878Y-100588095D01*
X121984878Y-100588095D02*
X122080116Y-100540476D01*
X122080116Y-100540476D02*
X122270592Y-100540476D01*
X122270592Y-100540476D02*
X122365830Y-100588095D01*
X122365830Y-100588095D02*
X122413450Y-100635714D01*
X122413450Y-100635714D02*
X122461069Y-100730952D01*
X122461069Y-100730952D02*
X122461069Y-100921428D01*
X122461069Y-100921428D02*
X122413450Y-101016666D01*
X122413450Y-101016666D02*
X122365830Y-101064285D01*
X122365830Y-101064285D02*
X122270592Y-101111904D01*
X122270592Y-101111904D02*
X122080116Y-101111904D01*
X122080116Y-101111904D02*
X121984878Y-101064285D01*
X121984878Y-101064285D02*
X121937259Y-101016666D01*
X121937259Y-101016666D02*
X121889640Y-100921428D01*
X122461069Y-155785714D02*
X121461069Y-155785714D01*
X121461069Y-155785714D02*
X121461069Y-156023809D01*
X121461069Y-156023809D02*
X121508688Y-156166666D01*
X121508688Y-156166666D02*
X121603926Y-156261904D01*
X121603926Y-156261904D02*
X121699164Y-156309523D01*
X121699164Y-156309523D02*
X121889640Y-156357142D01*
X121889640Y-156357142D02*
X122032497Y-156357142D01*
X122032497Y-156357142D02*
X122222973Y-156309523D01*
X122222973Y-156309523D02*
X122318211Y-156261904D01*
X122318211Y-156261904D02*
X122413450Y-156166666D01*
X122413450Y-156166666D02*
X122461069Y-156023809D01*
X122461069Y-156023809D02*
X122461069Y-155785714D01*
X121461069Y-157214285D02*
X121461069Y-157023809D01*
X121461069Y-157023809D02*
X121508688Y-156928571D01*
X121508688Y-156928571D02*
X121556307Y-156880952D01*
X121556307Y-156880952D02*
X121699164Y-156785714D01*
X121699164Y-156785714D02*
X121889640Y-156738095D01*
X121889640Y-156738095D02*
X122270592Y-156738095D01*
X122270592Y-156738095D02*
X122365830Y-156785714D01*
X122365830Y-156785714D02*
X122413450Y-156833333D01*
X122413450Y-156833333D02*
X122461069Y-156928571D01*
X122461069Y-156928571D02*
X122461069Y-157119047D01*
X122461069Y-157119047D02*
X122413450Y-157214285D01*
X122413450Y-157214285D02*
X122365830Y-157261904D01*
X122365830Y-157261904D02*
X122270592Y-157309523D01*
X122270592Y-157309523D02*
X122032497Y-157309523D01*
X122032497Y-157309523D02*
X121937259Y-157261904D01*
X121937259Y-157261904D02*
X121889640Y-157214285D01*
X121889640Y-157214285D02*
X121842021Y-157119047D01*
X121842021Y-157119047D02*
X121842021Y-156928571D01*
X121842021Y-156928571D02*
X121889640Y-156833333D01*
X121889640Y-156833333D02*
X121937259Y-156785714D01*
X121937259Y-156785714D02*
X122032497Y-156738095D01*
X121461069Y-157928571D02*
X121461069Y-158023809D01*
X121461069Y-158023809D02*
X121508688Y-158119047D01*
X121508688Y-158119047D02*
X121556307Y-158166666D01*
X121556307Y-158166666D02*
X121651545Y-158214285D01*
X121651545Y-158214285D02*
X121842021Y-158261904D01*
X121842021Y-158261904D02*
X122080116Y-158261904D01*
X122080116Y-158261904D02*
X122270592Y-158214285D01*
X122270592Y-158214285D02*
X122365830Y-158166666D01*
X122365830Y-158166666D02*
X122413450Y-158119047D01*
X122413450Y-158119047D02*
X122461069Y-158023809D01*
X122461069Y-158023809D02*
X122461069Y-157928571D01*
X122461069Y-157928571D02*
X122413450Y-157833333D01*
X122413450Y-157833333D02*
X122365830Y-157785714D01*
X122365830Y-157785714D02*
X122270592Y-157738095D01*
X122270592Y-157738095D02*
X122080116Y-157690476D01*
X122080116Y-157690476D02*
X121842021Y-157690476D01*
X121842021Y-157690476D02*
X121651545Y-157738095D01*
X121651545Y-157738095D02*
X121556307Y-157785714D01*
X121556307Y-157785714D02*
X121508688Y-157833333D01*
X121508688Y-157833333D02*
X121461069Y-157928571D01*
X274861069Y-98635714D02*
X273861069Y-98635714D01*
X273861069Y-98635714D02*
X273861069Y-98873809D01*
X273861069Y-98873809D02*
X273908688Y-99016666D01*
X273908688Y-99016666D02*
X274003926Y-99111904D01*
X274003926Y-99111904D02*
X274099164Y-99159523D01*
X274099164Y-99159523D02*
X274289640Y-99207142D01*
X274289640Y-99207142D02*
X274432497Y-99207142D01*
X274432497Y-99207142D02*
X274622973Y-99159523D01*
X274622973Y-99159523D02*
X274718211Y-99111904D01*
X274718211Y-99111904D02*
X274813450Y-99016666D01*
X274813450Y-99016666D02*
X274861069Y-98873809D01*
X274861069Y-98873809D02*
X274861069Y-98635714D01*
X273956307Y-99588095D02*
X273908688Y-99635714D01*
X273908688Y-99635714D02*
X273861069Y-99730952D01*
X273861069Y-99730952D02*
X273861069Y-99969047D01*
X273861069Y-99969047D02*
X273908688Y-100064285D01*
X273908688Y-100064285D02*
X273956307Y-100111904D01*
X273956307Y-100111904D02*
X274051545Y-100159523D01*
X274051545Y-100159523D02*
X274146783Y-100159523D01*
X274146783Y-100159523D02*
X274289640Y-100111904D01*
X274289640Y-100111904D02*
X274861069Y-99540476D01*
X274861069Y-99540476D02*
X274861069Y-100159523D01*
X273861069Y-101016666D02*
X273861069Y-100826190D01*
X273861069Y-100826190D02*
X273908688Y-100730952D01*
X273908688Y-100730952D02*
X273956307Y-100683333D01*
X273956307Y-100683333D02*
X274099164Y-100588095D01*
X274099164Y-100588095D02*
X274289640Y-100540476D01*
X274289640Y-100540476D02*
X274670592Y-100540476D01*
X274670592Y-100540476D02*
X274765830Y-100588095D01*
X274765830Y-100588095D02*
X274813450Y-100635714D01*
X274813450Y-100635714D02*
X274861069Y-100730952D01*
X274861069Y-100730952D02*
X274861069Y-100921428D01*
X274861069Y-100921428D02*
X274813450Y-101016666D01*
X274813450Y-101016666D02*
X274765830Y-101064285D01*
X274765830Y-101064285D02*
X274670592Y-101111904D01*
X274670592Y-101111904D02*
X274432497Y-101111904D01*
X274432497Y-101111904D02*
X274337259Y-101064285D01*
X274337259Y-101064285D02*
X274289640Y-101016666D01*
X274289640Y-101016666D02*
X274242021Y-100921428D01*
X274242021Y-100921428D02*
X274242021Y-100730952D01*
X274242021Y-100730952D02*
X274289640Y-100635714D01*
X274289640Y-100635714D02*
X274337259Y-100588095D01*
X274337259Y-100588095D02*
X274432497Y-100540476D01*
X179611069Y-80061905D02*
X178611069Y-80061905D01*
X178611069Y-80061905D02*
X178611069Y-80300000D01*
X178611069Y-80300000D02*
X178658688Y-80442857D01*
X178658688Y-80442857D02*
X178753926Y-80538095D01*
X178753926Y-80538095D02*
X178849164Y-80585714D01*
X178849164Y-80585714D02*
X179039640Y-80633333D01*
X179039640Y-80633333D02*
X179182497Y-80633333D01*
X179182497Y-80633333D02*
X179372973Y-80585714D01*
X179372973Y-80585714D02*
X179468211Y-80538095D01*
X179468211Y-80538095D02*
X179563450Y-80442857D01*
X179563450Y-80442857D02*
X179611069Y-80300000D01*
X179611069Y-80300000D02*
X179611069Y-80061905D01*
X178611069Y-81490476D02*
X178611069Y-81300000D01*
X178611069Y-81300000D02*
X178658688Y-81204762D01*
X178658688Y-81204762D02*
X178706307Y-81157143D01*
X178706307Y-81157143D02*
X178849164Y-81061905D01*
X178849164Y-81061905D02*
X179039640Y-81014286D01*
X179039640Y-81014286D02*
X179420592Y-81014286D01*
X179420592Y-81014286D02*
X179515830Y-81061905D01*
X179515830Y-81061905D02*
X179563450Y-81109524D01*
X179563450Y-81109524D02*
X179611069Y-81204762D01*
X179611069Y-81204762D02*
X179611069Y-81395238D01*
X179611069Y-81395238D02*
X179563450Y-81490476D01*
X179563450Y-81490476D02*
X179515830Y-81538095D01*
X179515830Y-81538095D02*
X179420592Y-81585714D01*
X179420592Y-81585714D02*
X179182497Y-81585714D01*
X179182497Y-81585714D02*
X179087259Y-81538095D01*
X179087259Y-81538095D02*
X179039640Y-81490476D01*
X179039640Y-81490476D02*
X178992021Y-81395238D01*
X178992021Y-81395238D02*
X178992021Y-81204762D01*
X178992021Y-81204762D02*
X179039640Y-81109524D01*
X179039640Y-81109524D02*
X179087259Y-81061905D01*
X179087259Y-81061905D02*
X179182497Y-81014286D01*
X141511069Y-117685714D02*
X140511069Y-117685714D01*
X140511069Y-117685714D02*
X140511069Y-117923809D01*
X140511069Y-117923809D02*
X140558688Y-118066666D01*
X140558688Y-118066666D02*
X140653926Y-118161904D01*
X140653926Y-118161904D02*
X140749164Y-118209523D01*
X140749164Y-118209523D02*
X140939640Y-118257142D01*
X140939640Y-118257142D02*
X141082497Y-118257142D01*
X141082497Y-118257142D02*
X141272973Y-118209523D01*
X141272973Y-118209523D02*
X141368211Y-118161904D01*
X141368211Y-118161904D02*
X141463450Y-118066666D01*
X141463450Y-118066666D02*
X141511069Y-117923809D01*
X141511069Y-117923809D02*
X141511069Y-117685714D01*
X140511069Y-118590476D02*
X140511069Y-119209523D01*
X140511069Y-119209523D02*
X140892021Y-118876190D01*
X140892021Y-118876190D02*
X140892021Y-119019047D01*
X140892021Y-119019047D02*
X140939640Y-119114285D01*
X140939640Y-119114285D02*
X140987259Y-119161904D01*
X140987259Y-119161904D02*
X141082497Y-119209523D01*
X141082497Y-119209523D02*
X141320592Y-119209523D01*
X141320592Y-119209523D02*
X141415830Y-119161904D01*
X141415830Y-119161904D02*
X141463450Y-119114285D01*
X141463450Y-119114285D02*
X141511069Y-119019047D01*
X141511069Y-119019047D02*
X141511069Y-118733333D01*
X141511069Y-118733333D02*
X141463450Y-118638095D01*
X141463450Y-118638095D02*
X141415830Y-118590476D01*
X140844402Y-120066666D02*
X141511069Y-120066666D01*
X140463450Y-119828571D02*
X141177735Y-119590476D01*
X141177735Y-119590476D02*
X141177735Y-120209523D01*
X98648569Y-117685714D02*
X97648569Y-117685714D01*
X97648569Y-117685714D02*
X97648569Y-117923809D01*
X97648569Y-117923809D02*
X97696188Y-118066666D01*
X97696188Y-118066666D02*
X97791426Y-118161904D01*
X97791426Y-118161904D02*
X97886664Y-118209523D01*
X97886664Y-118209523D02*
X98077140Y-118257142D01*
X98077140Y-118257142D02*
X98219997Y-118257142D01*
X98219997Y-118257142D02*
X98410473Y-118209523D01*
X98410473Y-118209523D02*
X98505711Y-118161904D01*
X98505711Y-118161904D02*
X98600950Y-118066666D01*
X98600950Y-118066666D02*
X98648569Y-117923809D01*
X98648569Y-117923809D02*
X98648569Y-117685714D01*
X97648569Y-118590476D02*
X97648569Y-119209523D01*
X97648569Y-119209523D02*
X98029521Y-118876190D01*
X98029521Y-118876190D02*
X98029521Y-119019047D01*
X98029521Y-119019047D02*
X98077140Y-119114285D01*
X98077140Y-119114285D02*
X98124759Y-119161904D01*
X98124759Y-119161904D02*
X98219997Y-119209523D01*
X98219997Y-119209523D02*
X98458092Y-119209523D01*
X98458092Y-119209523D02*
X98553330Y-119161904D01*
X98553330Y-119161904D02*
X98600950Y-119114285D01*
X98600950Y-119114285D02*
X98648569Y-119019047D01*
X98648569Y-119019047D02*
X98648569Y-118733333D01*
X98648569Y-118733333D02*
X98600950Y-118638095D01*
X98600950Y-118638095D02*
X98553330Y-118590476D01*
X97743807Y-119590476D02*
X97696188Y-119638095D01*
X97696188Y-119638095D02*
X97648569Y-119733333D01*
X97648569Y-119733333D02*
X97648569Y-119971428D01*
X97648569Y-119971428D02*
X97696188Y-120066666D01*
X97696188Y-120066666D02*
X97743807Y-120114285D01*
X97743807Y-120114285D02*
X97839045Y-120161904D01*
X97839045Y-120161904D02*
X97934283Y-120161904D01*
X97934283Y-120161904D02*
X98077140Y-120114285D01*
X98077140Y-120114285D02*
X98648569Y-119542857D01*
X98648569Y-119542857D02*
X98648569Y-120161904D01*
X317723569Y-136735714D02*
X316723569Y-136735714D01*
X316723569Y-136735714D02*
X316723569Y-136973809D01*
X316723569Y-136973809D02*
X316771188Y-137116666D01*
X316771188Y-137116666D02*
X316866426Y-137211904D01*
X316866426Y-137211904D02*
X316961664Y-137259523D01*
X316961664Y-137259523D02*
X317152140Y-137307142D01*
X317152140Y-137307142D02*
X317294997Y-137307142D01*
X317294997Y-137307142D02*
X317485473Y-137259523D01*
X317485473Y-137259523D02*
X317580711Y-137211904D01*
X317580711Y-137211904D02*
X317675950Y-137116666D01*
X317675950Y-137116666D02*
X317723569Y-136973809D01*
X317723569Y-136973809D02*
X317723569Y-136735714D01*
X316723569Y-138211904D02*
X316723569Y-137735714D01*
X316723569Y-137735714D02*
X317199759Y-137688095D01*
X317199759Y-137688095D02*
X317152140Y-137735714D01*
X317152140Y-137735714D02*
X317104521Y-137830952D01*
X317104521Y-137830952D02*
X317104521Y-138069047D01*
X317104521Y-138069047D02*
X317152140Y-138164285D01*
X317152140Y-138164285D02*
X317199759Y-138211904D01*
X317199759Y-138211904D02*
X317294997Y-138259523D01*
X317294997Y-138259523D02*
X317533092Y-138259523D01*
X317533092Y-138259523D02*
X317628330Y-138211904D01*
X317628330Y-138211904D02*
X317675950Y-138164285D01*
X317675950Y-138164285D02*
X317723569Y-138069047D01*
X317723569Y-138069047D02*
X317723569Y-137830952D01*
X317723569Y-137830952D02*
X317675950Y-137735714D01*
X317675950Y-137735714D02*
X317628330Y-137688095D01*
X316723569Y-138592857D02*
X316723569Y-139259523D01*
X316723569Y-139259523D02*
X317723569Y-138830952D01*
X274861069Y-117685714D02*
X273861069Y-117685714D01*
X273861069Y-117685714D02*
X273861069Y-117923809D01*
X273861069Y-117923809D02*
X273908688Y-118066666D01*
X273908688Y-118066666D02*
X274003926Y-118161904D01*
X274003926Y-118161904D02*
X274099164Y-118209523D01*
X274099164Y-118209523D02*
X274289640Y-118257142D01*
X274289640Y-118257142D02*
X274432497Y-118257142D01*
X274432497Y-118257142D02*
X274622973Y-118209523D01*
X274622973Y-118209523D02*
X274718211Y-118161904D01*
X274718211Y-118161904D02*
X274813450Y-118066666D01*
X274813450Y-118066666D02*
X274861069Y-117923809D01*
X274861069Y-117923809D02*
X274861069Y-117685714D01*
X274194402Y-119114285D02*
X274861069Y-119114285D01*
X273813450Y-118876190D02*
X274527735Y-118638095D01*
X274527735Y-118638095D02*
X274527735Y-119257142D01*
X274861069Y-120161904D02*
X274861069Y-119590476D01*
X274861069Y-119876190D02*
X273861069Y-119876190D01*
X273861069Y-119876190D02*
X274003926Y-119780952D01*
X274003926Y-119780952D02*
X274099164Y-119685714D01*
X274099164Y-119685714D02*
X274146783Y-119590476D01*
X160561069Y-117685714D02*
X159561069Y-117685714D01*
X159561069Y-117685714D02*
X159561069Y-117923809D01*
X159561069Y-117923809D02*
X159608688Y-118066666D01*
X159608688Y-118066666D02*
X159703926Y-118161904D01*
X159703926Y-118161904D02*
X159799164Y-118209523D01*
X159799164Y-118209523D02*
X159989640Y-118257142D01*
X159989640Y-118257142D02*
X160132497Y-118257142D01*
X160132497Y-118257142D02*
X160322973Y-118209523D01*
X160322973Y-118209523D02*
X160418211Y-118161904D01*
X160418211Y-118161904D02*
X160513450Y-118066666D01*
X160513450Y-118066666D02*
X160561069Y-117923809D01*
X160561069Y-117923809D02*
X160561069Y-117685714D01*
X159561069Y-118590476D02*
X159561069Y-119209523D01*
X159561069Y-119209523D02*
X159942021Y-118876190D01*
X159942021Y-118876190D02*
X159942021Y-119019047D01*
X159942021Y-119019047D02*
X159989640Y-119114285D01*
X159989640Y-119114285D02*
X160037259Y-119161904D01*
X160037259Y-119161904D02*
X160132497Y-119209523D01*
X160132497Y-119209523D02*
X160370592Y-119209523D01*
X160370592Y-119209523D02*
X160465830Y-119161904D01*
X160465830Y-119161904D02*
X160513450Y-119114285D01*
X160513450Y-119114285D02*
X160561069Y-119019047D01*
X160561069Y-119019047D02*
X160561069Y-118733333D01*
X160561069Y-118733333D02*
X160513450Y-118638095D01*
X160513450Y-118638095D02*
X160465830Y-118590476D01*
X159561069Y-120114285D02*
X159561069Y-119638095D01*
X159561069Y-119638095D02*
X160037259Y-119590476D01*
X160037259Y-119590476D02*
X159989640Y-119638095D01*
X159989640Y-119638095D02*
X159942021Y-119733333D01*
X159942021Y-119733333D02*
X159942021Y-119971428D01*
X159942021Y-119971428D02*
X159989640Y-120066666D01*
X159989640Y-120066666D02*
X160037259Y-120114285D01*
X160037259Y-120114285D02*
X160132497Y-120161904D01*
X160132497Y-120161904D02*
X160370592Y-120161904D01*
X160370592Y-120161904D02*
X160465830Y-120114285D01*
X160465830Y-120114285D02*
X160513450Y-120066666D01*
X160513450Y-120066666D02*
X160561069Y-119971428D01*
X160561069Y-119971428D02*
X160561069Y-119733333D01*
X160561069Y-119733333D02*
X160513450Y-119638095D01*
X160513450Y-119638095D02*
X160465830Y-119590476D01*
X293911069Y-136735714D02*
X292911069Y-136735714D01*
X292911069Y-136735714D02*
X292911069Y-136973809D01*
X292911069Y-136973809D02*
X292958688Y-137116666D01*
X292958688Y-137116666D02*
X293053926Y-137211904D01*
X293053926Y-137211904D02*
X293149164Y-137259523D01*
X293149164Y-137259523D02*
X293339640Y-137307142D01*
X293339640Y-137307142D02*
X293482497Y-137307142D01*
X293482497Y-137307142D02*
X293672973Y-137259523D01*
X293672973Y-137259523D02*
X293768211Y-137211904D01*
X293768211Y-137211904D02*
X293863450Y-137116666D01*
X293863450Y-137116666D02*
X293911069Y-136973809D01*
X293911069Y-136973809D02*
X293911069Y-136735714D01*
X292911069Y-138211904D02*
X292911069Y-137735714D01*
X292911069Y-137735714D02*
X293387259Y-137688095D01*
X293387259Y-137688095D02*
X293339640Y-137735714D01*
X293339640Y-137735714D02*
X293292021Y-137830952D01*
X293292021Y-137830952D02*
X293292021Y-138069047D01*
X293292021Y-138069047D02*
X293339640Y-138164285D01*
X293339640Y-138164285D02*
X293387259Y-138211904D01*
X293387259Y-138211904D02*
X293482497Y-138259523D01*
X293482497Y-138259523D02*
X293720592Y-138259523D01*
X293720592Y-138259523D02*
X293815830Y-138211904D01*
X293815830Y-138211904D02*
X293863450Y-138164285D01*
X293863450Y-138164285D02*
X293911069Y-138069047D01*
X293911069Y-138069047D02*
X293911069Y-137830952D01*
X293911069Y-137830952D02*
X293863450Y-137735714D01*
X293863450Y-137735714D02*
X293815830Y-137688095D01*
X292911069Y-139116666D02*
X292911069Y-138926190D01*
X292911069Y-138926190D02*
X292958688Y-138830952D01*
X292958688Y-138830952D02*
X293006307Y-138783333D01*
X293006307Y-138783333D02*
X293149164Y-138688095D01*
X293149164Y-138688095D02*
X293339640Y-138640476D01*
X293339640Y-138640476D02*
X293720592Y-138640476D01*
X293720592Y-138640476D02*
X293815830Y-138688095D01*
X293815830Y-138688095D02*
X293863450Y-138735714D01*
X293863450Y-138735714D02*
X293911069Y-138830952D01*
X293911069Y-138830952D02*
X293911069Y-139021428D01*
X293911069Y-139021428D02*
X293863450Y-139116666D01*
X293863450Y-139116666D02*
X293815830Y-139164285D01*
X293815830Y-139164285D02*
X293720592Y-139211904D01*
X293720592Y-139211904D02*
X293482497Y-139211904D01*
X293482497Y-139211904D02*
X293387259Y-139164285D01*
X293387259Y-139164285D02*
X293339640Y-139116666D01*
X293339640Y-139116666D02*
X293292021Y-139021428D01*
X293292021Y-139021428D02*
X293292021Y-138830952D01*
X293292021Y-138830952D02*
X293339640Y-138735714D01*
X293339640Y-138735714D02*
X293387259Y-138688095D01*
X293387259Y-138688095D02*
X293482497Y-138640476D01*
X122461069Y-136735714D02*
X121461069Y-136735714D01*
X121461069Y-136735714D02*
X121461069Y-136973809D01*
X121461069Y-136973809D02*
X121508688Y-137116666D01*
X121508688Y-137116666D02*
X121603926Y-137211904D01*
X121603926Y-137211904D02*
X121699164Y-137259523D01*
X121699164Y-137259523D02*
X121889640Y-137307142D01*
X121889640Y-137307142D02*
X122032497Y-137307142D01*
X122032497Y-137307142D02*
X122222973Y-137259523D01*
X122222973Y-137259523D02*
X122318211Y-137211904D01*
X122318211Y-137211904D02*
X122413450Y-137116666D01*
X122413450Y-137116666D02*
X122461069Y-136973809D01*
X122461069Y-136973809D02*
X122461069Y-136735714D01*
X121794402Y-138164285D02*
X122461069Y-138164285D01*
X121413450Y-137926190D02*
X122127735Y-137688095D01*
X122127735Y-137688095D02*
X122127735Y-138307142D01*
X121461069Y-138592857D02*
X121461069Y-139259523D01*
X121461069Y-139259523D02*
X122461069Y-138830952D01*
X141511069Y-80061905D02*
X140511069Y-80061905D01*
X140511069Y-80061905D02*
X140511069Y-80300000D01*
X140511069Y-80300000D02*
X140558688Y-80442857D01*
X140558688Y-80442857D02*
X140653926Y-80538095D01*
X140653926Y-80538095D02*
X140749164Y-80585714D01*
X140749164Y-80585714D02*
X140939640Y-80633333D01*
X140939640Y-80633333D02*
X141082497Y-80633333D01*
X141082497Y-80633333D02*
X141272973Y-80585714D01*
X141272973Y-80585714D02*
X141368211Y-80538095D01*
X141368211Y-80538095D02*
X141463450Y-80442857D01*
X141463450Y-80442857D02*
X141511069Y-80300000D01*
X141511069Y-80300000D02*
X141511069Y-80061905D01*
X140844402Y-81490476D02*
X141511069Y-81490476D01*
X140463450Y-81252381D02*
X141177735Y-81014286D01*
X141177735Y-81014286D02*
X141177735Y-81633333D01*
X236761069Y-98635714D02*
X235761069Y-98635714D01*
X235761069Y-98635714D02*
X235761069Y-98873809D01*
X235761069Y-98873809D02*
X235808688Y-99016666D01*
X235808688Y-99016666D02*
X235903926Y-99111904D01*
X235903926Y-99111904D02*
X235999164Y-99159523D01*
X235999164Y-99159523D02*
X236189640Y-99207142D01*
X236189640Y-99207142D02*
X236332497Y-99207142D01*
X236332497Y-99207142D02*
X236522973Y-99159523D01*
X236522973Y-99159523D02*
X236618211Y-99111904D01*
X236618211Y-99111904D02*
X236713450Y-99016666D01*
X236713450Y-99016666D02*
X236761069Y-98873809D01*
X236761069Y-98873809D02*
X236761069Y-98635714D01*
X235856307Y-99588095D02*
X235808688Y-99635714D01*
X235808688Y-99635714D02*
X235761069Y-99730952D01*
X235761069Y-99730952D02*
X235761069Y-99969047D01*
X235761069Y-99969047D02*
X235808688Y-100064285D01*
X235808688Y-100064285D02*
X235856307Y-100111904D01*
X235856307Y-100111904D02*
X235951545Y-100159523D01*
X235951545Y-100159523D02*
X236046783Y-100159523D01*
X236046783Y-100159523D02*
X236189640Y-100111904D01*
X236189640Y-100111904D02*
X236761069Y-99540476D01*
X236761069Y-99540476D02*
X236761069Y-100159523D01*
X236094402Y-101016666D02*
X236761069Y-101016666D01*
X235713450Y-100778571D02*
X236427735Y-100540476D01*
X236427735Y-100540476D02*
X236427735Y-101159523D01*
X255811069Y-117685714D02*
X254811069Y-117685714D01*
X254811069Y-117685714D02*
X254811069Y-117923809D01*
X254811069Y-117923809D02*
X254858688Y-118066666D01*
X254858688Y-118066666D02*
X254953926Y-118161904D01*
X254953926Y-118161904D02*
X255049164Y-118209523D01*
X255049164Y-118209523D02*
X255239640Y-118257142D01*
X255239640Y-118257142D02*
X255382497Y-118257142D01*
X255382497Y-118257142D02*
X255572973Y-118209523D01*
X255572973Y-118209523D02*
X255668211Y-118161904D01*
X255668211Y-118161904D02*
X255763450Y-118066666D01*
X255763450Y-118066666D02*
X255811069Y-117923809D01*
X255811069Y-117923809D02*
X255811069Y-117685714D01*
X255144402Y-119114285D02*
X255811069Y-119114285D01*
X254763450Y-118876190D02*
X255477735Y-118638095D01*
X255477735Y-118638095D02*
X255477735Y-119257142D01*
X254811069Y-119828571D02*
X254811069Y-119923809D01*
X254811069Y-119923809D02*
X254858688Y-120019047D01*
X254858688Y-120019047D02*
X254906307Y-120066666D01*
X254906307Y-120066666D02*
X255001545Y-120114285D01*
X255001545Y-120114285D02*
X255192021Y-120161904D01*
X255192021Y-120161904D02*
X255430116Y-120161904D01*
X255430116Y-120161904D02*
X255620592Y-120114285D01*
X255620592Y-120114285D02*
X255715830Y-120066666D01*
X255715830Y-120066666D02*
X255763450Y-120019047D01*
X255763450Y-120019047D02*
X255811069Y-119923809D01*
X255811069Y-119923809D02*
X255811069Y-119828571D01*
X255811069Y-119828571D02*
X255763450Y-119733333D01*
X255763450Y-119733333D02*
X255715830Y-119685714D01*
X255715830Y-119685714D02*
X255620592Y-119638095D01*
X255620592Y-119638095D02*
X255430116Y-119590476D01*
X255430116Y-119590476D02*
X255192021Y-119590476D01*
X255192021Y-119590476D02*
X255001545Y-119638095D01*
X255001545Y-119638095D02*
X254906307Y-119685714D01*
X254906307Y-119685714D02*
X254858688Y-119733333D01*
X254858688Y-119733333D02*
X254811069Y-119828571D01*
X336773569Y-117685714D02*
X335773569Y-117685714D01*
X335773569Y-117685714D02*
X335773569Y-117923809D01*
X335773569Y-117923809D02*
X335821188Y-118066666D01*
X335821188Y-118066666D02*
X335916426Y-118161904D01*
X335916426Y-118161904D02*
X336011664Y-118209523D01*
X336011664Y-118209523D02*
X336202140Y-118257142D01*
X336202140Y-118257142D02*
X336344997Y-118257142D01*
X336344997Y-118257142D02*
X336535473Y-118209523D01*
X336535473Y-118209523D02*
X336630711Y-118161904D01*
X336630711Y-118161904D02*
X336725950Y-118066666D01*
X336725950Y-118066666D02*
X336773569Y-117923809D01*
X336773569Y-117923809D02*
X336773569Y-117685714D01*
X336106902Y-119114285D02*
X336773569Y-119114285D01*
X335725950Y-118876190D02*
X336440235Y-118638095D01*
X336440235Y-118638095D02*
X336440235Y-119257142D01*
X336106902Y-120066666D02*
X336773569Y-120066666D01*
X335725950Y-119828571D02*
X336440235Y-119590476D01*
X336440235Y-119590476D02*
X336440235Y-120209523D01*
X236761069Y-80061905D02*
X235761069Y-80061905D01*
X235761069Y-80061905D02*
X235761069Y-80300000D01*
X235761069Y-80300000D02*
X235808688Y-80442857D01*
X235808688Y-80442857D02*
X235903926Y-80538095D01*
X235903926Y-80538095D02*
X235999164Y-80585714D01*
X235999164Y-80585714D02*
X236189640Y-80633333D01*
X236189640Y-80633333D02*
X236332497Y-80633333D01*
X236332497Y-80633333D02*
X236522973Y-80585714D01*
X236522973Y-80585714D02*
X236618211Y-80538095D01*
X236618211Y-80538095D02*
X236713450Y-80442857D01*
X236713450Y-80442857D02*
X236761069Y-80300000D01*
X236761069Y-80300000D02*
X236761069Y-80061905D01*
X236761069Y-81109524D02*
X236761069Y-81300000D01*
X236761069Y-81300000D02*
X236713450Y-81395238D01*
X236713450Y-81395238D02*
X236665830Y-81442857D01*
X236665830Y-81442857D02*
X236522973Y-81538095D01*
X236522973Y-81538095D02*
X236332497Y-81585714D01*
X236332497Y-81585714D02*
X235951545Y-81585714D01*
X235951545Y-81585714D02*
X235856307Y-81538095D01*
X235856307Y-81538095D02*
X235808688Y-81490476D01*
X235808688Y-81490476D02*
X235761069Y-81395238D01*
X235761069Y-81395238D02*
X235761069Y-81204762D01*
X235761069Y-81204762D02*
X235808688Y-81109524D01*
X235808688Y-81109524D02*
X235856307Y-81061905D01*
X235856307Y-81061905D02*
X235951545Y-81014286D01*
X235951545Y-81014286D02*
X236189640Y-81014286D01*
X236189640Y-81014286D02*
X236284878Y-81061905D01*
X236284878Y-81061905D02*
X236332497Y-81109524D01*
X236332497Y-81109524D02*
X236380116Y-81204762D01*
X236380116Y-81204762D02*
X236380116Y-81395238D01*
X236380116Y-81395238D02*
X236332497Y-81490476D01*
X236332497Y-81490476D02*
X236284878Y-81538095D01*
X236284878Y-81538095D02*
X236189640Y-81585714D01*
X98648569Y-80061905D02*
X97648569Y-80061905D01*
X97648569Y-80061905D02*
X97648569Y-80300000D01*
X97648569Y-80300000D02*
X97696188Y-80442857D01*
X97696188Y-80442857D02*
X97791426Y-80538095D01*
X97791426Y-80538095D02*
X97886664Y-80585714D01*
X97886664Y-80585714D02*
X98077140Y-80633333D01*
X98077140Y-80633333D02*
X98219997Y-80633333D01*
X98219997Y-80633333D02*
X98410473Y-80585714D01*
X98410473Y-80585714D02*
X98505711Y-80538095D01*
X98505711Y-80538095D02*
X98600950Y-80442857D01*
X98600950Y-80442857D02*
X98648569Y-80300000D01*
X98648569Y-80300000D02*
X98648569Y-80061905D01*
X97743807Y-81014286D02*
X97696188Y-81061905D01*
X97696188Y-81061905D02*
X97648569Y-81157143D01*
X97648569Y-81157143D02*
X97648569Y-81395238D01*
X97648569Y-81395238D02*
X97696188Y-81490476D01*
X97696188Y-81490476D02*
X97743807Y-81538095D01*
X97743807Y-81538095D02*
X97839045Y-81585714D01*
X97839045Y-81585714D02*
X97934283Y-81585714D01*
X97934283Y-81585714D02*
X98077140Y-81538095D01*
X98077140Y-81538095D02*
X98648569Y-80966667D01*
X98648569Y-80966667D02*
X98648569Y-81585714D01*
X255811069Y-136735714D02*
X254811069Y-136735714D01*
X254811069Y-136735714D02*
X254811069Y-136973809D01*
X254811069Y-136973809D02*
X254858688Y-137116666D01*
X254858688Y-137116666D02*
X254953926Y-137211904D01*
X254953926Y-137211904D02*
X255049164Y-137259523D01*
X255049164Y-137259523D02*
X255239640Y-137307142D01*
X255239640Y-137307142D02*
X255382497Y-137307142D01*
X255382497Y-137307142D02*
X255572973Y-137259523D01*
X255572973Y-137259523D02*
X255668211Y-137211904D01*
X255668211Y-137211904D02*
X255763450Y-137116666D01*
X255763450Y-137116666D02*
X255811069Y-136973809D01*
X255811069Y-136973809D02*
X255811069Y-136735714D01*
X254811069Y-138211904D02*
X254811069Y-137735714D01*
X254811069Y-137735714D02*
X255287259Y-137688095D01*
X255287259Y-137688095D02*
X255239640Y-137735714D01*
X255239640Y-137735714D02*
X255192021Y-137830952D01*
X255192021Y-137830952D02*
X255192021Y-138069047D01*
X255192021Y-138069047D02*
X255239640Y-138164285D01*
X255239640Y-138164285D02*
X255287259Y-138211904D01*
X255287259Y-138211904D02*
X255382497Y-138259523D01*
X255382497Y-138259523D02*
X255620592Y-138259523D01*
X255620592Y-138259523D02*
X255715830Y-138211904D01*
X255715830Y-138211904D02*
X255763450Y-138164285D01*
X255763450Y-138164285D02*
X255811069Y-138069047D01*
X255811069Y-138069047D02*
X255811069Y-137830952D01*
X255811069Y-137830952D02*
X255763450Y-137735714D01*
X255763450Y-137735714D02*
X255715830Y-137688095D01*
X255144402Y-139116666D02*
X255811069Y-139116666D01*
X254763450Y-138878571D02*
X255477735Y-138640476D01*
X255477735Y-138640476D02*
X255477735Y-139259523D01*
X274861069Y-155785714D02*
X273861069Y-155785714D01*
X273861069Y-155785714D02*
X273861069Y-156023809D01*
X273861069Y-156023809D02*
X273908688Y-156166666D01*
X273908688Y-156166666D02*
X274003926Y-156261904D01*
X274003926Y-156261904D02*
X274099164Y-156309523D01*
X274099164Y-156309523D02*
X274289640Y-156357142D01*
X274289640Y-156357142D02*
X274432497Y-156357142D01*
X274432497Y-156357142D02*
X274622973Y-156309523D01*
X274622973Y-156309523D02*
X274718211Y-156261904D01*
X274718211Y-156261904D02*
X274813450Y-156166666D01*
X274813450Y-156166666D02*
X274861069Y-156023809D01*
X274861069Y-156023809D02*
X274861069Y-155785714D01*
X273861069Y-157214285D02*
X273861069Y-157023809D01*
X273861069Y-157023809D02*
X273908688Y-156928571D01*
X273908688Y-156928571D02*
X273956307Y-156880952D01*
X273956307Y-156880952D02*
X274099164Y-156785714D01*
X274099164Y-156785714D02*
X274289640Y-156738095D01*
X274289640Y-156738095D02*
X274670592Y-156738095D01*
X274670592Y-156738095D02*
X274765830Y-156785714D01*
X274765830Y-156785714D02*
X274813450Y-156833333D01*
X274813450Y-156833333D02*
X274861069Y-156928571D01*
X274861069Y-156928571D02*
X274861069Y-157119047D01*
X274861069Y-157119047D02*
X274813450Y-157214285D01*
X274813450Y-157214285D02*
X274765830Y-157261904D01*
X274765830Y-157261904D02*
X274670592Y-157309523D01*
X274670592Y-157309523D02*
X274432497Y-157309523D01*
X274432497Y-157309523D02*
X274337259Y-157261904D01*
X274337259Y-157261904D02*
X274289640Y-157214285D01*
X274289640Y-157214285D02*
X274242021Y-157119047D01*
X274242021Y-157119047D02*
X274242021Y-156928571D01*
X274242021Y-156928571D02*
X274289640Y-156833333D01*
X274289640Y-156833333D02*
X274337259Y-156785714D01*
X274337259Y-156785714D02*
X274432497Y-156738095D01*
X273861069Y-158214285D02*
X273861069Y-157738095D01*
X273861069Y-157738095D02*
X274337259Y-157690476D01*
X274337259Y-157690476D02*
X274289640Y-157738095D01*
X274289640Y-157738095D02*
X274242021Y-157833333D01*
X274242021Y-157833333D02*
X274242021Y-158071428D01*
X274242021Y-158071428D02*
X274289640Y-158166666D01*
X274289640Y-158166666D02*
X274337259Y-158214285D01*
X274337259Y-158214285D02*
X274432497Y-158261904D01*
X274432497Y-158261904D02*
X274670592Y-158261904D01*
X274670592Y-158261904D02*
X274765830Y-158214285D01*
X274765830Y-158214285D02*
X274813450Y-158166666D01*
X274813450Y-158166666D02*
X274861069Y-158071428D01*
X274861069Y-158071428D02*
X274861069Y-157833333D01*
X274861069Y-157833333D02*
X274813450Y-157738095D01*
X274813450Y-157738095D02*
X274765830Y-157690476D01*
X255811069Y-155785714D02*
X254811069Y-155785714D01*
X254811069Y-155785714D02*
X254811069Y-156023809D01*
X254811069Y-156023809D02*
X254858688Y-156166666D01*
X254858688Y-156166666D02*
X254953926Y-156261904D01*
X254953926Y-156261904D02*
X255049164Y-156309523D01*
X255049164Y-156309523D02*
X255239640Y-156357142D01*
X255239640Y-156357142D02*
X255382497Y-156357142D01*
X255382497Y-156357142D02*
X255572973Y-156309523D01*
X255572973Y-156309523D02*
X255668211Y-156261904D01*
X255668211Y-156261904D02*
X255763450Y-156166666D01*
X255763450Y-156166666D02*
X255811069Y-156023809D01*
X255811069Y-156023809D02*
X255811069Y-155785714D01*
X254811069Y-157214285D02*
X254811069Y-157023809D01*
X254811069Y-157023809D02*
X254858688Y-156928571D01*
X254858688Y-156928571D02*
X254906307Y-156880952D01*
X254906307Y-156880952D02*
X255049164Y-156785714D01*
X255049164Y-156785714D02*
X255239640Y-156738095D01*
X255239640Y-156738095D02*
X255620592Y-156738095D01*
X255620592Y-156738095D02*
X255715830Y-156785714D01*
X255715830Y-156785714D02*
X255763450Y-156833333D01*
X255763450Y-156833333D02*
X255811069Y-156928571D01*
X255811069Y-156928571D02*
X255811069Y-157119047D01*
X255811069Y-157119047D02*
X255763450Y-157214285D01*
X255763450Y-157214285D02*
X255715830Y-157261904D01*
X255715830Y-157261904D02*
X255620592Y-157309523D01*
X255620592Y-157309523D02*
X255382497Y-157309523D01*
X255382497Y-157309523D02*
X255287259Y-157261904D01*
X255287259Y-157261904D02*
X255239640Y-157214285D01*
X255239640Y-157214285D02*
X255192021Y-157119047D01*
X255192021Y-157119047D02*
X255192021Y-156928571D01*
X255192021Y-156928571D02*
X255239640Y-156833333D01*
X255239640Y-156833333D02*
X255287259Y-156785714D01*
X255287259Y-156785714D02*
X255382497Y-156738095D01*
X255144402Y-158166666D02*
X255811069Y-158166666D01*
X254763450Y-157928571D02*
X255477735Y-157690476D01*
X255477735Y-157690476D02*
X255477735Y-158309523D01*
X98648569Y-155785714D02*
X97648569Y-155785714D01*
X97648569Y-155785714D02*
X97648569Y-156023809D01*
X97648569Y-156023809D02*
X97696188Y-156166666D01*
X97696188Y-156166666D02*
X97791426Y-156261904D01*
X97791426Y-156261904D02*
X97886664Y-156309523D01*
X97886664Y-156309523D02*
X98077140Y-156357142D01*
X98077140Y-156357142D02*
X98219997Y-156357142D01*
X98219997Y-156357142D02*
X98410473Y-156309523D01*
X98410473Y-156309523D02*
X98505711Y-156261904D01*
X98505711Y-156261904D02*
X98600950Y-156166666D01*
X98600950Y-156166666D02*
X98648569Y-156023809D01*
X98648569Y-156023809D02*
X98648569Y-155785714D01*
X97648569Y-157261904D02*
X97648569Y-156785714D01*
X97648569Y-156785714D02*
X98124759Y-156738095D01*
X98124759Y-156738095D02*
X98077140Y-156785714D01*
X98077140Y-156785714D02*
X98029521Y-156880952D01*
X98029521Y-156880952D02*
X98029521Y-157119047D01*
X98029521Y-157119047D02*
X98077140Y-157214285D01*
X98077140Y-157214285D02*
X98124759Y-157261904D01*
X98124759Y-157261904D02*
X98219997Y-157309523D01*
X98219997Y-157309523D02*
X98458092Y-157309523D01*
X98458092Y-157309523D02*
X98553330Y-157261904D01*
X98553330Y-157261904D02*
X98600950Y-157214285D01*
X98600950Y-157214285D02*
X98648569Y-157119047D01*
X98648569Y-157119047D02*
X98648569Y-156880952D01*
X98648569Y-156880952D02*
X98600950Y-156785714D01*
X98600950Y-156785714D02*
X98553330Y-156738095D01*
X98648569Y-157785714D02*
X98648569Y-157976190D01*
X98648569Y-157976190D02*
X98600950Y-158071428D01*
X98600950Y-158071428D02*
X98553330Y-158119047D01*
X98553330Y-158119047D02*
X98410473Y-158214285D01*
X98410473Y-158214285D02*
X98219997Y-158261904D01*
X98219997Y-158261904D02*
X97839045Y-158261904D01*
X97839045Y-158261904D02*
X97743807Y-158214285D01*
X97743807Y-158214285D02*
X97696188Y-158166666D01*
X97696188Y-158166666D02*
X97648569Y-158071428D01*
X97648569Y-158071428D02*
X97648569Y-157880952D01*
X97648569Y-157880952D02*
X97696188Y-157785714D01*
X97696188Y-157785714D02*
X97743807Y-157738095D01*
X97743807Y-157738095D02*
X97839045Y-157690476D01*
X97839045Y-157690476D02*
X98077140Y-157690476D01*
X98077140Y-157690476D02*
X98172378Y-157738095D01*
X98172378Y-157738095D02*
X98219997Y-157785714D01*
X98219997Y-157785714D02*
X98267616Y-157880952D01*
X98267616Y-157880952D02*
X98267616Y-158071428D01*
X98267616Y-158071428D02*
X98219997Y-158166666D01*
X98219997Y-158166666D02*
X98172378Y-158214285D01*
X98172378Y-158214285D02*
X98077140Y-158261904D01*
X317723569Y-160548214D02*
X316723569Y-160548214D01*
X316723569Y-160548214D02*
X316723569Y-160786309D01*
X316723569Y-160786309D02*
X316771188Y-160929166D01*
X316771188Y-160929166D02*
X316866426Y-161024404D01*
X316866426Y-161024404D02*
X316961664Y-161072023D01*
X316961664Y-161072023D02*
X317152140Y-161119642D01*
X317152140Y-161119642D02*
X317294997Y-161119642D01*
X317294997Y-161119642D02*
X317485473Y-161072023D01*
X317485473Y-161072023D02*
X317580711Y-161024404D01*
X317580711Y-161024404D02*
X317675950Y-160929166D01*
X317675950Y-160929166D02*
X317723569Y-160786309D01*
X317723569Y-160786309D02*
X317723569Y-160548214D01*
X316723569Y-161976785D02*
X316723569Y-161786309D01*
X316723569Y-161786309D02*
X316771188Y-161691071D01*
X316771188Y-161691071D02*
X316818807Y-161643452D01*
X316818807Y-161643452D02*
X316961664Y-161548214D01*
X316961664Y-161548214D02*
X317152140Y-161500595D01*
X317152140Y-161500595D02*
X317533092Y-161500595D01*
X317533092Y-161500595D02*
X317628330Y-161548214D01*
X317628330Y-161548214D02*
X317675950Y-161595833D01*
X317675950Y-161595833D02*
X317723569Y-161691071D01*
X317723569Y-161691071D02*
X317723569Y-161881547D01*
X317723569Y-161881547D02*
X317675950Y-161976785D01*
X317675950Y-161976785D02*
X317628330Y-162024404D01*
X317628330Y-162024404D02*
X317533092Y-162072023D01*
X317533092Y-162072023D02*
X317294997Y-162072023D01*
X317294997Y-162072023D02*
X317199759Y-162024404D01*
X317199759Y-162024404D02*
X317152140Y-161976785D01*
X317152140Y-161976785D02*
X317104521Y-161881547D01*
X317104521Y-161881547D02*
X317104521Y-161691071D01*
X317104521Y-161691071D02*
X317152140Y-161595833D01*
X317152140Y-161595833D02*
X317199759Y-161548214D01*
X317199759Y-161548214D02*
X317294997Y-161500595D01*
X316723569Y-162405357D02*
X316723569Y-163072023D01*
X316723569Y-163072023D02*
X317723569Y-162643452D01*
X179611069Y-98635714D02*
X178611069Y-98635714D01*
X178611069Y-98635714D02*
X178611069Y-98873809D01*
X178611069Y-98873809D02*
X178658688Y-99016666D01*
X178658688Y-99016666D02*
X178753926Y-99111904D01*
X178753926Y-99111904D02*
X178849164Y-99159523D01*
X178849164Y-99159523D02*
X179039640Y-99207142D01*
X179039640Y-99207142D02*
X179182497Y-99207142D01*
X179182497Y-99207142D02*
X179372973Y-99159523D01*
X179372973Y-99159523D02*
X179468211Y-99111904D01*
X179468211Y-99111904D02*
X179563450Y-99016666D01*
X179563450Y-99016666D02*
X179611069Y-98873809D01*
X179611069Y-98873809D02*
X179611069Y-98635714D01*
X178706307Y-99588095D02*
X178658688Y-99635714D01*
X178658688Y-99635714D02*
X178611069Y-99730952D01*
X178611069Y-99730952D02*
X178611069Y-99969047D01*
X178611069Y-99969047D02*
X178658688Y-100064285D01*
X178658688Y-100064285D02*
X178706307Y-100111904D01*
X178706307Y-100111904D02*
X178801545Y-100159523D01*
X178801545Y-100159523D02*
X178896783Y-100159523D01*
X178896783Y-100159523D02*
X179039640Y-100111904D01*
X179039640Y-100111904D02*
X179611069Y-99540476D01*
X179611069Y-99540476D02*
X179611069Y-100159523D01*
X179611069Y-101111904D02*
X179611069Y-100540476D01*
X179611069Y-100826190D02*
X178611069Y-100826190D01*
X178611069Y-100826190D02*
X178753926Y-100730952D01*
X178753926Y-100730952D02*
X178849164Y-100635714D01*
X178849164Y-100635714D02*
X178896783Y-100540476D01*
X293911069Y-98635714D02*
X292911069Y-98635714D01*
X292911069Y-98635714D02*
X292911069Y-98873809D01*
X292911069Y-98873809D02*
X292958688Y-99016666D01*
X292958688Y-99016666D02*
X293053926Y-99111904D01*
X293053926Y-99111904D02*
X293149164Y-99159523D01*
X293149164Y-99159523D02*
X293339640Y-99207142D01*
X293339640Y-99207142D02*
X293482497Y-99207142D01*
X293482497Y-99207142D02*
X293672973Y-99159523D01*
X293672973Y-99159523D02*
X293768211Y-99111904D01*
X293768211Y-99111904D02*
X293863450Y-99016666D01*
X293863450Y-99016666D02*
X293911069Y-98873809D01*
X293911069Y-98873809D02*
X293911069Y-98635714D01*
X293006307Y-99588095D02*
X292958688Y-99635714D01*
X292958688Y-99635714D02*
X292911069Y-99730952D01*
X292911069Y-99730952D02*
X292911069Y-99969047D01*
X292911069Y-99969047D02*
X292958688Y-100064285D01*
X292958688Y-100064285D02*
X293006307Y-100111904D01*
X293006307Y-100111904D02*
X293101545Y-100159523D01*
X293101545Y-100159523D02*
X293196783Y-100159523D01*
X293196783Y-100159523D02*
X293339640Y-100111904D01*
X293339640Y-100111904D02*
X293911069Y-99540476D01*
X293911069Y-99540476D02*
X293911069Y-100159523D01*
X292911069Y-100492857D02*
X292911069Y-101159523D01*
X292911069Y-101159523D02*
X293911069Y-100730952D01*
X236761069Y-136735714D02*
X235761069Y-136735714D01*
X235761069Y-136735714D02*
X235761069Y-136973809D01*
X235761069Y-136973809D02*
X235808688Y-137116666D01*
X235808688Y-137116666D02*
X235903926Y-137211904D01*
X235903926Y-137211904D02*
X235999164Y-137259523D01*
X235999164Y-137259523D02*
X236189640Y-137307142D01*
X236189640Y-137307142D02*
X236332497Y-137307142D01*
X236332497Y-137307142D02*
X236522973Y-137259523D01*
X236522973Y-137259523D02*
X236618211Y-137211904D01*
X236618211Y-137211904D02*
X236713450Y-137116666D01*
X236713450Y-137116666D02*
X236761069Y-136973809D01*
X236761069Y-136973809D02*
X236761069Y-136735714D01*
X235761069Y-138211904D02*
X235761069Y-137735714D01*
X235761069Y-137735714D02*
X236237259Y-137688095D01*
X236237259Y-137688095D02*
X236189640Y-137735714D01*
X236189640Y-137735714D02*
X236142021Y-137830952D01*
X236142021Y-137830952D02*
X236142021Y-138069047D01*
X236142021Y-138069047D02*
X236189640Y-138164285D01*
X236189640Y-138164285D02*
X236237259Y-138211904D01*
X236237259Y-138211904D02*
X236332497Y-138259523D01*
X236332497Y-138259523D02*
X236570592Y-138259523D01*
X236570592Y-138259523D02*
X236665830Y-138211904D01*
X236665830Y-138211904D02*
X236713450Y-138164285D01*
X236713450Y-138164285D02*
X236761069Y-138069047D01*
X236761069Y-138069047D02*
X236761069Y-137830952D01*
X236761069Y-137830952D02*
X236713450Y-137735714D01*
X236713450Y-137735714D02*
X236665830Y-137688095D01*
X235761069Y-138592857D02*
X235761069Y-139211904D01*
X235761069Y-139211904D02*
X236142021Y-138878571D01*
X236142021Y-138878571D02*
X236142021Y-139021428D01*
X236142021Y-139021428D02*
X236189640Y-139116666D01*
X236189640Y-139116666D02*
X236237259Y-139164285D01*
X236237259Y-139164285D02*
X236332497Y-139211904D01*
X236332497Y-139211904D02*
X236570592Y-139211904D01*
X236570592Y-139211904D02*
X236665830Y-139164285D01*
X236665830Y-139164285D02*
X236713450Y-139116666D01*
X236713450Y-139116666D02*
X236761069Y-139021428D01*
X236761069Y-139021428D02*
X236761069Y-138735714D01*
X236761069Y-138735714D02*
X236713450Y-138640476D01*
X236713450Y-138640476D02*
X236665830Y-138592857D01*
X217711069Y-136735714D02*
X216711069Y-136735714D01*
X216711069Y-136735714D02*
X216711069Y-136973809D01*
X216711069Y-136973809D02*
X216758688Y-137116666D01*
X216758688Y-137116666D02*
X216853926Y-137211904D01*
X216853926Y-137211904D02*
X216949164Y-137259523D01*
X216949164Y-137259523D02*
X217139640Y-137307142D01*
X217139640Y-137307142D02*
X217282497Y-137307142D01*
X217282497Y-137307142D02*
X217472973Y-137259523D01*
X217472973Y-137259523D02*
X217568211Y-137211904D01*
X217568211Y-137211904D02*
X217663450Y-137116666D01*
X217663450Y-137116666D02*
X217711069Y-136973809D01*
X217711069Y-136973809D02*
X217711069Y-136735714D01*
X216711069Y-138211904D02*
X216711069Y-137735714D01*
X216711069Y-137735714D02*
X217187259Y-137688095D01*
X217187259Y-137688095D02*
X217139640Y-137735714D01*
X217139640Y-137735714D02*
X217092021Y-137830952D01*
X217092021Y-137830952D02*
X217092021Y-138069047D01*
X217092021Y-138069047D02*
X217139640Y-138164285D01*
X217139640Y-138164285D02*
X217187259Y-138211904D01*
X217187259Y-138211904D02*
X217282497Y-138259523D01*
X217282497Y-138259523D02*
X217520592Y-138259523D01*
X217520592Y-138259523D02*
X217615830Y-138211904D01*
X217615830Y-138211904D02*
X217663450Y-138164285D01*
X217663450Y-138164285D02*
X217711069Y-138069047D01*
X217711069Y-138069047D02*
X217711069Y-137830952D01*
X217711069Y-137830952D02*
X217663450Y-137735714D01*
X217663450Y-137735714D02*
X217615830Y-137688095D01*
X216806307Y-138640476D02*
X216758688Y-138688095D01*
X216758688Y-138688095D02*
X216711069Y-138783333D01*
X216711069Y-138783333D02*
X216711069Y-139021428D01*
X216711069Y-139021428D02*
X216758688Y-139116666D01*
X216758688Y-139116666D02*
X216806307Y-139164285D01*
X216806307Y-139164285D02*
X216901545Y-139211904D01*
X216901545Y-139211904D02*
X216996783Y-139211904D01*
X216996783Y-139211904D02*
X217139640Y-139164285D01*
X217139640Y-139164285D02*
X217711069Y-138592857D01*
X217711069Y-138592857D02*
X217711069Y-139211904D01*
X72454819Y-117685714D02*
X71454819Y-117685714D01*
X71454819Y-117685714D02*
X71454819Y-117923809D01*
X71454819Y-117923809D02*
X71502438Y-118066666D01*
X71502438Y-118066666D02*
X71597676Y-118161904D01*
X71597676Y-118161904D02*
X71692914Y-118209523D01*
X71692914Y-118209523D02*
X71883390Y-118257142D01*
X71883390Y-118257142D02*
X72026247Y-118257142D01*
X72026247Y-118257142D02*
X72216723Y-118209523D01*
X72216723Y-118209523D02*
X72311961Y-118161904D01*
X72311961Y-118161904D02*
X72407200Y-118066666D01*
X72407200Y-118066666D02*
X72454819Y-117923809D01*
X72454819Y-117923809D02*
X72454819Y-117685714D01*
X71454819Y-118590476D02*
X71454819Y-119209523D01*
X71454819Y-119209523D02*
X71835771Y-118876190D01*
X71835771Y-118876190D02*
X71835771Y-119019047D01*
X71835771Y-119019047D02*
X71883390Y-119114285D01*
X71883390Y-119114285D02*
X71931009Y-119161904D01*
X71931009Y-119161904D02*
X72026247Y-119209523D01*
X72026247Y-119209523D02*
X72264342Y-119209523D01*
X72264342Y-119209523D02*
X72359580Y-119161904D01*
X72359580Y-119161904D02*
X72407200Y-119114285D01*
X72407200Y-119114285D02*
X72454819Y-119019047D01*
X72454819Y-119019047D02*
X72454819Y-118733333D01*
X72454819Y-118733333D02*
X72407200Y-118638095D01*
X72407200Y-118638095D02*
X72359580Y-118590476D01*
X72454819Y-120161904D02*
X72454819Y-119590476D01*
X72454819Y-119876190D02*
X71454819Y-119876190D01*
X71454819Y-119876190D02*
X71597676Y-119780952D01*
X71597676Y-119780952D02*
X71692914Y-119685714D01*
X71692914Y-119685714D02*
X71740533Y-119590476D01*
X217711069Y-117685714D02*
X216711069Y-117685714D01*
X216711069Y-117685714D02*
X216711069Y-117923809D01*
X216711069Y-117923809D02*
X216758688Y-118066666D01*
X216758688Y-118066666D02*
X216853926Y-118161904D01*
X216853926Y-118161904D02*
X216949164Y-118209523D01*
X216949164Y-118209523D02*
X217139640Y-118257142D01*
X217139640Y-118257142D02*
X217282497Y-118257142D01*
X217282497Y-118257142D02*
X217472973Y-118209523D01*
X217472973Y-118209523D02*
X217568211Y-118161904D01*
X217568211Y-118161904D02*
X217663450Y-118066666D01*
X217663450Y-118066666D02*
X217711069Y-117923809D01*
X217711069Y-117923809D02*
X217711069Y-117685714D01*
X216711069Y-118590476D02*
X216711069Y-119209523D01*
X216711069Y-119209523D02*
X217092021Y-118876190D01*
X217092021Y-118876190D02*
X217092021Y-119019047D01*
X217092021Y-119019047D02*
X217139640Y-119114285D01*
X217139640Y-119114285D02*
X217187259Y-119161904D01*
X217187259Y-119161904D02*
X217282497Y-119209523D01*
X217282497Y-119209523D02*
X217520592Y-119209523D01*
X217520592Y-119209523D02*
X217615830Y-119161904D01*
X217615830Y-119161904D02*
X217663450Y-119114285D01*
X217663450Y-119114285D02*
X217711069Y-119019047D01*
X217711069Y-119019047D02*
X217711069Y-118733333D01*
X217711069Y-118733333D02*
X217663450Y-118638095D01*
X217663450Y-118638095D02*
X217615830Y-118590476D01*
X217139640Y-119780952D02*
X217092021Y-119685714D01*
X217092021Y-119685714D02*
X217044402Y-119638095D01*
X217044402Y-119638095D02*
X216949164Y-119590476D01*
X216949164Y-119590476D02*
X216901545Y-119590476D01*
X216901545Y-119590476D02*
X216806307Y-119638095D01*
X216806307Y-119638095D02*
X216758688Y-119685714D01*
X216758688Y-119685714D02*
X216711069Y-119780952D01*
X216711069Y-119780952D02*
X216711069Y-119971428D01*
X216711069Y-119971428D02*
X216758688Y-120066666D01*
X216758688Y-120066666D02*
X216806307Y-120114285D01*
X216806307Y-120114285D02*
X216901545Y-120161904D01*
X216901545Y-120161904D02*
X216949164Y-120161904D01*
X216949164Y-120161904D02*
X217044402Y-120114285D01*
X217044402Y-120114285D02*
X217092021Y-120066666D01*
X217092021Y-120066666D02*
X217139640Y-119971428D01*
X217139640Y-119971428D02*
X217139640Y-119780952D01*
X217139640Y-119780952D02*
X217187259Y-119685714D01*
X217187259Y-119685714D02*
X217234878Y-119638095D01*
X217234878Y-119638095D02*
X217330116Y-119590476D01*
X217330116Y-119590476D02*
X217520592Y-119590476D01*
X217520592Y-119590476D02*
X217615830Y-119638095D01*
X217615830Y-119638095D02*
X217663450Y-119685714D01*
X217663450Y-119685714D02*
X217711069Y-119780952D01*
X217711069Y-119780952D02*
X217711069Y-119971428D01*
X217711069Y-119971428D02*
X217663450Y-120066666D01*
X217663450Y-120066666D02*
X217615830Y-120114285D01*
X217615830Y-120114285D02*
X217520592Y-120161904D01*
X217520592Y-120161904D02*
X217330116Y-120161904D01*
X217330116Y-120161904D02*
X217234878Y-120114285D01*
X217234878Y-120114285D02*
X217187259Y-120066666D01*
X217187259Y-120066666D02*
X217139640Y-119971428D01*
X332011069Y-79585714D02*
X331011069Y-79585714D01*
X331011069Y-79585714D02*
X331011069Y-79823809D01*
X331011069Y-79823809D02*
X331058688Y-79966666D01*
X331058688Y-79966666D02*
X331153926Y-80061904D01*
X331153926Y-80061904D02*
X331249164Y-80109523D01*
X331249164Y-80109523D02*
X331439640Y-80157142D01*
X331439640Y-80157142D02*
X331582497Y-80157142D01*
X331582497Y-80157142D02*
X331772973Y-80109523D01*
X331772973Y-80109523D02*
X331868211Y-80061904D01*
X331868211Y-80061904D02*
X331963450Y-79966666D01*
X331963450Y-79966666D02*
X332011069Y-79823809D01*
X332011069Y-79823809D02*
X332011069Y-79585714D01*
X332011069Y-81109523D02*
X332011069Y-80538095D01*
X332011069Y-80823809D02*
X331011069Y-80823809D01*
X331011069Y-80823809D02*
X331153926Y-80728571D01*
X331153926Y-80728571D02*
X331249164Y-80633333D01*
X331249164Y-80633333D02*
X331296783Y-80538095D01*
X331344402Y-81966666D02*
X332011069Y-81966666D01*
X330963450Y-81728571D02*
X331677735Y-81490476D01*
X331677735Y-81490476D02*
X331677735Y-82109523D01*
X198661069Y-98635714D02*
X197661069Y-98635714D01*
X197661069Y-98635714D02*
X197661069Y-98873809D01*
X197661069Y-98873809D02*
X197708688Y-99016666D01*
X197708688Y-99016666D02*
X197803926Y-99111904D01*
X197803926Y-99111904D02*
X197899164Y-99159523D01*
X197899164Y-99159523D02*
X198089640Y-99207142D01*
X198089640Y-99207142D02*
X198232497Y-99207142D01*
X198232497Y-99207142D02*
X198422973Y-99159523D01*
X198422973Y-99159523D02*
X198518211Y-99111904D01*
X198518211Y-99111904D02*
X198613450Y-99016666D01*
X198613450Y-99016666D02*
X198661069Y-98873809D01*
X198661069Y-98873809D02*
X198661069Y-98635714D01*
X197756307Y-99588095D02*
X197708688Y-99635714D01*
X197708688Y-99635714D02*
X197661069Y-99730952D01*
X197661069Y-99730952D02*
X197661069Y-99969047D01*
X197661069Y-99969047D02*
X197708688Y-100064285D01*
X197708688Y-100064285D02*
X197756307Y-100111904D01*
X197756307Y-100111904D02*
X197851545Y-100159523D01*
X197851545Y-100159523D02*
X197946783Y-100159523D01*
X197946783Y-100159523D02*
X198089640Y-100111904D01*
X198089640Y-100111904D02*
X198661069Y-99540476D01*
X198661069Y-99540476D02*
X198661069Y-100159523D01*
X197756307Y-100540476D02*
X197708688Y-100588095D01*
X197708688Y-100588095D02*
X197661069Y-100683333D01*
X197661069Y-100683333D02*
X197661069Y-100921428D01*
X197661069Y-100921428D02*
X197708688Y-101016666D01*
X197708688Y-101016666D02*
X197756307Y-101064285D01*
X197756307Y-101064285D02*
X197851545Y-101111904D01*
X197851545Y-101111904D02*
X197946783Y-101111904D01*
X197946783Y-101111904D02*
X198089640Y-101064285D01*
X198089640Y-101064285D02*
X198661069Y-100492857D01*
X198661069Y-100492857D02*
X198661069Y-101111904D01*
X293911069Y-79585714D02*
X292911069Y-79585714D01*
X292911069Y-79585714D02*
X292911069Y-79823809D01*
X292911069Y-79823809D02*
X292958688Y-79966666D01*
X292958688Y-79966666D02*
X293053926Y-80061904D01*
X293053926Y-80061904D02*
X293149164Y-80109523D01*
X293149164Y-80109523D02*
X293339640Y-80157142D01*
X293339640Y-80157142D02*
X293482497Y-80157142D01*
X293482497Y-80157142D02*
X293672973Y-80109523D01*
X293672973Y-80109523D02*
X293768211Y-80061904D01*
X293768211Y-80061904D02*
X293863450Y-79966666D01*
X293863450Y-79966666D02*
X293911069Y-79823809D01*
X293911069Y-79823809D02*
X293911069Y-79585714D01*
X293911069Y-81109523D02*
X293911069Y-80538095D01*
X293911069Y-80823809D02*
X292911069Y-80823809D01*
X292911069Y-80823809D02*
X293053926Y-80728571D01*
X293053926Y-80728571D02*
X293149164Y-80633333D01*
X293149164Y-80633333D02*
X293196783Y-80538095D01*
X293006307Y-81490476D02*
X292958688Y-81538095D01*
X292958688Y-81538095D02*
X292911069Y-81633333D01*
X292911069Y-81633333D02*
X292911069Y-81871428D01*
X292911069Y-81871428D02*
X292958688Y-81966666D01*
X292958688Y-81966666D02*
X293006307Y-82014285D01*
X293006307Y-82014285D02*
X293101545Y-82061904D01*
X293101545Y-82061904D02*
X293196783Y-82061904D01*
X293196783Y-82061904D02*
X293339640Y-82014285D01*
X293339640Y-82014285D02*
X293911069Y-81442857D01*
X293911069Y-81442857D02*
X293911069Y-82061904D01*
X72454819Y-155785714D02*
X71454819Y-155785714D01*
X71454819Y-155785714D02*
X71454819Y-156023809D01*
X71454819Y-156023809D02*
X71502438Y-156166666D01*
X71502438Y-156166666D02*
X71597676Y-156261904D01*
X71597676Y-156261904D02*
X71692914Y-156309523D01*
X71692914Y-156309523D02*
X71883390Y-156357142D01*
X71883390Y-156357142D02*
X72026247Y-156357142D01*
X72026247Y-156357142D02*
X72216723Y-156309523D01*
X72216723Y-156309523D02*
X72311961Y-156261904D01*
X72311961Y-156261904D02*
X72407200Y-156166666D01*
X72407200Y-156166666D02*
X72454819Y-156023809D01*
X72454819Y-156023809D02*
X72454819Y-155785714D01*
X71454819Y-157261904D02*
X71454819Y-156785714D01*
X71454819Y-156785714D02*
X71931009Y-156738095D01*
X71931009Y-156738095D02*
X71883390Y-156785714D01*
X71883390Y-156785714D02*
X71835771Y-156880952D01*
X71835771Y-156880952D02*
X71835771Y-157119047D01*
X71835771Y-157119047D02*
X71883390Y-157214285D01*
X71883390Y-157214285D02*
X71931009Y-157261904D01*
X71931009Y-157261904D02*
X72026247Y-157309523D01*
X72026247Y-157309523D02*
X72264342Y-157309523D01*
X72264342Y-157309523D02*
X72359580Y-157261904D01*
X72359580Y-157261904D02*
X72407200Y-157214285D01*
X72407200Y-157214285D02*
X72454819Y-157119047D01*
X72454819Y-157119047D02*
X72454819Y-156880952D01*
X72454819Y-156880952D02*
X72407200Y-156785714D01*
X72407200Y-156785714D02*
X72359580Y-156738095D01*
X71883390Y-157880952D02*
X71835771Y-157785714D01*
X71835771Y-157785714D02*
X71788152Y-157738095D01*
X71788152Y-157738095D02*
X71692914Y-157690476D01*
X71692914Y-157690476D02*
X71645295Y-157690476D01*
X71645295Y-157690476D02*
X71550057Y-157738095D01*
X71550057Y-157738095D02*
X71502438Y-157785714D01*
X71502438Y-157785714D02*
X71454819Y-157880952D01*
X71454819Y-157880952D02*
X71454819Y-158071428D01*
X71454819Y-158071428D02*
X71502438Y-158166666D01*
X71502438Y-158166666D02*
X71550057Y-158214285D01*
X71550057Y-158214285D02*
X71645295Y-158261904D01*
X71645295Y-158261904D02*
X71692914Y-158261904D01*
X71692914Y-158261904D02*
X71788152Y-158214285D01*
X71788152Y-158214285D02*
X71835771Y-158166666D01*
X71835771Y-158166666D02*
X71883390Y-158071428D01*
X71883390Y-158071428D02*
X71883390Y-157880952D01*
X71883390Y-157880952D02*
X71931009Y-157785714D01*
X71931009Y-157785714D02*
X71978628Y-157738095D01*
X71978628Y-157738095D02*
X72073866Y-157690476D01*
X72073866Y-157690476D02*
X72264342Y-157690476D01*
X72264342Y-157690476D02*
X72359580Y-157738095D01*
X72359580Y-157738095D02*
X72407200Y-157785714D01*
X72407200Y-157785714D02*
X72454819Y-157880952D01*
X72454819Y-157880952D02*
X72454819Y-158071428D01*
X72454819Y-158071428D02*
X72407200Y-158166666D01*
X72407200Y-158166666D02*
X72359580Y-158214285D01*
X72359580Y-158214285D02*
X72264342Y-158261904D01*
X72264342Y-158261904D02*
X72073866Y-158261904D01*
X72073866Y-158261904D02*
X71978628Y-158214285D01*
X71978628Y-158214285D02*
X71931009Y-158166666D01*
X71931009Y-158166666D02*
X71883390Y-158071428D01*
X179611069Y-136735714D02*
X178611069Y-136735714D01*
X178611069Y-136735714D02*
X178611069Y-136973809D01*
X178611069Y-136973809D02*
X178658688Y-137116666D01*
X178658688Y-137116666D02*
X178753926Y-137211904D01*
X178753926Y-137211904D02*
X178849164Y-137259523D01*
X178849164Y-137259523D02*
X179039640Y-137307142D01*
X179039640Y-137307142D02*
X179182497Y-137307142D01*
X179182497Y-137307142D02*
X179372973Y-137259523D01*
X179372973Y-137259523D02*
X179468211Y-137211904D01*
X179468211Y-137211904D02*
X179563450Y-137116666D01*
X179563450Y-137116666D02*
X179611069Y-136973809D01*
X179611069Y-136973809D02*
X179611069Y-136735714D01*
X178611069Y-138211904D02*
X178611069Y-137735714D01*
X178611069Y-137735714D02*
X179087259Y-137688095D01*
X179087259Y-137688095D02*
X179039640Y-137735714D01*
X179039640Y-137735714D02*
X178992021Y-137830952D01*
X178992021Y-137830952D02*
X178992021Y-138069047D01*
X178992021Y-138069047D02*
X179039640Y-138164285D01*
X179039640Y-138164285D02*
X179087259Y-138211904D01*
X179087259Y-138211904D02*
X179182497Y-138259523D01*
X179182497Y-138259523D02*
X179420592Y-138259523D01*
X179420592Y-138259523D02*
X179515830Y-138211904D01*
X179515830Y-138211904D02*
X179563450Y-138164285D01*
X179563450Y-138164285D02*
X179611069Y-138069047D01*
X179611069Y-138069047D02*
X179611069Y-137830952D01*
X179611069Y-137830952D02*
X179563450Y-137735714D01*
X179563450Y-137735714D02*
X179515830Y-137688095D01*
X178611069Y-138878571D02*
X178611069Y-138973809D01*
X178611069Y-138973809D02*
X178658688Y-139069047D01*
X178658688Y-139069047D02*
X178706307Y-139116666D01*
X178706307Y-139116666D02*
X178801545Y-139164285D01*
X178801545Y-139164285D02*
X178992021Y-139211904D01*
X178992021Y-139211904D02*
X179230116Y-139211904D01*
X179230116Y-139211904D02*
X179420592Y-139164285D01*
X179420592Y-139164285D02*
X179515830Y-139116666D01*
X179515830Y-139116666D02*
X179563450Y-139069047D01*
X179563450Y-139069047D02*
X179611069Y-138973809D01*
X179611069Y-138973809D02*
X179611069Y-138878571D01*
X179611069Y-138878571D02*
X179563450Y-138783333D01*
X179563450Y-138783333D02*
X179515830Y-138735714D01*
X179515830Y-138735714D02*
X179420592Y-138688095D01*
X179420592Y-138688095D02*
X179230116Y-138640476D01*
X179230116Y-138640476D02*
X178992021Y-138640476D01*
X178992021Y-138640476D02*
X178801545Y-138688095D01*
X178801545Y-138688095D02*
X178706307Y-138735714D01*
X178706307Y-138735714D02*
X178658688Y-138783333D01*
X178658688Y-138783333D02*
X178611069Y-138878571D01*
X98648569Y-98635714D02*
X97648569Y-98635714D01*
X97648569Y-98635714D02*
X97648569Y-98873809D01*
X97648569Y-98873809D02*
X97696188Y-99016666D01*
X97696188Y-99016666D02*
X97791426Y-99111904D01*
X97791426Y-99111904D02*
X97886664Y-99159523D01*
X97886664Y-99159523D02*
X98077140Y-99207142D01*
X98077140Y-99207142D02*
X98219997Y-99207142D01*
X98219997Y-99207142D02*
X98410473Y-99159523D01*
X98410473Y-99159523D02*
X98505711Y-99111904D01*
X98505711Y-99111904D02*
X98600950Y-99016666D01*
X98600950Y-99016666D02*
X98648569Y-98873809D01*
X98648569Y-98873809D02*
X98648569Y-98635714D01*
X98648569Y-100159523D02*
X98648569Y-99588095D01*
X98648569Y-99873809D02*
X97648569Y-99873809D01*
X97648569Y-99873809D02*
X97791426Y-99778571D01*
X97791426Y-99778571D02*
X97886664Y-99683333D01*
X97886664Y-99683333D02*
X97934283Y-99588095D01*
X97648569Y-100492857D02*
X97648569Y-101159523D01*
X97648569Y-101159523D02*
X98648569Y-100730952D01*
X255811069Y-79585714D02*
X254811069Y-79585714D01*
X254811069Y-79585714D02*
X254811069Y-79823809D01*
X254811069Y-79823809D02*
X254858688Y-79966666D01*
X254858688Y-79966666D02*
X254953926Y-80061904D01*
X254953926Y-80061904D02*
X255049164Y-80109523D01*
X255049164Y-80109523D02*
X255239640Y-80157142D01*
X255239640Y-80157142D02*
X255382497Y-80157142D01*
X255382497Y-80157142D02*
X255572973Y-80109523D01*
X255572973Y-80109523D02*
X255668211Y-80061904D01*
X255668211Y-80061904D02*
X255763450Y-79966666D01*
X255763450Y-79966666D02*
X255811069Y-79823809D01*
X255811069Y-79823809D02*
X255811069Y-79585714D01*
X255811069Y-81109523D02*
X255811069Y-80538095D01*
X255811069Y-80823809D02*
X254811069Y-80823809D01*
X254811069Y-80823809D02*
X254953926Y-80728571D01*
X254953926Y-80728571D02*
X255049164Y-80633333D01*
X255049164Y-80633333D02*
X255096783Y-80538095D01*
X254811069Y-81728571D02*
X254811069Y-81823809D01*
X254811069Y-81823809D02*
X254858688Y-81919047D01*
X254858688Y-81919047D02*
X254906307Y-81966666D01*
X254906307Y-81966666D02*
X255001545Y-82014285D01*
X255001545Y-82014285D02*
X255192021Y-82061904D01*
X255192021Y-82061904D02*
X255430116Y-82061904D01*
X255430116Y-82061904D02*
X255620592Y-82014285D01*
X255620592Y-82014285D02*
X255715830Y-81966666D01*
X255715830Y-81966666D02*
X255763450Y-81919047D01*
X255763450Y-81919047D02*
X255811069Y-81823809D01*
X255811069Y-81823809D02*
X255811069Y-81728571D01*
X255811069Y-81728571D02*
X255763450Y-81633333D01*
X255763450Y-81633333D02*
X255715830Y-81585714D01*
X255715830Y-81585714D02*
X255620592Y-81538095D01*
X255620592Y-81538095D02*
X255430116Y-81490476D01*
X255430116Y-81490476D02*
X255192021Y-81490476D01*
X255192021Y-81490476D02*
X255001545Y-81538095D01*
X255001545Y-81538095D02*
X254906307Y-81585714D01*
X254906307Y-81585714D02*
X254858688Y-81633333D01*
X254858688Y-81633333D02*
X254811069Y-81728571D01*
X312961069Y-117685714D02*
X311961069Y-117685714D01*
X311961069Y-117685714D02*
X311961069Y-117923809D01*
X311961069Y-117923809D02*
X312008688Y-118066666D01*
X312008688Y-118066666D02*
X312103926Y-118161904D01*
X312103926Y-118161904D02*
X312199164Y-118209523D01*
X312199164Y-118209523D02*
X312389640Y-118257142D01*
X312389640Y-118257142D02*
X312532497Y-118257142D01*
X312532497Y-118257142D02*
X312722973Y-118209523D01*
X312722973Y-118209523D02*
X312818211Y-118161904D01*
X312818211Y-118161904D02*
X312913450Y-118066666D01*
X312913450Y-118066666D02*
X312961069Y-117923809D01*
X312961069Y-117923809D02*
X312961069Y-117685714D01*
X312294402Y-119114285D02*
X312961069Y-119114285D01*
X311913450Y-118876190D02*
X312627735Y-118638095D01*
X312627735Y-118638095D02*
X312627735Y-119257142D01*
X311961069Y-119542857D02*
X311961069Y-120161904D01*
X311961069Y-120161904D02*
X312342021Y-119828571D01*
X312342021Y-119828571D02*
X312342021Y-119971428D01*
X312342021Y-119971428D02*
X312389640Y-120066666D01*
X312389640Y-120066666D02*
X312437259Y-120114285D01*
X312437259Y-120114285D02*
X312532497Y-120161904D01*
X312532497Y-120161904D02*
X312770592Y-120161904D01*
X312770592Y-120161904D02*
X312865830Y-120114285D01*
X312865830Y-120114285D02*
X312913450Y-120066666D01*
X312913450Y-120066666D02*
X312961069Y-119971428D01*
X312961069Y-119971428D02*
X312961069Y-119685714D01*
X312961069Y-119685714D02*
X312913450Y-119590476D01*
X312913450Y-119590476D02*
X312865830Y-119542857D01*
X160561069Y-136735714D02*
X159561069Y-136735714D01*
X159561069Y-136735714D02*
X159561069Y-136973809D01*
X159561069Y-136973809D02*
X159608688Y-137116666D01*
X159608688Y-137116666D02*
X159703926Y-137211904D01*
X159703926Y-137211904D02*
X159799164Y-137259523D01*
X159799164Y-137259523D02*
X159989640Y-137307142D01*
X159989640Y-137307142D02*
X160132497Y-137307142D01*
X160132497Y-137307142D02*
X160322973Y-137259523D01*
X160322973Y-137259523D02*
X160418211Y-137211904D01*
X160418211Y-137211904D02*
X160513450Y-137116666D01*
X160513450Y-137116666D02*
X160561069Y-136973809D01*
X160561069Y-136973809D02*
X160561069Y-136735714D01*
X159894402Y-138164285D02*
X160561069Y-138164285D01*
X159513450Y-137926190D02*
X160227735Y-137688095D01*
X160227735Y-137688095D02*
X160227735Y-138307142D01*
X160561069Y-138735714D02*
X160561069Y-138926190D01*
X160561069Y-138926190D02*
X160513450Y-139021428D01*
X160513450Y-139021428D02*
X160465830Y-139069047D01*
X160465830Y-139069047D02*
X160322973Y-139164285D01*
X160322973Y-139164285D02*
X160132497Y-139211904D01*
X160132497Y-139211904D02*
X159751545Y-139211904D01*
X159751545Y-139211904D02*
X159656307Y-139164285D01*
X159656307Y-139164285D02*
X159608688Y-139116666D01*
X159608688Y-139116666D02*
X159561069Y-139021428D01*
X159561069Y-139021428D02*
X159561069Y-138830952D01*
X159561069Y-138830952D02*
X159608688Y-138735714D01*
X159608688Y-138735714D02*
X159656307Y-138688095D01*
X159656307Y-138688095D02*
X159751545Y-138640476D01*
X159751545Y-138640476D02*
X159989640Y-138640476D01*
X159989640Y-138640476D02*
X160084878Y-138688095D01*
X160084878Y-138688095D02*
X160132497Y-138735714D01*
X160132497Y-138735714D02*
X160180116Y-138830952D01*
X160180116Y-138830952D02*
X160180116Y-139021428D01*
X160180116Y-139021428D02*
X160132497Y-139116666D01*
X160132497Y-139116666D02*
X160084878Y-139164285D01*
X160084878Y-139164285D02*
X159989640Y-139211904D01*
X198661069Y-136735714D02*
X197661069Y-136735714D01*
X197661069Y-136735714D02*
X197661069Y-136973809D01*
X197661069Y-136973809D02*
X197708688Y-137116666D01*
X197708688Y-137116666D02*
X197803926Y-137211904D01*
X197803926Y-137211904D02*
X197899164Y-137259523D01*
X197899164Y-137259523D02*
X198089640Y-137307142D01*
X198089640Y-137307142D02*
X198232497Y-137307142D01*
X198232497Y-137307142D02*
X198422973Y-137259523D01*
X198422973Y-137259523D02*
X198518211Y-137211904D01*
X198518211Y-137211904D02*
X198613450Y-137116666D01*
X198613450Y-137116666D02*
X198661069Y-136973809D01*
X198661069Y-136973809D02*
X198661069Y-136735714D01*
X197661069Y-138211904D02*
X197661069Y-137735714D01*
X197661069Y-137735714D02*
X198137259Y-137688095D01*
X198137259Y-137688095D02*
X198089640Y-137735714D01*
X198089640Y-137735714D02*
X198042021Y-137830952D01*
X198042021Y-137830952D02*
X198042021Y-138069047D01*
X198042021Y-138069047D02*
X198089640Y-138164285D01*
X198089640Y-138164285D02*
X198137259Y-138211904D01*
X198137259Y-138211904D02*
X198232497Y-138259523D01*
X198232497Y-138259523D02*
X198470592Y-138259523D01*
X198470592Y-138259523D02*
X198565830Y-138211904D01*
X198565830Y-138211904D02*
X198613450Y-138164285D01*
X198613450Y-138164285D02*
X198661069Y-138069047D01*
X198661069Y-138069047D02*
X198661069Y-137830952D01*
X198661069Y-137830952D02*
X198613450Y-137735714D01*
X198613450Y-137735714D02*
X198565830Y-137688095D01*
X198661069Y-139211904D02*
X198661069Y-138640476D01*
X198661069Y-138926190D02*
X197661069Y-138926190D01*
X197661069Y-138926190D02*
X197803926Y-138830952D01*
X197803926Y-138830952D02*
X197899164Y-138735714D01*
X197899164Y-138735714D02*
X197946783Y-138640476D01*
X122461069Y-80061905D02*
X121461069Y-80061905D01*
X121461069Y-80061905D02*
X121461069Y-80300000D01*
X121461069Y-80300000D02*
X121508688Y-80442857D01*
X121508688Y-80442857D02*
X121603926Y-80538095D01*
X121603926Y-80538095D02*
X121699164Y-80585714D01*
X121699164Y-80585714D02*
X121889640Y-80633333D01*
X121889640Y-80633333D02*
X122032497Y-80633333D01*
X122032497Y-80633333D02*
X122222973Y-80585714D01*
X122222973Y-80585714D02*
X122318211Y-80538095D01*
X122318211Y-80538095D02*
X122413450Y-80442857D01*
X122413450Y-80442857D02*
X122461069Y-80300000D01*
X122461069Y-80300000D02*
X122461069Y-80061905D01*
X121461069Y-80966667D02*
X121461069Y-81585714D01*
X121461069Y-81585714D02*
X121842021Y-81252381D01*
X121842021Y-81252381D02*
X121842021Y-81395238D01*
X121842021Y-81395238D02*
X121889640Y-81490476D01*
X121889640Y-81490476D02*
X121937259Y-81538095D01*
X121937259Y-81538095D02*
X122032497Y-81585714D01*
X122032497Y-81585714D02*
X122270592Y-81585714D01*
X122270592Y-81585714D02*
X122365830Y-81538095D01*
X122365830Y-81538095D02*
X122413450Y-81490476D01*
X122413450Y-81490476D02*
X122461069Y-81395238D01*
X122461069Y-81395238D02*
X122461069Y-81109524D01*
X122461069Y-81109524D02*
X122413450Y-81014286D01*
X122413450Y-81014286D02*
X122365830Y-80966667D01*
X298673569Y-160548214D02*
X297673569Y-160548214D01*
X297673569Y-160548214D02*
X297673569Y-160786309D01*
X297673569Y-160786309D02*
X297721188Y-160929166D01*
X297721188Y-160929166D02*
X297816426Y-161024404D01*
X297816426Y-161024404D02*
X297911664Y-161072023D01*
X297911664Y-161072023D02*
X298102140Y-161119642D01*
X298102140Y-161119642D02*
X298244997Y-161119642D01*
X298244997Y-161119642D02*
X298435473Y-161072023D01*
X298435473Y-161072023D02*
X298530711Y-161024404D01*
X298530711Y-161024404D02*
X298625950Y-160929166D01*
X298625950Y-160929166D02*
X298673569Y-160786309D01*
X298673569Y-160786309D02*
X298673569Y-160548214D01*
X297673569Y-161976785D02*
X297673569Y-161786309D01*
X297673569Y-161786309D02*
X297721188Y-161691071D01*
X297721188Y-161691071D02*
X297768807Y-161643452D01*
X297768807Y-161643452D02*
X297911664Y-161548214D01*
X297911664Y-161548214D02*
X298102140Y-161500595D01*
X298102140Y-161500595D02*
X298483092Y-161500595D01*
X298483092Y-161500595D02*
X298578330Y-161548214D01*
X298578330Y-161548214D02*
X298625950Y-161595833D01*
X298625950Y-161595833D02*
X298673569Y-161691071D01*
X298673569Y-161691071D02*
X298673569Y-161881547D01*
X298673569Y-161881547D02*
X298625950Y-161976785D01*
X298625950Y-161976785D02*
X298578330Y-162024404D01*
X298578330Y-162024404D02*
X298483092Y-162072023D01*
X298483092Y-162072023D02*
X298244997Y-162072023D01*
X298244997Y-162072023D02*
X298149759Y-162024404D01*
X298149759Y-162024404D02*
X298102140Y-161976785D01*
X298102140Y-161976785D02*
X298054521Y-161881547D01*
X298054521Y-161881547D02*
X298054521Y-161691071D01*
X298054521Y-161691071D02*
X298102140Y-161595833D01*
X298102140Y-161595833D02*
X298149759Y-161548214D01*
X298149759Y-161548214D02*
X298244997Y-161500595D01*
X297673569Y-162929166D02*
X297673569Y-162738690D01*
X297673569Y-162738690D02*
X297721188Y-162643452D01*
X297721188Y-162643452D02*
X297768807Y-162595833D01*
X297768807Y-162595833D02*
X297911664Y-162500595D01*
X297911664Y-162500595D02*
X298102140Y-162452976D01*
X298102140Y-162452976D02*
X298483092Y-162452976D01*
X298483092Y-162452976D02*
X298578330Y-162500595D01*
X298578330Y-162500595D02*
X298625950Y-162548214D01*
X298625950Y-162548214D02*
X298673569Y-162643452D01*
X298673569Y-162643452D02*
X298673569Y-162833928D01*
X298673569Y-162833928D02*
X298625950Y-162929166D01*
X298625950Y-162929166D02*
X298578330Y-162976785D01*
X298578330Y-162976785D02*
X298483092Y-163024404D01*
X298483092Y-163024404D02*
X298244997Y-163024404D01*
X298244997Y-163024404D02*
X298149759Y-162976785D01*
X298149759Y-162976785D02*
X298102140Y-162929166D01*
X298102140Y-162929166D02*
X298054521Y-162833928D01*
X298054521Y-162833928D02*
X298054521Y-162643452D01*
X298054521Y-162643452D02*
X298102140Y-162548214D01*
X298102140Y-162548214D02*
X298149759Y-162500595D01*
X298149759Y-162500595D02*
X298244997Y-162452976D01*
X72454819Y-136735714D02*
X71454819Y-136735714D01*
X71454819Y-136735714D02*
X71454819Y-136973809D01*
X71454819Y-136973809D02*
X71502438Y-137116666D01*
X71502438Y-137116666D02*
X71597676Y-137211904D01*
X71597676Y-137211904D02*
X71692914Y-137259523D01*
X71692914Y-137259523D02*
X71883390Y-137307142D01*
X71883390Y-137307142D02*
X72026247Y-137307142D01*
X72026247Y-137307142D02*
X72216723Y-137259523D01*
X72216723Y-137259523D02*
X72311961Y-137211904D01*
X72311961Y-137211904D02*
X72407200Y-137116666D01*
X72407200Y-137116666D02*
X72454819Y-136973809D01*
X72454819Y-136973809D02*
X72454819Y-136735714D01*
X71788152Y-138164285D02*
X72454819Y-138164285D01*
X71407200Y-137926190D02*
X72121485Y-137688095D01*
X72121485Y-137688095D02*
X72121485Y-138307142D01*
X71454819Y-139164285D02*
X71454819Y-138688095D01*
X71454819Y-138688095D02*
X71931009Y-138640476D01*
X71931009Y-138640476D02*
X71883390Y-138688095D01*
X71883390Y-138688095D02*
X71835771Y-138783333D01*
X71835771Y-138783333D02*
X71835771Y-139021428D01*
X71835771Y-139021428D02*
X71883390Y-139116666D01*
X71883390Y-139116666D02*
X71931009Y-139164285D01*
X71931009Y-139164285D02*
X72026247Y-139211904D01*
X72026247Y-139211904D02*
X72264342Y-139211904D01*
X72264342Y-139211904D02*
X72359580Y-139164285D01*
X72359580Y-139164285D02*
X72407200Y-139116666D01*
X72407200Y-139116666D02*
X72454819Y-139021428D01*
X72454819Y-139021428D02*
X72454819Y-138783333D01*
X72454819Y-138783333D02*
X72407200Y-138688095D01*
X72407200Y-138688095D02*
X72359580Y-138640476D01*
X355823569Y-79585714D02*
X354823569Y-79585714D01*
X354823569Y-79585714D02*
X354823569Y-79823809D01*
X354823569Y-79823809D02*
X354871188Y-79966666D01*
X354871188Y-79966666D02*
X354966426Y-80061904D01*
X354966426Y-80061904D02*
X355061664Y-80109523D01*
X355061664Y-80109523D02*
X355252140Y-80157142D01*
X355252140Y-80157142D02*
X355394997Y-80157142D01*
X355394997Y-80157142D02*
X355585473Y-80109523D01*
X355585473Y-80109523D02*
X355680711Y-80061904D01*
X355680711Y-80061904D02*
X355775950Y-79966666D01*
X355775950Y-79966666D02*
X355823569Y-79823809D01*
X355823569Y-79823809D02*
X355823569Y-79585714D01*
X355823569Y-81109523D02*
X355823569Y-80538095D01*
X355823569Y-80823809D02*
X354823569Y-80823809D01*
X354823569Y-80823809D02*
X354966426Y-80728571D01*
X354966426Y-80728571D02*
X355061664Y-80633333D01*
X355061664Y-80633333D02*
X355109283Y-80538095D01*
X354823569Y-82014285D02*
X354823569Y-81538095D01*
X354823569Y-81538095D02*
X355299759Y-81490476D01*
X355299759Y-81490476D02*
X355252140Y-81538095D01*
X355252140Y-81538095D02*
X355204521Y-81633333D01*
X355204521Y-81633333D02*
X355204521Y-81871428D01*
X355204521Y-81871428D02*
X355252140Y-81966666D01*
X355252140Y-81966666D02*
X355299759Y-82014285D01*
X355299759Y-82014285D02*
X355394997Y-82061904D01*
X355394997Y-82061904D02*
X355633092Y-82061904D01*
X355633092Y-82061904D02*
X355728330Y-82014285D01*
X355728330Y-82014285D02*
X355775950Y-81966666D01*
X355775950Y-81966666D02*
X355823569Y-81871428D01*
X355823569Y-81871428D02*
X355823569Y-81633333D01*
X355823569Y-81633333D02*
X355775950Y-81538095D01*
X355775950Y-81538095D02*
X355728330Y-81490476D01*
X293911069Y-117685714D02*
X292911069Y-117685714D01*
X292911069Y-117685714D02*
X292911069Y-117923809D01*
X292911069Y-117923809D02*
X292958688Y-118066666D01*
X292958688Y-118066666D02*
X293053926Y-118161904D01*
X293053926Y-118161904D02*
X293149164Y-118209523D01*
X293149164Y-118209523D02*
X293339640Y-118257142D01*
X293339640Y-118257142D02*
X293482497Y-118257142D01*
X293482497Y-118257142D02*
X293672973Y-118209523D01*
X293672973Y-118209523D02*
X293768211Y-118161904D01*
X293768211Y-118161904D02*
X293863450Y-118066666D01*
X293863450Y-118066666D02*
X293911069Y-117923809D01*
X293911069Y-117923809D02*
X293911069Y-117685714D01*
X293244402Y-119114285D02*
X293911069Y-119114285D01*
X292863450Y-118876190D02*
X293577735Y-118638095D01*
X293577735Y-118638095D02*
X293577735Y-119257142D01*
X293006307Y-119590476D02*
X292958688Y-119638095D01*
X292958688Y-119638095D02*
X292911069Y-119733333D01*
X292911069Y-119733333D02*
X292911069Y-119971428D01*
X292911069Y-119971428D02*
X292958688Y-120066666D01*
X292958688Y-120066666D02*
X293006307Y-120114285D01*
X293006307Y-120114285D02*
X293101545Y-120161904D01*
X293101545Y-120161904D02*
X293196783Y-120161904D01*
X293196783Y-120161904D02*
X293339640Y-120114285D01*
X293339640Y-120114285D02*
X293911069Y-119542857D01*
X293911069Y-119542857D02*
X293911069Y-120161904D01*
X141511069Y-136735714D02*
X140511069Y-136735714D01*
X140511069Y-136735714D02*
X140511069Y-136973809D01*
X140511069Y-136973809D02*
X140558688Y-137116666D01*
X140558688Y-137116666D02*
X140653926Y-137211904D01*
X140653926Y-137211904D02*
X140749164Y-137259523D01*
X140749164Y-137259523D02*
X140939640Y-137307142D01*
X140939640Y-137307142D02*
X141082497Y-137307142D01*
X141082497Y-137307142D02*
X141272973Y-137259523D01*
X141272973Y-137259523D02*
X141368211Y-137211904D01*
X141368211Y-137211904D02*
X141463450Y-137116666D01*
X141463450Y-137116666D02*
X141511069Y-136973809D01*
X141511069Y-136973809D02*
X141511069Y-136735714D01*
X140844402Y-138164285D02*
X141511069Y-138164285D01*
X140463450Y-137926190D02*
X141177735Y-137688095D01*
X141177735Y-137688095D02*
X141177735Y-138307142D01*
X140939640Y-138830952D02*
X140892021Y-138735714D01*
X140892021Y-138735714D02*
X140844402Y-138688095D01*
X140844402Y-138688095D02*
X140749164Y-138640476D01*
X140749164Y-138640476D02*
X140701545Y-138640476D01*
X140701545Y-138640476D02*
X140606307Y-138688095D01*
X140606307Y-138688095D02*
X140558688Y-138735714D01*
X140558688Y-138735714D02*
X140511069Y-138830952D01*
X140511069Y-138830952D02*
X140511069Y-139021428D01*
X140511069Y-139021428D02*
X140558688Y-139116666D01*
X140558688Y-139116666D02*
X140606307Y-139164285D01*
X140606307Y-139164285D02*
X140701545Y-139211904D01*
X140701545Y-139211904D02*
X140749164Y-139211904D01*
X140749164Y-139211904D02*
X140844402Y-139164285D01*
X140844402Y-139164285D02*
X140892021Y-139116666D01*
X140892021Y-139116666D02*
X140939640Y-139021428D01*
X140939640Y-139021428D02*
X140939640Y-138830952D01*
X140939640Y-138830952D02*
X140987259Y-138735714D01*
X140987259Y-138735714D02*
X141034878Y-138688095D01*
X141034878Y-138688095D02*
X141130116Y-138640476D01*
X141130116Y-138640476D02*
X141320592Y-138640476D01*
X141320592Y-138640476D02*
X141415830Y-138688095D01*
X141415830Y-138688095D02*
X141463450Y-138735714D01*
X141463450Y-138735714D02*
X141511069Y-138830952D01*
X141511069Y-138830952D02*
X141511069Y-139021428D01*
X141511069Y-139021428D02*
X141463450Y-139116666D01*
X141463450Y-139116666D02*
X141415830Y-139164285D01*
X141415830Y-139164285D02*
X141320592Y-139211904D01*
X141320592Y-139211904D02*
X141130116Y-139211904D01*
X141130116Y-139211904D02*
X141034878Y-139164285D01*
X141034878Y-139164285D02*
X140987259Y-139116666D01*
X140987259Y-139116666D02*
X140939640Y-139021428D01*
X72454819Y-80061905D02*
X71454819Y-80061905D01*
X71454819Y-80061905D02*
X71454819Y-80300000D01*
X71454819Y-80300000D02*
X71502438Y-80442857D01*
X71502438Y-80442857D02*
X71597676Y-80538095D01*
X71597676Y-80538095D02*
X71692914Y-80585714D01*
X71692914Y-80585714D02*
X71883390Y-80633333D01*
X71883390Y-80633333D02*
X72026247Y-80633333D01*
X72026247Y-80633333D02*
X72216723Y-80585714D01*
X72216723Y-80585714D02*
X72311961Y-80538095D01*
X72311961Y-80538095D02*
X72407200Y-80442857D01*
X72407200Y-80442857D02*
X72454819Y-80300000D01*
X72454819Y-80300000D02*
X72454819Y-80061905D01*
X72454819Y-81585714D02*
X72454819Y-81014286D01*
X72454819Y-81300000D02*
X71454819Y-81300000D01*
X71454819Y-81300000D02*
X71597676Y-81204762D01*
X71597676Y-81204762D02*
X71692914Y-81109524D01*
X71692914Y-81109524D02*
X71740533Y-81014286D01*
X336773569Y-160548214D02*
X335773569Y-160548214D01*
X335773569Y-160548214D02*
X335773569Y-160786309D01*
X335773569Y-160786309D02*
X335821188Y-160929166D01*
X335821188Y-160929166D02*
X335916426Y-161024404D01*
X335916426Y-161024404D02*
X336011664Y-161072023D01*
X336011664Y-161072023D02*
X336202140Y-161119642D01*
X336202140Y-161119642D02*
X336344997Y-161119642D01*
X336344997Y-161119642D02*
X336535473Y-161072023D01*
X336535473Y-161072023D02*
X336630711Y-161024404D01*
X336630711Y-161024404D02*
X336725950Y-160929166D01*
X336725950Y-160929166D02*
X336773569Y-160786309D01*
X336773569Y-160786309D02*
X336773569Y-160548214D01*
X335773569Y-161976785D02*
X335773569Y-161786309D01*
X335773569Y-161786309D02*
X335821188Y-161691071D01*
X335821188Y-161691071D02*
X335868807Y-161643452D01*
X335868807Y-161643452D02*
X336011664Y-161548214D01*
X336011664Y-161548214D02*
X336202140Y-161500595D01*
X336202140Y-161500595D02*
X336583092Y-161500595D01*
X336583092Y-161500595D02*
X336678330Y-161548214D01*
X336678330Y-161548214D02*
X336725950Y-161595833D01*
X336725950Y-161595833D02*
X336773569Y-161691071D01*
X336773569Y-161691071D02*
X336773569Y-161881547D01*
X336773569Y-161881547D02*
X336725950Y-161976785D01*
X336725950Y-161976785D02*
X336678330Y-162024404D01*
X336678330Y-162024404D02*
X336583092Y-162072023D01*
X336583092Y-162072023D02*
X336344997Y-162072023D01*
X336344997Y-162072023D02*
X336249759Y-162024404D01*
X336249759Y-162024404D02*
X336202140Y-161976785D01*
X336202140Y-161976785D02*
X336154521Y-161881547D01*
X336154521Y-161881547D02*
X336154521Y-161691071D01*
X336154521Y-161691071D02*
X336202140Y-161595833D01*
X336202140Y-161595833D02*
X336249759Y-161548214D01*
X336249759Y-161548214D02*
X336344997Y-161500595D01*
X336202140Y-162643452D02*
X336154521Y-162548214D01*
X336154521Y-162548214D02*
X336106902Y-162500595D01*
X336106902Y-162500595D02*
X336011664Y-162452976D01*
X336011664Y-162452976D02*
X335964045Y-162452976D01*
X335964045Y-162452976D02*
X335868807Y-162500595D01*
X335868807Y-162500595D02*
X335821188Y-162548214D01*
X335821188Y-162548214D02*
X335773569Y-162643452D01*
X335773569Y-162643452D02*
X335773569Y-162833928D01*
X335773569Y-162833928D02*
X335821188Y-162929166D01*
X335821188Y-162929166D02*
X335868807Y-162976785D01*
X335868807Y-162976785D02*
X335964045Y-163024404D01*
X335964045Y-163024404D02*
X336011664Y-163024404D01*
X336011664Y-163024404D02*
X336106902Y-162976785D01*
X336106902Y-162976785D02*
X336154521Y-162929166D01*
X336154521Y-162929166D02*
X336202140Y-162833928D01*
X336202140Y-162833928D02*
X336202140Y-162643452D01*
X336202140Y-162643452D02*
X336249759Y-162548214D01*
X336249759Y-162548214D02*
X336297378Y-162500595D01*
X336297378Y-162500595D02*
X336392616Y-162452976D01*
X336392616Y-162452976D02*
X336583092Y-162452976D01*
X336583092Y-162452976D02*
X336678330Y-162500595D01*
X336678330Y-162500595D02*
X336725950Y-162548214D01*
X336725950Y-162548214D02*
X336773569Y-162643452D01*
X336773569Y-162643452D02*
X336773569Y-162833928D01*
X336773569Y-162833928D02*
X336725950Y-162929166D01*
X336725950Y-162929166D02*
X336678330Y-162976785D01*
X336678330Y-162976785D02*
X336583092Y-163024404D01*
X336583092Y-163024404D02*
X336392616Y-163024404D01*
X336392616Y-163024404D02*
X336297378Y-162976785D01*
X336297378Y-162976785D02*
X336249759Y-162929166D01*
X336249759Y-162929166D02*
X336202140Y-162833928D01*
X141511069Y-155785714D02*
X140511069Y-155785714D01*
X140511069Y-155785714D02*
X140511069Y-156023809D01*
X140511069Y-156023809D02*
X140558688Y-156166666D01*
X140558688Y-156166666D02*
X140653926Y-156261904D01*
X140653926Y-156261904D02*
X140749164Y-156309523D01*
X140749164Y-156309523D02*
X140939640Y-156357142D01*
X140939640Y-156357142D02*
X141082497Y-156357142D01*
X141082497Y-156357142D02*
X141272973Y-156309523D01*
X141272973Y-156309523D02*
X141368211Y-156261904D01*
X141368211Y-156261904D02*
X141463450Y-156166666D01*
X141463450Y-156166666D02*
X141511069Y-156023809D01*
X141511069Y-156023809D02*
X141511069Y-155785714D01*
X140511069Y-157214285D02*
X140511069Y-157023809D01*
X140511069Y-157023809D02*
X140558688Y-156928571D01*
X140558688Y-156928571D02*
X140606307Y-156880952D01*
X140606307Y-156880952D02*
X140749164Y-156785714D01*
X140749164Y-156785714D02*
X140939640Y-156738095D01*
X140939640Y-156738095D02*
X141320592Y-156738095D01*
X141320592Y-156738095D02*
X141415830Y-156785714D01*
X141415830Y-156785714D02*
X141463450Y-156833333D01*
X141463450Y-156833333D02*
X141511069Y-156928571D01*
X141511069Y-156928571D02*
X141511069Y-157119047D01*
X141511069Y-157119047D02*
X141463450Y-157214285D01*
X141463450Y-157214285D02*
X141415830Y-157261904D01*
X141415830Y-157261904D02*
X141320592Y-157309523D01*
X141320592Y-157309523D02*
X141082497Y-157309523D01*
X141082497Y-157309523D02*
X140987259Y-157261904D01*
X140987259Y-157261904D02*
X140939640Y-157214285D01*
X140939640Y-157214285D02*
X140892021Y-157119047D01*
X140892021Y-157119047D02*
X140892021Y-156928571D01*
X140892021Y-156928571D02*
X140939640Y-156833333D01*
X140939640Y-156833333D02*
X140987259Y-156785714D01*
X140987259Y-156785714D02*
X141082497Y-156738095D01*
X141511069Y-158261904D02*
X141511069Y-157690476D01*
X141511069Y-157976190D02*
X140511069Y-157976190D01*
X140511069Y-157976190D02*
X140653926Y-157880952D01*
X140653926Y-157880952D02*
X140749164Y-157785714D01*
X140749164Y-157785714D02*
X140796783Y-157690476D01*
X141511069Y-98635714D02*
X140511069Y-98635714D01*
X140511069Y-98635714D02*
X140511069Y-98873809D01*
X140511069Y-98873809D02*
X140558688Y-99016666D01*
X140558688Y-99016666D02*
X140653926Y-99111904D01*
X140653926Y-99111904D02*
X140749164Y-99159523D01*
X140749164Y-99159523D02*
X140939640Y-99207142D01*
X140939640Y-99207142D02*
X141082497Y-99207142D01*
X141082497Y-99207142D02*
X141272973Y-99159523D01*
X141272973Y-99159523D02*
X141368211Y-99111904D01*
X141368211Y-99111904D02*
X141463450Y-99016666D01*
X141463450Y-99016666D02*
X141511069Y-98873809D01*
X141511069Y-98873809D02*
X141511069Y-98635714D01*
X141511069Y-100159523D02*
X141511069Y-99588095D01*
X141511069Y-99873809D02*
X140511069Y-99873809D01*
X140511069Y-99873809D02*
X140653926Y-99778571D01*
X140653926Y-99778571D02*
X140749164Y-99683333D01*
X140749164Y-99683333D02*
X140796783Y-99588095D01*
X141511069Y-100635714D02*
X141511069Y-100826190D01*
X141511069Y-100826190D02*
X141463450Y-100921428D01*
X141463450Y-100921428D02*
X141415830Y-100969047D01*
X141415830Y-100969047D02*
X141272973Y-101064285D01*
X141272973Y-101064285D02*
X141082497Y-101111904D01*
X141082497Y-101111904D02*
X140701545Y-101111904D01*
X140701545Y-101111904D02*
X140606307Y-101064285D01*
X140606307Y-101064285D02*
X140558688Y-101016666D01*
X140558688Y-101016666D02*
X140511069Y-100921428D01*
X140511069Y-100921428D02*
X140511069Y-100730952D01*
X140511069Y-100730952D02*
X140558688Y-100635714D01*
X140558688Y-100635714D02*
X140606307Y-100588095D01*
X140606307Y-100588095D02*
X140701545Y-100540476D01*
X140701545Y-100540476D02*
X140939640Y-100540476D01*
X140939640Y-100540476D02*
X141034878Y-100588095D01*
X141034878Y-100588095D02*
X141082497Y-100635714D01*
X141082497Y-100635714D02*
X141130116Y-100730952D01*
X141130116Y-100730952D02*
X141130116Y-100921428D01*
X141130116Y-100921428D02*
X141082497Y-101016666D01*
X141082497Y-101016666D02*
X141034878Y-101064285D01*
X141034878Y-101064285D02*
X140939640Y-101111904D01*
X355823569Y-160548214D02*
X354823569Y-160548214D01*
X354823569Y-160548214D02*
X354823569Y-160786309D01*
X354823569Y-160786309D02*
X354871188Y-160929166D01*
X354871188Y-160929166D02*
X354966426Y-161024404D01*
X354966426Y-161024404D02*
X355061664Y-161072023D01*
X355061664Y-161072023D02*
X355252140Y-161119642D01*
X355252140Y-161119642D02*
X355394997Y-161119642D01*
X355394997Y-161119642D02*
X355585473Y-161072023D01*
X355585473Y-161072023D02*
X355680711Y-161024404D01*
X355680711Y-161024404D02*
X355775950Y-160929166D01*
X355775950Y-160929166D02*
X355823569Y-160786309D01*
X355823569Y-160786309D02*
X355823569Y-160548214D01*
X354823569Y-161976785D02*
X354823569Y-161786309D01*
X354823569Y-161786309D02*
X354871188Y-161691071D01*
X354871188Y-161691071D02*
X354918807Y-161643452D01*
X354918807Y-161643452D02*
X355061664Y-161548214D01*
X355061664Y-161548214D02*
X355252140Y-161500595D01*
X355252140Y-161500595D02*
X355633092Y-161500595D01*
X355633092Y-161500595D02*
X355728330Y-161548214D01*
X355728330Y-161548214D02*
X355775950Y-161595833D01*
X355775950Y-161595833D02*
X355823569Y-161691071D01*
X355823569Y-161691071D02*
X355823569Y-161881547D01*
X355823569Y-161881547D02*
X355775950Y-161976785D01*
X355775950Y-161976785D02*
X355728330Y-162024404D01*
X355728330Y-162024404D02*
X355633092Y-162072023D01*
X355633092Y-162072023D02*
X355394997Y-162072023D01*
X355394997Y-162072023D02*
X355299759Y-162024404D01*
X355299759Y-162024404D02*
X355252140Y-161976785D01*
X355252140Y-161976785D02*
X355204521Y-161881547D01*
X355204521Y-161881547D02*
X355204521Y-161691071D01*
X355204521Y-161691071D02*
X355252140Y-161595833D01*
X355252140Y-161595833D02*
X355299759Y-161548214D01*
X355299759Y-161548214D02*
X355394997Y-161500595D01*
X355823569Y-162548214D02*
X355823569Y-162738690D01*
X355823569Y-162738690D02*
X355775950Y-162833928D01*
X355775950Y-162833928D02*
X355728330Y-162881547D01*
X355728330Y-162881547D02*
X355585473Y-162976785D01*
X355585473Y-162976785D02*
X355394997Y-163024404D01*
X355394997Y-163024404D02*
X355014045Y-163024404D01*
X355014045Y-163024404D02*
X354918807Y-162976785D01*
X354918807Y-162976785D02*
X354871188Y-162929166D01*
X354871188Y-162929166D02*
X354823569Y-162833928D01*
X354823569Y-162833928D02*
X354823569Y-162643452D01*
X354823569Y-162643452D02*
X354871188Y-162548214D01*
X354871188Y-162548214D02*
X354918807Y-162500595D01*
X354918807Y-162500595D02*
X355014045Y-162452976D01*
X355014045Y-162452976D02*
X355252140Y-162452976D01*
X355252140Y-162452976D02*
X355347378Y-162500595D01*
X355347378Y-162500595D02*
X355394997Y-162548214D01*
X355394997Y-162548214D02*
X355442616Y-162643452D01*
X355442616Y-162643452D02*
X355442616Y-162833928D01*
X355442616Y-162833928D02*
X355394997Y-162929166D01*
X355394997Y-162929166D02*
X355347378Y-162976785D01*
X355347378Y-162976785D02*
X355252140Y-163024404D01*
X72454819Y-98635714D02*
X71454819Y-98635714D01*
X71454819Y-98635714D02*
X71454819Y-98873809D01*
X71454819Y-98873809D02*
X71502438Y-99016666D01*
X71502438Y-99016666D02*
X71597676Y-99111904D01*
X71597676Y-99111904D02*
X71692914Y-99159523D01*
X71692914Y-99159523D02*
X71883390Y-99207142D01*
X71883390Y-99207142D02*
X72026247Y-99207142D01*
X72026247Y-99207142D02*
X72216723Y-99159523D01*
X72216723Y-99159523D02*
X72311961Y-99111904D01*
X72311961Y-99111904D02*
X72407200Y-99016666D01*
X72407200Y-99016666D02*
X72454819Y-98873809D01*
X72454819Y-98873809D02*
X72454819Y-98635714D01*
X72454819Y-100159523D02*
X72454819Y-99588095D01*
X72454819Y-99873809D02*
X71454819Y-99873809D01*
X71454819Y-99873809D02*
X71597676Y-99778571D01*
X71597676Y-99778571D02*
X71692914Y-99683333D01*
X71692914Y-99683333D02*
X71740533Y-99588095D01*
X71454819Y-101016666D02*
X71454819Y-100826190D01*
X71454819Y-100826190D02*
X71502438Y-100730952D01*
X71502438Y-100730952D02*
X71550057Y-100683333D01*
X71550057Y-100683333D02*
X71692914Y-100588095D01*
X71692914Y-100588095D02*
X71883390Y-100540476D01*
X71883390Y-100540476D02*
X72264342Y-100540476D01*
X72264342Y-100540476D02*
X72359580Y-100588095D01*
X72359580Y-100588095D02*
X72407200Y-100635714D01*
X72407200Y-100635714D02*
X72454819Y-100730952D01*
X72454819Y-100730952D02*
X72454819Y-100921428D01*
X72454819Y-100921428D02*
X72407200Y-101016666D01*
X72407200Y-101016666D02*
X72359580Y-101064285D01*
X72359580Y-101064285D02*
X72264342Y-101111904D01*
X72264342Y-101111904D02*
X72026247Y-101111904D01*
X72026247Y-101111904D02*
X71931009Y-101064285D01*
X71931009Y-101064285D02*
X71883390Y-101016666D01*
X71883390Y-101016666D02*
X71835771Y-100921428D01*
X71835771Y-100921428D02*
X71835771Y-100730952D01*
X71835771Y-100730952D02*
X71883390Y-100635714D01*
X71883390Y-100635714D02*
X71931009Y-100588095D01*
X71931009Y-100588095D02*
X72026247Y-100540476D01*
X160561069Y-80061905D02*
X159561069Y-80061905D01*
X159561069Y-80061905D02*
X159561069Y-80300000D01*
X159561069Y-80300000D02*
X159608688Y-80442857D01*
X159608688Y-80442857D02*
X159703926Y-80538095D01*
X159703926Y-80538095D02*
X159799164Y-80585714D01*
X159799164Y-80585714D02*
X159989640Y-80633333D01*
X159989640Y-80633333D02*
X160132497Y-80633333D01*
X160132497Y-80633333D02*
X160322973Y-80585714D01*
X160322973Y-80585714D02*
X160418211Y-80538095D01*
X160418211Y-80538095D02*
X160513450Y-80442857D01*
X160513450Y-80442857D02*
X160561069Y-80300000D01*
X160561069Y-80300000D02*
X160561069Y-80061905D01*
X159561069Y-81538095D02*
X159561069Y-81061905D01*
X159561069Y-81061905D02*
X160037259Y-81014286D01*
X160037259Y-81014286D02*
X159989640Y-81061905D01*
X159989640Y-81061905D02*
X159942021Y-81157143D01*
X159942021Y-81157143D02*
X159942021Y-81395238D01*
X159942021Y-81395238D02*
X159989640Y-81490476D01*
X159989640Y-81490476D02*
X160037259Y-81538095D01*
X160037259Y-81538095D02*
X160132497Y-81585714D01*
X160132497Y-81585714D02*
X160370592Y-81585714D01*
X160370592Y-81585714D02*
X160465830Y-81538095D01*
X160465830Y-81538095D02*
X160513450Y-81490476D01*
X160513450Y-81490476D02*
X160561069Y-81395238D01*
X160561069Y-81395238D02*
X160561069Y-81157143D01*
X160561069Y-81157143D02*
X160513450Y-81061905D01*
X160513450Y-81061905D02*
X160465830Y-81014286D01*
X122461069Y-117685714D02*
X121461069Y-117685714D01*
X121461069Y-117685714D02*
X121461069Y-117923809D01*
X121461069Y-117923809D02*
X121508688Y-118066666D01*
X121508688Y-118066666D02*
X121603926Y-118161904D01*
X121603926Y-118161904D02*
X121699164Y-118209523D01*
X121699164Y-118209523D02*
X121889640Y-118257142D01*
X121889640Y-118257142D02*
X122032497Y-118257142D01*
X122032497Y-118257142D02*
X122222973Y-118209523D01*
X122222973Y-118209523D02*
X122318211Y-118161904D01*
X122318211Y-118161904D02*
X122413450Y-118066666D01*
X122413450Y-118066666D02*
X122461069Y-117923809D01*
X122461069Y-117923809D02*
X122461069Y-117685714D01*
X121461069Y-118590476D02*
X121461069Y-119209523D01*
X121461069Y-119209523D02*
X121842021Y-118876190D01*
X121842021Y-118876190D02*
X121842021Y-119019047D01*
X121842021Y-119019047D02*
X121889640Y-119114285D01*
X121889640Y-119114285D02*
X121937259Y-119161904D01*
X121937259Y-119161904D02*
X122032497Y-119209523D01*
X122032497Y-119209523D02*
X122270592Y-119209523D01*
X122270592Y-119209523D02*
X122365830Y-119161904D01*
X122365830Y-119161904D02*
X122413450Y-119114285D01*
X122413450Y-119114285D02*
X122461069Y-119019047D01*
X122461069Y-119019047D02*
X122461069Y-118733333D01*
X122461069Y-118733333D02*
X122413450Y-118638095D01*
X122413450Y-118638095D02*
X122365830Y-118590476D01*
X121461069Y-119542857D02*
X121461069Y-120161904D01*
X121461069Y-120161904D02*
X121842021Y-119828571D01*
X121842021Y-119828571D02*
X121842021Y-119971428D01*
X121842021Y-119971428D02*
X121889640Y-120066666D01*
X121889640Y-120066666D02*
X121937259Y-120114285D01*
X121937259Y-120114285D02*
X122032497Y-120161904D01*
X122032497Y-120161904D02*
X122270592Y-120161904D01*
X122270592Y-120161904D02*
X122365830Y-120114285D01*
X122365830Y-120114285D02*
X122413450Y-120066666D01*
X122413450Y-120066666D02*
X122461069Y-119971428D01*
X122461069Y-119971428D02*
X122461069Y-119685714D01*
X122461069Y-119685714D02*
X122413450Y-119590476D01*
X122413450Y-119590476D02*
X122365830Y-119542857D01*
X217711069Y-80061905D02*
X216711069Y-80061905D01*
X216711069Y-80061905D02*
X216711069Y-80300000D01*
X216711069Y-80300000D02*
X216758688Y-80442857D01*
X216758688Y-80442857D02*
X216853926Y-80538095D01*
X216853926Y-80538095D02*
X216949164Y-80585714D01*
X216949164Y-80585714D02*
X217139640Y-80633333D01*
X217139640Y-80633333D02*
X217282497Y-80633333D01*
X217282497Y-80633333D02*
X217472973Y-80585714D01*
X217472973Y-80585714D02*
X217568211Y-80538095D01*
X217568211Y-80538095D02*
X217663450Y-80442857D01*
X217663450Y-80442857D02*
X217711069Y-80300000D01*
X217711069Y-80300000D02*
X217711069Y-80061905D01*
X217139640Y-81204762D02*
X217092021Y-81109524D01*
X217092021Y-81109524D02*
X217044402Y-81061905D01*
X217044402Y-81061905D02*
X216949164Y-81014286D01*
X216949164Y-81014286D02*
X216901545Y-81014286D01*
X216901545Y-81014286D02*
X216806307Y-81061905D01*
X216806307Y-81061905D02*
X216758688Y-81109524D01*
X216758688Y-81109524D02*
X216711069Y-81204762D01*
X216711069Y-81204762D02*
X216711069Y-81395238D01*
X216711069Y-81395238D02*
X216758688Y-81490476D01*
X216758688Y-81490476D02*
X216806307Y-81538095D01*
X216806307Y-81538095D02*
X216901545Y-81585714D01*
X216901545Y-81585714D02*
X216949164Y-81585714D01*
X216949164Y-81585714D02*
X217044402Y-81538095D01*
X217044402Y-81538095D02*
X217092021Y-81490476D01*
X217092021Y-81490476D02*
X217139640Y-81395238D01*
X217139640Y-81395238D02*
X217139640Y-81204762D01*
X217139640Y-81204762D02*
X217187259Y-81109524D01*
X217187259Y-81109524D02*
X217234878Y-81061905D01*
X217234878Y-81061905D02*
X217330116Y-81014286D01*
X217330116Y-81014286D02*
X217520592Y-81014286D01*
X217520592Y-81014286D02*
X217615830Y-81061905D01*
X217615830Y-81061905D02*
X217663450Y-81109524D01*
X217663450Y-81109524D02*
X217711069Y-81204762D01*
X217711069Y-81204762D02*
X217711069Y-81395238D01*
X217711069Y-81395238D02*
X217663450Y-81490476D01*
X217663450Y-81490476D02*
X217615830Y-81538095D01*
X217615830Y-81538095D02*
X217520592Y-81585714D01*
X217520592Y-81585714D02*
X217330116Y-81585714D01*
X217330116Y-81585714D02*
X217234878Y-81538095D01*
X217234878Y-81538095D02*
X217187259Y-81490476D01*
X217187259Y-81490476D02*
X217139640Y-81395238D01*
X198661069Y-117685714D02*
X197661069Y-117685714D01*
X197661069Y-117685714D02*
X197661069Y-117923809D01*
X197661069Y-117923809D02*
X197708688Y-118066666D01*
X197708688Y-118066666D02*
X197803926Y-118161904D01*
X197803926Y-118161904D02*
X197899164Y-118209523D01*
X197899164Y-118209523D02*
X198089640Y-118257142D01*
X198089640Y-118257142D02*
X198232497Y-118257142D01*
X198232497Y-118257142D02*
X198422973Y-118209523D01*
X198422973Y-118209523D02*
X198518211Y-118161904D01*
X198518211Y-118161904D02*
X198613450Y-118066666D01*
X198613450Y-118066666D02*
X198661069Y-117923809D01*
X198661069Y-117923809D02*
X198661069Y-117685714D01*
X197661069Y-118590476D02*
X197661069Y-119209523D01*
X197661069Y-119209523D02*
X198042021Y-118876190D01*
X198042021Y-118876190D02*
X198042021Y-119019047D01*
X198042021Y-119019047D02*
X198089640Y-119114285D01*
X198089640Y-119114285D02*
X198137259Y-119161904D01*
X198137259Y-119161904D02*
X198232497Y-119209523D01*
X198232497Y-119209523D02*
X198470592Y-119209523D01*
X198470592Y-119209523D02*
X198565830Y-119161904D01*
X198565830Y-119161904D02*
X198613450Y-119114285D01*
X198613450Y-119114285D02*
X198661069Y-119019047D01*
X198661069Y-119019047D02*
X198661069Y-118733333D01*
X198661069Y-118733333D02*
X198613450Y-118638095D01*
X198613450Y-118638095D02*
X198565830Y-118590476D01*
X197661069Y-119542857D02*
X197661069Y-120209523D01*
X197661069Y-120209523D02*
X198661069Y-119780952D01*
X98648569Y-136735714D02*
X97648569Y-136735714D01*
X97648569Y-136735714D02*
X97648569Y-136973809D01*
X97648569Y-136973809D02*
X97696188Y-137116666D01*
X97696188Y-137116666D02*
X97791426Y-137211904D01*
X97791426Y-137211904D02*
X97886664Y-137259523D01*
X97886664Y-137259523D02*
X98077140Y-137307142D01*
X98077140Y-137307142D02*
X98219997Y-137307142D01*
X98219997Y-137307142D02*
X98410473Y-137259523D01*
X98410473Y-137259523D02*
X98505711Y-137211904D01*
X98505711Y-137211904D02*
X98600950Y-137116666D01*
X98600950Y-137116666D02*
X98648569Y-136973809D01*
X98648569Y-136973809D02*
X98648569Y-136735714D01*
X97981902Y-138164285D02*
X98648569Y-138164285D01*
X97600950Y-137926190D02*
X98315235Y-137688095D01*
X98315235Y-137688095D02*
X98315235Y-138307142D01*
X97648569Y-139116666D02*
X97648569Y-138926190D01*
X97648569Y-138926190D02*
X97696188Y-138830952D01*
X97696188Y-138830952D02*
X97743807Y-138783333D01*
X97743807Y-138783333D02*
X97886664Y-138688095D01*
X97886664Y-138688095D02*
X98077140Y-138640476D01*
X98077140Y-138640476D02*
X98458092Y-138640476D01*
X98458092Y-138640476D02*
X98553330Y-138688095D01*
X98553330Y-138688095D02*
X98600950Y-138735714D01*
X98600950Y-138735714D02*
X98648569Y-138830952D01*
X98648569Y-138830952D02*
X98648569Y-139021428D01*
X98648569Y-139021428D02*
X98600950Y-139116666D01*
X98600950Y-139116666D02*
X98553330Y-139164285D01*
X98553330Y-139164285D02*
X98458092Y-139211904D01*
X98458092Y-139211904D02*
X98219997Y-139211904D01*
X98219997Y-139211904D02*
X98124759Y-139164285D01*
X98124759Y-139164285D02*
X98077140Y-139116666D01*
X98077140Y-139116666D02*
X98029521Y-139021428D01*
X98029521Y-139021428D02*
X98029521Y-138830952D01*
X98029521Y-138830952D02*
X98077140Y-138735714D01*
X98077140Y-138735714D02*
X98124759Y-138688095D01*
X98124759Y-138688095D02*
X98219997Y-138640476D01*
X172467319Y-155785714D02*
X171467319Y-155785714D01*
X171467319Y-155785714D02*
X171467319Y-156023809D01*
X171467319Y-156023809D02*
X171514938Y-156166666D01*
X171514938Y-156166666D02*
X171610176Y-156261904D01*
X171610176Y-156261904D02*
X171705414Y-156309523D01*
X171705414Y-156309523D02*
X171895890Y-156357142D01*
X171895890Y-156357142D02*
X172038747Y-156357142D01*
X172038747Y-156357142D02*
X172229223Y-156309523D01*
X172229223Y-156309523D02*
X172324461Y-156261904D01*
X172324461Y-156261904D02*
X172419700Y-156166666D01*
X172419700Y-156166666D02*
X172467319Y-156023809D01*
X172467319Y-156023809D02*
X172467319Y-155785714D01*
X171467319Y-157214285D02*
X171467319Y-157023809D01*
X171467319Y-157023809D02*
X171514938Y-156928571D01*
X171514938Y-156928571D02*
X171562557Y-156880952D01*
X171562557Y-156880952D02*
X171705414Y-156785714D01*
X171705414Y-156785714D02*
X171895890Y-156738095D01*
X171895890Y-156738095D02*
X172276842Y-156738095D01*
X172276842Y-156738095D02*
X172372080Y-156785714D01*
X172372080Y-156785714D02*
X172419700Y-156833333D01*
X172419700Y-156833333D02*
X172467319Y-156928571D01*
X172467319Y-156928571D02*
X172467319Y-157119047D01*
X172467319Y-157119047D02*
X172419700Y-157214285D01*
X172419700Y-157214285D02*
X172372080Y-157261904D01*
X172372080Y-157261904D02*
X172276842Y-157309523D01*
X172276842Y-157309523D02*
X172038747Y-157309523D01*
X172038747Y-157309523D02*
X171943509Y-157261904D01*
X171943509Y-157261904D02*
X171895890Y-157214285D01*
X171895890Y-157214285D02*
X171848271Y-157119047D01*
X171848271Y-157119047D02*
X171848271Y-156928571D01*
X171848271Y-156928571D02*
X171895890Y-156833333D01*
X171895890Y-156833333D02*
X171943509Y-156785714D01*
X171943509Y-156785714D02*
X172038747Y-156738095D01*
X171562557Y-157690476D02*
X171514938Y-157738095D01*
X171514938Y-157738095D02*
X171467319Y-157833333D01*
X171467319Y-157833333D02*
X171467319Y-158071428D01*
X171467319Y-158071428D02*
X171514938Y-158166666D01*
X171514938Y-158166666D02*
X171562557Y-158214285D01*
X171562557Y-158214285D02*
X171657795Y-158261904D01*
X171657795Y-158261904D02*
X171753033Y-158261904D01*
X171753033Y-158261904D02*
X171895890Y-158214285D01*
X171895890Y-158214285D02*
X172467319Y-157642857D01*
X172467319Y-157642857D02*
X172467319Y-158261904D01*
X236761069Y-117685714D02*
X235761069Y-117685714D01*
X235761069Y-117685714D02*
X235761069Y-117923809D01*
X235761069Y-117923809D02*
X235808688Y-118066666D01*
X235808688Y-118066666D02*
X235903926Y-118161904D01*
X235903926Y-118161904D02*
X235999164Y-118209523D01*
X235999164Y-118209523D02*
X236189640Y-118257142D01*
X236189640Y-118257142D02*
X236332497Y-118257142D01*
X236332497Y-118257142D02*
X236522973Y-118209523D01*
X236522973Y-118209523D02*
X236618211Y-118161904D01*
X236618211Y-118161904D02*
X236713450Y-118066666D01*
X236713450Y-118066666D02*
X236761069Y-117923809D01*
X236761069Y-117923809D02*
X236761069Y-117685714D01*
X235761069Y-118590476D02*
X235761069Y-119209523D01*
X235761069Y-119209523D02*
X236142021Y-118876190D01*
X236142021Y-118876190D02*
X236142021Y-119019047D01*
X236142021Y-119019047D02*
X236189640Y-119114285D01*
X236189640Y-119114285D02*
X236237259Y-119161904D01*
X236237259Y-119161904D02*
X236332497Y-119209523D01*
X236332497Y-119209523D02*
X236570592Y-119209523D01*
X236570592Y-119209523D02*
X236665830Y-119161904D01*
X236665830Y-119161904D02*
X236713450Y-119114285D01*
X236713450Y-119114285D02*
X236761069Y-119019047D01*
X236761069Y-119019047D02*
X236761069Y-118733333D01*
X236761069Y-118733333D02*
X236713450Y-118638095D01*
X236713450Y-118638095D02*
X236665830Y-118590476D01*
X236761069Y-119685714D02*
X236761069Y-119876190D01*
X236761069Y-119876190D02*
X236713450Y-119971428D01*
X236713450Y-119971428D02*
X236665830Y-120019047D01*
X236665830Y-120019047D02*
X236522973Y-120114285D01*
X236522973Y-120114285D02*
X236332497Y-120161904D01*
X236332497Y-120161904D02*
X235951545Y-120161904D01*
X235951545Y-120161904D02*
X235856307Y-120114285D01*
X235856307Y-120114285D02*
X235808688Y-120066666D01*
X235808688Y-120066666D02*
X235761069Y-119971428D01*
X235761069Y-119971428D02*
X235761069Y-119780952D01*
X235761069Y-119780952D02*
X235808688Y-119685714D01*
X235808688Y-119685714D02*
X235856307Y-119638095D01*
X235856307Y-119638095D02*
X235951545Y-119590476D01*
X235951545Y-119590476D02*
X236189640Y-119590476D01*
X236189640Y-119590476D02*
X236284878Y-119638095D01*
X236284878Y-119638095D02*
X236332497Y-119685714D01*
X236332497Y-119685714D02*
X236380116Y-119780952D01*
X236380116Y-119780952D02*
X236380116Y-119971428D01*
X236380116Y-119971428D02*
X236332497Y-120066666D01*
X236332497Y-120066666D02*
X236284878Y-120114285D01*
X236284878Y-120114285D02*
X236189640Y-120161904D01*
X198661069Y-80061905D02*
X197661069Y-80061905D01*
X197661069Y-80061905D02*
X197661069Y-80300000D01*
X197661069Y-80300000D02*
X197708688Y-80442857D01*
X197708688Y-80442857D02*
X197803926Y-80538095D01*
X197803926Y-80538095D02*
X197899164Y-80585714D01*
X197899164Y-80585714D02*
X198089640Y-80633333D01*
X198089640Y-80633333D02*
X198232497Y-80633333D01*
X198232497Y-80633333D02*
X198422973Y-80585714D01*
X198422973Y-80585714D02*
X198518211Y-80538095D01*
X198518211Y-80538095D02*
X198613450Y-80442857D01*
X198613450Y-80442857D02*
X198661069Y-80300000D01*
X198661069Y-80300000D02*
X198661069Y-80061905D01*
X197661069Y-80966667D02*
X197661069Y-81633333D01*
X197661069Y-81633333D02*
X198661069Y-81204762D01*
X217711069Y-98635714D02*
X216711069Y-98635714D01*
X216711069Y-98635714D02*
X216711069Y-98873809D01*
X216711069Y-98873809D02*
X216758688Y-99016666D01*
X216758688Y-99016666D02*
X216853926Y-99111904D01*
X216853926Y-99111904D02*
X216949164Y-99159523D01*
X216949164Y-99159523D02*
X217139640Y-99207142D01*
X217139640Y-99207142D02*
X217282497Y-99207142D01*
X217282497Y-99207142D02*
X217472973Y-99159523D01*
X217472973Y-99159523D02*
X217568211Y-99111904D01*
X217568211Y-99111904D02*
X217663450Y-99016666D01*
X217663450Y-99016666D02*
X217711069Y-98873809D01*
X217711069Y-98873809D02*
X217711069Y-98635714D01*
X216806307Y-99588095D02*
X216758688Y-99635714D01*
X216758688Y-99635714D02*
X216711069Y-99730952D01*
X216711069Y-99730952D02*
X216711069Y-99969047D01*
X216711069Y-99969047D02*
X216758688Y-100064285D01*
X216758688Y-100064285D02*
X216806307Y-100111904D01*
X216806307Y-100111904D02*
X216901545Y-100159523D01*
X216901545Y-100159523D02*
X216996783Y-100159523D01*
X216996783Y-100159523D02*
X217139640Y-100111904D01*
X217139640Y-100111904D02*
X217711069Y-99540476D01*
X217711069Y-99540476D02*
X217711069Y-100159523D01*
X216711069Y-100492857D02*
X216711069Y-101111904D01*
X216711069Y-101111904D02*
X217092021Y-100778571D01*
X217092021Y-100778571D02*
X217092021Y-100921428D01*
X217092021Y-100921428D02*
X217139640Y-101016666D01*
X217139640Y-101016666D02*
X217187259Y-101064285D01*
X217187259Y-101064285D02*
X217282497Y-101111904D01*
X217282497Y-101111904D02*
X217520592Y-101111904D01*
X217520592Y-101111904D02*
X217615830Y-101064285D01*
X217615830Y-101064285D02*
X217663450Y-101016666D01*
X217663450Y-101016666D02*
X217711069Y-100921428D01*
X217711069Y-100921428D02*
X217711069Y-100635714D01*
X217711069Y-100635714D02*
X217663450Y-100540476D01*
X217663450Y-100540476D02*
X217615830Y-100492857D01*
X312961069Y-98635714D02*
X311961069Y-98635714D01*
X311961069Y-98635714D02*
X311961069Y-98873809D01*
X311961069Y-98873809D02*
X312008688Y-99016666D01*
X312008688Y-99016666D02*
X312103926Y-99111904D01*
X312103926Y-99111904D02*
X312199164Y-99159523D01*
X312199164Y-99159523D02*
X312389640Y-99207142D01*
X312389640Y-99207142D02*
X312532497Y-99207142D01*
X312532497Y-99207142D02*
X312722973Y-99159523D01*
X312722973Y-99159523D02*
X312818211Y-99111904D01*
X312818211Y-99111904D02*
X312913450Y-99016666D01*
X312913450Y-99016666D02*
X312961069Y-98873809D01*
X312961069Y-98873809D02*
X312961069Y-98635714D01*
X312056307Y-99588095D02*
X312008688Y-99635714D01*
X312008688Y-99635714D02*
X311961069Y-99730952D01*
X311961069Y-99730952D02*
X311961069Y-99969047D01*
X311961069Y-99969047D02*
X312008688Y-100064285D01*
X312008688Y-100064285D02*
X312056307Y-100111904D01*
X312056307Y-100111904D02*
X312151545Y-100159523D01*
X312151545Y-100159523D02*
X312246783Y-100159523D01*
X312246783Y-100159523D02*
X312389640Y-100111904D01*
X312389640Y-100111904D02*
X312961069Y-99540476D01*
X312961069Y-99540476D02*
X312961069Y-100159523D01*
X312389640Y-100730952D02*
X312342021Y-100635714D01*
X312342021Y-100635714D02*
X312294402Y-100588095D01*
X312294402Y-100588095D02*
X312199164Y-100540476D01*
X312199164Y-100540476D02*
X312151545Y-100540476D01*
X312151545Y-100540476D02*
X312056307Y-100588095D01*
X312056307Y-100588095D02*
X312008688Y-100635714D01*
X312008688Y-100635714D02*
X311961069Y-100730952D01*
X311961069Y-100730952D02*
X311961069Y-100921428D01*
X311961069Y-100921428D02*
X312008688Y-101016666D01*
X312008688Y-101016666D02*
X312056307Y-101064285D01*
X312056307Y-101064285D02*
X312151545Y-101111904D01*
X312151545Y-101111904D02*
X312199164Y-101111904D01*
X312199164Y-101111904D02*
X312294402Y-101064285D01*
X312294402Y-101064285D02*
X312342021Y-101016666D01*
X312342021Y-101016666D02*
X312389640Y-100921428D01*
X312389640Y-100921428D02*
X312389640Y-100730952D01*
X312389640Y-100730952D02*
X312437259Y-100635714D01*
X312437259Y-100635714D02*
X312484878Y-100588095D01*
X312484878Y-100588095D02*
X312580116Y-100540476D01*
X312580116Y-100540476D02*
X312770592Y-100540476D01*
X312770592Y-100540476D02*
X312865830Y-100588095D01*
X312865830Y-100588095D02*
X312913450Y-100635714D01*
X312913450Y-100635714D02*
X312961069Y-100730952D01*
X312961069Y-100730952D02*
X312961069Y-100921428D01*
X312961069Y-100921428D02*
X312913450Y-101016666D01*
X312913450Y-101016666D02*
X312865830Y-101064285D01*
X312865830Y-101064285D02*
X312770592Y-101111904D01*
X312770592Y-101111904D02*
X312580116Y-101111904D01*
X312580116Y-101111904D02*
X312484878Y-101064285D01*
X312484878Y-101064285D02*
X312437259Y-101016666D01*
X312437259Y-101016666D02*
X312389640Y-100921428D01*
X312961069Y-79585714D02*
X311961069Y-79585714D01*
X311961069Y-79585714D02*
X311961069Y-79823809D01*
X311961069Y-79823809D02*
X312008688Y-79966666D01*
X312008688Y-79966666D02*
X312103926Y-80061904D01*
X312103926Y-80061904D02*
X312199164Y-80109523D01*
X312199164Y-80109523D02*
X312389640Y-80157142D01*
X312389640Y-80157142D02*
X312532497Y-80157142D01*
X312532497Y-80157142D02*
X312722973Y-80109523D01*
X312722973Y-80109523D02*
X312818211Y-80061904D01*
X312818211Y-80061904D02*
X312913450Y-79966666D01*
X312913450Y-79966666D02*
X312961069Y-79823809D01*
X312961069Y-79823809D02*
X312961069Y-79585714D01*
X312961069Y-81109523D02*
X312961069Y-80538095D01*
X312961069Y-80823809D02*
X311961069Y-80823809D01*
X311961069Y-80823809D02*
X312103926Y-80728571D01*
X312103926Y-80728571D02*
X312199164Y-80633333D01*
X312199164Y-80633333D02*
X312246783Y-80538095D01*
X311961069Y-81442857D02*
X311961069Y-82061904D01*
X311961069Y-82061904D02*
X312342021Y-81728571D01*
X312342021Y-81728571D02*
X312342021Y-81871428D01*
X312342021Y-81871428D02*
X312389640Y-81966666D01*
X312389640Y-81966666D02*
X312437259Y-82014285D01*
X312437259Y-82014285D02*
X312532497Y-82061904D01*
X312532497Y-82061904D02*
X312770592Y-82061904D01*
X312770592Y-82061904D02*
X312865830Y-82014285D01*
X312865830Y-82014285D02*
X312913450Y-81966666D01*
X312913450Y-81966666D02*
X312961069Y-81871428D01*
X312961069Y-81871428D02*
X312961069Y-81585714D01*
X312961069Y-81585714D02*
X312913450Y-81490476D01*
X312913450Y-81490476D02*
X312865830Y-81442857D01*
X179611069Y-117685714D02*
X178611069Y-117685714D01*
X178611069Y-117685714D02*
X178611069Y-117923809D01*
X178611069Y-117923809D02*
X178658688Y-118066666D01*
X178658688Y-118066666D02*
X178753926Y-118161904D01*
X178753926Y-118161904D02*
X178849164Y-118209523D01*
X178849164Y-118209523D02*
X179039640Y-118257142D01*
X179039640Y-118257142D02*
X179182497Y-118257142D01*
X179182497Y-118257142D02*
X179372973Y-118209523D01*
X179372973Y-118209523D02*
X179468211Y-118161904D01*
X179468211Y-118161904D02*
X179563450Y-118066666D01*
X179563450Y-118066666D02*
X179611069Y-117923809D01*
X179611069Y-117923809D02*
X179611069Y-117685714D01*
X178611069Y-118590476D02*
X178611069Y-119209523D01*
X178611069Y-119209523D02*
X178992021Y-118876190D01*
X178992021Y-118876190D02*
X178992021Y-119019047D01*
X178992021Y-119019047D02*
X179039640Y-119114285D01*
X179039640Y-119114285D02*
X179087259Y-119161904D01*
X179087259Y-119161904D02*
X179182497Y-119209523D01*
X179182497Y-119209523D02*
X179420592Y-119209523D01*
X179420592Y-119209523D02*
X179515830Y-119161904D01*
X179515830Y-119161904D02*
X179563450Y-119114285D01*
X179563450Y-119114285D02*
X179611069Y-119019047D01*
X179611069Y-119019047D02*
X179611069Y-118733333D01*
X179611069Y-118733333D02*
X179563450Y-118638095D01*
X179563450Y-118638095D02*
X179515830Y-118590476D01*
X178611069Y-120066666D02*
X178611069Y-119876190D01*
X178611069Y-119876190D02*
X178658688Y-119780952D01*
X178658688Y-119780952D02*
X178706307Y-119733333D01*
X178706307Y-119733333D02*
X178849164Y-119638095D01*
X178849164Y-119638095D02*
X179039640Y-119590476D01*
X179039640Y-119590476D02*
X179420592Y-119590476D01*
X179420592Y-119590476D02*
X179515830Y-119638095D01*
X179515830Y-119638095D02*
X179563450Y-119685714D01*
X179563450Y-119685714D02*
X179611069Y-119780952D01*
X179611069Y-119780952D02*
X179611069Y-119971428D01*
X179611069Y-119971428D02*
X179563450Y-120066666D01*
X179563450Y-120066666D02*
X179515830Y-120114285D01*
X179515830Y-120114285D02*
X179420592Y-120161904D01*
X179420592Y-120161904D02*
X179182497Y-120161904D01*
X179182497Y-120161904D02*
X179087259Y-120114285D01*
X179087259Y-120114285D02*
X179039640Y-120066666D01*
X179039640Y-120066666D02*
X178992021Y-119971428D01*
X178992021Y-119971428D02*
X178992021Y-119780952D01*
X178992021Y-119780952D02*
X179039640Y-119685714D01*
X179039640Y-119685714D02*
X179087259Y-119638095D01*
X179087259Y-119638095D02*
X179182497Y-119590476D01*
D11*
G04 #@! TO.C,D29*
X328556250Y-98200000D02*
X328556250Y-102210000D01*
X328556250Y-102210000D02*
X330556250Y-102210000D01*
X330556250Y-98200000D02*
X330556250Y-102210000D01*
G04 #@! TO.C,D30*
X352368750Y-98200000D02*
X352368750Y-102210000D01*
X352368750Y-102210000D02*
X354368750Y-102210000D01*
X354368750Y-98200000D02*
X354368750Y-102210000D01*
G04 #@! TO.C,D55*
X271406250Y-136300000D02*
X271406250Y-140310000D01*
X271406250Y-140310000D02*
X273406250Y-140310000D01*
X273406250Y-136300000D02*
X273406250Y-140310000D01*
G04 #@! TO.C,D11*
X271406250Y-79150000D02*
X271406250Y-83160000D01*
X271406250Y-83160000D02*
X273406250Y-83160000D01*
X273406250Y-79150000D02*
X273406250Y-83160000D01*
G04 #@! TO.C,D20*
X157106250Y-98200000D02*
X157106250Y-102210000D01*
X157106250Y-102210000D02*
X159106250Y-102210000D01*
X159106250Y-98200000D02*
X159106250Y-102210000D01*
G04 #@! TO.C,D25*
X252356250Y-98200000D02*
X252356250Y-102210000D01*
X252356250Y-102210000D02*
X254356250Y-102210000D01*
X254356250Y-98200000D02*
X254356250Y-102210000D01*
G04 #@! TO.C,D63*
X216637500Y-155350000D02*
X216637500Y-159360000D01*
X216637500Y-159360000D02*
X218637500Y-159360000D01*
X218637500Y-155350000D02*
X218637500Y-159360000D01*
G04 #@! TO.C,D18*
X119006250Y-98200000D02*
X119006250Y-102210000D01*
X119006250Y-102210000D02*
X121006250Y-102210000D01*
X121006250Y-98200000D02*
X121006250Y-102210000D01*
G04 #@! TO.C,D60*
X119006250Y-155350000D02*
X119006250Y-159360000D01*
X119006250Y-159360000D02*
X121006250Y-159360000D01*
X121006250Y-155350000D02*
X121006250Y-159360000D01*
G04 #@! TO.C,D26*
X271406250Y-98200000D02*
X271406250Y-102210000D01*
X271406250Y-102210000D02*
X273406250Y-102210000D01*
X273406250Y-98200000D02*
X273406250Y-102210000D01*
G04 #@! TO.C,D6*
X176156250Y-79150000D02*
X176156250Y-83160000D01*
X176156250Y-83160000D02*
X178156250Y-83160000D01*
X178156250Y-79150000D02*
X178156250Y-83160000D01*
G04 #@! TO.C,D34*
X138056250Y-117250000D02*
X138056250Y-121260000D01*
X138056250Y-121260000D02*
X140056250Y-121260000D01*
X140056250Y-117250000D02*
X140056250Y-121260000D01*
G04 #@! TO.C,D32*
X95193750Y-117250000D02*
X95193750Y-121260000D01*
X95193750Y-121260000D02*
X97193750Y-121260000D01*
X97193750Y-117250000D02*
X97193750Y-121260000D01*
G04 #@! TO.C,D57*
X314268750Y-136300000D02*
X314268750Y-140310000D01*
X314268750Y-140310000D02*
X316268750Y-140310000D01*
X316268750Y-136300000D02*
X316268750Y-140310000D01*
G04 #@! TO.C,D41*
X271406250Y-117250000D02*
X271406250Y-121260000D01*
X271406250Y-121260000D02*
X273406250Y-121260000D01*
X273406250Y-117250000D02*
X273406250Y-121260000D01*
G04 #@! TO.C,D35*
X157106250Y-117250000D02*
X157106250Y-121260000D01*
X157106250Y-121260000D02*
X159106250Y-121260000D01*
X159106250Y-117250000D02*
X159106250Y-121260000D01*
G04 #@! TO.C,D56*
X290456250Y-136300000D02*
X290456250Y-140310000D01*
X290456250Y-140310000D02*
X292456250Y-140310000D01*
X292456250Y-136300000D02*
X292456250Y-140310000D01*
G04 #@! TO.C,D47*
X119006250Y-136300000D02*
X119006250Y-140310000D01*
X119006250Y-140310000D02*
X121006250Y-140310000D01*
X121006250Y-136300000D02*
X121006250Y-140310000D01*
G04 #@! TO.C,D4*
X138056250Y-79150000D02*
X138056250Y-83160000D01*
X138056250Y-83160000D02*
X140056250Y-83160000D01*
X140056250Y-79150000D02*
X140056250Y-83160000D01*
G04 #@! TO.C,D24*
X233306250Y-98200000D02*
X233306250Y-102210000D01*
X233306250Y-102210000D02*
X235306250Y-102210000D01*
X235306250Y-98200000D02*
X235306250Y-102210000D01*
G04 #@! TO.C,D40*
X252356250Y-117250000D02*
X252356250Y-121260000D01*
X252356250Y-121260000D02*
X254356250Y-121260000D01*
X254356250Y-117250000D02*
X254356250Y-121260000D01*
G04 #@! TO.C,D44*
X333318750Y-117250000D02*
X333318750Y-121260000D01*
X333318750Y-121260000D02*
X335318750Y-121260000D01*
X335318750Y-117250000D02*
X335318750Y-121260000D01*
G04 #@! TO.C,D9*
X233306250Y-79150000D02*
X233306250Y-83160000D01*
X233306250Y-83160000D02*
X235306250Y-83160000D01*
X235306250Y-79150000D02*
X235306250Y-83160000D01*
G04 #@! TO.C,D2*
X95193750Y-79150000D02*
X95193750Y-83160000D01*
X95193750Y-83160000D02*
X97193750Y-83160000D01*
X97193750Y-79150000D02*
X97193750Y-83160000D01*
G04 #@! TO.C,D54*
X252356250Y-136300000D02*
X252356250Y-140310000D01*
X252356250Y-140310000D02*
X254356250Y-140310000D01*
X254356250Y-136300000D02*
X254356250Y-140310000D01*
G04 #@! TO.C,D65*
X271406250Y-155350000D02*
X271406250Y-159360000D01*
X271406250Y-159360000D02*
X273406250Y-159360000D01*
X273406250Y-155350000D02*
X273406250Y-159360000D01*
G04 #@! TO.C,D64*
X252356250Y-155350000D02*
X252356250Y-159360000D01*
X252356250Y-159360000D02*
X254356250Y-159360000D01*
X254356250Y-155350000D02*
X254356250Y-159360000D01*
G04 #@! TO.C,D59*
X95193750Y-155350000D02*
X95193750Y-159360000D01*
X95193750Y-159360000D02*
X97193750Y-159360000D01*
X97193750Y-155350000D02*
X97193750Y-159360000D01*
G04 #@! TO.C,D67*
X314268750Y-160112500D02*
X314268750Y-164122500D01*
X314268750Y-164122500D02*
X316268750Y-164122500D01*
X316268750Y-160112500D02*
X316268750Y-164122500D01*
G04 #@! TO.C,D21*
X176156250Y-98200000D02*
X176156250Y-102210000D01*
X176156250Y-102210000D02*
X178156250Y-102210000D01*
X178156250Y-98200000D02*
X178156250Y-102210000D01*
G04 #@! TO.C,D27*
X290456250Y-98200000D02*
X290456250Y-102210000D01*
X290456250Y-102210000D02*
X292456250Y-102210000D01*
X292456250Y-98200000D02*
X292456250Y-102210000D01*
G04 #@! TO.C,D53*
X233306250Y-136300000D02*
X233306250Y-140310000D01*
X233306250Y-140310000D02*
X235306250Y-140310000D01*
X235306250Y-136300000D02*
X235306250Y-140310000D01*
G04 #@! TO.C,D52*
X214256250Y-136300000D02*
X214256250Y-140310000D01*
X214256250Y-140310000D02*
X216256250Y-140310000D01*
X216256250Y-136300000D02*
X216256250Y-140310000D01*
G04 #@! TO.C,D31*
X69000000Y-117250000D02*
X69000000Y-121260000D01*
X69000000Y-121260000D02*
X71000000Y-121260000D01*
X71000000Y-117250000D02*
X71000000Y-121260000D01*
G04 #@! TO.C,D38*
X214256250Y-117250000D02*
X214256250Y-121260000D01*
X214256250Y-121260000D02*
X216256250Y-121260000D01*
X216256250Y-117250000D02*
X216256250Y-121260000D01*
G04 #@! TO.C,D14*
X328556250Y-79150000D02*
X328556250Y-83160000D01*
X328556250Y-83160000D02*
X330556250Y-83160000D01*
X330556250Y-79150000D02*
X330556250Y-83160000D01*
G04 #@! TO.C,D22*
X195206250Y-98200000D02*
X195206250Y-102210000D01*
X195206250Y-102210000D02*
X197206250Y-102210000D01*
X197206250Y-98200000D02*
X197206250Y-102210000D01*
G04 #@! TO.C,D12*
X290456250Y-79150000D02*
X290456250Y-83160000D01*
X290456250Y-83160000D02*
X292456250Y-83160000D01*
X292456250Y-79150000D02*
X292456250Y-83160000D01*
G04 #@! TO.C,D58*
X69000000Y-155350000D02*
X69000000Y-159360000D01*
X69000000Y-159360000D02*
X71000000Y-159360000D01*
X71000000Y-155350000D02*
X71000000Y-159360000D01*
G04 #@! TO.C,D50*
X176156250Y-136300000D02*
X176156250Y-140310000D01*
X176156250Y-140310000D02*
X178156250Y-140310000D01*
X178156250Y-136300000D02*
X178156250Y-140310000D01*
G04 #@! TO.C,D17*
X95193750Y-98200000D02*
X95193750Y-102210000D01*
X95193750Y-102210000D02*
X97193750Y-102210000D01*
X97193750Y-98200000D02*
X97193750Y-102210000D01*
G04 #@! TO.C,D10*
X252356250Y-79150000D02*
X252356250Y-83160000D01*
X252356250Y-83160000D02*
X254356250Y-83160000D01*
X254356250Y-79150000D02*
X254356250Y-83160000D01*
G04 #@! TO.C,D43*
X309506250Y-117250000D02*
X309506250Y-121260000D01*
X309506250Y-121260000D02*
X311506250Y-121260000D01*
X311506250Y-117250000D02*
X311506250Y-121260000D01*
G04 #@! TO.C,D49*
X157106250Y-136300000D02*
X157106250Y-140310000D01*
X157106250Y-140310000D02*
X159106250Y-140310000D01*
X159106250Y-136300000D02*
X159106250Y-140310000D01*
G04 #@! TO.C,D51*
X195206250Y-136300000D02*
X195206250Y-140310000D01*
X195206250Y-140310000D02*
X197206250Y-140310000D01*
X197206250Y-136300000D02*
X197206250Y-140310000D01*
G04 #@! TO.C,D3*
X119006250Y-79150000D02*
X119006250Y-83160000D01*
X119006250Y-83160000D02*
X121006250Y-83160000D01*
X121006250Y-79150000D02*
X121006250Y-83160000D01*
G04 #@! TO.C,D66*
X295218750Y-160112500D02*
X295218750Y-164122500D01*
X295218750Y-164122500D02*
X297218750Y-164122500D01*
X297218750Y-160112500D02*
X297218750Y-164122500D01*
G04 #@! TO.C,D45*
X69000000Y-136300000D02*
X69000000Y-140310000D01*
X69000000Y-140310000D02*
X71000000Y-140310000D01*
X71000000Y-136300000D02*
X71000000Y-140310000D01*
G04 #@! TO.C,D15*
X352368750Y-79150000D02*
X352368750Y-83160000D01*
X352368750Y-83160000D02*
X354368750Y-83160000D01*
X354368750Y-79150000D02*
X354368750Y-83160000D01*
G04 #@! TO.C,D42*
X290456250Y-117250000D02*
X290456250Y-121260000D01*
X290456250Y-121260000D02*
X292456250Y-121260000D01*
X292456250Y-117250000D02*
X292456250Y-121260000D01*
G04 #@! TO.C,D48*
X138056250Y-136300000D02*
X138056250Y-140310000D01*
X138056250Y-140310000D02*
X140056250Y-140310000D01*
X140056250Y-136300000D02*
X140056250Y-140310000D01*
G04 #@! TO.C,D1*
X69000000Y-79150000D02*
X69000000Y-83160000D01*
X69000000Y-83160000D02*
X71000000Y-83160000D01*
X71000000Y-79150000D02*
X71000000Y-83160000D01*
G04 #@! TO.C,D68*
X333318750Y-160112500D02*
X333318750Y-164122500D01*
X333318750Y-164122500D02*
X335318750Y-164122500D01*
X335318750Y-160112500D02*
X335318750Y-164122500D01*
G04 #@! TO.C,D61*
X138056250Y-155350000D02*
X138056250Y-159360000D01*
X138056250Y-159360000D02*
X140056250Y-159360000D01*
X140056250Y-155350000D02*
X140056250Y-159360000D01*
G04 #@! TO.C,D19*
X138056250Y-98200000D02*
X138056250Y-102210000D01*
X138056250Y-102210000D02*
X140056250Y-102210000D01*
X140056250Y-98200000D02*
X140056250Y-102210000D01*
G04 #@! TO.C,D69*
X352368750Y-160112500D02*
X352368750Y-164122500D01*
X352368750Y-164122500D02*
X354368750Y-164122500D01*
X354368750Y-160112500D02*
X354368750Y-164122500D01*
G04 #@! TO.C,D16*
X69000000Y-98200000D02*
X69000000Y-102210000D01*
X69000000Y-102210000D02*
X71000000Y-102210000D01*
X71000000Y-98200000D02*
X71000000Y-102210000D01*
G04 #@! TO.C,D5*
X157106250Y-79150000D02*
X157106250Y-83160000D01*
X157106250Y-83160000D02*
X159106250Y-83160000D01*
X159106250Y-79150000D02*
X159106250Y-83160000D01*
G04 #@! TO.C,D33*
X119006250Y-117250000D02*
X119006250Y-121260000D01*
X119006250Y-121260000D02*
X121006250Y-121260000D01*
X121006250Y-117250000D02*
X121006250Y-121260000D01*
G04 #@! TO.C,D8*
X214256250Y-79150000D02*
X214256250Y-83160000D01*
X214256250Y-83160000D02*
X216256250Y-83160000D01*
X216256250Y-79150000D02*
X216256250Y-83160000D01*
G04 #@! TO.C,D37*
X195206250Y-117250000D02*
X195206250Y-121260000D01*
X195206250Y-121260000D02*
X197206250Y-121260000D01*
X197206250Y-117250000D02*
X197206250Y-121260000D01*
G04 #@! TO.C,D46*
X95193750Y-136300000D02*
X95193750Y-140310000D01*
X95193750Y-140310000D02*
X97193750Y-140310000D01*
X97193750Y-136300000D02*
X97193750Y-140310000D01*
G04 #@! TO.C,D62*
X169012500Y-155350000D02*
X169012500Y-159360000D01*
X169012500Y-159360000D02*
X171012500Y-159360000D01*
X171012500Y-155350000D02*
X171012500Y-159360000D01*
G04 #@! TO.C,D39*
X233306250Y-117250000D02*
X233306250Y-121260000D01*
X233306250Y-121260000D02*
X235306250Y-121260000D01*
X235306250Y-117250000D02*
X235306250Y-121260000D01*
G04 #@! TO.C,D7*
X195206250Y-79150000D02*
X195206250Y-83160000D01*
X195206250Y-83160000D02*
X197206250Y-83160000D01*
X197206250Y-79150000D02*
X197206250Y-83160000D01*
G04 #@! TO.C,D23*
X214256250Y-98200000D02*
X214256250Y-102210000D01*
X214256250Y-102210000D02*
X216256250Y-102210000D01*
X216256250Y-98200000D02*
X216256250Y-102210000D01*
G04 #@! TO.C,D28*
X309506250Y-98200000D02*
X309506250Y-102210000D01*
X309506250Y-102210000D02*
X311506250Y-102210000D01*
X311506250Y-98200000D02*
X311506250Y-102210000D01*
G04 #@! TO.C,D13*
X309506250Y-79150000D02*
X309506250Y-83160000D01*
X309506250Y-83160000D02*
X311506250Y-83160000D01*
X311506250Y-79150000D02*
X311506250Y-83160000D01*
G04 #@! TO.C,D36*
X176156250Y-117250000D02*
X176156250Y-121260000D01*
X176156250Y-121260000D02*
X178156250Y-121260000D01*
X178156250Y-117250000D02*
X178156250Y-121260000D01*
G04 #@! TD*
%LPC*%
D12*
G04 #@! TO.C,MX51*
X183126250Y-136950000D03*
D13*
X188206250Y-136950000D03*
D12*
X193286250Y-136950000D03*
D14*
X184396250Y-134410000D03*
X190746250Y-131870000D03*
G04 #@! TD*
D12*
G04 #@! TO.C,MX44*
X321238750Y-117900000D03*
D13*
X326318750Y-117900000D03*
D12*
X331398750Y-117900000D03*
D14*
X322508750Y-115360000D03*
X328858750Y-112820000D03*
G04 #@! TD*
D12*
G04 #@! TO.C,MX11*
X259326250Y-79800000D03*
D13*
X264406250Y-79800000D03*
D12*
X269486250Y-79800000D03*
D14*
X260596250Y-77260000D03*
X266946250Y-74720000D03*
G04 #@! TD*
D12*
G04 #@! TO.C,MX23*
X202176250Y-98850000D03*
D13*
X207256250Y-98850000D03*
D12*
X212336250Y-98850000D03*
D14*
X203446250Y-96310000D03*
X209796250Y-93770000D03*
G04 #@! TD*
D12*
G04 #@! TO.C,MX32*
X83113750Y-117900000D03*
D13*
X88193750Y-117900000D03*
D12*
X93273750Y-117900000D03*
D14*
X84383750Y-115360000D03*
X90733750Y-112820000D03*
G04 #@! TD*
D12*
G04 #@! TO.C,MX59*
X83113750Y-156000000D03*
D13*
X88193750Y-156000000D03*
D12*
X93273750Y-156000000D03*
D14*
X84383750Y-153460000D03*
X90733750Y-150920000D03*
G04 #@! TD*
D12*
G04 #@! TO.C,MX2*
X83113750Y-79800000D03*
D13*
X88193750Y-79800000D03*
D12*
X93273750Y-79800000D03*
D14*
X84383750Y-77260000D03*
X90733750Y-74720000D03*
G04 #@! TD*
D12*
G04 #@! TO.C,MX1*
X56920000Y-79800000D03*
D13*
X62000000Y-79800000D03*
D12*
X67080000Y-79800000D03*
D14*
X58190000Y-77260000D03*
X64540000Y-74720000D03*
G04 #@! TD*
D12*
G04 #@! TO.C,MX54*
X240276250Y-136950000D03*
D13*
X245356250Y-136950000D03*
D12*
X250436250Y-136950000D03*
D14*
X241546250Y-134410000D03*
X247896250Y-131870000D03*
G04 #@! TD*
D12*
G04 #@! TO.C,MX5*
X145026250Y-79800000D03*
D13*
X150106250Y-79800000D03*
D12*
X155186250Y-79800000D03*
D14*
X146296250Y-77260000D03*
X152646250Y-74720000D03*
G04 #@! TD*
D12*
G04 #@! TO.C,MX45*
X56920000Y-136950000D03*
D13*
X62000000Y-136950000D03*
D12*
X67080000Y-136950000D03*
D14*
X58190000Y-134410000D03*
X64540000Y-131870000D03*
G04 #@! TD*
D13*
G04 #@! TO.C,MX62*
X150074500Y-147745000D03*
D15*
X150074500Y-162985000D03*
D16*
X156932500Y-156000000D03*
D13*
X162012500Y-156000000D03*
D16*
X167092500Y-156000000D03*
D13*
X173950500Y-147745000D03*
D15*
X173950500Y-162985000D03*
D14*
X158202500Y-153460000D03*
X164552500Y-150920000D03*
G04 #@! TD*
D12*
G04 #@! TO.C,MX66*
X283138750Y-160762500D03*
D13*
X288218750Y-160762500D03*
D12*
X293298750Y-160762500D03*
D14*
X284408750Y-158222500D03*
X290758750Y-155682500D03*
G04 #@! TD*
D12*
G04 #@! TO.C,MX50*
X164076250Y-136950000D03*
D13*
X169156250Y-136950000D03*
D12*
X174236250Y-136950000D03*
D14*
X165346250Y-134410000D03*
X171696250Y-131870000D03*
G04 #@! TD*
D12*
G04 #@! TO.C,MX65*
X259326250Y-156000000D03*
D13*
X264406250Y-156000000D03*
D12*
X269486250Y-156000000D03*
D14*
X260596250Y-153460000D03*
X266946250Y-150920000D03*
G04 #@! TD*
D12*
G04 #@! TO.C,MX34*
X125976250Y-117900000D03*
D13*
X131056250Y-117900000D03*
D12*
X136136250Y-117900000D03*
D14*
X127246250Y-115360000D03*
X133596250Y-112820000D03*
G04 #@! TD*
D12*
G04 #@! TO.C,MX12*
X278376250Y-79800000D03*
D13*
X283456250Y-79800000D03*
D12*
X288536250Y-79800000D03*
D14*
X279646250Y-77260000D03*
X285996250Y-74720000D03*
G04 #@! TD*
D12*
G04 #@! TO.C,MX35*
X145026250Y-117900000D03*
D13*
X150106250Y-117900000D03*
D12*
X155186250Y-117900000D03*
D14*
X146296250Y-115360000D03*
X152646250Y-112820000D03*
G04 #@! TD*
D12*
G04 #@! TO.C,MX46*
X83113750Y-136950000D03*
D13*
X88193750Y-136950000D03*
D12*
X93273750Y-136950000D03*
D14*
X84383750Y-134410000D03*
X90733750Y-131870000D03*
G04 #@! TD*
D12*
G04 #@! TO.C,MX9*
X221226250Y-79800000D03*
D13*
X226306250Y-79800000D03*
D12*
X231386250Y-79800000D03*
D14*
X222496250Y-77260000D03*
X228846250Y-74720000D03*
G04 #@! TD*
D12*
G04 #@! TO.C,MX18*
X106926250Y-98850000D03*
D13*
X112006250Y-98850000D03*
D12*
X117086250Y-98850000D03*
D14*
X108196250Y-96310000D03*
X114546250Y-93770000D03*
G04 #@! TD*
D12*
G04 #@! TO.C,MX57*
X302188750Y-136950000D03*
D13*
X307268750Y-136950000D03*
D12*
X312348750Y-136950000D03*
D14*
X303458750Y-134410000D03*
X309808750Y-131870000D03*
G04 #@! TD*
D12*
G04 #@! TO.C,MX43*
X297426250Y-117900000D03*
D13*
X302506250Y-117900000D03*
D12*
X307586250Y-117900000D03*
D14*
X298696250Y-115360000D03*
X305046250Y-112820000D03*
G04 #@! TD*
D12*
G04 #@! TO.C,MX3*
X106926250Y-79800000D03*
D13*
X112006250Y-79800000D03*
D12*
X117086250Y-79800000D03*
D14*
X108196250Y-77260000D03*
X114546250Y-74720000D03*
G04 #@! TD*
D12*
G04 #@! TO.C,MX31*
X56920000Y-117900000D03*
D13*
X62000000Y-117900000D03*
D12*
X67080000Y-117900000D03*
D14*
X58190000Y-115360000D03*
X64540000Y-112820000D03*
G04 #@! TD*
D12*
G04 #@! TO.C,MX37*
X183126250Y-117900000D03*
D13*
X188206250Y-117900000D03*
D12*
X193286250Y-117900000D03*
D14*
X184396250Y-115360000D03*
X190746250Y-112820000D03*
G04 #@! TD*
D12*
G04 #@! TO.C,MX17*
X83113750Y-98850000D03*
D13*
X88193750Y-98850000D03*
D12*
X93273750Y-98850000D03*
D14*
X84383750Y-96310000D03*
X90733750Y-93770000D03*
G04 #@! TD*
D12*
G04 #@! TO.C,MX36*
X164076250Y-117900000D03*
D13*
X169156250Y-117900000D03*
D12*
X174236250Y-117900000D03*
D14*
X165346250Y-115360000D03*
X171696250Y-112820000D03*
G04 #@! TD*
D17*
G04 #@! TO.C,U1*
X220839748Y-27334161D03*
D18*
X218909346Y-29688826D03*
X222338815Y-33118295D03*
D17*
X224693480Y-31187893D03*
D19*
X216572358Y-22882924D03*
X214776307Y-24678975D03*
D20*
X212980256Y-26475027D03*
D19*
X211184204Y-28271078D03*
X209388153Y-30067129D03*
X207592102Y-31863180D03*
X205796051Y-33659231D03*
D20*
X203999999Y-35455283D03*
D19*
X202203949Y-37251334D03*
X200407897Y-39047385D03*
X198611846Y-40843436D03*
X196815795Y-42639488D03*
D20*
X195019744Y-44435539D03*
D19*
X193223692Y-46231590D03*
X191427642Y-48027641D03*
X189631590Y-49823692D03*
X187835539Y-51619743D03*
D20*
X186039488Y-53415795D03*
D19*
X184243437Y-55211845D03*
X182447385Y-57007897D03*
X195019744Y-69580256D03*
X196815795Y-67784205D03*
D20*
X198611846Y-65988153D03*
D19*
X200407898Y-64192102D03*
X202203949Y-62396051D03*
X204000000Y-60600000D03*
X205796051Y-58803949D03*
D20*
X207592103Y-57007897D03*
D19*
X209388153Y-55211846D03*
X211184205Y-53415795D03*
X212980256Y-51619744D03*
X214776307Y-49823692D03*
D20*
X216572358Y-48027641D03*
D19*
X218368410Y-46231590D03*
X220164460Y-44435539D03*
X221960512Y-42639488D03*
X223756563Y-40843437D03*
D20*
X225552614Y-39047385D03*
D19*
X227348665Y-37251335D03*
X229144717Y-35455283D03*
X187100148Y-61335390D03*
D20*
X188896199Y-63131442D03*
D19*
X190692249Y-64927494D03*
G04 #@! TD*
D12*
G04 #@! TO.C,MX47*
X106926250Y-136950000D03*
D13*
X112006250Y-136950000D03*
D12*
X117086250Y-136950000D03*
D14*
X108196250Y-134410000D03*
X114546250Y-131870000D03*
G04 #@! TD*
D12*
G04 #@! TO.C,MX25*
X240276250Y-98850000D03*
D13*
X245356250Y-98850000D03*
D12*
X250436250Y-98850000D03*
D14*
X241546250Y-96310000D03*
X247896250Y-93770000D03*
G04 #@! TD*
D12*
G04 #@! TO.C,MX61*
X125976250Y-156000000D03*
D13*
X131056250Y-156000000D03*
D12*
X136136250Y-156000000D03*
D14*
X127246250Y-153460000D03*
X133596250Y-150920000D03*
G04 #@! TD*
D12*
G04 #@! TO.C,MX26*
X259326250Y-98850000D03*
D13*
X264406250Y-98850000D03*
D12*
X269486250Y-98850000D03*
D14*
X260596250Y-96310000D03*
X266946250Y-93770000D03*
G04 #@! TD*
D12*
G04 #@! TO.C,MX15*
X340288750Y-79800000D03*
D13*
X345368750Y-79800000D03*
D12*
X350448750Y-79800000D03*
D14*
X341558750Y-77260000D03*
X347908750Y-74720000D03*
G04 #@! TD*
D12*
G04 #@! TO.C,MX58*
X56920000Y-156000000D03*
D13*
X62000000Y-156000000D03*
D12*
X67080000Y-156000000D03*
D14*
X58190000Y-153460000D03*
X64540000Y-150920000D03*
G04 #@! TD*
D13*
G04 #@! TO.C,MX63*
X197699500Y-147745000D03*
D15*
X197699500Y-162985000D03*
D16*
X204557500Y-156000000D03*
D13*
X209637500Y-156000000D03*
D16*
X214717500Y-156000000D03*
D13*
X221575500Y-147745000D03*
D15*
X221575500Y-162985000D03*
D14*
X205827500Y-153460000D03*
X212177500Y-150920000D03*
G04 #@! TD*
D12*
G04 #@! TO.C,MX28*
X297426250Y-98850000D03*
D13*
X302506250Y-98850000D03*
D12*
X307586250Y-98850000D03*
D14*
X298696250Y-96310000D03*
X305046250Y-93770000D03*
G04 #@! TD*
D12*
G04 #@! TO.C,MX8*
X202176250Y-79800000D03*
D13*
X207256250Y-79800000D03*
D12*
X212336250Y-79800000D03*
D14*
X203446250Y-77260000D03*
X209796250Y-74720000D03*
G04 #@! TD*
D12*
G04 #@! TO.C,MX10*
X240276250Y-79800000D03*
D13*
X245356250Y-79800000D03*
D12*
X250436250Y-79800000D03*
D14*
X241546250Y-77260000D03*
X247896250Y-74720000D03*
G04 #@! TD*
D12*
G04 #@! TO.C,MX53*
X221226250Y-136950000D03*
D13*
X226306250Y-136950000D03*
D12*
X231386250Y-136950000D03*
D14*
X222496250Y-134410000D03*
X228846250Y-131870000D03*
G04 #@! TD*
D12*
G04 #@! TO.C,MX64*
X240276250Y-156000000D03*
D13*
X245356250Y-156000000D03*
D12*
X250436250Y-156000000D03*
D14*
X241546250Y-153460000D03*
X247896250Y-150920000D03*
G04 #@! TD*
D12*
G04 #@! TO.C,MX49*
X145026250Y-136950000D03*
D13*
X150106250Y-136950000D03*
D12*
X155186250Y-136950000D03*
D14*
X146296250Y-134410000D03*
X152646250Y-131870000D03*
G04 #@! TD*
D12*
G04 #@! TO.C,MX27*
X278376250Y-98850000D03*
D13*
X283456250Y-98850000D03*
D12*
X288536250Y-98850000D03*
D14*
X279646250Y-96310000D03*
X285996250Y-93770000D03*
G04 #@! TD*
D12*
G04 #@! TO.C,MX33*
X106926250Y-117900000D03*
D13*
X112006250Y-117900000D03*
D12*
X117086250Y-117900000D03*
D14*
X108196250Y-115360000D03*
X114546250Y-112820000D03*
G04 #@! TD*
D12*
G04 #@! TO.C,MX21*
X164076250Y-98850000D03*
D13*
X169156250Y-98850000D03*
D12*
X174236250Y-98850000D03*
D14*
X165346250Y-96310000D03*
X171696250Y-93770000D03*
G04 #@! TD*
D12*
G04 #@! TO.C,MX19*
X125976250Y-98850000D03*
D13*
X131056250Y-98850000D03*
D12*
X136136250Y-98850000D03*
D14*
X127246250Y-96310000D03*
X133596250Y-93770000D03*
G04 #@! TD*
D12*
G04 #@! TO.C,MX55*
X259326250Y-136950000D03*
D13*
X264406250Y-136950000D03*
D12*
X269486250Y-136950000D03*
D14*
X260596250Y-134410000D03*
X266946250Y-131870000D03*
G04 #@! TD*
D12*
G04 #@! TO.C,MX29*
X316476250Y-98850000D03*
D13*
X321556250Y-98850000D03*
D12*
X326636250Y-98850000D03*
D14*
X317746250Y-96310000D03*
X324096250Y-93770000D03*
G04 #@! TD*
D12*
G04 #@! TO.C,MX7*
X183126250Y-79800000D03*
D13*
X188206250Y-79800000D03*
D12*
X193286250Y-79800000D03*
D14*
X184396250Y-77260000D03*
X190746250Y-74720000D03*
G04 #@! TD*
D12*
G04 #@! TO.C,MX13*
X297426250Y-79800000D03*
D13*
X302506250Y-79800000D03*
D12*
X307586250Y-79800000D03*
D14*
X298696250Y-77260000D03*
X305046250Y-74720000D03*
G04 #@! TD*
D12*
G04 #@! TO.C,MX4*
X125976250Y-79800000D03*
D13*
X131056250Y-79800000D03*
D12*
X136136250Y-79800000D03*
D14*
X127246250Y-77260000D03*
X133596250Y-74720000D03*
G04 #@! TD*
D12*
G04 #@! TO.C,MX41*
X259326250Y-117900000D03*
D13*
X264406250Y-117900000D03*
D12*
X269486250Y-117900000D03*
D14*
X260596250Y-115360000D03*
X266946250Y-112820000D03*
G04 #@! TD*
D12*
G04 #@! TO.C,MX52*
X202176250Y-136950000D03*
D13*
X207256250Y-136950000D03*
D12*
X212336250Y-136950000D03*
D14*
X203446250Y-134410000D03*
X209796250Y-131870000D03*
G04 #@! TD*
D12*
G04 #@! TO.C,MX16*
X56920000Y-98850000D03*
D13*
X62000000Y-98850000D03*
D12*
X67080000Y-98850000D03*
D14*
X58190000Y-96310000D03*
X64540000Y-93770000D03*
G04 #@! TD*
D12*
G04 #@! TO.C,MX20*
X145026250Y-98850000D03*
D13*
X150106250Y-98850000D03*
D12*
X155186250Y-98850000D03*
D14*
X146296250Y-96310000D03*
X152646250Y-93770000D03*
G04 #@! TD*
D12*
G04 #@! TO.C,MX69*
X340288750Y-160762500D03*
D13*
X345368750Y-160762500D03*
D12*
X350448750Y-160762500D03*
D14*
X341558750Y-158222500D03*
X347908750Y-155682500D03*
G04 #@! TD*
D12*
G04 #@! TO.C,MX6*
X164076250Y-79800000D03*
D13*
X169156250Y-79800000D03*
D12*
X174236250Y-79800000D03*
D14*
X165346250Y-77260000D03*
X171696250Y-74720000D03*
G04 #@! TD*
D12*
G04 #@! TO.C,MX38*
X202176250Y-117900000D03*
D13*
X207256250Y-117900000D03*
D12*
X212336250Y-117900000D03*
D14*
X203446250Y-115360000D03*
X209796250Y-112820000D03*
G04 #@! TD*
D12*
G04 #@! TO.C,MX68*
X321238750Y-160762500D03*
D13*
X326318750Y-160762500D03*
D12*
X331398750Y-160762500D03*
D14*
X322508750Y-158222500D03*
X328858750Y-155682500D03*
G04 #@! TD*
D12*
G04 #@! TO.C,MX42*
X278376250Y-117900000D03*
D13*
X283456250Y-117900000D03*
D12*
X288536250Y-117900000D03*
D14*
X279646250Y-115360000D03*
X285996250Y-112820000D03*
G04 #@! TD*
D12*
G04 #@! TO.C,MX60*
X106926250Y-156000000D03*
D13*
X112006250Y-156000000D03*
D12*
X117086250Y-156000000D03*
D14*
X108196250Y-153460000D03*
X114546250Y-150920000D03*
G04 #@! TD*
D12*
G04 #@! TO.C,MX48*
X125976250Y-136950000D03*
D13*
X131056250Y-136950000D03*
D12*
X136136250Y-136950000D03*
D14*
X127246250Y-134410000D03*
X133596250Y-131870000D03*
G04 #@! TD*
D12*
G04 #@! TO.C,MX67*
X302188750Y-160762500D03*
D13*
X307268750Y-160762500D03*
D12*
X312348750Y-160762500D03*
D14*
X303458750Y-158222500D03*
X309808750Y-155682500D03*
G04 #@! TD*
D12*
G04 #@! TO.C,MX40*
X240276250Y-117900000D03*
D13*
X245356250Y-117900000D03*
D12*
X250436250Y-117900000D03*
D14*
X241546250Y-115360000D03*
X247896250Y-112820000D03*
G04 #@! TD*
D12*
G04 #@! TO.C,MX39*
X221226250Y-117900000D03*
D13*
X226306250Y-117900000D03*
D12*
X231386250Y-117900000D03*
D14*
X222496250Y-115360000D03*
X228846250Y-112820000D03*
G04 #@! TD*
D12*
G04 #@! TO.C,MX30*
X340288750Y-98850000D03*
D13*
X345368750Y-98850000D03*
D12*
X350448750Y-98850000D03*
D14*
X341558750Y-96310000D03*
X347908750Y-93770000D03*
G04 #@! TD*
D12*
G04 #@! TO.C,MX56*
X278376250Y-136950000D03*
D13*
X283456250Y-136950000D03*
D12*
X288536250Y-136950000D03*
D14*
X279646250Y-134410000D03*
X285996250Y-131870000D03*
G04 #@! TD*
D12*
G04 #@! TO.C,MX14*
X316476250Y-79800000D03*
D13*
X321556250Y-79800000D03*
D12*
X326636250Y-79800000D03*
D14*
X317746250Y-77260000D03*
X324096250Y-74720000D03*
G04 #@! TD*
D12*
G04 #@! TO.C,MX24*
X221226250Y-98850000D03*
D13*
X226306250Y-98850000D03*
D12*
X231386250Y-98850000D03*
D14*
X222496250Y-96310000D03*
X228846250Y-93770000D03*
G04 #@! TD*
D12*
G04 #@! TO.C,MX22*
X183126250Y-98850000D03*
D13*
X188206250Y-98850000D03*
D12*
X193286250Y-98850000D03*
D14*
X184396250Y-96310000D03*
X190746250Y-93770000D03*
G04 #@! TD*
D21*
G04 #@! TO.C,D29*
X329556250Y-101500000D03*
X329556250Y-98200000D03*
G04 #@! TD*
G04 #@! TO.C,D30*
X353368750Y-101500000D03*
X353368750Y-98200000D03*
G04 #@! TD*
G04 #@! TO.C,D55*
X272406250Y-139600000D03*
X272406250Y-136300000D03*
G04 #@! TD*
G04 #@! TO.C,D11*
X272406250Y-82450000D03*
X272406250Y-79150000D03*
G04 #@! TD*
G04 #@! TO.C,D20*
X158106250Y-101500000D03*
X158106250Y-98200000D03*
G04 #@! TD*
G04 #@! TO.C,D25*
X253356250Y-101500000D03*
X253356250Y-98200000D03*
G04 #@! TD*
G04 #@! TO.C,D63*
X217637500Y-158650000D03*
X217637500Y-155350000D03*
G04 #@! TD*
G04 #@! TO.C,D18*
X120006250Y-101500000D03*
X120006250Y-98200000D03*
G04 #@! TD*
G04 #@! TO.C,D60*
X120006250Y-158650000D03*
X120006250Y-155350000D03*
G04 #@! TD*
G04 #@! TO.C,D26*
X272406250Y-101500000D03*
X272406250Y-98200000D03*
G04 #@! TD*
G04 #@! TO.C,D6*
X177156250Y-82450000D03*
X177156250Y-79150000D03*
G04 #@! TD*
G04 #@! TO.C,D34*
X139056250Y-120550000D03*
X139056250Y-117250000D03*
G04 #@! TD*
G04 #@! TO.C,D32*
X96193750Y-120550000D03*
X96193750Y-117250000D03*
G04 #@! TD*
G04 #@! TO.C,D57*
X315268750Y-139600000D03*
X315268750Y-136300000D03*
G04 #@! TD*
G04 #@! TO.C,D41*
X272406250Y-120550000D03*
X272406250Y-117250000D03*
G04 #@! TD*
G04 #@! TO.C,D35*
X158106250Y-120550000D03*
X158106250Y-117250000D03*
G04 #@! TD*
G04 #@! TO.C,D56*
X291456250Y-139600000D03*
X291456250Y-136300000D03*
G04 #@! TD*
G04 #@! TO.C,D47*
X120006250Y-139600000D03*
X120006250Y-136300000D03*
G04 #@! TD*
G04 #@! TO.C,D4*
X139056250Y-82450000D03*
X139056250Y-79150000D03*
G04 #@! TD*
G04 #@! TO.C,D24*
X234306250Y-101500000D03*
X234306250Y-98200000D03*
G04 #@! TD*
G04 #@! TO.C,D40*
X253356250Y-120550000D03*
X253356250Y-117250000D03*
G04 #@! TD*
G04 #@! TO.C,D44*
X334318750Y-120550000D03*
X334318750Y-117250000D03*
G04 #@! TD*
G04 #@! TO.C,D9*
X234306250Y-82450000D03*
X234306250Y-79150000D03*
G04 #@! TD*
G04 #@! TO.C,D2*
X96193750Y-82450000D03*
X96193750Y-79150000D03*
G04 #@! TD*
G04 #@! TO.C,D54*
X253356250Y-139600000D03*
X253356250Y-136300000D03*
G04 #@! TD*
G04 #@! TO.C,D65*
X272406250Y-158650000D03*
X272406250Y-155350000D03*
G04 #@! TD*
G04 #@! TO.C,D64*
X253356250Y-158650000D03*
X253356250Y-155350000D03*
G04 #@! TD*
G04 #@! TO.C,D59*
X96193750Y-158650000D03*
X96193750Y-155350000D03*
G04 #@! TD*
G04 #@! TO.C,D67*
X315268750Y-163412500D03*
X315268750Y-160112500D03*
G04 #@! TD*
G04 #@! TO.C,D21*
X177156250Y-101500000D03*
X177156250Y-98200000D03*
G04 #@! TD*
G04 #@! TO.C,D27*
X291456250Y-101500000D03*
X291456250Y-98200000D03*
G04 #@! TD*
G04 #@! TO.C,D53*
X234306250Y-139600000D03*
X234306250Y-136300000D03*
G04 #@! TD*
G04 #@! TO.C,D52*
X215256250Y-139600000D03*
X215256250Y-136300000D03*
G04 #@! TD*
G04 #@! TO.C,D31*
X70000000Y-120550000D03*
X70000000Y-117250000D03*
G04 #@! TD*
G04 #@! TO.C,D38*
X215256250Y-120550000D03*
X215256250Y-117250000D03*
G04 #@! TD*
G04 #@! TO.C,D14*
X329556250Y-82450000D03*
X329556250Y-79150000D03*
G04 #@! TD*
G04 #@! TO.C,D22*
X196206250Y-101500000D03*
X196206250Y-98200000D03*
G04 #@! TD*
G04 #@! TO.C,D12*
X291456250Y-82450000D03*
X291456250Y-79150000D03*
G04 #@! TD*
G04 #@! TO.C,D58*
X70000000Y-158650000D03*
X70000000Y-155350000D03*
G04 #@! TD*
G04 #@! TO.C,D50*
X177156250Y-139600000D03*
X177156250Y-136300000D03*
G04 #@! TD*
G04 #@! TO.C,D17*
X96193750Y-101500000D03*
X96193750Y-98200000D03*
G04 #@! TD*
G04 #@! TO.C,D10*
X253356250Y-82450000D03*
X253356250Y-79150000D03*
G04 #@! TD*
G04 #@! TO.C,D43*
X310506250Y-120550000D03*
X310506250Y-117250000D03*
G04 #@! TD*
G04 #@! TO.C,D49*
X158106250Y-139600000D03*
X158106250Y-136300000D03*
G04 #@! TD*
G04 #@! TO.C,D51*
X196206250Y-139600000D03*
X196206250Y-136300000D03*
G04 #@! TD*
G04 #@! TO.C,D3*
X120006250Y-82450000D03*
X120006250Y-79150000D03*
G04 #@! TD*
G04 #@! TO.C,D66*
X296218750Y-163412500D03*
X296218750Y-160112500D03*
G04 #@! TD*
G04 #@! TO.C,D45*
X70000000Y-139600000D03*
X70000000Y-136300000D03*
G04 #@! TD*
G04 #@! TO.C,D15*
X353368750Y-82450000D03*
X353368750Y-79150000D03*
G04 #@! TD*
G04 #@! TO.C,D42*
X291456250Y-120550000D03*
X291456250Y-117250000D03*
G04 #@! TD*
G04 #@! TO.C,D48*
X139056250Y-139600000D03*
X139056250Y-136300000D03*
G04 #@! TD*
G04 #@! TO.C,D1*
X70000000Y-82450000D03*
X70000000Y-79150000D03*
G04 #@! TD*
G04 #@! TO.C,D68*
X334318750Y-163412500D03*
X334318750Y-160112500D03*
G04 #@! TD*
G04 #@! TO.C,D61*
X139056250Y-158650000D03*
X139056250Y-155350000D03*
G04 #@! TD*
G04 #@! TO.C,D19*
X139056250Y-101500000D03*
X139056250Y-98200000D03*
G04 #@! TD*
G04 #@! TO.C,D69*
X353368750Y-163412500D03*
X353368750Y-160112500D03*
G04 #@! TD*
G04 #@! TO.C,D16*
X70000000Y-101500000D03*
X70000000Y-98200000D03*
G04 #@! TD*
G04 #@! TO.C,D5*
X158106250Y-82450000D03*
X158106250Y-79150000D03*
G04 #@! TD*
G04 #@! TO.C,D33*
X120006250Y-120550000D03*
X120006250Y-117250000D03*
G04 #@! TD*
G04 #@! TO.C,D8*
X215256250Y-82450000D03*
X215256250Y-79150000D03*
G04 #@! TD*
G04 #@! TO.C,D37*
X196206250Y-120550000D03*
X196206250Y-117250000D03*
G04 #@! TD*
G04 #@! TO.C,D46*
X96193750Y-139600000D03*
X96193750Y-136300000D03*
G04 #@! TD*
G04 #@! TO.C,D62*
X170012500Y-158650000D03*
X170012500Y-155350000D03*
G04 #@! TD*
G04 #@! TO.C,D39*
X234306250Y-120550000D03*
X234306250Y-117250000D03*
G04 #@! TD*
G04 #@! TO.C,D7*
X196206250Y-82450000D03*
X196206250Y-79150000D03*
G04 #@! TD*
G04 #@! TO.C,D23*
X215256250Y-101500000D03*
X215256250Y-98200000D03*
G04 #@! TD*
G04 #@! TO.C,D28*
X310506250Y-101500000D03*
X310506250Y-98200000D03*
G04 #@! TD*
G04 #@! TO.C,D13*
X310506250Y-82450000D03*
X310506250Y-79150000D03*
G04 #@! TD*
G04 #@! TO.C,D36*
X177156250Y-120550000D03*
X177156250Y-117250000D03*
G04 #@! TD*
%LPD*%
M02*
