G04 #@! TF.GenerationSoftware,KiCad,Pcbnew,8.0.4*
G04 #@! TF.CreationDate,2024-11-10T19:34:56-05:00*
G04 #@! TF.ProjectId,small-fry-pcb,736d616c-6c2d-4667-9279-2d7063622e6b,1.0*
G04 #@! TF.SameCoordinates,Original*
G04 #@! TF.FileFunction,Legend,Top*
G04 #@! TF.FilePolarity,Positive*
%FSLAX46Y46*%
G04 Gerber Fmt 4.6, Leading zero omitted, Abs format (unit mm)*
G04 Created by KiCad (PCBNEW 8.0.4) date 2024-11-10 19:34:56*
%MOMM*%
%LPD*%
G01*
G04 APERTURE LIST*
G04 Aperture macros list*
%AMHorizOval*
0 Thick line with rounded ends*
0 $1 width*
0 $2 $3 position (X,Y) of the first rounded end (center of the circle)*
0 $4 $5 position (X,Y) of the second rounded end (center of the circle)*
0 Add line between two ends*
20,1,$1,$2,$3,$4,$5,0*
0 Add two circle primitives to create the rounded ends*
1,1,$1,$2,$3*
1,1,$1,$4,$5*%
%AMRotRect*
0 Rectangle, with rotation*
0 The origin of the aperture is its center*
0 $1 length*
0 $2 width*
0 $3 Rotation angle, in degrees counterclockwise*
0 Add horizontal line*
21,1,$1,$2,0,0,$3*%
G04 Aperture macros list end*
%ADD10C,0.280000*%
%ADD11C,0.150000*%
%ADD12C,0.120000*%
%ADD13C,0.000000*%
%ADD14C,1.750000*%
%ADD15C,3.987800*%
%ADD16C,3.048000*%
%ADD17C,1.701800*%
%ADD18HorizOval,1.800000X0.000000X0.000000X0.000000X0.000000X0*%
%ADD19HorizOval,1.500000X0.000000X0.000000X0.000000X0.000000X0*%
%ADD20HorizOval,1.700000X0.000000X0.000000X0.000000X0.000000X0*%
%ADD21RotRect,3.500000X1.700000X315.000000*%
%ADD22RotRect,1.700000X1.700000X315.000000*%
%ADD23RotRect,3.500000X1.700000X45.000000*%
G04 APERTURE END LIST*
D10*
G36*
X173834969Y-157319211D02*
G01*
X173456783Y-157319211D01*
X173456783Y-157519246D01*
X173634934Y-157519246D01*
X173634934Y-158209965D01*
X173456783Y-158209965D01*
X173456783Y-158410000D01*
X174191270Y-158410000D01*
X174191270Y-158209965D01*
X173834969Y-158209965D01*
X173834969Y-157697397D01*
X174013120Y-157697397D01*
X174013120Y-157497362D01*
X173834969Y-157497362D01*
X173834969Y-157319211D01*
G37*
G36*
X174369421Y-157319211D02*
G01*
X173991235Y-157319211D01*
X173991235Y-157519246D01*
X174369421Y-157519246D01*
X174369421Y-157319211D01*
G37*
G36*
X174882331Y-157319211D02*
G01*
X174882331Y-157519246D01*
X175438667Y-157519246D01*
X175438667Y-157319211D01*
X174882331Y-157319211D01*
G37*
G36*
X174704180Y-157497362D02*
G01*
X174704180Y-158231849D01*
X174904215Y-158231849D01*
X174904215Y-157875547D01*
X175616818Y-157875547D01*
X175616818Y-157497362D01*
X175416783Y-157497362D01*
X175416783Y-157675512D01*
X174904215Y-157675512D01*
X174904215Y-157497362D01*
X174704180Y-157497362D01*
G37*
G36*
X174882331Y-158209965D02*
G01*
X174882331Y-158410000D01*
X175438667Y-158410000D01*
X175438667Y-158209965D01*
X174882331Y-158209965D01*
G37*
G36*
X175416783Y-158031814D02*
G01*
X175416783Y-158231849D01*
X175616818Y-158231849D01*
X175616818Y-158031814D01*
X175416783Y-158031814D01*
G37*
G36*
X175951577Y-157319211D02*
G01*
X175951577Y-157875547D01*
X176151612Y-157875547D01*
X176151612Y-157319211D01*
X175951577Y-157319211D01*
G37*
G36*
X176664180Y-157319211D02*
G01*
X176664180Y-157875547D01*
X176864215Y-157875547D01*
X176864215Y-157319211D01*
X176664180Y-157319211D01*
G37*
G36*
X176329763Y-158231849D02*
G01*
X176329763Y-157853663D01*
X176129728Y-157853663D01*
X176129728Y-158231849D01*
X176329763Y-158231849D01*
G37*
G36*
X176307879Y-158209965D02*
G01*
X176307879Y-158410000D01*
X176507914Y-158410000D01*
X176507914Y-158209965D01*
X176307879Y-158209965D01*
G37*
G36*
X176486030Y-157853663D02*
G01*
X176486030Y-158231849D01*
X176686064Y-158231849D01*
X176686064Y-157853663D01*
X176486030Y-157853663D01*
G37*
G36*
X177555276Y-158031814D02*
G01*
X177555276Y-158410000D01*
X177755311Y-158410000D01*
X177755311Y-158031814D01*
X177555276Y-158031814D01*
G37*
G36*
X179693769Y-158031814D02*
G01*
X179693769Y-158410000D01*
X180606406Y-158410000D01*
X180606406Y-158209965D01*
X179893803Y-158209965D01*
X179893803Y-158031814D01*
X179693769Y-158031814D01*
G37*
G36*
X180428256Y-157162944D02*
G01*
X180428256Y-156962909D01*
X179871919Y-156962909D01*
X179871919Y-157162944D01*
X180428256Y-157162944D01*
G37*
G36*
X180406372Y-157141060D02*
G01*
X180406372Y-157519246D01*
X180606406Y-157519246D01*
X180606406Y-157141060D01*
X180406372Y-157141060D01*
G37*
G36*
X179871919Y-157853663D02*
G01*
X179871919Y-158053698D01*
X180071954Y-158053698D01*
X180071954Y-157853663D01*
X179871919Y-157853663D01*
G37*
G36*
X179693769Y-157141060D02*
G01*
X179693769Y-157341095D01*
X179893803Y-157341095D01*
X179893803Y-157141060D01*
X179693769Y-157141060D01*
G37*
G36*
X180228221Y-157497362D02*
G01*
X180228221Y-157697397D01*
X180428256Y-157697397D01*
X180428256Y-157497362D01*
X180228221Y-157497362D01*
G37*
G36*
X180050070Y-157675512D02*
G01*
X180050070Y-157875547D01*
X180250105Y-157875547D01*
X180250105Y-157675512D01*
X180050070Y-157675512D01*
G37*
G36*
X182188563Y-156962909D02*
G01*
X182188563Y-158410000D01*
X182388598Y-158410000D01*
X182388598Y-158231849D01*
X182566748Y-158231849D01*
X182566748Y-158031814D01*
X182388598Y-158031814D01*
X182388598Y-157697397D01*
X182566748Y-157697397D01*
X182566748Y-157497362D01*
X182388598Y-157497362D01*
X182388598Y-156962909D01*
X182188563Y-156962909D01*
G37*
G36*
X182544864Y-158209965D02*
G01*
X182544864Y-158410000D01*
X182923050Y-158410000D01*
X182923050Y-158209965D01*
X182544864Y-158209965D01*
G37*
G36*
X182901166Y-157497362D02*
G01*
X182901166Y-158231849D01*
X183101201Y-158231849D01*
X183101201Y-157497362D01*
X182901166Y-157497362D01*
G37*
G36*
X182544864Y-157319211D02*
G01*
X182544864Y-157519246D01*
X182923050Y-157519246D01*
X182923050Y-157319211D01*
X182544864Y-157319211D01*
G37*
G36*
X183435960Y-157319211D02*
G01*
X183435960Y-157875547D01*
X183635995Y-157875547D01*
X183635995Y-157319211D01*
X183435960Y-157319211D01*
G37*
G36*
X184148563Y-157319211D02*
G01*
X184148563Y-157875547D01*
X184348598Y-157875547D01*
X184348598Y-157319211D01*
X184148563Y-157319211D01*
G37*
G36*
X183792261Y-158209965D02*
G01*
X183792261Y-158588492D01*
X183992296Y-158588492D01*
X183992296Y-158209965D01*
X183792261Y-158209965D01*
G37*
G36*
X183814145Y-158566608D02*
G01*
X183435960Y-158566608D01*
X183435960Y-158766643D01*
X183814145Y-158766643D01*
X183814145Y-158566608D01*
G37*
G36*
X183970412Y-157853663D02*
G01*
X183970412Y-158231849D01*
X184170447Y-158231849D01*
X184170447Y-157853663D01*
X183970412Y-157853663D01*
G37*
G36*
X183614111Y-157853663D02*
G01*
X183614111Y-158231849D01*
X183814145Y-158231849D01*
X183814145Y-157853663D01*
X183614111Y-157853663D01*
G37*
G36*
X185930754Y-157853663D02*
G01*
X185930754Y-158231849D01*
X186130789Y-158231849D01*
X186130789Y-157853663D01*
X185930754Y-157853663D01*
G37*
G36*
X186108905Y-158209965D02*
G01*
X186108905Y-158410000D01*
X186487090Y-158410000D01*
X186487090Y-158209965D01*
X186108905Y-158209965D01*
G37*
G36*
X186465206Y-158031814D02*
G01*
X186465206Y-158231849D01*
X186643357Y-158231849D01*
X186643357Y-158410000D01*
X186843392Y-158410000D01*
X186843392Y-157497362D01*
X186643357Y-157497362D01*
X186643357Y-157675512D01*
X186108905Y-157675512D01*
X186108905Y-157875547D01*
X186643357Y-157875547D01*
X186643357Y-158031814D01*
X186465206Y-158031814D01*
G37*
G36*
X186108905Y-157319211D02*
G01*
X186108905Y-157519246D01*
X186665241Y-157519246D01*
X186665241Y-157319211D01*
X186108905Y-157319211D01*
G37*
G36*
X187178151Y-157319211D02*
G01*
X187178151Y-158410000D01*
X187378186Y-158410000D01*
X187378186Y-157697397D01*
X187556337Y-157697397D01*
X187556337Y-157497362D01*
X187378186Y-157497362D01*
X187378186Y-157319211D01*
X187178151Y-157319211D01*
G37*
G36*
X187534452Y-157319211D02*
G01*
X187534452Y-157519246D01*
X187912638Y-157519246D01*
X187912638Y-157319211D01*
X187534452Y-157319211D01*
G37*
G36*
X187890754Y-157497362D02*
G01*
X187890754Y-158410000D01*
X188090789Y-158410000D01*
X188090789Y-157497362D01*
X187890754Y-157497362D01*
G37*
G36*
X188603699Y-157319211D02*
G01*
X188603699Y-157519246D01*
X189160035Y-157519246D01*
X189160035Y-157319211D01*
X188603699Y-157319211D01*
G37*
G36*
X188425548Y-157497362D02*
G01*
X188425548Y-158231849D01*
X188625583Y-158231849D01*
X188625583Y-157497362D01*
X188425548Y-157497362D01*
G37*
G36*
X188603699Y-158209965D02*
G01*
X188603699Y-158410000D01*
X189160035Y-158410000D01*
X189160035Y-158209965D01*
X188603699Y-158209965D01*
G37*
G36*
X189138151Y-157497362D02*
G01*
X189138151Y-157697397D01*
X189338186Y-157697397D01*
X189338186Y-157497362D01*
X189138151Y-157497362D01*
G37*
G36*
X189138151Y-158031814D02*
G01*
X189138151Y-158231849D01*
X189338186Y-158231849D01*
X189338186Y-158031814D01*
X189138151Y-158031814D01*
G37*
G36*
X189672945Y-156962909D02*
G01*
X189672945Y-158410000D01*
X189872980Y-158410000D01*
X189872980Y-157697397D01*
X190051131Y-157697397D01*
X190051131Y-157497362D01*
X189872980Y-157497362D01*
X189872980Y-156962909D01*
X189672945Y-156962909D01*
G37*
G36*
X190385548Y-157497362D02*
G01*
X190385548Y-158410000D01*
X190585583Y-158410000D01*
X190585583Y-157497362D01*
X190385548Y-157497362D01*
G37*
G36*
X190029247Y-157319211D02*
G01*
X190029247Y-157519246D01*
X190407432Y-157519246D01*
X190407432Y-157319211D01*
X190029247Y-157319211D01*
G37*
G36*
X191098493Y-157319211D02*
G01*
X191098493Y-157519246D01*
X191654829Y-157519246D01*
X191654829Y-157319211D01*
X191098493Y-157319211D01*
G37*
G36*
X191632945Y-157497362D02*
G01*
X191632945Y-158231849D01*
X191832980Y-158231849D01*
X191832980Y-157497362D01*
X191632945Y-157497362D01*
G37*
G36*
X190920342Y-157497362D02*
G01*
X190920342Y-158231849D01*
X191120377Y-158231849D01*
X191120377Y-157497362D01*
X190920342Y-157497362D01*
G37*
G36*
X191098493Y-158209965D02*
G01*
X191098493Y-158410000D01*
X191654829Y-158410000D01*
X191654829Y-158209965D01*
X191098493Y-158209965D01*
G37*
G36*
X192167739Y-157319211D02*
G01*
X192167739Y-157875547D01*
X192367774Y-157875547D01*
X192367774Y-157319211D01*
X192167739Y-157319211D01*
G37*
G36*
X192880342Y-157319211D02*
G01*
X192880342Y-157875547D01*
X193080377Y-157875547D01*
X193080377Y-157319211D01*
X192880342Y-157319211D01*
G37*
G36*
X192545925Y-158231849D02*
G01*
X192545925Y-157853663D01*
X192345890Y-157853663D01*
X192345890Y-158231849D01*
X192545925Y-158231849D01*
G37*
G36*
X192524041Y-158209965D02*
G01*
X192524041Y-158410000D01*
X192724076Y-158410000D01*
X192724076Y-158209965D01*
X192524041Y-158209965D01*
G37*
G36*
X192702191Y-157853663D02*
G01*
X192702191Y-158231849D01*
X192902226Y-158231849D01*
X192902226Y-157853663D01*
X192702191Y-157853663D01*
G37*
G36*
X193771438Y-156962909D02*
G01*
X193771438Y-157162944D01*
X193971473Y-157162944D01*
X193971473Y-156962909D01*
X193771438Y-156962909D01*
G37*
G36*
X193771438Y-157519246D02*
G01*
X193771438Y-158209965D01*
X193415136Y-158209965D01*
X193415136Y-158410000D01*
X194327774Y-158410000D01*
X194327774Y-158209965D01*
X193971473Y-158209965D01*
X193971473Y-157319211D01*
X193415136Y-157319211D01*
X193415136Y-157519246D01*
X193771438Y-157519246D01*
G37*
G36*
X194840684Y-157319211D02*
G01*
X194840684Y-157519246D01*
X195397020Y-157519246D01*
X195397020Y-157319211D01*
X194840684Y-157319211D01*
G37*
G36*
X194662533Y-157497362D02*
G01*
X194662533Y-158231849D01*
X194862568Y-158231849D01*
X194862568Y-157875547D01*
X195575171Y-157875547D01*
X195575171Y-157497362D01*
X195375136Y-157497362D01*
X195375136Y-157675512D01*
X194862568Y-157675512D01*
X194862568Y-157497362D01*
X194662533Y-157497362D01*
G37*
G36*
X194840684Y-158209965D02*
G01*
X194840684Y-158410000D01*
X195397020Y-158410000D01*
X195397020Y-158209965D01*
X194840684Y-158209965D01*
G37*
G36*
X195375136Y-158031814D02*
G01*
X195375136Y-158231849D01*
X195575171Y-158231849D01*
X195575171Y-158031814D01*
X195375136Y-158031814D01*
G37*
G36*
X197157328Y-157319211D02*
G01*
X197157328Y-158231849D01*
X197357362Y-158231849D01*
X197357362Y-157319211D01*
X197157328Y-157319211D01*
G37*
G36*
X197335478Y-158209965D02*
G01*
X197335478Y-158410000D01*
X197713664Y-158410000D01*
X197713664Y-158209965D01*
X197335478Y-158209965D01*
G37*
G36*
X197869930Y-157319211D02*
G01*
X197869930Y-158031814D01*
X197691780Y-158031814D01*
X197691780Y-158231849D01*
X197869930Y-158231849D01*
X197869930Y-158410000D01*
X198069965Y-158410000D01*
X198069965Y-157319211D01*
X197869930Y-157319211D01*
G37*
G36*
X198404725Y-157319211D02*
G01*
X198404725Y-158231849D01*
X198604760Y-158231849D01*
X198604760Y-157319211D01*
X198404725Y-157319211D01*
G37*
G36*
X199117328Y-157319211D02*
G01*
X199117328Y-158209965D01*
X198939177Y-158209965D01*
X198939177Y-158410000D01*
X199317362Y-158410000D01*
X199317362Y-157319211D01*
X199117328Y-157319211D01*
G37*
G36*
X198961061Y-158231849D02*
G01*
X198961061Y-157319211D01*
X198761026Y-157319211D01*
X198761026Y-158231849D01*
X198961061Y-158231849D01*
G37*
G36*
X198582875Y-158209965D02*
G01*
X198582875Y-158410000D01*
X198782910Y-158410000D01*
X198782910Y-158209965D01*
X198582875Y-158209965D01*
G37*
G36*
X199652122Y-157319211D02*
G01*
X199652122Y-158231849D01*
X199852157Y-158231849D01*
X199852157Y-157319211D01*
X199652122Y-157319211D01*
G37*
G36*
X199830272Y-158209965D02*
G01*
X199830272Y-158410000D01*
X200208458Y-158410000D01*
X200208458Y-158209965D01*
X199830272Y-158209965D01*
G37*
G36*
X200364725Y-157319211D02*
G01*
X200364725Y-158031814D01*
X200186574Y-158031814D01*
X200186574Y-158231849D01*
X200364725Y-158231849D01*
X200364725Y-158410000D01*
X200564760Y-158410000D01*
X200564760Y-157319211D01*
X200364725Y-157319211D01*
G37*
G36*
X174704180Y-159314909D02*
G01*
X174704180Y-160762000D01*
X174904215Y-160762000D01*
X174904215Y-160049397D01*
X175082366Y-160049397D01*
X175082366Y-159849362D01*
X174904215Y-159849362D01*
X174904215Y-159314909D01*
X174704180Y-159314909D01*
G37*
G36*
X175416783Y-159849362D02*
G01*
X175416783Y-160762000D01*
X175616818Y-160762000D01*
X175616818Y-159849362D01*
X175416783Y-159849362D01*
G37*
G36*
X175060482Y-159671211D02*
G01*
X175060482Y-159871246D01*
X175438667Y-159871246D01*
X175438667Y-159671211D01*
X175060482Y-159671211D01*
G37*
G36*
X176129728Y-159314909D02*
G01*
X176129728Y-159671211D01*
X175951577Y-159671211D01*
X175951577Y-159871246D01*
X176129728Y-159871246D01*
X176129728Y-160583849D01*
X176329763Y-160583849D01*
X176329763Y-159871246D01*
X176864215Y-159871246D01*
X176864215Y-159671211D01*
X176329763Y-159671211D01*
X176329763Y-159314909D01*
X176129728Y-159314909D01*
G37*
G36*
X176307879Y-160561965D02*
G01*
X176307879Y-160762000D01*
X176686064Y-160762000D01*
X176686064Y-160561965D01*
X176307879Y-160561965D01*
G37*
G36*
X176664180Y-160383814D02*
G01*
X176664180Y-160583849D01*
X176864215Y-160583849D01*
X176864215Y-160383814D01*
X176664180Y-160383814D01*
G37*
G36*
X177377125Y-159314909D02*
G01*
X177377125Y-159671211D01*
X177198974Y-159671211D01*
X177198974Y-159871246D01*
X177377125Y-159871246D01*
X177377125Y-160583849D01*
X177577160Y-160583849D01*
X177577160Y-159871246D01*
X178111612Y-159871246D01*
X178111612Y-159671211D01*
X177577160Y-159671211D01*
X177577160Y-159314909D01*
X177377125Y-159314909D01*
G37*
G36*
X177555276Y-160561965D02*
G01*
X177555276Y-160762000D01*
X177933461Y-160762000D01*
X177933461Y-160561965D01*
X177555276Y-160561965D01*
G37*
G36*
X177911577Y-160383814D02*
G01*
X177911577Y-160583849D01*
X178111612Y-160583849D01*
X178111612Y-160383814D01*
X177911577Y-160383814D01*
G37*
G36*
X178446371Y-159671211D02*
G01*
X178446371Y-161118643D01*
X178646406Y-161118643D01*
X178646406Y-160583849D01*
X178824557Y-160583849D01*
X178824557Y-160383814D01*
X178646406Y-160383814D01*
X178646406Y-160049397D01*
X178824557Y-160049397D01*
X178824557Y-159849362D01*
X178646406Y-159849362D01*
X178646406Y-159671211D01*
X178446371Y-159671211D01*
G37*
G36*
X178802673Y-159671211D02*
G01*
X178802673Y-159871246D01*
X179180859Y-159871246D01*
X179180859Y-159671211D01*
X178802673Y-159671211D01*
G37*
G36*
X179158974Y-159849362D02*
G01*
X179158974Y-160583849D01*
X179359009Y-160583849D01*
X179359009Y-159849362D01*
X179158974Y-159849362D01*
G37*
G36*
X178802673Y-160561965D02*
G01*
X178802673Y-160762000D01*
X179180859Y-160762000D01*
X179180859Y-160561965D01*
X178802673Y-160561965D01*
G37*
G36*
X180428256Y-160561965D02*
G01*
X179871919Y-160561965D01*
X179871919Y-160762000D01*
X180428256Y-160762000D01*
X180428256Y-160561965D01*
G37*
G36*
X179893803Y-160583849D02*
G01*
X179893803Y-160383814D01*
X179693769Y-160383814D01*
X179693769Y-160583849D01*
X179893803Y-160583849D01*
G37*
G36*
X180428256Y-159671211D02*
G01*
X179871919Y-159671211D01*
X179871919Y-159871246D01*
X180428256Y-159871246D01*
X180428256Y-159671211D01*
G37*
G36*
X179693769Y-159849362D02*
G01*
X179693769Y-160049397D01*
X179893803Y-160049397D01*
X179893803Y-159849362D01*
X179693769Y-159849362D01*
G37*
G36*
X179871919Y-160027512D02*
G01*
X179871919Y-160227547D01*
X180428256Y-160227547D01*
X180428256Y-160027512D01*
X179871919Y-160027512D01*
G37*
G36*
X180406371Y-160205663D02*
G01*
X180406371Y-160583849D01*
X180606406Y-160583849D01*
X180606406Y-160205663D01*
X180406371Y-160205663D01*
G37*
G36*
X180406371Y-159849362D02*
G01*
X180406371Y-160049397D01*
X180606406Y-160049397D01*
X180606406Y-159849362D01*
X180406371Y-159849362D01*
G37*
G36*
X181297467Y-160383814D02*
G01*
X181297467Y-160762000D01*
X181497502Y-160762000D01*
X181497502Y-160383814D01*
X181297467Y-160383814D01*
G37*
G36*
X181297467Y-159671211D02*
G01*
X181297467Y-160049397D01*
X181497502Y-160049397D01*
X181497502Y-159671211D01*
X181297467Y-159671211D01*
G37*
G36*
X182723015Y-159493060D02*
G01*
X182723015Y-159871246D01*
X182923050Y-159871246D01*
X182923050Y-159493060D01*
X182723015Y-159493060D01*
G37*
G36*
X182188563Y-160561965D02*
G01*
X182188563Y-160940492D01*
X182388598Y-160940492D01*
X182388598Y-160561965D01*
X182188563Y-160561965D01*
G37*
G36*
X182366713Y-160205663D02*
G01*
X182366713Y-160583849D01*
X182566748Y-160583849D01*
X182566748Y-160205663D01*
X182366713Y-160205663D01*
G37*
G36*
X182544864Y-159849362D02*
G01*
X182544864Y-160227547D01*
X182744899Y-160227547D01*
X182744899Y-159849362D01*
X182544864Y-159849362D01*
G37*
G36*
X182901166Y-159136759D02*
G01*
X182901166Y-159514944D01*
X183101200Y-159514944D01*
X183101200Y-159136759D01*
X182901166Y-159136759D01*
G37*
G36*
X183970412Y-159493060D02*
G01*
X183970412Y-159871246D01*
X184170447Y-159871246D01*
X184170447Y-159493060D01*
X183970412Y-159493060D01*
G37*
G36*
X183435960Y-160561965D02*
G01*
X183435960Y-160940492D01*
X183635995Y-160940492D01*
X183635995Y-160561965D01*
X183435960Y-160561965D01*
G37*
G36*
X183614110Y-160205663D02*
G01*
X183614110Y-160583849D01*
X183814145Y-160583849D01*
X183814145Y-160205663D01*
X183614110Y-160205663D01*
G37*
G36*
X183792261Y-159849362D02*
G01*
X183792261Y-160227547D01*
X183992296Y-160227547D01*
X183992296Y-159849362D01*
X183792261Y-159849362D01*
G37*
G36*
X184148563Y-159136759D02*
G01*
X184148563Y-159514944D01*
X184348598Y-159514944D01*
X184348598Y-159136759D01*
X184148563Y-159136759D01*
G37*
G36*
X184683357Y-160205663D02*
G01*
X184683357Y-160583849D01*
X184883392Y-160583849D01*
X184883392Y-160205663D01*
X184683357Y-160205663D01*
G37*
G36*
X184861508Y-160561965D02*
G01*
X184861508Y-160762000D01*
X185239693Y-160762000D01*
X185239693Y-160561965D01*
X184861508Y-160561965D01*
G37*
G36*
X185217809Y-160383814D02*
G01*
X185217809Y-160583849D01*
X185395960Y-160583849D01*
X185395960Y-160762000D01*
X185595995Y-160762000D01*
X185595995Y-159849362D01*
X185395960Y-159849362D01*
X185395960Y-160027512D01*
X184861508Y-160027512D01*
X184861508Y-160227547D01*
X185395960Y-160227547D01*
X185395960Y-160383814D01*
X185217809Y-160383814D01*
G37*
G36*
X184861508Y-159671211D02*
G01*
X184861508Y-159871246D01*
X185417844Y-159871246D01*
X185417844Y-159671211D01*
X184861508Y-159671211D01*
G37*
G36*
X185930754Y-159671211D02*
G01*
X185930754Y-160762000D01*
X186130789Y-160762000D01*
X186130789Y-160049397D01*
X186308939Y-160049397D01*
X186308939Y-159849362D01*
X186130789Y-159849362D01*
X186130789Y-159671211D01*
X185930754Y-159671211D01*
G37*
G36*
X186287055Y-159671211D02*
G01*
X186287055Y-159871246D01*
X186665241Y-159871246D01*
X186665241Y-159671211D01*
X186287055Y-159671211D01*
G37*
G36*
X186643357Y-159849362D02*
G01*
X186643357Y-160762000D01*
X186843392Y-160762000D01*
X186843392Y-159849362D01*
X186643357Y-159849362D01*
G37*
G36*
X187356302Y-159671211D02*
G01*
X187356302Y-159871246D01*
X187912638Y-159871246D01*
X187912638Y-159671211D01*
X187356302Y-159671211D01*
G37*
G36*
X187178151Y-159849362D02*
G01*
X187178151Y-160583849D01*
X187378186Y-160583849D01*
X187378186Y-159849362D01*
X187178151Y-159849362D01*
G37*
G36*
X187356302Y-160561965D02*
G01*
X187356302Y-160762000D01*
X187912638Y-160762000D01*
X187912638Y-160561965D01*
X187356302Y-160561965D01*
G37*
G36*
X187890754Y-159849362D02*
G01*
X187890754Y-160049397D01*
X188090789Y-160049397D01*
X188090789Y-159849362D01*
X187890754Y-159849362D01*
G37*
G36*
X187890754Y-160383814D02*
G01*
X187890754Y-160583849D01*
X188090789Y-160583849D01*
X188090789Y-160383814D01*
X187890754Y-160383814D01*
G37*
G36*
X188425548Y-159314909D02*
G01*
X188425548Y-160762000D01*
X188625583Y-160762000D01*
X188625583Y-160049397D01*
X188803734Y-160049397D01*
X188803734Y-159849362D01*
X188625583Y-159849362D01*
X188625583Y-159314909D01*
X188425548Y-159314909D01*
G37*
G36*
X189138151Y-159849362D02*
G01*
X189138151Y-160762000D01*
X189338186Y-160762000D01*
X189338186Y-159849362D01*
X189138151Y-159849362D01*
G37*
G36*
X188781849Y-159671211D02*
G01*
X188781849Y-159871246D01*
X189160035Y-159871246D01*
X189160035Y-159671211D01*
X188781849Y-159671211D01*
G37*
G36*
X189851096Y-159671211D02*
G01*
X189851096Y-159871246D01*
X190407432Y-159871246D01*
X190407432Y-159671211D01*
X189851096Y-159671211D01*
G37*
G36*
X190385548Y-159849362D02*
G01*
X190385548Y-160583849D01*
X190585583Y-160583849D01*
X190585583Y-159849362D01*
X190385548Y-159849362D01*
G37*
G36*
X189672945Y-159849362D02*
G01*
X189672945Y-160583849D01*
X189872980Y-160583849D01*
X189872980Y-159849362D01*
X189672945Y-159849362D01*
G37*
G36*
X189851096Y-160561965D02*
G01*
X189851096Y-160762000D01*
X190407432Y-160762000D01*
X190407432Y-160561965D01*
X189851096Y-160561965D01*
G37*
G36*
X190920342Y-159671211D02*
G01*
X190920342Y-160227547D01*
X191120377Y-160227547D01*
X191120377Y-159671211D01*
X190920342Y-159671211D01*
G37*
G36*
X191632945Y-159671211D02*
G01*
X191632945Y-160227547D01*
X191832980Y-160227547D01*
X191832980Y-159671211D01*
X191632945Y-159671211D01*
G37*
G36*
X191298528Y-160583849D02*
G01*
X191298528Y-160205663D01*
X191098493Y-160205663D01*
X191098493Y-160583849D01*
X191298528Y-160583849D01*
G37*
G36*
X191276644Y-160561965D02*
G01*
X191276644Y-160762000D01*
X191476678Y-160762000D01*
X191476678Y-160561965D01*
X191276644Y-160561965D01*
G37*
G36*
X191454794Y-160205663D02*
G01*
X191454794Y-160583849D01*
X191654829Y-160583849D01*
X191654829Y-160205663D01*
X191454794Y-160205663D01*
G37*
G36*
X192524041Y-159314909D02*
G01*
X192524041Y-159514944D01*
X192724076Y-159514944D01*
X192724076Y-159314909D01*
X192524041Y-159314909D01*
G37*
G36*
X192524041Y-159871246D02*
G01*
X192524041Y-160561965D01*
X192167739Y-160561965D01*
X192167739Y-160762000D01*
X193080377Y-160762000D01*
X193080377Y-160561965D01*
X192724076Y-160561965D01*
X192724076Y-159671211D01*
X192167739Y-159671211D01*
X192167739Y-159871246D01*
X192524041Y-159871246D01*
G37*
G36*
X193593287Y-159671211D02*
G01*
X193593287Y-159871246D01*
X194149623Y-159871246D01*
X194149623Y-159671211D01*
X193593287Y-159671211D01*
G37*
G36*
X193415136Y-159849362D02*
G01*
X193415136Y-160583849D01*
X193615171Y-160583849D01*
X193615171Y-160227547D01*
X194327774Y-160227547D01*
X194327774Y-159849362D01*
X194127739Y-159849362D01*
X194127739Y-160027512D01*
X193615171Y-160027512D01*
X193615171Y-159849362D01*
X193415136Y-159849362D01*
G37*
G36*
X193593287Y-160561965D02*
G01*
X193593287Y-160762000D01*
X194149623Y-160762000D01*
X194149623Y-160561965D01*
X193593287Y-160561965D01*
G37*
G36*
X194127739Y-160383814D02*
G01*
X194127739Y-160583849D01*
X194327774Y-160583849D01*
X194327774Y-160383814D01*
X194127739Y-160383814D01*
G37*
G36*
X195018835Y-160383814D02*
G01*
X195018835Y-160762000D01*
X195218870Y-160762000D01*
X195218870Y-160383814D01*
X195018835Y-160383814D01*
G37*
G36*
X195909930Y-160205663D02*
G01*
X195909930Y-160583849D01*
X196109965Y-160583849D01*
X196109965Y-160205663D01*
X195909930Y-160205663D01*
G37*
G36*
X196088081Y-160561965D02*
G01*
X196088081Y-160762000D01*
X196466267Y-160762000D01*
X196466267Y-160561965D01*
X196088081Y-160561965D01*
G37*
G36*
X196444383Y-160383814D02*
G01*
X196444383Y-160583849D01*
X196622533Y-160583849D01*
X196622533Y-160762000D01*
X196822568Y-160762000D01*
X196822568Y-159849362D01*
X196622533Y-159849362D01*
X196622533Y-160027512D01*
X196088081Y-160027512D01*
X196088081Y-160227547D01*
X196622533Y-160227547D01*
X196622533Y-160383814D01*
X196444383Y-160383814D01*
G37*
G36*
X196088081Y-159671211D02*
G01*
X196088081Y-159871246D01*
X196644417Y-159871246D01*
X196644417Y-159671211D01*
X196088081Y-159671211D01*
G37*
G36*
X197535513Y-159671211D02*
G01*
X197157327Y-159671211D01*
X197157327Y-159871246D01*
X197335478Y-159871246D01*
X197335478Y-160561965D01*
X197157327Y-160561965D01*
X197157327Y-160762000D01*
X197891815Y-160762000D01*
X197891815Y-160561965D01*
X197535513Y-160561965D01*
X197535513Y-160049397D01*
X197713664Y-160049397D01*
X197713664Y-159849362D01*
X197535513Y-159849362D01*
X197535513Y-159671211D01*
G37*
G36*
X198069965Y-159671211D02*
G01*
X197691780Y-159671211D01*
X197691780Y-159871246D01*
X198069965Y-159871246D01*
X198069965Y-159671211D01*
G37*
G36*
X198582875Y-159314909D02*
G01*
X198582875Y-159671211D01*
X198404725Y-159671211D01*
X198404725Y-159871246D01*
X198582875Y-159871246D01*
X198582875Y-160583849D01*
X198782910Y-160583849D01*
X198782910Y-159871246D01*
X199317362Y-159871246D01*
X199317362Y-159671211D01*
X198782910Y-159671211D01*
X198782910Y-159314909D01*
X198582875Y-159314909D01*
G37*
G36*
X198761026Y-160561965D02*
G01*
X198761026Y-160762000D01*
X199139212Y-160762000D01*
X199139212Y-160561965D01*
X198761026Y-160561965D01*
G37*
G36*
X199117327Y-160383814D02*
G01*
X199117327Y-160583849D01*
X199317362Y-160583849D01*
X199317362Y-160383814D01*
X199117327Y-160383814D01*
G37*
D11*
X205642804Y-45307340D02*
X205070384Y-45879760D01*
X205070384Y-45879760D02*
X205036712Y-45980775D01*
X205036712Y-45980775D02*
X205036712Y-46048119D01*
X205036712Y-46048119D02*
X205070384Y-46149134D01*
X205070384Y-46149134D02*
X205205071Y-46283821D01*
X205205071Y-46283821D02*
X205306086Y-46317493D01*
X205306086Y-46317493D02*
X205373430Y-46317493D01*
X205373430Y-46317493D02*
X205474445Y-46283821D01*
X205474445Y-46283821D02*
X206046865Y-45711401D01*
X206046865Y-47125615D02*
X205642804Y-46721554D01*
X205844834Y-46923584D02*
X206551941Y-46216478D01*
X206551941Y-46216478D02*
X206383582Y-46250149D01*
X206383582Y-46250149D02*
X206248895Y-46250149D01*
X206248895Y-46250149D02*
X206147880Y-46216478D01*
X202971321Y-47103359D02*
X203678427Y-46396252D01*
X203678427Y-46396252D02*
X203947801Y-46665626D01*
X203947801Y-46665626D02*
X203981473Y-46766641D01*
X203981473Y-46766641D02*
X203981473Y-46833985D01*
X203981473Y-46833985D02*
X203947801Y-46935000D01*
X203947801Y-46935000D02*
X203846786Y-47036015D01*
X203846786Y-47036015D02*
X203745771Y-47069687D01*
X203745771Y-47069687D02*
X203678427Y-47069687D01*
X203678427Y-47069687D02*
X203577412Y-47036015D01*
X203577412Y-47036015D02*
X203308038Y-46766641D01*
X203678427Y-47810466D02*
X204149832Y-47339061D01*
X204385534Y-47103359D02*
X204318191Y-47103359D01*
X204318191Y-47103359D02*
X204318191Y-47170702D01*
X204318191Y-47170702D02*
X204385534Y-47170702D01*
X204385534Y-47170702D02*
X204385534Y-47103359D01*
X204385534Y-47103359D02*
X204318191Y-47170702D01*
X204351862Y-48416557D02*
X204250847Y-48382885D01*
X204250847Y-48382885D02*
X204116160Y-48248198D01*
X204116160Y-48248198D02*
X204082488Y-48147183D01*
X204082488Y-48147183D02*
X204082488Y-48079839D01*
X204082488Y-48079839D02*
X204116160Y-47978824D01*
X204116160Y-47978824D02*
X204318190Y-47776793D01*
X204318190Y-47776793D02*
X204419205Y-47743122D01*
X204419205Y-47743122D02*
X204486549Y-47743122D01*
X204486549Y-47743122D02*
X204587564Y-47776793D01*
X204587564Y-47776793D02*
X204722251Y-47911480D01*
X204722251Y-47911480D02*
X204755923Y-48012496D01*
X204722251Y-48854290D02*
X204688580Y-48753274D01*
X204688580Y-48753274D02*
X204688580Y-48685931D01*
X204688580Y-48685931D02*
X204722251Y-48584916D01*
X204722251Y-48584916D02*
X204924282Y-48382885D01*
X204924282Y-48382885D02*
X205025297Y-48349213D01*
X205025297Y-48349213D02*
X205092641Y-48349213D01*
X205092641Y-48349213D02*
X205193656Y-48382885D01*
X205193656Y-48382885D02*
X205294671Y-48483900D01*
X205294671Y-48483900D02*
X205328343Y-48584916D01*
X205328343Y-48584916D02*
X205328343Y-48652259D01*
X205328343Y-48652259D02*
X205294671Y-48753274D01*
X205294671Y-48753274D02*
X205092641Y-48955305D01*
X205092641Y-48955305D02*
X204991625Y-48988977D01*
X204991625Y-48988977D02*
X204924282Y-48988977D01*
X204924282Y-48988977D02*
X204823267Y-48955305D01*
X204823267Y-48955305D02*
X204722251Y-48854290D01*
X220540025Y-48596768D02*
X220463835Y-48558673D01*
X220463835Y-48558673D02*
X220349549Y-48558673D01*
X220349549Y-48558673D02*
X220235263Y-48596768D01*
X220235263Y-48596768D02*
X220159073Y-48672958D01*
X220159073Y-48672958D02*
X220120978Y-48749149D01*
X220120978Y-48749149D02*
X220082882Y-48901530D01*
X220082882Y-48901530D02*
X220082882Y-49015816D01*
X220082882Y-49015816D02*
X220120978Y-49168197D01*
X220120978Y-49168197D02*
X220159073Y-49244387D01*
X220159073Y-49244387D02*
X220235263Y-49320578D01*
X220235263Y-49320578D02*
X220349549Y-49358673D01*
X220349549Y-49358673D02*
X220425740Y-49358673D01*
X220425740Y-49358673D02*
X220540025Y-49320578D01*
X220540025Y-49320578D02*
X220578121Y-49282482D01*
X220578121Y-49282482D02*
X220578121Y-49015816D01*
X220578121Y-49015816D02*
X220425740Y-49015816D01*
X220920978Y-49358673D02*
X220920978Y-48558673D01*
X220920978Y-48558673D02*
X221225740Y-48558673D01*
X221225740Y-48558673D02*
X221301930Y-48596768D01*
X221301930Y-48596768D02*
X221340025Y-48634863D01*
X221340025Y-48634863D02*
X221378121Y-48711054D01*
X221378121Y-48711054D02*
X221378121Y-48825339D01*
X221378121Y-48825339D02*
X221340025Y-48901530D01*
X221340025Y-48901530D02*
X221301930Y-48939625D01*
X221301930Y-48939625D02*
X221225740Y-48977720D01*
X221225740Y-48977720D02*
X220920978Y-48977720D01*
X221682882Y-48634863D02*
X221720978Y-48596768D01*
X221720978Y-48596768D02*
X221797168Y-48558673D01*
X221797168Y-48558673D02*
X221987644Y-48558673D01*
X221987644Y-48558673D02*
X222063835Y-48596768D01*
X222063835Y-48596768D02*
X222101930Y-48634863D01*
X222101930Y-48634863D02*
X222140025Y-48711054D01*
X222140025Y-48711054D02*
X222140025Y-48787244D01*
X222140025Y-48787244D02*
X222101930Y-48901530D01*
X222101930Y-48901530D02*
X221644787Y-49358673D01*
X221644787Y-49358673D02*
X222140025Y-49358673D01*
X222597168Y-48901530D02*
X222520978Y-48863435D01*
X222520978Y-48863435D02*
X222482883Y-48825339D01*
X222482883Y-48825339D02*
X222444787Y-48749149D01*
X222444787Y-48749149D02*
X222444787Y-48711054D01*
X222444787Y-48711054D02*
X222482883Y-48634863D01*
X222482883Y-48634863D02*
X222520978Y-48596768D01*
X222520978Y-48596768D02*
X222597168Y-48558673D01*
X222597168Y-48558673D02*
X222749549Y-48558673D01*
X222749549Y-48558673D02*
X222825740Y-48596768D01*
X222825740Y-48596768D02*
X222863835Y-48634863D01*
X222863835Y-48634863D02*
X222901930Y-48711054D01*
X222901930Y-48711054D02*
X222901930Y-48749149D01*
X222901930Y-48749149D02*
X222863835Y-48825339D01*
X222863835Y-48825339D02*
X222825740Y-48863435D01*
X222825740Y-48863435D02*
X222749549Y-48901530D01*
X222749549Y-48901530D02*
X222597168Y-48901530D01*
X222597168Y-48901530D02*
X222520978Y-48939625D01*
X222520978Y-48939625D02*
X222482883Y-48977720D01*
X222482883Y-48977720D02*
X222444787Y-49053911D01*
X222444787Y-49053911D02*
X222444787Y-49206292D01*
X222444787Y-49206292D02*
X222482883Y-49282482D01*
X222482883Y-49282482D02*
X222520978Y-49320578D01*
X222520978Y-49320578D02*
X222597168Y-49358673D01*
X222597168Y-49358673D02*
X222749549Y-49358673D01*
X222749549Y-49358673D02*
X222825740Y-49320578D01*
X222825740Y-49320578D02*
X222863835Y-49282482D01*
X222863835Y-49282482D02*
X222901930Y-49206292D01*
X222901930Y-49206292D02*
X222901930Y-49053911D01*
X222901930Y-49053911D02*
X222863835Y-48977720D01*
X222863835Y-48977720D02*
X222825740Y-48939625D01*
X222825740Y-48939625D02*
X222749549Y-48901530D01*
X195275630Y-37679039D02*
X195199440Y-37640944D01*
X195199440Y-37640944D02*
X195085154Y-37640944D01*
X195085154Y-37640944D02*
X194970868Y-37679039D01*
X194970868Y-37679039D02*
X194894678Y-37755229D01*
X194894678Y-37755229D02*
X194856583Y-37831420D01*
X194856583Y-37831420D02*
X194818487Y-37983801D01*
X194818487Y-37983801D02*
X194818487Y-38098087D01*
X194818487Y-38098087D02*
X194856583Y-38250468D01*
X194856583Y-38250468D02*
X194894678Y-38326658D01*
X194894678Y-38326658D02*
X194970868Y-38402849D01*
X194970868Y-38402849D02*
X195085154Y-38440944D01*
X195085154Y-38440944D02*
X195161345Y-38440944D01*
X195161345Y-38440944D02*
X195275630Y-38402849D01*
X195275630Y-38402849D02*
X195313726Y-38364753D01*
X195313726Y-38364753D02*
X195313726Y-38098087D01*
X195313726Y-38098087D02*
X195161345Y-38098087D01*
X195656583Y-38440944D02*
X195656583Y-37640944D01*
X195656583Y-37640944D02*
X195961345Y-37640944D01*
X195961345Y-37640944D02*
X196037535Y-37679039D01*
X196037535Y-37679039D02*
X196075630Y-37717134D01*
X196075630Y-37717134D02*
X196113726Y-37793325D01*
X196113726Y-37793325D02*
X196113726Y-37907610D01*
X196113726Y-37907610D02*
X196075630Y-37983801D01*
X196075630Y-37983801D02*
X196037535Y-38021896D01*
X196037535Y-38021896D02*
X195961345Y-38059991D01*
X195961345Y-38059991D02*
X195656583Y-38059991D01*
X196570868Y-37983801D02*
X196494678Y-37945706D01*
X196494678Y-37945706D02*
X196456583Y-37907610D01*
X196456583Y-37907610D02*
X196418487Y-37831420D01*
X196418487Y-37831420D02*
X196418487Y-37793325D01*
X196418487Y-37793325D02*
X196456583Y-37717134D01*
X196456583Y-37717134D02*
X196494678Y-37679039D01*
X196494678Y-37679039D02*
X196570868Y-37640944D01*
X196570868Y-37640944D02*
X196723249Y-37640944D01*
X196723249Y-37640944D02*
X196799440Y-37679039D01*
X196799440Y-37679039D02*
X196837535Y-37717134D01*
X196837535Y-37717134D02*
X196875630Y-37793325D01*
X196875630Y-37793325D02*
X196875630Y-37831420D01*
X196875630Y-37831420D02*
X196837535Y-37907610D01*
X196837535Y-37907610D02*
X196799440Y-37945706D01*
X196799440Y-37945706D02*
X196723249Y-37983801D01*
X196723249Y-37983801D02*
X196570868Y-37983801D01*
X196570868Y-37983801D02*
X196494678Y-38021896D01*
X196494678Y-38021896D02*
X196456583Y-38059991D01*
X196456583Y-38059991D02*
X196418487Y-38136182D01*
X196418487Y-38136182D02*
X196418487Y-38288563D01*
X196418487Y-38288563D02*
X196456583Y-38364753D01*
X196456583Y-38364753D02*
X196494678Y-38402849D01*
X196494678Y-38402849D02*
X196570868Y-38440944D01*
X196570868Y-38440944D02*
X196723249Y-38440944D01*
X196723249Y-38440944D02*
X196799440Y-38402849D01*
X196799440Y-38402849D02*
X196837535Y-38364753D01*
X196837535Y-38364753D02*
X196875630Y-38288563D01*
X196875630Y-38288563D02*
X196875630Y-38136182D01*
X196875630Y-38136182D02*
X196837535Y-38059991D01*
X196837535Y-38059991D02*
X196799440Y-38021896D01*
X196799440Y-38021896D02*
X196723249Y-37983801D01*
X193479578Y-39475090D02*
X193403388Y-39436995D01*
X193403388Y-39436995D02*
X193289102Y-39436995D01*
X193289102Y-39436995D02*
X193174816Y-39475090D01*
X193174816Y-39475090D02*
X193098626Y-39551280D01*
X193098626Y-39551280D02*
X193060531Y-39627471D01*
X193060531Y-39627471D02*
X193022435Y-39779852D01*
X193022435Y-39779852D02*
X193022435Y-39894138D01*
X193022435Y-39894138D02*
X193060531Y-40046519D01*
X193060531Y-40046519D02*
X193098626Y-40122709D01*
X193098626Y-40122709D02*
X193174816Y-40198900D01*
X193174816Y-40198900D02*
X193289102Y-40236995D01*
X193289102Y-40236995D02*
X193365293Y-40236995D01*
X193365293Y-40236995D02*
X193479578Y-40198900D01*
X193479578Y-40198900D02*
X193517674Y-40160804D01*
X193517674Y-40160804D02*
X193517674Y-39894138D01*
X193517674Y-39894138D02*
X193365293Y-39894138D01*
X193860531Y-40236995D02*
X193860531Y-39436995D01*
X193860531Y-39436995D02*
X194165293Y-39436995D01*
X194165293Y-39436995D02*
X194241483Y-39475090D01*
X194241483Y-39475090D02*
X194279578Y-39513185D01*
X194279578Y-39513185D02*
X194317674Y-39589376D01*
X194317674Y-39589376D02*
X194317674Y-39703661D01*
X194317674Y-39703661D02*
X194279578Y-39779852D01*
X194279578Y-39779852D02*
X194241483Y-39817947D01*
X194241483Y-39817947D02*
X194165293Y-39856042D01*
X194165293Y-39856042D02*
X193860531Y-39856042D01*
X194698626Y-40236995D02*
X194851007Y-40236995D01*
X194851007Y-40236995D02*
X194927197Y-40198900D01*
X194927197Y-40198900D02*
X194965293Y-40160804D01*
X194965293Y-40160804D02*
X195041483Y-40046519D01*
X195041483Y-40046519D02*
X195079578Y-39894138D01*
X195079578Y-39894138D02*
X195079578Y-39589376D01*
X195079578Y-39589376D02*
X195041483Y-39513185D01*
X195041483Y-39513185D02*
X195003388Y-39475090D01*
X195003388Y-39475090D02*
X194927197Y-39436995D01*
X194927197Y-39436995D02*
X194774816Y-39436995D01*
X194774816Y-39436995D02*
X194698626Y-39475090D01*
X194698626Y-39475090D02*
X194660531Y-39513185D01*
X194660531Y-39513185D02*
X194622435Y-39589376D01*
X194622435Y-39589376D02*
X194622435Y-39779852D01*
X194622435Y-39779852D02*
X194660531Y-39856042D01*
X194660531Y-39856042D02*
X194698626Y-39894138D01*
X194698626Y-39894138D02*
X194774816Y-39932233D01*
X194774816Y-39932233D02*
X194927197Y-39932233D01*
X194927197Y-39932233D02*
X195003388Y-39894138D01*
X195003388Y-39894138D02*
X195041483Y-39856042D01*
X195041483Y-39856042D02*
X195079578Y-39779852D01*
X182665176Y-50251397D02*
X182588986Y-50213302D01*
X182588986Y-50213302D02*
X182474700Y-50213302D01*
X182474700Y-50213302D02*
X182360414Y-50251397D01*
X182360414Y-50251397D02*
X182284224Y-50327587D01*
X182284224Y-50327587D02*
X182246129Y-50403778D01*
X182246129Y-50403778D02*
X182208033Y-50556159D01*
X182208033Y-50556159D02*
X182208033Y-50670445D01*
X182208033Y-50670445D02*
X182246129Y-50822826D01*
X182246129Y-50822826D02*
X182284224Y-50899016D01*
X182284224Y-50899016D02*
X182360414Y-50975207D01*
X182360414Y-50975207D02*
X182474700Y-51013302D01*
X182474700Y-51013302D02*
X182550891Y-51013302D01*
X182550891Y-51013302D02*
X182665176Y-50975207D01*
X182665176Y-50975207D02*
X182703272Y-50937111D01*
X182703272Y-50937111D02*
X182703272Y-50670445D01*
X182703272Y-50670445D02*
X182550891Y-50670445D01*
X183046129Y-51013302D02*
X183046129Y-50213302D01*
X183046129Y-50213302D02*
X183503272Y-51013302D01*
X183503272Y-51013302D02*
X183503272Y-50213302D01*
X183884224Y-51013302D02*
X183884224Y-50213302D01*
X183884224Y-50213302D02*
X184074700Y-50213302D01*
X184074700Y-50213302D02*
X184188986Y-50251397D01*
X184188986Y-50251397D02*
X184265176Y-50327587D01*
X184265176Y-50327587D02*
X184303271Y-50403778D01*
X184303271Y-50403778D02*
X184341367Y-50556159D01*
X184341367Y-50556159D02*
X184341367Y-50670445D01*
X184341367Y-50670445D02*
X184303271Y-50822826D01*
X184303271Y-50822826D02*
X184265176Y-50899016D01*
X184265176Y-50899016D02*
X184188986Y-50975207D01*
X184188986Y-50975207D02*
X184074700Y-51013302D01*
X184074700Y-51013302D02*
X183884224Y-51013302D01*
X183938764Y-48275741D02*
X183862574Y-48237646D01*
X183862574Y-48237646D02*
X183748288Y-48237646D01*
X183748288Y-48237646D02*
X183634002Y-48275741D01*
X183634002Y-48275741D02*
X183557812Y-48351931D01*
X183557812Y-48351931D02*
X183519717Y-48428122D01*
X183519717Y-48428122D02*
X183481621Y-48580503D01*
X183481621Y-48580503D02*
X183481621Y-48694789D01*
X183481621Y-48694789D02*
X183519717Y-48847170D01*
X183519717Y-48847170D02*
X183557812Y-48923360D01*
X183557812Y-48923360D02*
X183634002Y-48999551D01*
X183634002Y-48999551D02*
X183748288Y-49037646D01*
X183748288Y-49037646D02*
X183824479Y-49037646D01*
X183824479Y-49037646D02*
X183938764Y-48999551D01*
X183938764Y-48999551D02*
X183976860Y-48961455D01*
X183976860Y-48961455D02*
X183976860Y-48694789D01*
X183976860Y-48694789D02*
X183824479Y-48694789D01*
X184319717Y-49037646D02*
X184319717Y-48237646D01*
X184319717Y-48237646D02*
X184624479Y-48237646D01*
X184624479Y-48237646D02*
X184700669Y-48275741D01*
X184700669Y-48275741D02*
X184738764Y-48313836D01*
X184738764Y-48313836D02*
X184776860Y-48390027D01*
X184776860Y-48390027D02*
X184776860Y-48504312D01*
X184776860Y-48504312D02*
X184738764Y-48580503D01*
X184738764Y-48580503D02*
X184700669Y-48618598D01*
X184700669Y-48618598D02*
X184624479Y-48656693D01*
X184624479Y-48656693D02*
X184319717Y-48656693D01*
X185538764Y-49037646D02*
X185081621Y-49037646D01*
X185310193Y-49037646D02*
X185310193Y-48237646D01*
X185310193Y-48237646D02*
X185234002Y-48351931D01*
X185234002Y-48351931D02*
X185157812Y-48428122D01*
X185157812Y-48428122D02*
X185081621Y-48466217D01*
X185805431Y-48237646D02*
X186300669Y-48237646D01*
X186300669Y-48237646D02*
X186034003Y-48542408D01*
X186034003Y-48542408D02*
X186148288Y-48542408D01*
X186148288Y-48542408D02*
X186224479Y-48580503D01*
X186224479Y-48580503D02*
X186262574Y-48618598D01*
X186262574Y-48618598D02*
X186300669Y-48694789D01*
X186300669Y-48694789D02*
X186300669Y-48885265D01*
X186300669Y-48885265D02*
X186262574Y-48961455D01*
X186262574Y-48961455D02*
X186224479Y-48999551D01*
X186224479Y-48999551D02*
X186148288Y-49037646D01*
X186148288Y-49037646D02*
X185919717Y-49037646D01*
X185919717Y-49037646D02*
X185843526Y-48999551D01*
X185843526Y-48999551D02*
X185805431Y-48961455D01*
X223756036Y-45086779D02*
X224251274Y-45086779D01*
X224251274Y-45086779D02*
X223984608Y-45391541D01*
X223984608Y-45391541D02*
X224098893Y-45391541D01*
X224098893Y-45391541D02*
X224175084Y-45429636D01*
X224175084Y-45429636D02*
X224213179Y-45467731D01*
X224213179Y-45467731D02*
X224251274Y-45543922D01*
X224251274Y-45543922D02*
X224251274Y-45734398D01*
X224251274Y-45734398D02*
X224213179Y-45810588D01*
X224213179Y-45810588D02*
X224175084Y-45848684D01*
X224175084Y-45848684D02*
X224098893Y-45886779D01*
X224098893Y-45886779D02*
X223870322Y-45886779D01*
X223870322Y-45886779D02*
X223794131Y-45848684D01*
X223794131Y-45848684D02*
X223756036Y-45810588D01*
X224479846Y-45086779D02*
X224746513Y-45886779D01*
X224746513Y-45886779D02*
X225013179Y-45086779D01*
X225203655Y-45086779D02*
X225698893Y-45086779D01*
X225698893Y-45086779D02*
X225432227Y-45391541D01*
X225432227Y-45391541D02*
X225546512Y-45391541D01*
X225546512Y-45391541D02*
X225622703Y-45429636D01*
X225622703Y-45429636D02*
X225660798Y-45467731D01*
X225660798Y-45467731D02*
X225698893Y-45543922D01*
X225698893Y-45543922D02*
X225698893Y-45734398D01*
X225698893Y-45734398D02*
X225660798Y-45810588D01*
X225660798Y-45810588D02*
X225622703Y-45848684D01*
X225622703Y-45848684D02*
X225546512Y-45886779D01*
X225546512Y-45886779D02*
X225317941Y-45886779D01*
X225317941Y-45886779D02*
X225241750Y-45848684D01*
X225241750Y-45848684D02*
X225203655Y-45810588D01*
X209747366Y-59373075D02*
X209671176Y-59334980D01*
X209671176Y-59334980D02*
X209556890Y-59334980D01*
X209556890Y-59334980D02*
X209442604Y-59373075D01*
X209442604Y-59373075D02*
X209366414Y-59449265D01*
X209366414Y-59449265D02*
X209328319Y-59525456D01*
X209328319Y-59525456D02*
X209290223Y-59677837D01*
X209290223Y-59677837D02*
X209290223Y-59792123D01*
X209290223Y-59792123D02*
X209328319Y-59944504D01*
X209328319Y-59944504D02*
X209366414Y-60020694D01*
X209366414Y-60020694D02*
X209442604Y-60096885D01*
X209442604Y-60096885D02*
X209556890Y-60134980D01*
X209556890Y-60134980D02*
X209633081Y-60134980D01*
X209633081Y-60134980D02*
X209747366Y-60096885D01*
X209747366Y-60096885D02*
X209785462Y-60058789D01*
X209785462Y-60058789D02*
X209785462Y-59792123D01*
X209785462Y-59792123D02*
X209633081Y-59792123D01*
X210128319Y-60134980D02*
X210128319Y-59334980D01*
X210128319Y-59334980D02*
X210585462Y-60134980D01*
X210585462Y-60134980D02*
X210585462Y-59334980D01*
X210966414Y-60134980D02*
X210966414Y-59334980D01*
X210966414Y-59334980D02*
X211156890Y-59334980D01*
X211156890Y-59334980D02*
X211271176Y-59373075D01*
X211271176Y-59373075D02*
X211347366Y-59449265D01*
X211347366Y-59449265D02*
X211385461Y-59525456D01*
X211385461Y-59525456D02*
X211423557Y-59677837D01*
X211423557Y-59677837D02*
X211423557Y-59792123D01*
X211423557Y-59792123D02*
X211385461Y-59944504D01*
X211385461Y-59944504D02*
X211347366Y-60020694D01*
X211347366Y-60020694D02*
X211271176Y-60096885D01*
X211271176Y-60096885D02*
X211156890Y-60134980D01*
X211156890Y-60134980D02*
X210966414Y-60134980D01*
X211376451Y-21436796D02*
X211300261Y-21398701D01*
X211300261Y-21398701D02*
X211185975Y-21398701D01*
X211185975Y-21398701D02*
X211071689Y-21436796D01*
X211071689Y-21436796D02*
X210995499Y-21512986D01*
X210995499Y-21512986D02*
X210957404Y-21589177D01*
X210957404Y-21589177D02*
X210919308Y-21741558D01*
X210919308Y-21741558D02*
X210919308Y-21855844D01*
X210919308Y-21855844D02*
X210957404Y-22008225D01*
X210957404Y-22008225D02*
X210995499Y-22084415D01*
X210995499Y-22084415D02*
X211071689Y-22160606D01*
X211071689Y-22160606D02*
X211185975Y-22198701D01*
X211185975Y-22198701D02*
X211262166Y-22198701D01*
X211262166Y-22198701D02*
X211376451Y-22160606D01*
X211376451Y-22160606D02*
X211414547Y-22122510D01*
X211414547Y-22122510D02*
X211414547Y-21855844D01*
X211414547Y-21855844D02*
X211262166Y-21855844D01*
X211757404Y-22198701D02*
X211757404Y-21398701D01*
X211757404Y-21398701D02*
X212062166Y-21398701D01*
X212062166Y-21398701D02*
X212138356Y-21436796D01*
X212138356Y-21436796D02*
X212176451Y-21474891D01*
X212176451Y-21474891D02*
X212214547Y-21551082D01*
X212214547Y-21551082D02*
X212214547Y-21665367D01*
X212214547Y-21665367D02*
X212176451Y-21741558D01*
X212176451Y-21741558D02*
X212138356Y-21779653D01*
X212138356Y-21779653D02*
X212062166Y-21817748D01*
X212062166Y-21817748D02*
X211757404Y-21817748D01*
X212976451Y-22198701D02*
X212519308Y-22198701D01*
X212747880Y-22198701D02*
X212747880Y-21398701D01*
X212747880Y-21398701D02*
X212671689Y-21512986D01*
X212671689Y-21512986D02*
X212595499Y-21589177D01*
X212595499Y-21589177D02*
X212519308Y-21627272D01*
X187427629Y-44580401D02*
X187351439Y-44542306D01*
X187351439Y-44542306D02*
X187237153Y-44542306D01*
X187237153Y-44542306D02*
X187122867Y-44580401D01*
X187122867Y-44580401D02*
X187046677Y-44656591D01*
X187046677Y-44656591D02*
X187008582Y-44732782D01*
X187008582Y-44732782D02*
X186970486Y-44885163D01*
X186970486Y-44885163D02*
X186970486Y-44999449D01*
X186970486Y-44999449D02*
X187008582Y-45151830D01*
X187008582Y-45151830D02*
X187046677Y-45228020D01*
X187046677Y-45228020D02*
X187122867Y-45304211D01*
X187122867Y-45304211D02*
X187237153Y-45342306D01*
X187237153Y-45342306D02*
X187313344Y-45342306D01*
X187313344Y-45342306D02*
X187427629Y-45304211D01*
X187427629Y-45304211D02*
X187465725Y-45266115D01*
X187465725Y-45266115D02*
X187465725Y-44999449D01*
X187465725Y-44999449D02*
X187313344Y-44999449D01*
X187808582Y-45342306D02*
X187808582Y-44542306D01*
X187808582Y-44542306D02*
X188113344Y-44542306D01*
X188113344Y-44542306D02*
X188189534Y-44580401D01*
X188189534Y-44580401D02*
X188227629Y-44618496D01*
X188227629Y-44618496D02*
X188265725Y-44694687D01*
X188265725Y-44694687D02*
X188265725Y-44808972D01*
X188265725Y-44808972D02*
X188227629Y-44885163D01*
X188227629Y-44885163D02*
X188189534Y-44923258D01*
X188189534Y-44923258D02*
X188113344Y-44961353D01*
X188113344Y-44961353D02*
X187808582Y-44961353D01*
X189027629Y-45342306D02*
X188570486Y-45342306D01*
X188799058Y-45342306D02*
X188799058Y-44542306D01*
X188799058Y-44542306D02*
X188722867Y-44656591D01*
X188722867Y-44656591D02*
X188646677Y-44732782D01*
X188646677Y-44732782D02*
X188570486Y-44770877D01*
X189789534Y-45342306D02*
X189332391Y-45342306D01*
X189560963Y-45342306D02*
X189560963Y-44542306D01*
X189560963Y-44542306D02*
X189484772Y-44656591D01*
X189484772Y-44656591D02*
X189408582Y-44732782D01*
X189408582Y-44732782D02*
X189332391Y-44770877D01*
X200767110Y-68353331D02*
X200690920Y-68315236D01*
X200690920Y-68315236D02*
X200576634Y-68315236D01*
X200576634Y-68315236D02*
X200462348Y-68353331D01*
X200462348Y-68353331D02*
X200386158Y-68429521D01*
X200386158Y-68429521D02*
X200348063Y-68505712D01*
X200348063Y-68505712D02*
X200309967Y-68658093D01*
X200309967Y-68658093D02*
X200309967Y-68772379D01*
X200309967Y-68772379D02*
X200348063Y-68924760D01*
X200348063Y-68924760D02*
X200386158Y-69000950D01*
X200386158Y-69000950D02*
X200462348Y-69077141D01*
X200462348Y-69077141D02*
X200576634Y-69115236D01*
X200576634Y-69115236D02*
X200652825Y-69115236D01*
X200652825Y-69115236D02*
X200767110Y-69077141D01*
X200767110Y-69077141D02*
X200805206Y-69039045D01*
X200805206Y-69039045D02*
X200805206Y-68772379D01*
X200805206Y-68772379D02*
X200652825Y-68772379D01*
X201148063Y-69115236D02*
X201148063Y-68315236D01*
X201148063Y-68315236D02*
X201605206Y-69115236D01*
X201605206Y-69115236D02*
X201605206Y-68315236D01*
X201986158Y-69115236D02*
X201986158Y-68315236D01*
X201986158Y-68315236D02*
X202176634Y-68315236D01*
X202176634Y-68315236D02*
X202290920Y-68353331D01*
X202290920Y-68353331D02*
X202367110Y-68429521D01*
X202367110Y-68429521D02*
X202405205Y-68505712D01*
X202405205Y-68505712D02*
X202443301Y-68658093D01*
X202443301Y-68658093D02*
X202443301Y-68772379D01*
X202443301Y-68772379D02*
X202405205Y-68924760D01*
X202405205Y-68924760D02*
X202367110Y-69000950D01*
X202367110Y-69000950D02*
X202290920Y-69077141D01*
X202290920Y-69077141D02*
X202176634Y-69115236D01*
X202176634Y-69115236D02*
X201986158Y-69115236D01*
X230845889Y-38086420D02*
X231112556Y-38886420D01*
X231112556Y-38886420D02*
X231379222Y-38086420D01*
X231912555Y-38467372D02*
X232026841Y-38505467D01*
X232026841Y-38505467D02*
X232064936Y-38543563D01*
X232064936Y-38543563D02*
X232103032Y-38619753D01*
X232103032Y-38619753D02*
X232103032Y-38734039D01*
X232103032Y-38734039D02*
X232064936Y-38810229D01*
X232064936Y-38810229D02*
X232026841Y-38848325D01*
X232026841Y-38848325D02*
X231950651Y-38886420D01*
X231950651Y-38886420D02*
X231645889Y-38886420D01*
X231645889Y-38886420D02*
X231645889Y-38086420D01*
X231645889Y-38086420D02*
X231912555Y-38086420D01*
X231912555Y-38086420D02*
X231988746Y-38124515D01*
X231988746Y-38124515D02*
X232026841Y-38162610D01*
X232026841Y-38162610D02*
X232064936Y-38238801D01*
X232064936Y-38238801D02*
X232064936Y-38314991D01*
X232064936Y-38314991D02*
X232026841Y-38391182D01*
X232026841Y-38391182D02*
X231988746Y-38429277D01*
X231988746Y-38429277D02*
X231912555Y-38467372D01*
X231912555Y-38467372D02*
X231645889Y-38467372D01*
X232445889Y-38086420D02*
X232445889Y-38734039D01*
X232445889Y-38734039D02*
X232483984Y-38810229D01*
X232483984Y-38810229D02*
X232522079Y-38848325D01*
X232522079Y-38848325D02*
X232598270Y-38886420D01*
X232598270Y-38886420D02*
X232750651Y-38886420D01*
X232750651Y-38886420D02*
X232826841Y-38848325D01*
X232826841Y-38848325D02*
X232864936Y-38810229D01*
X232864936Y-38810229D02*
X232903032Y-38734039D01*
X232903032Y-38734039D02*
X232903032Y-38086420D01*
X233245888Y-38848325D02*
X233360174Y-38886420D01*
X233360174Y-38886420D02*
X233550650Y-38886420D01*
X233550650Y-38886420D02*
X233626841Y-38848325D01*
X233626841Y-38848325D02*
X233664936Y-38810229D01*
X233664936Y-38810229D02*
X233703031Y-38734039D01*
X233703031Y-38734039D02*
X233703031Y-38657848D01*
X233703031Y-38657848D02*
X233664936Y-38581658D01*
X233664936Y-38581658D02*
X233626841Y-38543563D01*
X233626841Y-38543563D02*
X233550650Y-38505467D01*
X233550650Y-38505467D02*
X233398269Y-38467372D01*
X233398269Y-38467372D02*
X233322079Y-38429277D01*
X233322079Y-38429277D02*
X233283984Y-38391182D01*
X233283984Y-38391182D02*
X233245888Y-38314991D01*
X233245888Y-38314991D02*
X233245888Y-38238801D01*
X233245888Y-38238801D02*
X233283984Y-38162610D01*
X233283984Y-38162610D02*
X233322079Y-38124515D01*
X233322079Y-38124515D02*
X233398269Y-38086420D01*
X233398269Y-38086420D02*
X233588746Y-38086420D01*
X233588746Y-38086420D02*
X233703031Y-38124515D01*
X180314135Y-51835316D02*
X180237945Y-51797221D01*
X180237945Y-51797221D02*
X180123659Y-51797221D01*
X180123659Y-51797221D02*
X180009373Y-51835316D01*
X180009373Y-51835316D02*
X179933183Y-51911506D01*
X179933183Y-51911506D02*
X179895088Y-51987697D01*
X179895088Y-51987697D02*
X179856992Y-52140078D01*
X179856992Y-52140078D02*
X179856992Y-52254364D01*
X179856992Y-52254364D02*
X179895088Y-52406745D01*
X179895088Y-52406745D02*
X179933183Y-52482935D01*
X179933183Y-52482935D02*
X180009373Y-52559126D01*
X180009373Y-52559126D02*
X180123659Y-52597221D01*
X180123659Y-52597221D02*
X180199850Y-52597221D01*
X180199850Y-52597221D02*
X180314135Y-52559126D01*
X180314135Y-52559126D02*
X180352231Y-52521030D01*
X180352231Y-52521030D02*
X180352231Y-52254364D01*
X180352231Y-52254364D02*
X180199850Y-52254364D01*
X180695088Y-52597221D02*
X180695088Y-51797221D01*
X180695088Y-51797221D02*
X180999850Y-51797221D01*
X180999850Y-51797221D02*
X181076040Y-51835316D01*
X181076040Y-51835316D02*
X181114135Y-51873411D01*
X181114135Y-51873411D02*
X181152231Y-51949602D01*
X181152231Y-51949602D02*
X181152231Y-52063887D01*
X181152231Y-52063887D02*
X181114135Y-52140078D01*
X181114135Y-52140078D02*
X181076040Y-52178173D01*
X181076040Y-52178173D02*
X180999850Y-52216268D01*
X180999850Y-52216268D02*
X180695088Y-52216268D01*
X181914135Y-52597221D02*
X181456992Y-52597221D01*
X181685564Y-52597221D02*
X181685564Y-51797221D01*
X181685564Y-51797221D02*
X181609373Y-51911506D01*
X181609373Y-51911506D02*
X181533183Y-51987697D01*
X181533183Y-51987697D02*
X181456992Y-52025792D01*
X182599850Y-52063887D02*
X182599850Y-52597221D01*
X182409374Y-51759126D02*
X182218897Y-52330554D01*
X182218897Y-52330554D02*
X182714136Y-52330554D01*
X191645432Y-41271141D02*
X191569242Y-41233046D01*
X191569242Y-41233046D02*
X191454956Y-41233046D01*
X191454956Y-41233046D02*
X191340670Y-41271141D01*
X191340670Y-41271141D02*
X191264480Y-41347331D01*
X191264480Y-41347331D02*
X191226385Y-41423522D01*
X191226385Y-41423522D02*
X191188289Y-41575903D01*
X191188289Y-41575903D02*
X191188289Y-41690189D01*
X191188289Y-41690189D02*
X191226385Y-41842570D01*
X191226385Y-41842570D02*
X191264480Y-41918760D01*
X191264480Y-41918760D02*
X191340670Y-41994951D01*
X191340670Y-41994951D02*
X191454956Y-42033046D01*
X191454956Y-42033046D02*
X191531147Y-42033046D01*
X191531147Y-42033046D02*
X191645432Y-41994951D01*
X191645432Y-41994951D02*
X191683528Y-41956855D01*
X191683528Y-41956855D02*
X191683528Y-41690189D01*
X191683528Y-41690189D02*
X191531147Y-41690189D01*
X192026385Y-42033046D02*
X192026385Y-41233046D01*
X192026385Y-41233046D02*
X192483528Y-42033046D01*
X192483528Y-42033046D02*
X192483528Y-41233046D01*
X192864480Y-42033046D02*
X192864480Y-41233046D01*
X192864480Y-41233046D02*
X193054956Y-41233046D01*
X193054956Y-41233046D02*
X193169242Y-41271141D01*
X193169242Y-41271141D02*
X193245432Y-41347331D01*
X193245432Y-41347331D02*
X193283527Y-41423522D01*
X193283527Y-41423522D02*
X193321623Y-41575903D01*
X193321623Y-41575903D02*
X193321623Y-41690189D01*
X193321623Y-41690189D02*
X193283527Y-41842570D01*
X193283527Y-41842570D02*
X193245432Y-41918760D01*
X193245432Y-41918760D02*
X193169242Y-41994951D01*
X193169242Y-41994951D02*
X193054956Y-42033046D01*
X193054956Y-42033046D02*
X192864480Y-42033046D01*
X229024866Y-39861258D02*
X229291533Y-40661258D01*
X229291533Y-40661258D02*
X229558199Y-39861258D01*
X229786770Y-40623163D02*
X229901056Y-40661258D01*
X229901056Y-40661258D02*
X230091532Y-40661258D01*
X230091532Y-40661258D02*
X230167723Y-40623163D01*
X230167723Y-40623163D02*
X230205818Y-40585067D01*
X230205818Y-40585067D02*
X230243913Y-40508877D01*
X230243913Y-40508877D02*
X230243913Y-40432686D01*
X230243913Y-40432686D02*
X230205818Y-40356496D01*
X230205818Y-40356496D02*
X230167723Y-40318401D01*
X230167723Y-40318401D02*
X230091532Y-40280305D01*
X230091532Y-40280305D02*
X229939151Y-40242210D01*
X229939151Y-40242210D02*
X229862961Y-40204115D01*
X229862961Y-40204115D02*
X229824866Y-40166020D01*
X229824866Y-40166020D02*
X229786770Y-40089829D01*
X229786770Y-40089829D02*
X229786770Y-40013639D01*
X229786770Y-40013639D02*
X229824866Y-39937448D01*
X229824866Y-39937448D02*
X229862961Y-39899353D01*
X229862961Y-39899353D02*
X229939151Y-39861258D01*
X229939151Y-39861258D02*
X230129628Y-39861258D01*
X230129628Y-39861258D02*
X230243913Y-39899353D01*
X230739152Y-40280305D02*
X230739152Y-40661258D01*
X230472485Y-39861258D02*
X230739152Y-40280305D01*
X230739152Y-40280305D02*
X231005818Y-39861258D01*
X231234389Y-40623163D02*
X231348675Y-40661258D01*
X231348675Y-40661258D02*
X231539151Y-40661258D01*
X231539151Y-40661258D02*
X231615342Y-40623163D01*
X231615342Y-40623163D02*
X231653437Y-40585067D01*
X231653437Y-40585067D02*
X231691532Y-40508877D01*
X231691532Y-40508877D02*
X231691532Y-40432686D01*
X231691532Y-40432686D02*
X231653437Y-40356496D01*
X231653437Y-40356496D02*
X231615342Y-40318401D01*
X231615342Y-40318401D02*
X231539151Y-40280305D01*
X231539151Y-40280305D02*
X231386770Y-40242210D01*
X231386770Y-40242210D02*
X231310580Y-40204115D01*
X231310580Y-40204115D02*
X231272485Y-40166020D01*
X231272485Y-40166020D02*
X231234389Y-40089829D01*
X231234389Y-40089829D02*
X231234389Y-40013639D01*
X231234389Y-40013639D02*
X231272485Y-39937448D01*
X231272485Y-39937448D02*
X231310580Y-39899353D01*
X231310580Y-39899353D02*
X231386770Y-39861258D01*
X231386770Y-39861258D02*
X231577247Y-39861258D01*
X231577247Y-39861258D02*
X231691532Y-39899353D01*
X209605944Y-23310629D02*
X209529754Y-23272534D01*
X209529754Y-23272534D02*
X209415468Y-23272534D01*
X209415468Y-23272534D02*
X209301182Y-23310629D01*
X209301182Y-23310629D02*
X209224992Y-23386819D01*
X209224992Y-23386819D02*
X209186897Y-23463010D01*
X209186897Y-23463010D02*
X209148801Y-23615391D01*
X209148801Y-23615391D02*
X209148801Y-23729677D01*
X209148801Y-23729677D02*
X209186897Y-23882058D01*
X209186897Y-23882058D02*
X209224992Y-23958248D01*
X209224992Y-23958248D02*
X209301182Y-24034439D01*
X209301182Y-24034439D02*
X209415468Y-24072534D01*
X209415468Y-24072534D02*
X209491659Y-24072534D01*
X209491659Y-24072534D02*
X209605944Y-24034439D01*
X209605944Y-24034439D02*
X209644040Y-23996343D01*
X209644040Y-23996343D02*
X209644040Y-23729677D01*
X209644040Y-23729677D02*
X209491659Y-23729677D01*
X209986897Y-24072534D02*
X209986897Y-23272534D01*
X209986897Y-23272534D02*
X210444040Y-24072534D01*
X210444040Y-24072534D02*
X210444040Y-23272534D01*
X210824992Y-24072534D02*
X210824992Y-23272534D01*
X210824992Y-23272534D02*
X211015468Y-23272534D01*
X211015468Y-23272534D02*
X211129754Y-23310629D01*
X211129754Y-23310629D02*
X211205944Y-23386819D01*
X211205944Y-23386819D02*
X211244039Y-23463010D01*
X211244039Y-23463010D02*
X211282135Y-23615391D01*
X211282135Y-23615391D02*
X211282135Y-23729677D01*
X211282135Y-23729677D02*
X211244039Y-23882058D01*
X211244039Y-23882058D02*
X211205944Y-23958248D01*
X211205944Y-23958248D02*
X211129754Y-24034439D01*
X211129754Y-24034439D02*
X211015468Y-24072534D01*
X211015468Y-24072534D02*
X210824992Y-24072534D01*
X198867732Y-34086936D02*
X198791542Y-34048841D01*
X198791542Y-34048841D02*
X198677256Y-34048841D01*
X198677256Y-34048841D02*
X198562970Y-34086936D01*
X198562970Y-34086936D02*
X198486780Y-34163126D01*
X198486780Y-34163126D02*
X198448685Y-34239317D01*
X198448685Y-34239317D02*
X198410589Y-34391698D01*
X198410589Y-34391698D02*
X198410589Y-34505984D01*
X198410589Y-34505984D02*
X198448685Y-34658365D01*
X198448685Y-34658365D02*
X198486780Y-34734555D01*
X198486780Y-34734555D02*
X198562970Y-34810746D01*
X198562970Y-34810746D02*
X198677256Y-34848841D01*
X198677256Y-34848841D02*
X198753447Y-34848841D01*
X198753447Y-34848841D02*
X198867732Y-34810746D01*
X198867732Y-34810746D02*
X198905828Y-34772650D01*
X198905828Y-34772650D02*
X198905828Y-34505984D01*
X198905828Y-34505984D02*
X198753447Y-34505984D01*
X199248685Y-34848841D02*
X199248685Y-34048841D01*
X199248685Y-34048841D02*
X199553447Y-34048841D01*
X199553447Y-34048841D02*
X199629637Y-34086936D01*
X199629637Y-34086936D02*
X199667732Y-34125031D01*
X199667732Y-34125031D02*
X199705828Y-34201222D01*
X199705828Y-34201222D02*
X199705828Y-34315507D01*
X199705828Y-34315507D02*
X199667732Y-34391698D01*
X199667732Y-34391698D02*
X199629637Y-34429793D01*
X199629637Y-34429793D02*
X199553447Y-34467888D01*
X199553447Y-34467888D02*
X199248685Y-34467888D01*
X200391542Y-34048841D02*
X200239161Y-34048841D01*
X200239161Y-34048841D02*
X200162970Y-34086936D01*
X200162970Y-34086936D02*
X200124875Y-34125031D01*
X200124875Y-34125031D02*
X200048685Y-34239317D01*
X200048685Y-34239317D02*
X200010589Y-34391698D01*
X200010589Y-34391698D02*
X200010589Y-34696460D01*
X200010589Y-34696460D02*
X200048685Y-34772650D01*
X200048685Y-34772650D02*
X200086780Y-34810746D01*
X200086780Y-34810746D02*
X200162970Y-34848841D01*
X200162970Y-34848841D02*
X200315351Y-34848841D01*
X200315351Y-34848841D02*
X200391542Y-34810746D01*
X200391542Y-34810746D02*
X200429637Y-34772650D01*
X200429637Y-34772650D02*
X200467732Y-34696460D01*
X200467732Y-34696460D02*
X200467732Y-34505984D01*
X200467732Y-34505984D02*
X200429637Y-34429793D01*
X200429637Y-34429793D02*
X200391542Y-34391698D01*
X200391542Y-34391698D02*
X200315351Y-34353603D01*
X200315351Y-34353603D02*
X200162970Y-34353603D01*
X200162970Y-34353603D02*
X200086780Y-34391698D01*
X200086780Y-34391698D02*
X200048685Y-34429793D01*
X200048685Y-34429793D02*
X200010589Y-34505984D01*
X211380164Y-57756629D02*
X211303974Y-57718534D01*
X211303974Y-57718534D02*
X211189688Y-57718534D01*
X211189688Y-57718534D02*
X211075402Y-57756629D01*
X211075402Y-57756629D02*
X210999212Y-57832819D01*
X210999212Y-57832819D02*
X210961117Y-57909010D01*
X210961117Y-57909010D02*
X210923021Y-58061391D01*
X210923021Y-58061391D02*
X210923021Y-58175677D01*
X210923021Y-58175677D02*
X210961117Y-58328058D01*
X210961117Y-58328058D02*
X210999212Y-58404248D01*
X210999212Y-58404248D02*
X211075402Y-58480439D01*
X211075402Y-58480439D02*
X211189688Y-58518534D01*
X211189688Y-58518534D02*
X211265879Y-58518534D01*
X211265879Y-58518534D02*
X211380164Y-58480439D01*
X211380164Y-58480439D02*
X211418260Y-58442343D01*
X211418260Y-58442343D02*
X211418260Y-58175677D01*
X211418260Y-58175677D02*
X211265879Y-58175677D01*
X211761117Y-58518534D02*
X211761117Y-57718534D01*
X211761117Y-57718534D02*
X212065879Y-57718534D01*
X212065879Y-57718534D02*
X212142069Y-57756629D01*
X212142069Y-57756629D02*
X212180164Y-57794724D01*
X212180164Y-57794724D02*
X212218260Y-57870915D01*
X212218260Y-57870915D02*
X212218260Y-57985200D01*
X212218260Y-57985200D02*
X212180164Y-58061391D01*
X212180164Y-58061391D02*
X212142069Y-58099486D01*
X212142069Y-58099486D02*
X212065879Y-58137581D01*
X212065879Y-58137581D02*
X211761117Y-58137581D01*
X212523021Y-57794724D02*
X212561117Y-57756629D01*
X212561117Y-57756629D02*
X212637307Y-57718534D01*
X212637307Y-57718534D02*
X212827783Y-57718534D01*
X212827783Y-57718534D02*
X212903974Y-57756629D01*
X212903974Y-57756629D02*
X212942069Y-57794724D01*
X212942069Y-57794724D02*
X212980164Y-57870915D01*
X212980164Y-57870915D02*
X212980164Y-57947105D01*
X212980164Y-57947105D02*
X212942069Y-58061391D01*
X212942069Y-58061391D02*
X212484926Y-58518534D01*
X212484926Y-58518534D02*
X212980164Y-58518534D01*
X213284926Y-57794724D02*
X213323022Y-57756629D01*
X213323022Y-57756629D02*
X213399212Y-57718534D01*
X213399212Y-57718534D02*
X213589688Y-57718534D01*
X213589688Y-57718534D02*
X213665879Y-57756629D01*
X213665879Y-57756629D02*
X213703974Y-57794724D01*
X213703974Y-57794724D02*
X213742069Y-57870915D01*
X213742069Y-57870915D02*
X213742069Y-57947105D01*
X213742069Y-57947105D02*
X213703974Y-58061391D01*
X213703974Y-58061391D02*
X213246831Y-58518534D01*
X213246831Y-58518534D02*
X213742069Y-58518534D01*
X197163605Y-35932485D02*
X197087415Y-35894390D01*
X197087415Y-35894390D02*
X196973129Y-35894390D01*
X196973129Y-35894390D02*
X196858843Y-35932485D01*
X196858843Y-35932485D02*
X196782653Y-36008675D01*
X196782653Y-36008675D02*
X196744558Y-36084866D01*
X196744558Y-36084866D02*
X196706462Y-36237247D01*
X196706462Y-36237247D02*
X196706462Y-36351533D01*
X196706462Y-36351533D02*
X196744558Y-36503914D01*
X196744558Y-36503914D02*
X196782653Y-36580104D01*
X196782653Y-36580104D02*
X196858843Y-36656295D01*
X196858843Y-36656295D02*
X196973129Y-36694390D01*
X196973129Y-36694390D02*
X197049320Y-36694390D01*
X197049320Y-36694390D02*
X197163605Y-36656295D01*
X197163605Y-36656295D02*
X197201701Y-36618199D01*
X197201701Y-36618199D02*
X197201701Y-36351533D01*
X197201701Y-36351533D02*
X197049320Y-36351533D01*
X197544558Y-36694390D02*
X197544558Y-35894390D01*
X197544558Y-35894390D02*
X197849320Y-35894390D01*
X197849320Y-35894390D02*
X197925510Y-35932485D01*
X197925510Y-35932485D02*
X197963605Y-35970580D01*
X197963605Y-35970580D02*
X198001701Y-36046771D01*
X198001701Y-36046771D02*
X198001701Y-36161056D01*
X198001701Y-36161056D02*
X197963605Y-36237247D01*
X197963605Y-36237247D02*
X197925510Y-36275342D01*
X197925510Y-36275342D02*
X197849320Y-36313437D01*
X197849320Y-36313437D02*
X197544558Y-36313437D01*
X198268367Y-35894390D02*
X198801701Y-35894390D01*
X198801701Y-35894390D02*
X198458843Y-36694390D01*
X206051937Y-26902731D02*
X205975747Y-26864636D01*
X205975747Y-26864636D02*
X205861461Y-26864636D01*
X205861461Y-26864636D02*
X205747175Y-26902731D01*
X205747175Y-26902731D02*
X205670985Y-26978921D01*
X205670985Y-26978921D02*
X205632890Y-27055112D01*
X205632890Y-27055112D02*
X205594794Y-27207493D01*
X205594794Y-27207493D02*
X205594794Y-27321779D01*
X205594794Y-27321779D02*
X205632890Y-27474160D01*
X205632890Y-27474160D02*
X205670985Y-27550350D01*
X205670985Y-27550350D02*
X205747175Y-27626541D01*
X205747175Y-27626541D02*
X205861461Y-27664636D01*
X205861461Y-27664636D02*
X205937652Y-27664636D01*
X205937652Y-27664636D02*
X206051937Y-27626541D01*
X206051937Y-27626541D02*
X206090033Y-27588445D01*
X206090033Y-27588445D02*
X206090033Y-27321779D01*
X206090033Y-27321779D02*
X205937652Y-27321779D01*
X206432890Y-27664636D02*
X206432890Y-26864636D01*
X206432890Y-26864636D02*
X206737652Y-26864636D01*
X206737652Y-26864636D02*
X206813842Y-26902731D01*
X206813842Y-26902731D02*
X206851937Y-26940826D01*
X206851937Y-26940826D02*
X206890033Y-27017017D01*
X206890033Y-27017017D02*
X206890033Y-27131302D01*
X206890033Y-27131302D02*
X206851937Y-27207493D01*
X206851937Y-27207493D02*
X206813842Y-27245588D01*
X206813842Y-27245588D02*
X206737652Y-27283683D01*
X206737652Y-27283683D02*
X206432890Y-27283683D01*
X207156699Y-26864636D02*
X207651937Y-26864636D01*
X207651937Y-26864636D02*
X207385271Y-27169398D01*
X207385271Y-27169398D02*
X207499556Y-27169398D01*
X207499556Y-27169398D02*
X207575747Y-27207493D01*
X207575747Y-27207493D02*
X207613842Y-27245588D01*
X207613842Y-27245588D02*
X207651937Y-27321779D01*
X207651937Y-27321779D02*
X207651937Y-27512255D01*
X207651937Y-27512255D02*
X207613842Y-27588445D01*
X207613842Y-27588445D02*
X207575747Y-27626541D01*
X207575747Y-27626541D02*
X207499556Y-27664636D01*
X207499556Y-27664636D02*
X207270985Y-27664636D01*
X207270985Y-27664636D02*
X207194794Y-27626541D01*
X207194794Y-27626541D02*
X207156699Y-27588445D01*
X227707878Y-41412563D02*
X227631688Y-41374468D01*
X227631688Y-41374468D02*
X227517402Y-41374468D01*
X227517402Y-41374468D02*
X227403116Y-41412563D01*
X227403116Y-41412563D02*
X227326926Y-41488753D01*
X227326926Y-41488753D02*
X227288831Y-41564944D01*
X227288831Y-41564944D02*
X227250735Y-41717325D01*
X227250735Y-41717325D02*
X227250735Y-41831611D01*
X227250735Y-41831611D02*
X227288831Y-41983992D01*
X227288831Y-41983992D02*
X227326926Y-42060182D01*
X227326926Y-42060182D02*
X227403116Y-42136373D01*
X227403116Y-42136373D02*
X227517402Y-42174468D01*
X227517402Y-42174468D02*
X227593593Y-42174468D01*
X227593593Y-42174468D02*
X227707878Y-42136373D01*
X227707878Y-42136373D02*
X227745974Y-42098277D01*
X227745974Y-42098277D02*
X227745974Y-41831611D01*
X227745974Y-41831611D02*
X227593593Y-41831611D01*
X228088831Y-42174468D02*
X228088831Y-41374468D01*
X228088831Y-41374468D02*
X228545974Y-42174468D01*
X228545974Y-42174468D02*
X228545974Y-41374468D01*
X228926926Y-42174468D02*
X228926926Y-41374468D01*
X228926926Y-41374468D02*
X229117402Y-41374468D01*
X229117402Y-41374468D02*
X229231688Y-41412563D01*
X229231688Y-41412563D02*
X229307878Y-41488753D01*
X229307878Y-41488753D02*
X229345973Y-41564944D01*
X229345973Y-41564944D02*
X229384069Y-41717325D01*
X229384069Y-41717325D02*
X229384069Y-41831611D01*
X229384069Y-41831611D02*
X229345973Y-41983992D01*
X229345973Y-41983992D02*
X229307878Y-42060182D01*
X229307878Y-42060182D02*
X229231688Y-42136373D01*
X229231688Y-42136373D02*
X229117402Y-42174468D01*
X229117402Y-42174468D02*
X228926926Y-42174468D01*
X207780991Y-61355803D02*
X207704801Y-61317708D01*
X207704801Y-61317708D02*
X207590515Y-61317708D01*
X207590515Y-61317708D02*
X207476229Y-61355803D01*
X207476229Y-61355803D02*
X207400039Y-61431993D01*
X207400039Y-61431993D02*
X207361944Y-61508184D01*
X207361944Y-61508184D02*
X207323848Y-61660565D01*
X207323848Y-61660565D02*
X207323848Y-61774851D01*
X207323848Y-61774851D02*
X207361944Y-61927232D01*
X207361944Y-61927232D02*
X207400039Y-62003422D01*
X207400039Y-62003422D02*
X207476229Y-62079613D01*
X207476229Y-62079613D02*
X207590515Y-62117708D01*
X207590515Y-62117708D02*
X207666706Y-62117708D01*
X207666706Y-62117708D02*
X207780991Y-62079613D01*
X207780991Y-62079613D02*
X207819087Y-62041517D01*
X207819087Y-62041517D02*
X207819087Y-61774851D01*
X207819087Y-61774851D02*
X207666706Y-61774851D01*
X208161944Y-62117708D02*
X208161944Y-61317708D01*
X208161944Y-61317708D02*
X208466706Y-61317708D01*
X208466706Y-61317708D02*
X208542896Y-61355803D01*
X208542896Y-61355803D02*
X208580991Y-61393898D01*
X208580991Y-61393898D02*
X208619087Y-61470089D01*
X208619087Y-61470089D02*
X208619087Y-61584374D01*
X208619087Y-61584374D02*
X208580991Y-61660565D01*
X208580991Y-61660565D02*
X208542896Y-61698660D01*
X208542896Y-61698660D02*
X208466706Y-61736755D01*
X208466706Y-61736755D02*
X208161944Y-61736755D01*
X208923848Y-61393898D02*
X208961944Y-61355803D01*
X208961944Y-61355803D02*
X209038134Y-61317708D01*
X209038134Y-61317708D02*
X209228610Y-61317708D01*
X209228610Y-61317708D02*
X209304801Y-61355803D01*
X209304801Y-61355803D02*
X209342896Y-61393898D01*
X209342896Y-61393898D02*
X209380991Y-61470089D01*
X209380991Y-61470089D02*
X209380991Y-61546279D01*
X209380991Y-61546279D02*
X209342896Y-61660565D01*
X209342896Y-61660565D02*
X208885753Y-62117708D01*
X208885753Y-62117708D02*
X209380991Y-62117708D01*
X210142896Y-62117708D02*
X209685753Y-62117708D01*
X209914325Y-62117708D02*
X209914325Y-61317708D01*
X209914325Y-61317708D02*
X209838134Y-61431993D01*
X209838134Y-61431993D02*
X209761944Y-61508184D01*
X209761944Y-61508184D02*
X209685753Y-61546279D01*
X202459834Y-30494834D02*
X202383644Y-30456739D01*
X202383644Y-30456739D02*
X202269358Y-30456739D01*
X202269358Y-30456739D02*
X202155072Y-30494834D01*
X202155072Y-30494834D02*
X202078882Y-30571024D01*
X202078882Y-30571024D02*
X202040787Y-30647215D01*
X202040787Y-30647215D02*
X202002691Y-30799596D01*
X202002691Y-30799596D02*
X202002691Y-30913882D01*
X202002691Y-30913882D02*
X202040787Y-31066263D01*
X202040787Y-31066263D02*
X202078882Y-31142453D01*
X202078882Y-31142453D02*
X202155072Y-31218644D01*
X202155072Y-31218644D02*
X202269358Y-31256739D01*
X202269358Y-31256739D02*
X202345549Y-31256739D01*
X202345549Y-31256739D02*
X202459834Y-31218644D01*
X202459834Y-31218644D02*
X202497930Y-31180548D01*
X202497930Y-31180548D02*
X202497930Y-30913882D01*
X202497930Y-30913882D02*
X202345549Y-30913882D01*
X202840787Y-31256739D02*
X202840787Y-30456739D01*
X202840787Y-30456739D02*
X203145549Y-30456739D01*
X203145549Y-30456739D02*
X203221739Y-30494834D01*
X203221739Y-30494834D02*
X203259834Y-30532929D01*
X203259834Y-30532929D02*
X203297930Y-30609120D01*
X203297930Y-30609120D02*
X203297930Y-30723405D01*
X203297930Y-30723405D02*
X203259834Y-30799596D01*
X203259834Y-30799596D02*
X203221739Y-30837691D01*
X203221739Y-30837691D02*
X203145549Y-30875786D01*
X203145549Y-30875786D02*
X202840787Y-30875786D01*
X204021739Y-30456739D02*
X203640787Y-30456739D01*
X203640787Y-30456739D02*
X203602691Y-30837691D01*
X203602691Y-30837691D02*
X203640787Y-30799596D01*
X203640787Y-30799596D02*
X203716977Y-30761501D01*
X203716977Y-30761501D02*
X203907453Y-30761501D01*
X203907453Y-30761501D02*
X203983644Y-30799596D01*
X203983644Y-30799596D02*
X204021739Y-30837691D01*
X204021739Y-30837691D02*
X204059834Y-30913882D01*
X204059834Y-30913882D02*
X204059834Y-31104358D01*
X204059834Y-31104358D02*
X204021739Y-31180548D01*
X204021739Y-31180548D02*
X203983644Y-31218644D01*
X203983644Y-31218644D02*
X203907453Y-31256739D01*
X203907453Y-31256739D02*
X203716977Y-31256739D01*
X203716977Y-31256739D02*
X203640787Y-31218644D01*
X203640787Y-31218644D02*
X203602691Y-31180548D01*
X181730574Y-59676996D02*
X181784449Y-59784745D01*
X181784449Y-59784745D02*
X181919136Y-59919432D01*
X181919136Y-59919432D02*
X181999948Y-59946370D01*
X181999948Y-59946370D02*
X182053823Y-59946370D01*
X182053823Y-59946370D02*
X182134635Y-59919432D01*
X182134635Y-59919432D02*
X182188510Y-59865558D01*
X182188510Y-59865558D02*
X182215447Y-59784745D01*
X182215447Y-59784745D02*
X182215447Y-59730871D01*
X182215447Y-59730871D02*
X182188510Y-59650058D01*
X182188510Y-59650058D02*
X182107697Y-59515371D01*
X182107697Y-59515371D02*
X182080760Y-59434559D01*
X182080760Y-59434559D02*
X182080760Y-59380684D01*
X182080760Y-59380684D02*
X182107697Y-59299872D01*
X182107697Y-59299872D02*
X182161572Y-59245997D01*
X182161572Y-59245997D02*
X182242384Y-59219060D01*
X182242384Y-59219060D02*
X182296259Y-59219060D01*
X182296259Y-59219060D02*
X182377071Y-59245997D01*
X182377071Y-59245997D02*
X182511758Y-59380684D01*
X182511758Y-59380684D02*
X182565633Y-59488434D01*
X182781133Y-59650059D02*
X182350134Y-60350431D01*
X182350134Y-60350431D02*
X182861945Y-60054120D01*
X182861945Y-60054120D02*
X182565633Y-60565930D01*
X182565633Y-60565930D02*
X183266006Y-60134932D01*
X183292943Y-61185491D02*
X183239069Y-61185491D01*
X183239069Y-61185491D02*
X183131319Y-61131616D01*
X183131319Y-61131616D02*
X183077444Y-61077741D01*
X183077444Y-61077741D02*
X183023569Y-60969991D01*
X183023569Y-60969991D02*
X183023569Y-60862242D01*
X183023569Y-60862242D02*
X183050507Y-60781430D01*
X183050507Y-60781430D02*
X183131319Y-60646743D01*
X183131319Y-60646743D02*
X183212131Y-60565930D01*
X183212131Y-60565930D02*
X183346818Y-60485118D01*
X183346818Y-60485118D02*
X183427630Y-60458181D01*
X183427630Y-60458181D02*
X183535380Y-60458181D01*
X183535380Y-60458181D02*
X183643130Y-60512056D01*
X183643130Y-60512056D02*
X183697004Y-60565930D01*
X183697004Y-60565930D02*
X183750879Y-60673680D01*
X183750879Y-60673680D02*
X183750879Y-60727555D01*
X183750879Y-61751176D02*
X183481505Y-61481802D01*
X183481505Y-61481802D02*
X184047191Y-60916117D01*
X183939441Y-61939738D02*
X184505126Y-61374052D01*
X184262690Y-62262987D02*
X184343502Y-61697301D01*
X184828375Y-61697301D02*
X184181878Y-61697301D01*
X200625688Y-32290885D02*
X200549498Y-32252790D01*
X200549498Y-32252790D02*
X200435212Y-32252790D01*
X200435212Y-32252790D02*
X200320926Y-32290885D01*
X200320926Y-32290885D02*
X200244736Y-32367075D01*
X200244736Y-32367075D02*
X200206641Y-32443266D01*
X200206641Y-32443266D02*
X200168545Y-32595647D01*
X200168545Y-32595647D02*
X200168545Y-32709933D01*
X200168545Y-32709933D02*
X200206641Y-32862314D01*
X200206641Y-32862314D02*
X200244736Y-32938504D01*
X200244736Y-32938504D02*
X200320926Y-33014695D01*
X200320926Y-33014695D02*
X200435212Y-33052790D01*
X200435212Y-33052790D02*
X200511403Y-33052790D01*
X200511403Y-33052790D02*
X200625688Y-33014695D01*
X200625688Y-33014695D02*
X200663784Y-32976599D01*
X200663784Y-32976599D02*
X200663784Y-32709933D01*
X200663784Y-32709933D02*
X200511403Y-32709933D01*
X201006641Y-33052790D02*
X201006641Y-32252790D01*
X201006641Y-32252790D02*
X201463784Y-33052790D01*
X201463784Y-33052790D02*
X201463784Y-32252790D01*
X201844736Y-33052790D02*
X201844736Y-32252790D01*
X201844736Y-32252790D02*
X202035212Y-32252790D01*
X202035212Y-32252790D02*
X202149498Y-32290885D01*
X202149498Y-32290885D02*
X202225688Y-32367075D01*
X202225688Y-32367075D02*
X202263783Y-32443266D01*
X202263783Y-32443266D02*
X202301879Y-32595647D01*
X202301879Y-32595647D02*
X202301879Y-32709933D01*
X202301879Y-32709933D02*
X202263783Y-32862314D01*
X202263783Y-32862314D02*
X202225688Y-32938504D01*
X202225688Y-32938504D02*
X202149498Y-33014695D01*
X202149498Y-33014695D02*
X202035212Y-33052790D01*
X202035212Y-33052790D02*
X201844736Y-33052790D01*
X205992011Y-63144783D02*
X205915821Y-63106688D01*
X205915821Y-63106688D02*
X205801535Y-63106688D01*
X205801535Y-63106688D02*
X205687249Y-63144783D01*
X205687249Y-63144783D02*
X205611059Y-63220973D01*
X205611059Y-63220973D02*
X205572964Y-63297164D01*
X205572964Y-63297164D02*
X205534868Y-63449545D01*
X205534868Y-63449545D02*
X205534868Y-63563831D01*
X205534868Y-63563831D02*
X205572964Y-63716212D01*
X205572964Y-63716212D02*
X205611059Y-63792402D01*
X205611059Y-63792402D02*
X205687249Y-63868593D01*
X205687249Y-63868593D02*
X205801535Y-63906688D01*
X205801535Y-63906688D02*
X205877726Y-63906688D01*
X205877726Y-63906688D02*
X205992011Y-63868593D01*
X205992011Y-63868593D02*
X206030107Y-63830497D01*
X206030107Y-63830497D02*
X206030107Y-63563831D01*
X206030107Y-63563831D02*
X205877726Y-63563831D01*
X206372964Y-63906688D02*
X206372964Y-63106688D01*
X206372964Y-63106688D02*
X206677726Y-63106688D01*
X206677726Y-63106688D02*
X206753916Y-63144783D01*
X206753916Y-63144783D02*
X206792011Y-63182878D01*
X206792011Y-63182878D02*
X206830107Y-63259069D01*
X206830107Y-63259069D02*
X206830107Y-63373354D01*
X206830107Y-63373354D02*
X206792011Y-63449545D01*
X206792011Y-63449545D02*
X206753916Y-63487640D01*
X206753916Y-63487640D02*
X206677726Y-63525735D01*
X206677726Y-63525735D02*
X206372964Y-63525735D01*
X207134868Y-63182878D02*
X207172964Y-63144783D01*
X207172964Y-63144783D02*
X207249154Y-63106688D01*
X207249154Y-63106688D02*
X207439630Y-63106688D01*
X207439630Y-63106688D02*
X207515821Y-63144783D01*
X207515821Y-63144783D02*
X207553916Y-63182878D01*
X207553916Y-63182878D02*
X207592011Y-63259069D01*
X207592011Y-63259069D02*
X207592011Y-63335259D01*
X207592011Y-63335259D02*
X207553916Y-63449545D01*
X207553916Y-63449545D02*
X207096773Y-63906688D01*
X207096773Y-63906688D02*
X207592011Y-63906688D01*
X208087250Y-63106688D02*
X208163440Y-63106688D01*
X208163440Y-63106688D02*
X208239631Y-63144783D01*
X208239631Y-63144783D02*
X208277726Y-63182878D01*
X208277726Y-63182878D02*
X208315821Y-63259069D01*
X208315821Y-63259069D02*
X208353916Y-63411450D01*
X208353916Y-63411450D02*
X208353916Y-63601926D01*
X208353916Y-63601926D02*
X208315821Y-63754307D01*
X208315821Y-63754307D02*
X208277726Y-63830497D01*
X208277726Y-63830497D02*
X208239631Y-63868593D01*
X208239631Y-63868593D02*
X208163440Y-63906688D01*
X208163440Y-63906688D02*
X208087250Y-63906688D01*
X208087250Y-63906688D02*
X208011059Y-63868593D01*
X208011059Y-63868593D02*
X207972964Y-63830497D01*
X207972964Y-63830497D02*
X207934869Y-63754307D01*
X207934869Y-63754307D02*
X207896773Y-63601926D01*
X207896773Y-63601926D02*
X207896773Y-63411450D01*
X207896773Y-63411450D02*
X207934869Y-63259069D01*
X207934869Y-63259069D02*
X207972964Y-63182878D01*
X207972964Y-63182878D02*
X208011059Y-63144783D01*
X208011059Y-63144783D02*
X208087250Y-63106688D01*
X213236142Y-19718527D02*
X213159952Y-19680432D01*
X213159952Y-19680432D02*
X213045666Y-19680432D01*
X213045666Y-19680432D02*
X212931380Y-19718527D01*
X212931380Y-19718527D02*
X212855190Y-19794717D01*
X212855190Y-19794717D02*
X212817095Y-19870908D01*
X212817095Y-19870908D02*
X212778999Y-20023289D01*
X212778999Y-20023289D02*
X212778999Y-20137575D01*
X212778999Y-20137575D02*
X212817095Y-20289956D01*
X212817095Y-20289956D02*
X212855190Y-20366146D01*
X212855190Y-20366146D02*
X212931380Y-20442337D01*
X212931380Y-20442337D02*
X213045666Y-20480432D01*
X213045666Y-20480432D02*
X213121857Y-20480432D01*
X213121857Y-20480432D02*
X213236142Y-20442337D01*
X213236142Y-20442337D02*
X213274238Y-20404241D01*
X213274238Y-20404241D02*
X213274238Y-20137575D01*
X213274238Y-20137575D02*
X213121857Y-20137575D01*
X213617095Y-20480432D02*
X213617095Y-19680432D01*
X213617095Y-19680432D02*
X213921857Y-19680432D01*
X213921857Y-19680432D02*
X213998047Y-19718527D01*
X213998047Y-19718527D02*
X214036142Y-19756622D01*
X214036142Y-19756622D02*
X214074238Y-19832813D01*
X214074238Y-19832813D02*
X214074238Y-19947098D01*
X214074238Y-19947098D02*
X214036142Y-20023289D01*
X214036142Y-20023289D02*
X213998047Y-20061384D01*
X213998047Y-20061384D02*
X213921857Y-20099479D01*
X213921857Y-20099479D02*
X213617095Y-20099479D01*
X214569476Y-19680432D02*
X214645666Y-19680432D01*
X214645666Y-19680432D02*
X214721857Y-19718527D01*
X214721857Y-19718527D02*
X214759952Y-19756622D01*
X214759952Y-19756622D02*
X214798047Y-19832813D01*
X214798047Y-19832813D02*
X214836142Y-19985194D01*
X214836142Y-19985194D02*
X214836142Y-20175670D01*
X214836142Y-20175670D02*
X214798047Y-20328051D01*
X214798047Y-20328051D02*
X214759952Y-20404241D01*
X214759952Y-20404241D02*
X214721857Y-20442337D01*
X214721857Y-20442337D02*
X214645666Y-20480432D01*
X214645666Y-20480432D02*
X214569476Y-20480432D01*
X214569476Y-20480432D02*
X214493285Y-20442337D01*
X214493285Y-20442337D02*
X214455190Y-20404241D01*
X214455190Y-20404241D02*
X214417095Y-20328051D01*
X214417095Y-20328051D02*
X214378999Y-20175670D01*
X214378999Y-20175670D02*
X214378999Y-19985194D01*
X214378999Y-19985194D02*
X214417095Y-19832813D01*
X214417095Y-19832813D02*
X214455190Y-19756622D01*
X214455190Y-19756622D02*
X214493285Y-19718527D01*
X214493285Y-19718527D02*
X214569476Y-19680432D01*
X218107227Y-51105757D02*
X218488180Y-51105757D01*
X218031037Y-51334329D02*
X218297704Y-50534329D01*
X218297704Y-50534329D02*
X218564370Y-51334329D01*
X219250084Y-50572424D02*
X219173894Y-50534329D01*
X219173894Y-50534329D02*
X219059608Y-50534329D01*
X219059608Y-50534329D02*
X218945322Y-50572424D01*
X218945322Y-50572424D02*
X218869132Y-50648614D01*
X218869132Y-50648614D02*
X218831037Y-50724805D01*
X218831037Y-50724805D02*
X218792941Y-50877186D01*
X218792941Y-50877186D02*
X218792941Y-50991472D01*
X218792941Y-50991472D02*
X218831037Y-51143853D01*
X218831037Y-51143853D02*
X218869132Y-51220043D01*
X218869132Y-51220043D02*
X218945322Y-51296234D01*
X218945322Y-51296234D02*
X219059608Y-51334329D01*
X219059608Y-51334329D02*
X219135799Y-51334329D01*
X219135799Y-51334329D02*
X219250084Y-51296234D01*
X219250084Y-51296234D02*
X219288180Y-51258138D01*
X219288180Y-51258138D02*
X219288180Y-50991472D01*
X219288180Y-50991472D02*
X219135799Y-50991472D01*
X219631037Y-51334329D02*
X219631037Y-50534329D01*
X219631037Y-50534329D02*
X220088180Y-51334329D01*
X220088180Y-51334329D02*
X220088180Y-50534329D01*
X220469132Y-51334329D02*
X220469132Y-50534329D01*
X220469132Y-50534329D02*
X220659608Y-50534329D01*
X220659608Y-50534329D02*
X220773894Y-50572424D01*
X220773894Y-50572424D02*
X220850084Y-50648614D01*
X220850084Y-50648614D02*
X220888179Y-50724805D01*
X220888179Y-50724805D02*
X220926275Y-50877186D01*
X220926275Y-50877186D02*
X220926275Y-50991472D01*
X220926275Y-50991472D02*
X220888179Y-51143853D01*
X220888179Y-51143853D02*
X220850084Y-51220043D01*
X220850084Y-51220043D02*
X220773894Y-51296234D01*
X220773894Y-51296234D02*
X220659608Y-51334329D01*
X220659608Y-51334329D02*
X220469132Y-51334329D01*
X202399908Y-66736885D02*
X202323718Y-66698790D01*
X202323718Y-66698790D02*
X202209432Y-66698790D01*
X202209432Y-66698790D02*
X202095146Y-66736885D01*
X202095146Y-66736885D02*
X202018956Y-66813075D01*
X202018956Y-66813075D02*
X201980861Y-66889266D01*
X201980861Y-66889266D02*
X201942765Y-67041647D01*
X201942765Y-67041647D02*
X201942765Y-67155933D01*
X201942765Y-67155933D02*
X201980861Y-67308314D01*
X201980861Y-67308314D02*
X202018956Y-67384504D01*
X202018956Y-67384504D02*
X202095146Y-67460695D01*
X202095146Y-67460695D02*
X202209432Y-67498790D01*
X202209432Y-67498790D02*
X202285623Y-67498790D01*
X202285623Y-67498790D02*
X202399908Y-67460695D01*
X202399908Y-67460695D02*
X202438004Y-67422599D01*
X202438004Y-67422599D02*
X202438004Y-67155933D01*
X202438004Y-67155933D02*
X202285623Y-67155933D01*
X202780861Y-67498790D02*
X202780861Y-66698790D01*
X202780861Y-66698790D02*
X203085623Y-66698790D01*
X203085623Y-66698790D02*
X203161813Y-66736885D01*
X203161813Y-66736885D02*
X203199908Y-66774980D01*
X203199908Y-66774980D02*
X203238004Y-66851171D01*
X203238004Y-66851171D02*
X203238004Y-66965456D01*
X203238004Y-66965456D02*
X203199908Y-67041647D01*
X203199908Y-67041647D02*
X203161813Y-67079742D01*
X203161813Y-67079742D02*
X203085623Y-67117837D01*
X203085623Y-67117837D02*
X202780861Y-67117837D01*
X203999908Y-67498790D02*
X203542765Y-67498790D01*
X203771337Y-67498790D02*
X203771337Y-66698790D01*
X203771337Y-66698790D02*
X203695146Y-66813075D01*
X203695146Y-66813075D02*
X203618956Y-66889266D01*
X203618956Y-66889266D02*
X203542765Y-66927361D01*
X204457051Y-67041647D02*
X204380861Y-67003552D01*
X204380861Y-67003552D02*
X204342766Y-66965456D01*
X204342766Y-66965456D02*
X204304670Y-66889266D01*
X204304670Y-66889266D02*
X204304670Y-66851171D01*
X204304670Y-66851171D02*
X204342766Y-66774980D01*
X204342766Y-66774980D02*
X204380861Y-66736885D01*
X204380861Y-66736885D02*
X204457051Y-66698790D01*
X204457051Y-66698790D02*
X204609432Y-66698790D01*
X204609432Y-66698790D02*
X204685623Y-66736885D01*
X204685623Y-66736885D02*
X204723718Y-66774980D01*
X204723718Y-66774980D02*
X204761813Y-66851171D01*
X204761813Y-66851171D02*
X204761813Y-66889266D01*
X204761813Y-66889266D02*
X204723718Y-66965456D01*
X204723718Y-66965456D02*
X204685623Y-67003552D01*
X204685623Y-67003552D02*
X204609432Y-67041647D01*
X204609432Y-67041647D02*
X204457051Y-67041647D01*
X204457051Y-67041647D02*
X204380861Y-67079742D01*
X204380861Y-67079742D02*
X204342766Y-67117837D01*
X204342766Y-67117837D02*
X204304670Y-67194028D01*
X204304670Y-67194028D02*
X204304670Y-67346409D01*
X204304670Y-67346409D02*
X204342766Y-67422599D01*
X204342766Y-67422599D02*
X204380861Y-67460695D01*
X204380861Y-67460695D02*
X204457051Y-67498790D01*
X204457051Y-67498790D02*
X204609432Y-67498790D01*
X204609432Y-67498790D02*
X204685623Y-67460695D01*
X204685623Y-67460695D02*
X204723718Y-67422599D01*
X204723718Y-67422599D02*
X204761813Y-67346409D01*
X204761813Y-67346409D02*
X204761813Y-67194028D01*
X204761813Y-67194028D02*
X204723718Y-67117837D01*
X204723718Y-67117837D02*
X204685623Y-67079742D01*
X204685623Y-67079742D02*
X204609432Y-67041647D01*
X207777277Y-25035969D02*
X207701087Y-24997874D01*
X207701087Y-24997874D02*
X207586801Y-24997874D01*
X207586801Y-24997874D02*
X207472515Y-25035969D01*
X207472515Y-25035969D02*
X207396325Y-25112159D01*
X207396325Y-25112159D02*
X207358230Y-25188350D01*
X207358230Y-25188350D02*
X207320134Y-25340731D01*
X207320134Y-25340731D02*
X207320134Y-25455017D01*
X207320134Y-25455017D02*
X207358230Y-25607398D01*
X207358230Y-25607398D02*
X207396325Y-25683588D01*
X207396325Y-25683588D02*
X207472515Y-25759779D01*
X207472515Y-25759779D02*
X207586801Y-25797874D01*
X207586801Y-25797874D02*
X207662992Y-25797874D01*
X207662992Y-25797874D02*
X207777277Y-25759779D01*
X207777277Y-25759779D02*
X207815373Y-25721683D01*
X207815373Y-25721683D02*
X207815373Y-25455017D01*
X207815373Y-25455017D02*
X207662992Y-25455017D01*
X208158230Y-25797874D02*
X208158230Y-24997874D01*
X208158230Y-24997874D02*
X208462992Y-24997874D01*
X208462992Y-24997874D02*
X208539182Y-25035969D01*
X208539182Y-25035969D02*
X208577277Y-25074064D01*
X208577277Y-25074064D02*
X208615373Y-25150255D01*
X208615373Y-25150255D02*
X208615373Y-25264540D01*
X208615373Y-25264540D02*
X208577277Y-25340731D01*
X208577277Y-25340731D02*
X208539182Y-25378826D01*
X208539182Y-25378826D02*
X208462992Y-25416921D01*
X208462992Y-25416921D02*
X208158230Y-25416921D01*
X208920134Y-25074064D02*
X208958230Y-25035969D01*
X208958230Y-25035969D02*
X209034420Y-24997874D01*
X209034420Y-24997874D02*
X209224896Y-24997874D01*
X209224896Y-24997874D02*
X209301087Y-25035969D01*
X209301087Y-25035969D02*
X209339182Y-25074064D01*
X209339182Y-25074064D02*
X209377277Y-25150255D01*
X209377277Y-25150255D02*
X209377277Y-25226445D01*
X209377277Y-25226445D02*
X209339182Y-25340731D01*
X209339182Y-25340731D02*
X208882039Y-25797874D01*
X208882039Y-25797874D02*
X209377277Y-25797874D01*
X185631578Y-46376453D02*
X185555388Y-46338358D01*
X185555388Y-46338358D02*
X185441102Y-46338358D01*
X185441102Y-46338358D02*
X185326816Y-46376453D01*
X185326816Y-46376453D02*
X185250626Y-46452643D01*
X185250626Y-46452643D02*
X185212531Y-46528834D01*
X185212531Y-46528834D02*
X185174435Y-46681215D01*
X185174435Y-46681215D02*
X185174435Y-46795501D01*
X185174435Y-46795501D02*
X185212531Y-46947882D01*
X185212531Y-46947882D02*
X185250626Y-47024072D01*
X185250626Y-47024072D02*
X185326816Y-47100263D01*
X185326816Y-47100263D02*
X185441102Y-47138358D01*
X185441102Y-47138358D02*
X185517293Y-47138358D01*
X185517293Y-47138358D02*
X185631578Y-47100263D01*
X185631578Y-47100263D02*
X185669674Y-47062167D01*
X185669674Y-47062167D02*
X185669674Y-46795501D01*
X185669674Y-46795501D02*
X185517293Y-46795501D01*
X186012531Y-47138358D02*
X186012531Y-46338358D01*
X186012531Y-46338358D02*
X186317293Y-46338358D01*
X186317293Y-46338358D02*
X186393483Y-46376453D01*
X186393483Y-46376453D02*
X186431578Y-46414548D01*
X186431578Y-46414548D02*
X186469674Y-46490739D01*
X186469674Y-46490739D02*
X186469674Y-46605024D01*
X186469674Y-46605024D02*
X186431578Y-46681215D01*
X186431578Y-46681215D02*
X186393483Y-46719310D01*
X186393483Y-46719310D02*
X186317293Y-46757405D01*
X186317293Y-46757405D02*
X186012531Y-46757405D01*
X187231578Y-47138358D02*
X186774435Y-47138358D01*
X187003007Y-47138358D02*
X187003007Y-46338358D01*
X187003007Y-46338358D02*
X186926816Y-46452643D01*
X186926816Y-46452643D02*
X186850626Y-46528834D01*
X186850626Y-46528834D02*
X186774435Y-46566929D01*
X187536340Y-46414548D02*
X187574436Y-46376453D01*
X187574436Y-46376453D02*
X187650626Y-46338358D01*
X187650626Y-46338358D02*
X187841102Y-46338358D01*
X187841102Y-46338358D02*
X187917293Y-46376453D01*
X187917293Y-46376453D02*
X187955388Y-46414548D01*
X187955388Y-46414548D02*
X187993483Y-46490739D01*
X187993483Y-46490739D02*
X187993483Y-46566929D01*
X187993483Y-46566929D02*
X187955388Y-46681215D01*
X187955388Y-46681215D02*
X187498245Y-47138358D01*
X187498245Y-47138358D02*
X187993483Y-47138358D01*
X204195959Y-64940834D02*
X204119769Y-64902739D01*
X204119769Y-64902739D02*
X204005483Y-64902739D01*
X204005483Y-64902739D02*
X203891197Y-64940834D01*
X203891197Y-64940834D02*
X203815007Y-65017024D01*
X203815007Y-65017024D02*
X203776912Y-65093215D01*
X203776912Y-65093215D02*
X203738816Y-65245596D01*
X203738816Y-65245596D02*
X203738816Y-65359882D01*
X203738816Y-65359882D02*
X203776912Y-65512263D01*
X203776912Y-65512263D02*
X203815007Y-65588453D01*
X203815007Y-65588453D02*
X203891197Y-65664644D01*
X203891197Y-65664644D02*
X204005483Y-65702739D01*
X204005483Y-65702739D02*
X204081674Y-65702739D01*
X204081674Y-65702739D02*
X204195959Y-65664644D01*
X204195959Y-65664644D02*
X204234055Y-65626548D01*
X204234055Y-65626548D02*
X204234055Y-65359882D01*
X204234055Y-65359882D02*
X204081674Y-65359882D01*
X204576912Y-65702739D02*
X204576912Y-64902739D01*
X204576912Y-64902739D02*
X204881674Y-64902739D01*
X204881674Y-64902739D02*
X204957864Y-64940834D01*
X204957864Y-64940834D02*
X204995959Y-64978929D01*
X204995959Y-64978929D02*
X205034055Y-65055120D01*
X205034055Y-65055120D02*
X205034055Y-65169405D01*
X205034055Y-65169405D02*
X204995959Y-65245596D01*
X204995959Y-65245596D02*
X204957864Y-65283691D01*
X204957864Y-65283691D02*
X204881674Y-65321786D01*
X204881674Y-65321786D02*
X204576912Y-65321786D01*
X205795959Y-65702739D02*
X205338816Y-65702739D01*
X205567388Y-65702739D02*
X205567388Y-64902739D01*
X205567388Y-64902739D02*
X205491197Y-65017024D01*
X205491197Y-65017024D02*
X205415007Y-65093215D01*
X205415007Y-65093215D02*
X205338816Y-65131310D01*
X206176912Y-65702739D02*
X206329293Y-65702739D01*
X206329293Y-65702739D02*
X206405483Y-65664644D01*
X206405483Y-65664644D02*
X206443579Y-65626548D01*
X206443579Y-65626548D02*
X206519769Y-65512263D01*
X206519769Y-65512263D02*
X206557864Y-65359882D01*
X206557864Y-65359882D02*
X206557864Y-65055120D01*
X206557864Y-65055120D02*
X206519769Y-64978929D01*
X206519769Y-64978929D02*
X206481674Y-64940834D01*
X206481674Y-64940834D02*
X206405483Y-64902739D01*
X206405483Y-64902739D02*
X206253102Y-64902739D01*
X206253102Y-64902739D02*
X206176912Y-64940834D01*
X206176912Y-64940834D02*
X206138817Y-64978929D01*
X206138817Y-64978929D02*
X206100721Y-65055120D01*
X206100721Y-65055120D02*
X206100721Y-65245596D01*
X206100721Y-65245596D02*
X206138817Y-65321786D01*
X206138817Y-65321786D02*
X206176912Y-65359882D01*
X206176912Y-65359882D02*
X206253102Y-65397977D01*
X206253102Y-65397977D02*
X206405483Y-65397977D01*
X206405483Y-65397977D02*
X206481674Y-65359882D01*
X206481674Y-65359882D02*
X206519769Y-65321786D01*
X206519769Y-65321786D02*
X206557864Y-65245596D01*
X189801692Y-67748114D02*
X189855567Y-67855864D01*
X189855567Y-67855864D02*
X189990254Y-67990551D01*
X189990254Y-67990551D02*
X190071066Y-68017488D01*
X190071066Y-68017488D02*
X190124941Y-68017488D01*
X190124941Y-68017488D02*
X190205753Y-67990551D01*
X190205753Y-67990551D02*
X190259628Y-67936676D01*
X190259628Y-67936676D02*
X190286565Y-67855864D01*
X190286565Y-67855864D02*
X190286565Y-67801989D01*
X190286565Y-67801989D02*
X190259628Y-67721177D01*
X190259628Y-67721177D02*
X190178816Y-67586490D01*
X190178816Y-67586490D02*
X190151878Y-67505678D01*
X190151878Y-67505678D02*
X190151878Y-67451803D01*
X190151878Y-67451803D02*
X190178816Y-67370991D01*
X190178816Y-67370991D02*
X190232691Y-67317116D01*
X190232691Y-67317116D02*
X190313503Y-67290178D01*
X190313503Y-67290178D02*
X190367378Y-67290178D01*
X190367378Y-67290178D02*
X190448190Y-67317116D01*
X190448190Y-67317116D02*
X190582877Y-67451803D01*
X190582877Y-67451803D02*
X190636752Y-67559552D01*
X190852251Y-67721177D02*
X190421253Y-68421549D01*
X190421253Y-68421549D02*
X190933063Y-68125238D01*
X190933063Y-68125238D02*
X190636752Y-68637049D01*
X190636752Y-68637049D02*
X191337124Y-68206050D01*
X190986938Y-68987235D02*
X191552624Y-68421550D01*
X191552624Y-68421550D02*
X191687311Y-68556237D01*
X191687311Y-68556237D02*
X191741185Y-68663986D01*
X191741185Y-68663986D02*
X191741185Y-68771736D01*
X191741185Y-68771736D02*
X191714248Y-68852548D01*
X191714248Y-68852548D02*
X191633436Y-68987235D01*
X191633436Y-68987235D02*
X191552624Y-69068047D01*
X191552624Y-69068047D02*
X191417937Y-69148859D01*
X191417937Y-69148859D02*
X191337124Y-69175797D01*
X191337124Y-69175797D02*
X191229375Y-69175797D01*
X191229375Y-69175797D02*
X191121625Y-69121922D01*
X191121625Y-69121922D02*
X190986938Y-68987235D01*
X191552624Y-69552920D02*
X192118309Y-68987235D01*
X192495432Y-69364358D02*
X192603182Y-69472108D01*
X192603182Y-69472108D02*
X192630119Y-69552920D01*
X192630119Y-69552920D02*
X192630119Y-69660670D01*
X192630119Y-69660670D02*
X192549307Y-69795357D01*
X192549307Y-69795357D02*
X192360745Y-69983919D01*
X192360745Y-69983919D02*
X192226058Y-70064731D01*
X192226058Y-70064731D02*
X192118309Y-70064731D01*
X192118309Y-70064731D02*
X192037497Y-70037793D01*
X192037497Y-70037793D02*
X191929747Y-69930044D01*
X191929747Y-69930044D02*
X191902810Y-69849232D01*
X191902810Y-69849232D02*
X191902810Y-69741482D01*
X191902810Y-69741482D02*
X191983622Y-69606795D01*
X191983622Y-69606795D02*
X192172184Y-69418233D01*
X192172184Y-69418233D02*
X192306871Y-69337421D01*
X192306871Y-69337421D02*
X192414620Y-69337421D01*
X192414620Y-69337421D02*
X192495432Y-69364358D01*
X216761247Y-52375546D02*
X216685057Y-52337451D01*
X216685057Y-52337451D02*
X216570771Y-52337451D01*
X216570771Y-52337451D02*
X216456485Y-52375546D01*
X216456485Y-52375546D02*
X216380295Y-52451736D01*
X216380295Y-52451736D02*
X216342200Y-52527927D01*
X216342200Y-52527927D02*
X216304104Y-52680308D01*
X216304104Y-52680308D02*
X216304104Y-52794594D01*
X216304104Y-52794594D02*
X216342200Y-52946975D01*
X216342200Y-52946975D02*
X216380295Y-53023165D01*
X216380295Y-53023165D02*
X216456485Y-53099356D01*
X216456485Y-53099356D02*
X216570771Y-53137451D01*
X216570771Y-53137451D02*
X216646962Y-53137451D01*
X216646962Y-53137451D02*
X216761247Y-53099356D01*
X216761247Y-53099356D02*
X216799343Y-53061260D01*
X216799343Y-53061260D02*
X216799343Y-52794594D01*
X216799343Y-52794594D02*
X216646962Y-52794594D01*
X217142200Y-53137451D02*
X217142200Y-52337451D01*
X217142200Y-52337451D02*
X217446962Y-52337451D01*
X217446962Y-52337451D02*
X217523152Y-52375546D01*
X217523152Y-52375546D02*
X217561247Y-52413641D01*
X217561247Y-52413641D02*
X217599343Y-52489832D01*
X217599343Y-52489832D02*
X217599343Y-52604117D01*
X217599343Y-52604117D02*
X217561247Y-52680308D01*
X217561247Y-52680308D02*
X217523152Y-52718403D01*
X217523152Y-52718403D02*
X217446962Y-52756498D01*
X217446962Y-52756498D02*
X217142200Y-52756498D01*
X217904104Y-52413641D02*
X217942200Y-52375546D01*
X217942200Y-52375546D02*
X218018390Y-52337451D01*
X218018390Y-52337451D02*
X218208866Y-52337451D01*
X218208866Y-52337451D02*
X218285057Y-52375546D01*
X218285057Y-52375546D02*
X218323152Y-52413641D01*
X218323152Y-52413641D02*
X218361247Y-52489832D01*
X218361247Y-52489832D02*
X218361247Y-52566022D01*
X218361247Y-52566022D02*
X218323152Y-52680308D01*
X218323152Y-52680308D02*
X217866009Y-53137451D01*
X217866009Y-53137451D02*
X218361247Y-53137451D01*
X218627914Y-52337451D02*
X219161248Y-52337451D01*
X219161248Y-52337451D02*
X218818390Y-53137451D01*
X214972266Y-54164527D02*
X214896076Y-54126432D01*
X214896076Y-54126432D02*
X214781790Y-54126432D01*
X214781790Y-54126432D02*
X214667504Y-54164527D01*
X214667504Y-54164527D02*
X214591314Y-54240717D01*
X214591314Y-54240717D02*
X214553219Y-54316908D01*
X214553219Y-54316908D02*
X214515123Y-54469289D01*
X214515123Y-54469289D02*
X214515123Y-54583575D01*
X214515123Y-54583575D02*
X214553219Y-54735956D01*
X214553219Y-54735956D02*
X214591314Y-54812146D01*
X214591314Y-54812146D02*
X214667504Y-54888337D01*
X214667504Y-54888337D02*
X214781790Y-54926432D01*
X214781790Y-54926432D02*
X214857981Y-54926432D01*
X214857981Y-54926432D02*
X214972266Y-54888337D01*
X214972266Y-54888337D02*
X215010362Y-54850241D01*
X215010362Y-54850241D02*
X215010362Y-54583575D01*
X215010362Y-54583575D02*
X214857981Y-54583575D01*
X215353219Y-54926432D02*
X215353219Y-54126432D01*
X215353219Y-54126432D02*
X215657981Y-54126432D01*
X215657981Y-54126432D02*
X215734171Y-54164527D01*
X215734171Y-54164527D02*
X215772266Y-54202622D01*
X215772266Y-54202622D02*
X215810362Y-54278813D01*
X215810362Y-54278813D02*
X215810362Y-54393098D01*
X215810362Y-54393098D02*
X215772266Y-54469289D01*
X215772266Y-54469289D02*
X215734171Y-54507384D01*
X215734171Y-54507384D02*
X215657981Y-54545479D01*
X215657981Y-54545479D02*
X215353219Y-54545479D01*
X216115123Y-54202622D02*
X216153219Y-54164527D01*
X216153219Y-54164527D02*
X216229409Y-54126432D01*
X216229409Y-54126432D02*
X216419885Y-54126432D01*
X216419885Y-54126432D02*
X216496076Y-54164527D01*
X216496076Y-54164527D02*
X216534171Y-54202622D01*
X216534171Y-54202622D02*
X216572266Y-54278813D01*
X216572266Y-54278813D02*
X216572266Y-54355003D01*
X216572266Y-54355003D02*
X216534171Y-54469289D01*
X216534171Y-54469289D02*
X216077028Y-54926432D01*
X216077028Y-54926432D02*
X216572266Y-54926432D01*
X217257981Y-54126432D02*
X217105600Y-54126432D01*
X217105600Y-54126432D02*
X217029409Y-54164527D01*
X217029409Y-54164527D02*
X216991314Y-54202622D01*
X216991314Y-54202622D02*
X216915124Y-54316908D01*
X216915124Y-54316908D02*
X216877028Y-54469289D01*
X216877028Y-54469289D02*
X216877028Y-54774051D01*
X216877028Y-54774051D02*
X216915124Y-54850241D01*
X216915124Y-54850241D02*
X216953219Y-54888337D01*
X216953219Y-54888337D02*
X217029409Y-54926432D01*
X217029409Y-54926432D02*
X217181790Y-54926432D01*
X217181790Y-54926432D02*
X217257981Y-54888337D01*
X217257981Y-54888337D02*
X217296076Y-54850241D01*
X217296076Y-54850241D02*
X217334171Y-54774051D01*
X217334171Y-54774051D02*
X217334171Y-54583575D01*
X217334171Y-54583575D02*
X217296076Y-54507384D01*
X217296076Y-54507384D02*
X217257981Y-54469289D01*
X217257981Y-54469289D02*
X217181790Y-54431194D01*
X217181790Y-54431194D02*
X217029409Y-54431194D01*
X217029409Y-54431194D02*
X216953219Y-54469289D01*
X216953219Y-54469289D02*
X216915124Y-54507384D01*
X216915124Y-54507384D02*
X216877028Y-54583575D01*
X198807806Y-70328988D02*
X198731616Y-70290893D01*
X198731616Y-70290893D02*
X198617330Y-70290893D01*
X198617330Y-70290893D02*
X198503044Y-70328988D01*
X198503044Y-70328988D02*
X198426854Y-70405178D01*
X198426854Y-70405178D02*
X198388759Y-70481369D01*
X198388759Y-70481369D02*
X198350663Y-70633750D01*
X198350663Y-70633750D02*
X198350663Y-70748036D01*
X198350663Y-70748036D02*
X198388759Y-70900417D01*
X198388759Y-70900417D02*
X198426854Y-70976607D01*
X198426854Y-70976607D02*
X198503044Y-71052798D01*
X198503044Y-71052798D02*
X198617330Y-71090893D01*
X198617330Y-71090893D02*
X198693521Y-71090893D01*
X198693521Y-71090893D02*
X198807806Y-71052798D01*
X198807806Y-71052798D02*
X198845902Y-71014702D01*
X198845902Y-71014702D02*
X198845902Y-70748036D01*
X198845902Y-70748036D02*
X198693521Y-70748036D01*
X199188759Y-71090893D02*
X199188759Y-70290893D01*
X199188759Y-70290893D02*
X199493521Y-70290893D01*
X199493521Y-70290893D02*
X199569711Y-70328988D01*
X199569711Y-70328988D02*
X199607806Y-70367083D01*
X199607806Y-70367083D02*
X199645902Y-70443274D01*
X199645902Y-70443274D02*
X199645902Y-70557559D01*
X199645902Y-70557559D02*
X199607806Y-70633750D01*
X199607806Y-70633750D02*
X199569711Y-70671845D01*
X199569711Y-70671845D02*
X199493521Y-70709940D01*
X199493521Y-70709940D02*
X199188759Y-70709940D01*
X200407806Y-71090893D02*
X199950663Y-71090893D01*
X200179235Y-71090893D02*
X200179235Y-70290893D01*
X200179235Y-70290893D02*
X200103044Y-70405178D01*
X200103044Y-70405178D02*
X200026854Y-70481369D01*
X200026854Y-70481369D02*
X199950663Y-70519464D01*
X200674473Y-70290893D02*
X201207807Y-70290893D01*
X201207807Y-70290893D02*
X200864949Y-71090893D01*
X213499938Y-56684298D02*
X213233271Y-56303345D01*
X213042795Y-56684298D02*
X213042795Y-55884298D01*
X213042795Y-55884298D02*
X213347557Y-55884298D01*
X213347557Y-55884298D02*
X213423747Y-55922393D01*
X213423747Y-55922393D02*
X213461842Y-55960488D01*
X213461842Y-55960488D02*
X213499938Y-56036679D01*
X213499938Y-56036679D02*
X213499938Y-56150964D01*
X213499938Y-56150964D02*
X213461842Y-56227155D01*
X213461842Y-56227155D02*
X213423747Y-56265250D01*
X213423747Y-56265250D02*
X213347557Y-56303345D01*
X213347557Y-56303345D02*
X213042795Y-56303345D01*
X213842795Y-55884298D02*
X213842795Y-56531917D01*
X213842795Y-56531917D02*
X213880890Y-56608107D01*
X213880890Y-56608107D02*
X213918985Y-56646203D01*
X213918985Y-56646203D02*
X213995176Y-56684298D01*
X213995176Y-56684298D02*
X214147557Y-56684298D01*
X214147557Y-56684298D02*
X214223747Y-56646203D01*
X214223747Y-56646203D02*
X214261842Y-56608107D01*
X214261842Y-56608107D02*
X214299938Y-56531917D01*
X214299938Y-56531917D02*
X214299938Y-55884298D01*
X214680890Y-56684298D02*
X214680890Y-55884298D01*
X214680890Y-55884298D02*
X215138033Y-56684298D01*
X215138033Y-56684298D02*
X215138033Y-55884298D01*
X197011754Y-72125039D02*
X196935564Y-72086944D01*
X196935564Y-72086944D02*
X196821278Y-72086944D01*
X196821278Y-72086944D02*
X196706992Y-72125039D01*
X196706992Y-72125039D02*
X196630802Y-72201229D01*
X196630802Y-72201229D02*
X196592707Y-72277420D01*
X196592707Y-72277420D02*
X196554611Y-72429801D01*
X196554611Y-72429801D02*
X196554611Y-72544087D01*
X196554611Y-72544087D02*
X196592707Y-72696468D01*
X196592707Y-72696468D02*
X196630802Y-72772658D01*
X196630802Y-72772658D02*
X196706992Y-72848849D01*
X196706992Y-72848849D02*
X196821278Y-72886944D01*
X196821278Y-72886944D02*
X196897469Y-72886944D01*
X196897469Y-72886944D02*
X197011754Y-72848849D01*
X197011754Y-72848849D02*
X197049850Y-72810753D01*
X197049850Y-72810753D02*
X197049850Y-72544087D01*
X197049850Y-72544087D02*
X196897469Y-72544087D01*
X197392707Y-72886944D02*
X197392707Y-72086944D01*
X197392707Y-72086944D02*
X197697469Y-72086944D01*
X197697469Y-72086944D02*
X197773659Y-72125039D01*
X197773659Y-72125039D02*
X197811754Y-72163134D01*
X197811754Y-72163134D02*
X197849850Y-72239325D01*
X197849850Y-72239325D02*
X197849850Y-72353610D01*
X197849850Y-72353610D02*
X197811754Y-72429801D01*
X197811754Y-72429801D02*
X197773659Y-72467896D01*
X197773659Y-72467896D02*
X197697469Y-72505991D01*
X197697469Y-72505991D02*
X197392707Y-72505991D01*
X198611754Y-72886944D02*
X198154611Y-72886944D01*
X198383183Y-72886944D02*
X198383183Y-72086944D01*
X198383183Y-72086944D02*
X198306992Y-72201229D01*
X198306992Y-72201229D02*
X198230802Y-72277420D01*
X198230802Y-72277420D02*
X198154611Y-72315515D01*
X199297469Y-72086944D02*
X199145088Y-72086944D01*
X199145088Y-72086944D02*
X199068897Y-72125039D01*
X199068897Y-72125039D02*
X199030802Y-72163134D01*
X199030802Y-72163134D02*
X198954612Y-72277420D01*
X198954612Y-72277420D02*
X198916516Y-72429801D01*
X198916516Y-72429801D02*
X198916516Y-72734563D01*
X198916516Y-72734563D02*
X198954612Y-72810753D01*
X198954612Y-72810753D02*
X198992707Y-72848849D01*
X198992707Y-72848849D02*
X199068897Y-72886944D01*
X199068897Y-72886944D02*
X199221278Y-72886944D01*
X199221278Y-72886944D02*
X199297469Y-72848849D01*
X199297469Y-72848849D02*
X199335564Y-72810753D01*
X199335564Y-72810753D02*
X199373659Y-72734563D01*
X199373659Y-72734563D02*
X199373659Y-72544087D01*
X199373659Y-72544087D02*
X199335564Y-72467896D01*
X199335564Y-72467896D02*
X199297469Y-72429801D01*
X199297469Y-72429801D02*
X199221278Y-72391706D01*
X199221278Y-72391706D02*
X199068897Y-72391706D01*
X199068897Y-72391706D02*
X198992707Y-72429801D01*
X198992707Y-72429801D02*
X198954612Y-72467896D01*
X198954612Y-72467896D02*
X198916516Y-72544087D01*
X204255885Y-28698783D02*
X204179695Y-28660688D01*
X204179695Y-28660688D02*
X204065409Y-28660688D01*
X204065409Y-28660688D02*
X203951123Y-28698783D01*
X203951123Y-28698783D02*
X203874933Y-28774973D01*
X203874933Y-28774973D02*
X203836838Y-28851164D01*
X203836838Y-28851164D02*
X203798742Y-29003545D01*
X203798742Y-29003545D02*
X203798742Y-29117831D01*
X203798742Y-29117831D02*
X203836838Y-29270212D01*
X203836838Y-29270212D02*
X203874933Y-29346402D01*
X203874933Y-29346402D02*
X203951123Y-29422593D01*
X203951123Y-29422593D02*
X204065409Y-29460688D01*
X204065409Y-29460688D02*
X204141600Y-29460688D01*
X204141600Y-29460688D02*
X204255885Y-29422593D01*
X204255885Y-29422593D02*
X204293981Y-29384497D01*
X204293981Y-29384497D02*
X204293981Y-29117831D01*
X204293981Y-29117831D02*
X204141600Y-29117831D01*
X204636838Y-29460688D02*
X204636838Y-28660688D01*
X204636838Y-28660688D02*
X204941600Y-28660688D01*
X204941600Y-28660688D02*
X205017790Y-28698783D01*
X205017790Y-28698783D02*
X205055885Y-28736878D01*
X205055885Y-28736878D02*
X205093981Y-28813069D01*
X205093981Y-28813069D02*
X205093981Y-28927354D01*
X205093981Y-28927354D02*
X205055885Y-29003545D01*
X205055885Y-29003545D02*
X205017790Y-29041640D01*
X205017790Y-29041640D02*
X204941600Y-29079735D01*
X204941600Y-29079735D02*
X204636838Y-29079735D01*
X205779695Y-28927354D02*
X205779695Y-29460688D01*
X205589219Y-28622593D02*
X205398742Y-29194021D01*
X205398742Y-29194021D02*
X205893981Y-29194021D01*
X189326918Y-42887587D02*
X189250728Y-42849492D01*
X189250728Y-42849492D02*
X189136442Y-42849492D01*
X189136442Y-42849492D02*
X189022156Y-42887587D01*
X189022156Y-42887587D02*
X188945966Y-42963777D01*
X188945966Y-42963777D02*
X188907871Y-43039968D01*
X188907871Y-43039968D02*
X188869775Y-43192349D01*
X188869775Y-43192349D02*
X188869775Y-43306635D01*
X188869775Y-43306635D02*
X188907871Y-43459016D01*
X188907871Y-43459016D02*
X188945966Y-43535206D01*
X188945966Y-43535206D02*
X189022156Y-43611397D01*
X189022156Y-43611397D02*
X189136442Y-43649492D01*
X189136442Y-43649492D02*
X189212633Y-43649492D01*
X189212633Y-43649492D02*
X189326918Y-43611397D01*
X189326918Y-43611397D02*
X189365014Y-43573301D01*
X189365014Y-43573301D02*
X189365014Y-43306635D01*
X189365014Y-43306635D02*
X189212633Y-43306635D01*
X189707871Y-43649492D02*
X189707871Y-42849492D01*
X189707871Y-42849492D02*
X190012633Y-42849492D01*
X190012633Y-42849492D02*
X190088823Y-42887587D01*
X190088823Y-42887587D02*
X190126918Y-42925682D01*
X190126918Y-42925682D02*
X190165014Y-43001873D01*
X190165014Y-43001873D02*
X190165014Y-43116158D01*
X190165014Y-43116158D02*
X190126918Y-43192349D01*
X190126918Y-43192349D02*
X190088823Y-43230444D01*
X190088823Y-43230444D02*
X190012633Y-43268539D01*
X190012633Y-43268539D02*
X189707871Y-43268539D01*
X190926918Y-43649492D02*
X190469775Y-43649492D01*
X190698347Y-43649492D02*
X190698347Y-42849492D01*
X190698347Y-42849492D02*
X190622156Y-42963777D01*
X190622156Y-42963777D02*
X190545966Y-43039968D01*
X190545966Y-43039968D02*
X190469775Y-43078063D01*
X191422157Y-42849492D02*
X191498347Y-42849492D01*
X191498347Y-42849492D02*
X191574538Y-42887587D01*
X191574538Y-42887587D02*
X191612633Y-42925682D01*
X191612633Y-42925682D02*
X191650728Y-43001873D01*
X191650728Y-43001873D02*
X191688823Y-43154254D01*
X191688823Y-43154254D02*
X191688823Y-43344730D01*
X191688823Y-43344730D02*
X191650728Y-43497111D01*
X191650728Y-43497111D02*
X191612633Y-43573301D01*
X191612633Y-43573301D02*
X191574538Y-43611397D01*
X191574538Y-43611397D02*
X191498347Y-43649492D01*
X191498347Y-43649492D02*
X191422157Y-43649492D01*
X191422157Y-43649492D02*
X191345966Y-43611397D01*
X191345966Y-43611397D02*
X191307871Y-43573301D01*
X191307871Y-43573301D02*
X191269776Y-43497111D01*
X191269776Y-43497111D02*
X191231680Y-43344730D01*
X191231680Y-43344730D02*
X191231680Y-43154254D01*
X191231680Y-43154254D02*
X191269776Y-43001873D01*
X191269776Y-43001873D02*
X191307871Y-42925682D01*
X191307871Y-42925682D02*
X191345966Y-42887587D01*
X191345966Y-42887587D02*
X191422157Y-42849492D01*
D12*
G04 #@! TO.C,U1*
X182320105Y-54858293D02*
X182037263Y-55141135D01*
X184158583Y-53019815D02*
X183875741Y-53302658D01*
X185148533Y-61646518D02*
X180340207Y-56838192D01*
X185926350Y-51252048D02*
X185643508Y-51534891D01*
X186704168Y-63202153D02*
X186987010Y-63484995D01*
X187694117Y-49484281D02*
X187411274Y-49767125D01*
X188542645Y-65040630D02*
X188825488Y-65323473D01*
X189532595Y-47645804D02*
X189249752Y-47928646D01*
X191300362Y-45878037D02*
X191017519Y-46160879D01*
X193138840Y-44039559D02*
X192855998Y-44322401D01*
X194906607Y-42271792D02*
X194623763Y-42554635D01*
X195189449Y-71687434D02*
X190381123Y-66879108D01*
X196745085Y-40433314D02*
X196462241Y-40716157D01*
X197169348Y-69707535D02*
X196886505Y-69990379D01*
X198512851Y-38665547D02*
X198230008Y-38948390D01*
X199007826Y-67869058D02*
X198724982Y-68151901D01*
X200280618Y-36897780D02*
X199997775Y-37180623D01*
X200775593Y-66101291D02*
X200492750Y-66384133D01*
X202119096Y-35059303D02*
X201836252Y-35342145D01*
X202543359Y-64333524D02*
X202260516Y-64616367D01*
X203886862Y-33291537D02*
X203604020Y-33574379D01*
X204381837Y-62495046D02*
X204098995Y-62777889D01*
X205725340Y-31453058D02*
X205442498Y-31735901D01*
X206149604Y-60727279D02*
X205866762Y-61010122D01*
X207493107Y-29685291D02*
X207210265Y-29968134D01*
X207988082Y-58888801D02*
X207705240Y-59171643D01*
X209260874Y-27917524D02*
X208978032Y-28200367D01*
X209755850Y-57121035D02*
X209473006Y-57403877D01*
X211099352Y-26079047D02*
X210816509Y-26361889D01*
X211594327Y-55282557D02*
X211311484Y-55565400D01*
X212867120Y-24311279D02*
X212584276Y-24594122D01*
X213362094Y-53514790D02*
X213079251Y-53797633D01*
X214516800Y-22661599D02*
X216643069Y-24787870D01*
X214705597Y-22472801D02*
X214422754Y-22755645D01*
X215129861Y-51747023D02*
X214847017Y-52029866D01*
X216402653Y-20775746D02*
X216190520Y-20987879D01*
X216402653Y-20775746D02*
X231251895Y-35624988D01*
X216643069Y-24787870D02*
X218528923Y-22902016D01*
X216968339Y-49908545D02*
X216685495Y-50191388D01*
X218736104Y-48140779D02*
X218453262Y-48423621D01*
X220574583Y-46302301D02*
X220291740Y-46585143D01*
X222342350Y-44534534D02*
X222059507Y-44817376D01*
X224110116Y-42766767D02*
X223827274Y-43049609D01*
X225948594Y-40928289D02*
X225665752Y-41211132D01*
X227716361Y-39160522D02*
X227433519Y-39443365D01*
X229554839Y-37322045D02*
X229271997Y-37604887D01*
X231251895Y-35624988D02*
X231039762Y-35837121D01*
D13*
G04 #@! TO.C,G\u002A\u002A\u002A*
G36*
X199026510Y-151059902D02*
G01*
X199091101Y-151066778D01*
X199136722Y-151082210D01*
X199170522Y-151109449D01*
X199199652Y-151151746D01*
X199218440Y-151186836D01*
X199234632Y-151238609D01*
X199245668Y-151314478D01*
X199251553Y-151405606D01*
X199252291Y-151503157D01*
X199247890Y-151598295D01*
X199238352Y-151682184D01*
X199223684Y-151745988D01*
X199218104Y-151760291D01*
X199192160Y-151810054D01*
X199163024Y-151844406D01*
X199124190Y-151866121D01*
X199069149Y-151877971D01*
X198991394Y-151882729D01*
X198929333Y-151883333D01*
X198749417Y-151883333D01*
X198753875Y-151470833D01*
X198758333Y-151058333D01*
X198935799Y-151058333D01*
X199026510Y-151059902D01*
G37*
G36*
X192553898Y-152213372D02*
G01*
X192558333Y-154176744D01*
X192621298Y-154304138D01*
X192692546Y-154421577D01*
X192779834Y-154513881D01*
X192889605Y-154587836D01*
X192891666Y-154588955D01*
X192905504Y-154596148D01*
X192920107Y-154602328D01*
X192938004Y-154607582D01*
X192961726Y-154612002D01*
X192993804Y-154615676D01*
X193036767Y-154618694D01*
X193093146Y-154621145D01*
X193165470Y-154623120D01*
X193256270Y-154624708D01*
X193368076Y-154625999D01*
X193503419Y-154627082D01*
X193664828Y-154628047D01*
X193854833Y-154628983D01*
X194045833Y-154629846D01*
X195133333Y-154634693D01*
X195133333Y-154942346D01*
X195133333Y-155250000D01*
X193520833Y-155248582D01*
X193234661Y-155248227D01*
X192980210Y-155247681D01*
X192755867Y-155246923D01*
X192560021Y-155245930D01*
X192391059Y-155244683D01*
X192247368Y-155243160D01*
X192127338Y-155241340D01*
X192029355Y-155239202D01*
X191951807Y-155236725D01*
X191893083Y-155233887D01*
X191851569Y-155230668D01*
X191825654Y-155227046D01*
X191822464Y-155226336D01*
X191671201Y-155172964D01*
X191527670Y-155089708D01*
X191394681Y-154979648D01*
X191275043Y-154845868D01*
X191171566Y-154691451D01*
X191087061Y-154519480D01*
X191031259Y-154358333D01*
X190993507Y-154225000D01*
X190987723Y-152237500D01*
X190981939Y-150250000D01*
X191765701Y-150250000D01*
X192549463Y-150250000D01*
X192553898Y-152213372D01*
G37*
G36*
X188237231Y-152212500D02*
G01*
X188241666Y-154175000D01*
X188293970Y-154285389D01*
X188364665Y-154407642D01*
X188449371Y-154502766D01*
X188552312Y-154575498D01*
X188553274Y-154576032D01*
X188641666Y-154625000D01*
X189720833Y-154629851D01*
X190800000Y-154634703D01*
X190800000Y-154942351D01*
X190800000Y-155250000D01*
X189195833Y-155248611D01*
X188920666Y-155248304D01*
X188676880Y-155247869D01*
X188462519Y-155247277D01*
X188275632Y-155246498D01*
X188114264Y-155245505D01*
X187976461Y-155244266D01*
X187860272Y-155242754D01*
X187763741Y-155240940D01*
X187684916Y-155238794D01*
X187621842Y-155236288D01*
X187572568Y-155233391D01*
X187535139Y-155230076D01*
X187507601Y-155226314D01*
X187492677Y-155223281D01*
X187345432Y-155171010D01*
X187205309Y-155088728D01*
X187075019Y-154979466D01*
X186957275Y-154846254D01*
X186854789Y-154692121D01*
X186770271Y-154520097D01*
X186711102Y-154350000D01*
X186705759Y-154330756D01*
X186700976Y-154311441D01*
X186696716Y-154290181D01*
X186692943Y-154265100D01*
X186689621Y-154234324D01*
X186686714Y-154195978D01*
X186684187Y-154148189D01*
X186682003Y-154089081D01*
X186680126Y-154016780D01*
X186678521Y-153929412D01*
X186677151Y-153825101D01*
X186675980Y-153701975D01*
X186674973Y-153558157D01*
X186674093Y-153391774D01*
X186673304Y-153200950D01*
X186672571Y-152983812D01*
X186671857Y-152738485D01*
X186671127Y-152463095D01*
X186670551Y-152237500D01*
X186665511Y-150250000D01*
X187449154Y-150250000D01*
X188232797Y-150250000D01*
X188237231Y-152212500D01*
G37*
G36*
X204047804Y-150251588D02*
G01*
X204110958Y-150252790D01*
X204156049Y-150255260D01*
X204186891Y-150259213D01*
X204207304Y-150264863D01*
X204221102Y-150272422D01*
X204232104Y-150282105D01*
X204232625Y-150282625D01*
X204248867Y-150299492D01*
X204260808Y-150315677D01*
X204266873Y-150333165D01*
X204265489Y-150353941D01*
X204255083Y-150379988D01*
X204234081Y-150413292D01*
X204200910Y-150455836D01*
X204153996Y-150509605D01*
X204091767Y-150576584D01*
X204012647Y-150658756D01*
X203915065Y-150758106D01*
X203797447Y-150876619D01*
X203658219Y-151016279D01*
X203622645Y-151051932D01*
X203501124Y-151173352D01*
X203386100Y-151287583D01*
X203279813Y-151392445D01*
X203184507Y-151485761D01*
X203102421Y-151565350D01*
X203035799Y-151629035D01*
X202986881Y-151674637D01*
X202957909Y-151699977D01*
X202951190Y-151704517D01*
X202913693Y-151704770D01*
X202887967Y-151698452D01*
X202850870Y-151673225D01*
X202834422Y-151652035D01*
X202828786Y-151624739D01*
X202824231Y-151569559D01*
X202820755Y-151491929D01*
X202818357Y-151397281D01*
X202817033Y-151291048D01*
X202816780Y-151178663D01*
X202817598Y-151065557D01*
X202819483Y-150957165D01*
X202822432Y-150858917D01*
X202826444Y-150776248D01*
X202831516Y-150714590D01*
X202834850Y-150691089D01*
X202873786Y-150561368D01*
X202938916Y-150452254D01*
X203030420Y-150363512D01*
X203133333Y-150301880D01*
X203160322Y-150289353D01*
X203185343Y-150279453D01*
X203212631Y-150271828D01*
X203246419Y-150266121D01*
X203290942Y-150261979D01*
X203350433Y-150259047D01*
X203429127Y-150256971D01*
X203531257Y-150255396D01*
X203661058Y-150253969D01*
X203711792Y-150253458D01*
X203852038Y-150252136D01*
X203962770Y-150251441D01*
X204047804Y-150251588D01*
G37*
G36*
X202938134Y-152000197D02*
G01*
X202947528Y-152001876D01*
X202958845Y-152006663D01*
X202973775Y-152016186D01*
X202994011Y-152032071D01*
X203021245Y-152055947D01*
X203057168Y-152089441D01*
X203103472Y-152134180D01*
X203161850Y-152191792D01*
X203233992Y-152263903D01*
X203321590Y-152352142D01*
X203426337Y-152458136D01*
X203549924Y-152583512D01*
X203694043Y-152729898D01*
X203805724Y-152843378D01*
X203927825Y-152967650D01*
X204028130Y-153070621D01*
X204108314Y-153154655D01*
X204170053Y-153222118D01*
X204215024Y-153275378D01*
X204244901Y-153316798D01*
X204261362Y-153348745D01*
X204266081Y-153373585D01*
X204260734Y-153393685D01*
X204246997Y-153411408D01*
X204226547Y-153429122D01*
X204222752Y-153432123D01*
X204207740Y-153442769D01*
X204190332Y-153450943D01*
X204166266Y-153456944D01*
X204131281Y-153461074D01*
X204081117Y-153463631D01*
X204011513Y-153464916D01*
X203918207Y-153465230D01*
X203796940Y-153464872D01*
X203760252Y-153464706D01*
X203640643Y-153463637D01*
X203527889Y-153461679D01*
X203427622Y-153459004D01*
X203345477Y-153455783D01*
X203287086Y-153452190D01*
X203263350Y-153449543D01*
X203171576Y-153422676D01*
X203077925Y-153376230D01*
X202996341Y-153317845D01*
X202963037Y-153284987D01*
X202926470Y-153235783D01*
X202888353Y-153173004D01*
X202868351Y-153134093D01*
X202855739Y-153106492D01*
X202845797Y-153080814D01*
X202838156Y-153052747D01*
X202832443Y-153017976D01*
X202828289Y-152972188D01*
X202825321Y-152911070D01*
X202823170Y-152830307D01*
X202821464Y-152725586D01*
X202819832Y-152592594D01*
X202819530Y-152566404D01*
X202818012Y-152428065D01*
X202817164Y-152319099D01*
X202817218Y-152235545D01*
X202818404Y-152173447D01*
X202820953Y-152128844D01*
X202825096Y-152097778D01*
X202831064Y-152076291D01*
X202839087Y-152060424D01*
X202849397Y-152046218D01*
X202849906Y-152045570D01*
X202893589Y-152008864D01*
X202928970Y-152000000D01*
X202938134Y-152000197D01*
G37*
G36*
X184129556Y-150249991D02*
G01*
X184320168Y-150250000D01*
X186183333Y-150250000D01*
X186183333Y-152750000D01*
X186183333Y-155250000D01*
X185400000Y-155250000D01*
X184616666Y-155250000D01*
X184616666Y-154158333D01*
X184616666Y-153066666D01*
X183850000Y-153066666D01*
X183083333Y-153066666D01*
X183083333Y-154158333D01*
X183083333Y-155250000D01*
X182307943Y-155250000D01*
X181532554Y-155250000D01*
X181537300Y-153245833D01*
X181538039Y-152944021D01*
X181538770Y-152673707D01*
X181539522Y-152433333D01*
X183083333Y-152433333D01*
X183850000Y-152433333D01*
X184616666Y-152433333D01*
X184616666Y-151648803D01*
X184616666Y-150864273D01*
X184062500Y-150869636D01*
X183508333Y-150875000D01*
X183420193Y-150923830D01*
X183307062Y-151005103D01*
X183214182Y-151110581D01*
X183144574Y-151235935D01*
X183101256Y-151376836D01*
X183100127Y-151382660D01*
X183095755Y-151422355D01*
X183091807Y-151490147D01*
X183088437Y-151580799D01*
X183085799Y-151689077D01*
X183084049Y-151809745D01*
X183083341Y-151937568D01*
X183083333Y-151952274D01*
X183083333Y-152433333D01*
X181539522Y-152433333D01*
X181539523Y-152433056D01*
X181540328Y-152220230D01*
X181541214Y-152033395D01*
X181541712Y-151952274D01*
X181542212Y-151870715D01*
X181543351Y-151730355D01*
X181544661Y-151610478D01*
X181546172Y-151509250D01*
X181547914Y-151424833D01*
X181549917Y-151355394D01*
X181552210Y-151299096D01*
X181554825Y-151254103D01*
X181557789Y-151218580D01*
X181561134Y-151190691D01*
X181564889Y-151168601D01*
X181569084Y-151150473D01*
X181571549Y-151141666D01*
X181635319Y-150969093D01*
X181720771Y-150804721D01*
X181823939Y-150653822D01*
X181940856Y-150521670D01*
X182067556Y-150413537D01*
X182165652Y-150351885D01*
X182194171Y-150336489D01*
X182220071Y-150322726D01*
X182245280Y-150310503D01*
X182271729Y-150299730D01*
X182301348Y-150290314D01*
X182336066Y-150282166D01*
X182377814Y-150275193D01*
X182428522Y-150269304D01*
X182490118Y-150264408D01*
X182564533Y-150260414D01*
X182653698Y-150257231D01*
X182759541Y-150254766D01*
X182883992Y-150252930D01*
X183028983Y-150251631D01*
X183196441Y-150250777D01*
X183388298Y-150250277D01*
X183606483Y-150250040D01*
X183852925Y-150249976D01*
X184129556Y-150249991D01*
G37*
G36*
X175418238Y-150250035D02*
G01*
X175919794Y-150250143D01*
X176389430Y-150250325D01*
X176827854Y-150250585D01*
X177235770Y-150250925D01*
X177613887Y-150251348D01*
X177962910Y-150251855D01*
X178283547Y-150252450D01*
X178576504Y-150253135D01*
X178842488Y-150253912D01*
X179082205Y-150254785D01*
X179296362Y-150255755D01*
X179485666Y-150256825D01*
X179650823Y-150257998D01*
X179792541Y-150259276D01*
X179911525Y-150260661D01*
X180008483Y-150262157D01*
X180084121Y-150263765D01*
X180139146Y-150265489D01*
X180174264Y-150267331D01*
X180188668Y-150268923D01*
X180318508Y-150309956D01*
X180450804Y-150379705D01*
X180580027Y-150474522D01*
X180700652Y-150590760D01*
X180733965Y-150628821D01*
X180801179Y-150720131D01*
X180869108Y-150832200D01*
X180931441Y-150953202D01*
X180981865Y-151071314D01*
X181002741Y-151132419D01*
X181040873Y-151258333D01*
X181045890Y-153254166D01*
X181050906Y-155250000D01*
X180267322Y-155250000D01*
X179483738Y-155250000D01*
X179479369Y-153287143D01*
X179475000Y-151324287D01*
X179421704Y-151216034D01*
X179353633Y-151103862D01*
X179270117Y-151008275D01*
X179177756Y-150936349D01*
X179142911Y-150917269D01*
X179069935Y-150892668D01*
X178975143Y-150876013D01*
X178869269Y-150868081D01*
X178763052Y-150869652D01*
X178667226Y-150881505D01*
X178662650Y-150882433D01*
X178546392Y-150923200D01*
X178441057Y-150993404D01*
X178349818Y-151090065D01*
X178275851Y-151210199D01*
X178249118Y-151270938D01*
X178208333Y-151375000D01*
X178203637Y-153312500D01*
X178198941Y-155250000D01*
X177424470Y-155250000D01*
X176650000Y-155250000D01*
X176650000Y-153317620D01*
X176649999Y-151385240D01*
X176607138Y-151269606D01*
X176546714Y-151149061D01*
X176462012Y-151040704D01*
X176360197Y-150952982D01*
X176314495Y-150924568D01*
X176276218Y-150904220D01*
X176242957Y-150890370D01*
X176207010Y-150881770D01*
X176160673Y-150877173D01*
X176096242Y-150875332D01*
X176008333Y-150875000D01*
X175918672Y-150875362D01*
X175854661Y-150877270D01*
X175808617Y-150881954D01*
X175772859Y-150890645D01*
X175739705Y-150904573D01*
X175703526Y-150923830D01*
X175590604Y-151004907D01*
X175497083Y-151110143D01*
X175426818Y-151234208D01*
X175385406Y-151363320D01*
X175382177Y-151390878D01*
X175379280Y-151442130D01*
X175376706Y-151517977D01*
X175374446Y-151619319D01*
X175372493Y-151747057D01*
X175370837Y-151902092D01*
X175369471Y-152085326D01*
X175368385Y-152297659D01*
X175367571Y-152539991D01*
X175367021Y-152813225D01*
X175366725Y-153118260D01*
X175366666Y-153350820D01*
X175366666Y-155250000D01*
X174591929Y-155250000D01*
X173817192Y-155250000D01*
X173812762Y-153245833D01*
X173808333Y-151241666D01*
X173763929Y-151157542D01*
X173691210Y-151049262D01*
X173599024Y-150966178D01*
X173516666Y-150918710D01*
X173425000Y-150875000D01*
X172075000Y-150875000D01*
X170725000Y-150875000D01*
X170645376Y-150914550D01*
X170570241Y-150964347D01*
X170493455Y-151036359D01*
X170423493Y-151121043D01*
X170368828Y-151208854D01*
X170352401Y-151244538D01*
X170312281Y-151376112D01*
X170303272Y-151496579D01*
X170325553Y-151607259D01*
X170379302Y-151709473D01*
X170423048Y-151763326D01*
X170464554Y-151806051D01*
X170508174Y-151845284D01*
X170556855Y-151882459D01*
X170613543Y-151919005D01*
X170681186Y-151956357D01*
X170762731Y-151995945D01*
X170861124Y-152039202D01*
X170979312Y-152087560D01*
X171120242Y-152142451D01*
X171286862Y-152205307D01*
X171478583Y-152276260D01*
X171690881Y-152354589D01*
X171874474Y-152422945D01*
X172032081Y-152482469D01*
X172166423Y-152534301D01*
X172280221Y-152579582D01*
X172376195Y-152619451D01*
X172457066Y-152655049D01*
X172525554Y-152687516D01*
X172584380Y-152717993D01*
X172636264Y-152747619D01*
X172683927Y-152777536D01*
X172700000Y-152788208D01*
X172892572Y-152934142D01*
X173054158Y-153092001D01*
X173184684Y-153261657D01*
X173284081Y-153442979D01*
X173352277Y-153635838D01*
X173389200Y-153840104D01*
X173394781Y-154055647D01*
X173394656Y-154058333D01*
X173383297Y-154200466D01*
X173362058Y-154322538D01*
X173327952Y-154437103D01*
X173277991Y-154556714D01*
X173274018Y-154565187D01*
X173181344Y-154732298D01*
X173070633Y-154881751D01*
X172945469Y-155010210D01*
X172809433Y-155114340D01*
X172666110Y-155190805D01*
X172564476Y-155225789D01*
X172545923Y-155229577D01*
X172519125Y-155232958D01*
X172482284Y-155235952D01*
X172433607Y-155238582D01*
X172371296Y-155240870D01*
X172293557Y-155242838D01*
X172198593Y-155244508D01*
X172084609Y-155245903D01*
X171949809Y-155247044D01*
X171792397Y-155247954D01*
X171610579Y-155248654D01*
X171402557Y-155249167D01*
X171166536Y-155249515D01*
X170900721Y-155249719D01*
X170612500Y-155249802D01*
X168750000Y-155250000D01*
X168750000Y-154942231D01*
X168750000Y-154634463D01*
X170087500Y-154629731D01*
X171425000Y-154625000D01*
X171514455Y-154575453D01*
X171626788Y-154494814D01*
X171716342Y-154391342D01*
X171781248Y-154268166D01*
X171819636Y-154128412D01*
X171828512Y-154050000D01*
X171829203Y-153955781D01*
X171815276Y-153880915D01*
X171782662Y-153813132D01*
X171727295Y-153740165D01*
X171724815Y-153737274D01*
X171686272Y-153695463D01*
X171643793Y-153656291D01*
X171594608Y-153618392D01*
X171535950Y-153580401D01*
X171465052Y-153540952D01*
X171379145Y-153498680D01*
X171275461Y-153452218D01*
X171151233Y-153400202D01*
X171003693Y-153341265D01*
X170830072Y-153274043D01*
X170638025Y-153201102D01*
X170415176Y-153116740D01*
X170220972Y-153042454D01*
X170052732Y-152976925D01*
X169907776Y-152918833D01*
X169783425Y-152866858D01*
X169676997Y-152819680D01*
X169585814Y-152775978D01*
X169507194Y-152734435D01*
X169438458Y-152693728D01*
X169376926Y-152652540D01*
X169319917Y-152609549D01*
X169264751Y-152563436D01*
X169208749Y-152512881D01*
X169173809Y-152480036D01*
X169028122Y-152321075D01*
X168913511Y-152150262D01*
X168829759Y-151967052D01*
X168776650Y-151770898D01*
X168753967Y-151561253D01*
X168755051Y-151425000D01*
X168766606Y-151282834D01*
X168787928Y-151160794D01*
X168822000Y-151046369D01*
X168871808Y-150927046D01*
X168875981Y-150918145D01*
X168970906Y-150747529D01*
X169083861Y-150597548D01*
X169211840Y-150470963D01*
X169351836Y-150370535D01*
X169500844Y-150299025D01*
X169575692Y-150275519D01*
X169587670Y-150273077D01*
X169604945Y-150270793D01*
X169628599Y-150268662D01*
X169659714Y-150266679D01*
X169699371Y-150264839D01*
X169748651Y-150263137D01*
X169808635Y-150261567D01*
X169880405Y-150260125D01*
X169965041Y-150258805D01*
X170063626Y-150257602D01*
X170177240Y-150256510D01*
X170306966Y-150255525D01*
X170453883Y-150254642D01*
X170619074Y-150253854D01*
X170803619Y-150253158D01*
X171008601Y-150252547D01*
X171235100Y-150252017D01*
X171484197Y-150251562D01*
X171756974Y-150251177D01*
X172054513Y-150250857D01*
X172377894Y-150250597D01*
X172728199Y-150250391D01*
X173106509Y-150250235D01*
X173513905Y-150250123D01*
X173951469Y-150250050D01*
X174420282Y-150250010D01*
X174884055Y-150250000D01*
X175418238Y-150250035D01*
G37*
G36*
X197368160Y-150252476D02*
G01*
X197647962Y-150252627D01*
X197956113Y-150252890D01*
X198294022Y-150253256D01*
X198663096Y-150253715D01*
X198875678Y-150253998D01*
X202075000Y-150258333D01*
X202183333Y-150309776D01*
X202308694Y-150386888D01*
X202410795Y-150487019D01*
X202487772Y-150607629D01*
X202537764Y-150746181D01*
X202550461Y-150810381D01*
X202554932Y-150859106D01*
X202558548Y-150940964D01*
X202561308Y-151055763D01*
X202563209Y-151203313D01*
X202564248Y-151383424D01*
X202564425Y-151595904D01*
X202563736Y-151840565D01*
X202563281Y-151935381D01*
X202557986Y-152941666D01*
X202519449Y-153037534D01*
X202450055Y-153170418D01*
X202357507Y-153279989D01*
X202240385Y-153367651D01*
X202131343Y-153421607D01*
X202041666Y-153458333D01*
X198891666Y-153460699D01*
X198533660Y-153460887D01*
X198190232Y-153460905D01*
X197862701Y-153460759D01*
X197552388Y-153460454D01*
X197260613Y-153459995D01*
X196988695Y-153459388D01*
X196737957Y-153458637D01*
X196509717Y-153457749D01*
X196305296Y-153456728D01*
X196126014Y-153455580D01*
X195973192Y-153454310D01*
X195848149Y-153452923D01*
X195752206Y-153451425D01*
X195686683Y-153449820D01*
X195652901Y-153448115D01*
X195650000Y-153447750D01*
X195517791Y-153409394D01*
X195398461Y-153342795D01*
X195295951Y-153251826D01*
X195214205Y-153140356D01*
X195157162Y-153012258D01*
X195149525Y-152983333D01*
X196682004Y-152983333D01*
X196941002Y-152983333D01*
X197200000Y-152983333D01*
X198233333Y-152983333D01*
X198491375Y-152983333D01*
X198749417Y-152983333D01*
X198753875Y-152570833D01*
X198758333Y-152158333D01*
X198928328Y-152153592D01*
X199032127Y-152153281D01*
X199108915Y-152160432D01*
X199164590Y-152177199D01*
X199205049Y-152205731D01*
X199236189Y-152248181D01*
X199247620Y-152270083D01*
X199260148Y-152298443D01*
X199269366Y-152327911D01*
X199275774Y-152364009D01*
X199279873Y-152412258D01*
X199282164Y-152478180D01*
X199283149Y-152567296D01*
X199283333Y-152663595D01*
X199283333Y-152983333D01*
X199551533Y-152983333D01*
X199819734Y-152983333D01*
X199814033Y-152662500D01*
X199811931Y-152551406D01*
X199809603Y-152467747D01*
X199806262Y-152405629D01*
X199801123Y-152359156D01*
X199793397Y-152322434D01*
X199782298Y-152289570D01*
X199767038Y-152254668D01*
X199756622Y-152232543D01*
X199721774Y-152166733D01*
X199682338Y-152103655D01*
X199650729Y-152061710D01*
X199596546Y-152000000D01*
X199646564Y-151943032D01*
X199680774Y-151894858D01*
X199715411Y-151831720D01*
X199734306Y-151788866D01*
X199749430Y-151745969D01*
X199760028Y-151703407D01*
X199766930Y-151653831D01*
X199770964Y-151589892D01*
X199772962Y-151504242D01*
X199773515Y-151441666D01*
X199773295Y-151334746D01*
X199770792Y-151254224D01*
X199765422Y-151193212D01*
X199756601Y-151144817D01*
X199745050Y-151105841D01*
X199697843Y-151000445D01*
X199636837Y-150909561D01*
X199568047Y-150841863D01*
X199556084Y-150833333D01*
X199494168Y-150791666D01*
X198863751Y-150786749D01*
X198425690Y-150783333D01*
X199966666Y-150783333D01*
X199966792Y-151270833D01*
X199967730Y-151456115D01*
X199970837Y-151611610D01*
X199976712Y-151740827D01*
X199985952Y-151847277D01*
X199999154Y-151934467D01*
X200016916Y-152005909D01*
X200039836Y-152065110D01*
X200068510Y-152115581D01*
X200103537Y-152160831D01*
X200121687Y-152180588D01*
X200179151Y-152232883D01*
X200236076Y-152264435D01*
X200303867Y-152279738D01*
X200382505Y-152283333D01*
X200500000Y-152283333D01*
X200500000Y-152633756D01*
X200500000Y-152984179D01*
X200762500Y-152979589D01*
X201025000Y-152975000D01*
X201029504Y-152629166D01*
X201034009Y-152283333D01*
X201156206Y-152283333D01*
X201248941Y-152276784D01*
X201320597Y-152253762D01*
X201380557Y-152209201D01*
X201438204Y-152138035D01*
X201445677Y-152127072D01*
X201472413Y-152085685D01*
X201494157Y-152046420D01*
X201511423Y-152005355D01*
X201524723Y-151958572D01*
X201534571Y-151902150D01*
X201541481Y-151832170D01*
X201545966Y-151744710D01*
X201548538Y-151635853D01*
X201549711Y-151501676D01*
X201549999Y-151338262D01*
X201550000Y-151330308D01*
X201550000Y-150783333D01*
X201292724Y-150783333D01*
X201035449Y-150783333D01*
X201030224Y-151312500D01*
X201028593Y-151461490D01*
X201026805Y-151580900D01*
X201024636Y-151674483D01*
X201021857Y-151745992D01*
X201018243Y-151799180D01*
X201013567Y-151837800D01*
X201007602Y-151865605D01*
X201000121Y-151886349D01*
X200994946Y-151896719D01*
X200961580Y-151952227D01*
X200928930Y-151987456D01*
X200888196Y-152006924D01*
X200830579Y-152015146D01*
X200761238Y-152016666D01*
X200690790Y-152015641D01*
X200645051Y-152011324D01*
X200615430Y-152001855D01*
X200593333Y-151985373D01*
X200587034Y-151978939D01*
X200563851Y-151952645D01*
X200545186Y-151925739D01*
X200530549Y-151894426D01*
X200519455Y-151854912D01*
X200511416Y-151803401D01*
X200505946Y-151736100D01*
X200502558Y-151649213D01*
X200500765Y-151538946D01*
X200500081Y-151401504D01*
X200500000Y-151300535D01*
X200500000Y-150783333D01*
X200233333Y-150783333D01*
X199966666Y-150783333D01*
X198425690Y-150783333D01*
X198233333Y-150781833D01*
X198233333Y-151882583D01*
X198233333Y-152983333D01*
X197200000Y-152983333D01*
X197200000Y-152500000D01*
X197200000Y-152016666D01*
X197558333Y-152016666D01*
X197916666Y-152016666D01*
X197916666Y-151883333D01*
X197916666Y-151882583D01*
X197916666Y-151750000D01*
X197558333Y-151750000D01*
X197200000Y-151750000D01*
X197200725Y-151545833D01*
X197202142Y-151458992D01*
X197205441Y-151377355D01*
X197210115Y-151310596D01*
X197215122Y-151271011D01*
X197238205Y-151199640D01*
X197275529Y-151133862D01*
X197320183Y-151084394D01*
X197346312Y-151067582D01*
X197376539Y-151061568D01*
X197436059Y-151056621D01*
X197520846Y-151052925D01*
X197626871Y-151050661D01*
X197734117Y-151050000D01*
X198083333Y-151050000D01*
X198083333Y-150916666D01*
X198083333Y-150783333D01*
X197562500Y-150783426D01*
X197412245Y-150784030D01*
X197278599Y-150785720D01*
X197164944Y-150788392D01*
X197074659Y-150791946D01*
X197011125Y-150796279D01*
X196978711Y-150801002D01*
X196894663Y-150841495D01*
X196819248Y-150913383D01*
X196753552Y-151015594D01*
X196745880Y-151030851D01*
X196691666Y-151141666D01*
X196686835Y-152062500D01*
X196682004Y-152983333D01*
X195149525Y-152983333D01*
X195139879Y-152946797D01*
X195134697Y-152917154D01*
X195130326Y-152880231D01*
X195126723Y-152833421D01*
X195123841Y-152774113D01*
X195121638Y-152699698D01*
X195120067Y-152607567D01*
X195119085Y-152495111D01*
X195118647Y-152359720D01*
X195118707Y-152198784D01*
X195119222Y-152009695D01*
X195120129Y-151793522D01*
X195121139Y-151582208D01*
X195122098Y-151401563D01*
X195122140Y-151395243D01*
X195651887Y-151395243D01*
X195653326Y-151497463D01*
X195657020Y-151578369D01*
X195662797Y-151632914D01*
X195665432Y-151645417D01*
X195702452Y-151731649D01*
X195759373Y-151797446D01*
X195806919Y-151827232D01*
X195870750Y-151842945D01*
X195946012Y-151842768D01*
X196017715Y-151827968D01*
X196063741Y-151805518D01*
X196098568Y-151770699D01*
X196134224Y-151720888D01*
X196146638Y-151699024D01*
X196159832Y-151671985D01*
X196169487Y-151645676D01*
X196176055Y-151614680D01*
X196179988Y-151573582D01*
X196181739Y-151516964D01*
X196181760Y-151439410D01*
X196180505Y-151335503D01*
X196179971Y-151300000D01*
X196178058Y-151187502D01*
X196175834Y-151103053D01*
X196172690Y-151041371D01*
X196168014Y-150997171D01*
X196161195Y-150965172D01*
X196151622Y-150940089D01*
X196138684Y-150916641D01*
X196134924Y-150910531D01*
X196084734Y-150854498D01*
X196016882Y-150810493D01*
X195944499Y-150786185D01*
X195917762Y-150783699D01*
X195855405Y-150796022D01*
X195788010Y-150828982D01*
X195728378Y-150875057D01*
X195696461Y-150913682D01*
X195682768Y-150937811D01*
X195672645Y-150963391D01*
X195665428Y-150995949D01*
X195660452Y-151041013D01*
X195657056Y-151104110D01*
X195654575Y-151190767D01*
X195652876Y-151276760D01*
X195651887Y-151395243D01*
X195122140Y-151395243D01*
X195123104Y-151248924D01*
X195124259Y-151121628D01*
X195125665Y-151017010D01*
X195127420Y-150932408D01*
X195129627Y-150865157D01*
X195132387Y-150812595D01*
X195135799Y-150772058D01*
X195139965Y-150740882D01*
X195144985Y-150716403D01*
X195150960Y-150695959D01*
X195157991Y-150676885D01*
X195162835Y-150664805D01*
X195231602Y-150536370D01*
X195324421Y-150427201D01*
X195437040Y-150341215D01*
X195565211Y-150282326D01*
X195584542Y-150276353D01*
X195597841Y-150273133D01*
X195615553Y-150270187D01*
X195639084Y-150267506D01*
X195669844Y-150265081D01*
X195709240Y-150262903D01*
X195758681Y-150260960D01*
X195819573Y-150259245D01*
X195893327Y-150257748D01*
X195981349Y-150256458D01*
X196085047Y-150255366D01*
X196205830Y-150254464D01*
X196345106Y-150253740D01*
X196504283Y-150253186D01*
X196684769Y-150252792D01*
X196887971Y-150252549D01*
X197115299Y-150252447D01*
X197368160Y-150252476D01*
G37*
G04 #@! TD*
%LPC*%
D14*
G04 #@! TO.C,MX51*
X183126250Y-136950000D03*
D15*
X188206250Y-136950000D03*
D14*
X193286250Y-136950000D03*
G04 #@! TD*
G04 #@! TO.C,MX44*
X321238750Y-117900000D03*
D15*
X326318750Y-117900000D03*
D14*
X331398750Y-117900000D03*
G04 #@! TD*
G04 #@! TO.C,MX11*
X259326250Y-79800000D03*
D15*
X264406250Y-79800000D03*
D14*
X269486250Y-79800000D03*
G04 #@! TD*
G04 #@! TO.C,MX23*
X202176250Y-98850000D03*
D15*
X207256250Y-98850000D03*
D14*
X212336250Y-98850000D03*
G04 #@! TD*
G04 #@! TO.C,MX32*
X83113750Y-117900000D03*
D15*
X88193750Y-117900000D03*
D14*
X93273750Y-117900000D03*
G04 #@! TD*
G04 #@! TO.C,MX59*
X83113750Y-156000000D03*
D15*
X88193750Y-156000000D03*
D14*
X93273750Y-156000000D03*
G04 #@! TD*
G04 #@! TO.C,MX2*
X83113750Y-79800000D03*
D15*
X88193750Y-79800000D03*
D14*
X93273750Y-79800000D03*
G04 #@! TD*
G04 #@! TO.C,MX1*
X56920000Y-79800000D03*
D15*
X62000000Y-79800000D03*
D14*
X67080000Y-79800000D03*
G04 #@! TD*
G04 #@! TO.C,MX54*
X240276250Y-136950000D03*
D15*
X245356250Y-136950000D03*
D14*
X250436250Y-136950000D03*
G04 #@! TD*
G04 #@! TO.C,MX5*
X145026250Y-79800000D03*
D15*
X150106250Y-79800000D03*
D14*
X155186250Y-79800000D03*
G04 #@! TD*
G04 #@! TO.C,MX45*
X56920000Y-136950000D03*
D15*
X62000000Y-136950000D03*
D14*
X67080000Y-136950000D03*
G04 #@! TD*
D15*
G04 #@! TO.C,MX62*
X150074500Y-147745000D03*
D16*
X150074500Y-162985000D03*
D17*
X156932500Y-156000000D03*
D15*
X162012500Y-156000000D03*
D17*
X167092500Y-156000000D03*
D15*
X173950500Y-147745000D03*
D16*
X173950500Y-162985000D03*
G04 #@! TD*
D14*
G04 #@! TO.C,MX66*
X283138750Y-160762500D03*
D15*
X288218750Y-160762500D03*
D14*
X293298750Y-160762500D03*
G04 #@! TD*
G04 #@! TO.C,MX50*
X164076250Y-136950000D03*
D15*
X169156250Y-136950000D03*
D14*
X174236250Y-136950000D03*
G04 #@! TD*
G04 #@! TO.C,MX65*
X259326250Y-156000000D03*
D15*
X264406250Y-156000000D03*
D14*
X269486250Y-156000000D03*
G04 #@! TD*
G04 #@! TO.C,MX34*
X125976250Y-117900000D03*
D15*
X131056250Y-117900000D03*
D14*
X136136250Y-117900000D03*
G04 #@! TD*
G04 #@! TO.C,MX12*
X278376250Y-79800000D03*
D15*
X283456250Y-79800000D03*
D14*
X288536250Y-79800000D03*
G04 #@! TD*
G04 #@! TO.C,MX35*
X145026250Y-117900000D03*
D15*
X150106250Y-117900000D03*
D14*
X155186250Y-117900000D03*
G04 #@! TD*
G04 #@! TO.C,MX46*
X83113750Y-136950000D03*
D15*
X88193750Y-136950000D03*
D14*
X93273750Y-136950000D03*
G04 #@! TD*
G04 #@! TO.C,MX9*
X221226250Y-79800000D03*
D15*
X226306250Y-79800000D03*
D14*
X231386250Y-79800000D03*
G04 #@! TD*
G04 #@! TO.C,MX18*
X106926250Y-98850000D03*
D15*
X112006250Y-98850000D03*
D14*
X117086250Y-98850000D03*
G04 #@! TD*
G04 #@! TO.C,MX57*
X302188750Y-136950000D03*
D15*
X307268750Y-136950000D03*
D14*
X312348750Y-136950000D03*
G04 #@! TD*
G04 #@! TO.C,MX43*
X297426250Y-117900000D03*
D15*
X302506250Y-117900000D03*
D14*
X307586250Y-117900000D03*
G04 #@! TD*
G04 #@! TO.C,MX3*
X106926250Y-79800000D03*
D15*
X112006250Y-79800000D03*
D14*
X117086250Y-79800000D03*
G04 #@! TD*
G04 #@! TO.C,MX31*
X56920000Y-117900000D03*
D15*
X62000000Y-117900000D03*
D14*
X67080000Y-117900000D03*
G04 #@! TD*
G04 #@! TO.C,MX37*
X183126250Y-117900000D03*
D15*
X188206250Y-117900000D03*
D14*
X193286250Y-117900000D03*
G04 #@! TD*
G04 #@! TO.C,MX17*
X83113750Y-98850000D03*
D15*
X88193750Y-98850000D03*
D14*
X93273750Y-98850000D03*
G04 #@! TD*
G04 #@! TO.C,MX36*
X164076250Y-117900000D03*
D15*
X169156250Y-117900000D03*
D14*
X174236250Y-117900000D03*
G04 #@! TD*
D18*
G04 #@! TO.C,U1*
X220839748Y-27334161D03*
D19*
X218909346Y-29688826D03*
X222338815Y-33118295D03*
D18*
X224693480Y-31187893D03*
D20*
X216572358Y-22882924D03*
D21*
X215935962Y-22246528D03*
D20*
X214776307Y-24678975D03*
D21*
X214139911Y-24042579D03*
D22*
X212980256Y-26475027D03*
D21*
X212343860Y-25838631D03*
D20*
X211184204Y-28271078D03*
D21*
X210547808Y-27634682D03*
D20*
X209388153Y-30067129D03*
D21*
X208751757Y-29430733D03*
D20*
X207592102Y-31863180D03*
D21*
X206955706Y-31226784D03*
D20*
X205796051Y-33659231D03*
D21*
X205159655Y-33022835D03*
D22*
X203999999Y-35455283D03*
D21*
X203363603Y-34818887D03*
D20*
X202203949Y-37251334D03*
D21*
X201567553Y-36614938D03*
D20*
X200407897Y-39047385D03*
D21*
X199771501Y-38410989D03*
D20*
X198611846Y-40843436D03*
D21*
X197975450Y-40207040D03*
D20*
X196815795Y-42639488D03*
D21*
X196179399Y-42003092D03*
D22*
X195019744Y-44435539D03*
D21*
X194383348Y-43799143D03*
D20*
X193223692Y-46231590D03*
D21*
X192587296Y-45595194D03*
D20*
X191427642Y-48027641D03*
D21*
X190791246Y-47391245D03*
D20*
X189631590Y-49823692D03*
D21*
X188995194Y-49187296D03*
D20*
X187835539Y-51619743D03*
D21*
X187199143Y-50983347D03*
D22*
X186039488Y-53415795D03*
D21*
X185403092Y-52779399D03*
D20*
X184243437Y-55211845D03*
D21*
X183607041Y-54575449D03*
D20*
X182447385Y-57007897D03*
D21*
X181810989Y-56371501D03*
D20*
X195019744Y-69580256D03*
D21*
X195656140Y-70216652D03*
D20*
X196815795Y-67784205D03*
D21*
X197452191Y-68420601D03*
D22*
X198611846Y-65988153D03*
D21*
X199248242Y-66624549D03*
D20*
X200407898Y-64192102D03*
D21*
X201044294Y-64828498D03*
D20*
X202203949Y-62396051D03*
D21*
X202840345Y-63032447D03*
D20*
X204000000Y-60600000D03*
D21*
X204636396Y-61236396D03*
D20*
X205796051Y-58803949D03*
D21*
X206432447Y-59440345D03*
D22*
X207592103Y-57007897D03*
D21*
X208228499Y-57644293D03*
D20*
X209388153Y-55211846D03*
D21*
X210024549Y-55848242D03*
D20*
X211184205Y-53415795D03*
D21*
X211820601Y-54052191D03*
D20*
X212980256Y-51619744D03*
D21*
X213616652Y-52256140D03*
D20*
X214776307Y-49823692D03*
D21*
X215412703Y-50460088D03*
D22*
X216572358Y-48027641D03*
D21*
X217208754Y-48664037D03*
D20*
X218368410Y-46231590D03*
D21*
X219004806Y-46867986D03*
D20*
X220164460Y-44435539D03*
D21*
X220800856Y-45071935D03*
D20*
X221960512Y-42639488D03*
D21*
X222596908Y-43275884D03*
D20*
X223756563Y-40843437D03*
D21*
X224392959Y-41479833D03*
D22*
X225552614Y-39047385D03*
D21*
X226189010Y-39683781D03*
D20*
X227348665Y-37251335D03*
D21*
X227985061Y-37887731D03*
D20*
X229144717Y-35455283D03*
D21*
X229781113Y-36091679D03*
D20*
X187100148Y-61335390D03*
D23*
X186463752Y-61971786D03*
D22*
X188896199Y-63131442D03*
D23*
X188259803Y-63767838D03*
D20*
X190692249Y-64927494D03*
D23*
X190055853Y-65563890D03*
G04 #@! TD*
D14*
G04 #@! TO.C,MX47*
X106926250Y-136950000D03*
D15*
X112006250Y-136950000D03*
D14*
X117086250Y-136950000D03*
G04 #@! TD*
G04 #@! TO.C,MX25*
X240276250Y-98850000D03*
D15*
X245356250Y-98850000D03*
D14*
X250436250Y-98850000D03*
G04 #@! TD*
G04 #@! TO.C,MX61*
X125976250Y-156000000D03*
D15*
X131056250Y-156000000D03*
D14*
X136136250Y-156000000D03*
G04 #@! TD*
G04 #@! TO.C,MX26*
X259326250Y-98850000D03*
D15*
X264406250Y-98850000D03*
D14*
X269486250Y-98850000D03*
G04 #@! TD*
G04 #@! TO.C,MX15*
X340288750Y-79800000D03*
D15*
X345368750Y-79800000D03*
D14*
X350448750Y-79800000D03*
G04 #@! TD*
G04 #@! TO.C,MX58*
X56920000Y-156000000D03*
D15*
X62000000Y-156000000D03*
D14*
X67080000Y-156000000D03*
G04 #@! TD*
D15*
G04 #@! TO.C,MX63*
X197699500Y-147745000D03*
D16*
X197699500Y-162985000D03*
D17*
X204557500Y-156000000D03*
D15*
X209637500Y-156000000D03*
D17*
X214717500Y-156000000D03*
D15*
X221575500Y-147745000D03*
D16*
X221575500Y-162985000D03*
G04 #@! TD*
D14*
G04 #@! TO.C,MX28*
X297426250Y-98850000D03*
D15*
X302506250Y-98850000D03*
D14*
X307586250Y-98850000D03*
G04 #@! TD*
G04 #@! TO.C,MX8*
X202176250Y-79800000D03*
D15*
X207256250Y-79800000D03*
D14*
X212336250Y-79800000D03*
G04 #@! TD*
G04 #@! TO.C,MX10*
X240276250Y-79800000D03*
D15*
X245356250Y-79800000D03*
D14*
X250436250Y-79800000D03*
G04 #@! TD*
G04 #@! TO.C,MX53*
X221226250Y-136950000D03*
D15*
X226306250Y-136950000D03*
D14*
X231386250Y-136950000D03*
G04 #@! TD*
G04 #@! TO.C,MX64*
X240276250Y-156000000D03*
D15*
X245356250Y-156000000D03*
D14*
X250436250Y-156000000D03*
G04 #@! TD*
G04 #@! TO.C,MX49*
X145026250Y-136950000D03*
D15*
X150106250Y-136950000D03*
D14*
X155186250Y-136950000D03*
G04 #@! TD*
G04 #@! TO.C,MX27*
X278376250Y-98850000D03*
D15*
X283456250Y-98850000D03*
D14*
X288536250Y-98850000D03*
G04 #@! TD*
G04 #@! TO.C,MX33*
X106926250Y-117900000D03*
D15*
X112006250Y-117900000D03*
D14*
X117086250Y-117900000D03*
G04 #@! TD*
G04 #@! TO.C,MX21*
X164076250Y-98850000D03*
D15*
X169156250Y-98850000D03*
D14*
X174236250Y-98850000D03*
G04 #@! TD*
G04 #@! TO.C,MX19*
X125976250Y-98850000D03*
D15*
X131056250Y-98850000D03*
D14*
X136136250Y-98850000D03*
G04 #@! TD*
G04 #@! TO.C,MX55*
X259326250Y-136950000D03*
D15*
X264406250Y-136950000D03*
D14*
X269486250Y-136950000D03*
G04 #@! TD*
G04 #@! TO.C,MX29*
X316476250Y-98850000D03*
D15*
X321556250Y-98850000D03*
D14*
X326636250Y-98850000D03*
G04 #@! TD*
G04 #@! TO.C,MX7*
X183126250Y-79800000D03*
D15*
X188206250Y-79800000D03*
D14*
X193286250Y-79800000D03*
G04 #@! TD*
G04 #@! TO.C,MX13*
X297426250Y-79800000D03*
D15*
X302506250Y-79800000D03*
D14*
X307586250Y-79800000D03*
G04 #@! TD*
G04 #@! TO.C,MX4*
X125976250Y-79800000D03*
D15*
X131056250Y-79800000D03*
D14*
X136136250Y-79800000D03*
G04 #@! TD*
G04 #@! TO.C,MX41*
X259326250Y-117900000D03*
D15*
X264406250Y-117900000D03*
D14*
X269486250Y-117900000D03*
G04 #@! TD*
G04 #@! TO.C,MX52*
X202176250Y-136950000D03*
D15*
X207256250Y-136950000D03*
D14*
X212336250Y-136950000D03*
G04 #@! TD*
G04 #@! TO.C,MX16*
X56920000Y-98850000D03*
D15*
X62000000Y-98850000D03*
D14*
X67080000Y-98850000D03*
G04 #@! TD*
G04 #@! TO.C,MX20*
X145026250Y-98850000D03*
D15*
X150106250Y-98850000D03*
D14*
X155186250Y-98850000D03*
G04 #@! TD*
G04 #@! TO.C,MX69*
X340288750Y-160762500D03*
D15*
X345368750Y-160762500D03*
D14*
X350448750Y-160762500D03*
G04 #@! TD*
G04 #@! TO.C,MX6*
X164076250Y-79800000D03*
D15*
X169156250Y-79800000D03*
D14*
X174236250Y-79800000D03*
G04 #@! TD*
G04 #@! TO.C,MX38*
X202176250Y-117900000D03*
D15*
X207256250Y-117900000D03*
D14*
X212336250Y-117900000D03*
G04 #@! TD*
G04 #@! TO.C,MX68*
X321238750Y-160762500D03*
D15*
X326318750Y-160762500D03*
D14*
X331398750Y-160762500D03*
G04 #@! TD*
G04 #@! TO.C,MX42*
X278376250Y-117900000D03*
D15*
X283456250Y-117900000D03*
D14*
X288536250Y-117900000D03*
G04 #@! TD*
G04 #@! TO.C,MX60*
X106926250Y-156000000D03*
D15*
X112006250Y-156000000D03*
D14*
X117086250Y-156000000D03*
G04 #@! TD*
G04 #@! TO.C,MX48*
X125976250Y-136950000D03*
D15*
X131056250Y-136950000D03*
D14*
X136136250Y-136950000D03*
G04 #@! TD*
G04 #@! TO.C,MX67*
X302188750Y-160762500D03*
D15*
X307268750Y-160762500D03*
D14*
X312348750Y-160762500D03*
G04 #@! TD*
G04 #@! TO.C,MX40*
X240276250Y-117900000D03*
D15*
X245356250Y-117900000D03*
D14*
X250436250Y-117900000D03*
G04 #@! TD*
G04 #@! TO.C,MX39*
X221226250Y-117900000D03*
D15*
X226306250Y-117900000D03*
D14*
X231386250Y-117900000D03*
G04 #@! TD*
G04 #@! TO.C,MX30*
X340288750Y-98850000D03*
D15*
X345368750Y-98850000D03*
D14*
X350448750Y-98850000D03*
G04 #@! TD*
G04 #@! TO.C,MX56*
X278376250Y-136950000D03*
D15*
X283456250Y-136950000D03*
D14*
X288536250Y-136950000D03*
G04 #@! TD*
G04 #@! TO.C,MX14*
X316476250Y-79800000D03*
D15*
X321556250Y-79800000D03*
D14*
X326636250Y-79800000D03*
G04 #@! TD*
G04 #@! TO.C,MX24*
X221226250Y-98850000D03*
D15*
X226306250Y-98850000D03*
D14*
X231386250Y-98850000D03*
G04 #@! TD*
G04 #@! TO.C,MX22*
X183126250Y-98850000D03*
D15*
X188206250Y-98850000D03*
D14*
X193286250Y-98850000D03*
G04 #@! TD*
%LPD*%
M02*
