M48
; DRILL file {KiCad 8.0.4} date 2024-11-10T19:35:57-0500
; FORMAT={-:-/ absolute / inch / decimal}
; #@! TF.CreationDate,2024-11-10T19:35:57-05:00
; #@! TF.GenerationSoftware,Kicad,Pcbnew,8.0.4
; #@! TF.FileFunction,Plated,1,2,PTH
FMAT,2
INCH
; #@! TA.AperFunction,Plated,PTH,ViaDrill
T1C0.0138
; #@! TA.AperFunction,Plated,PTH,ComponentDrill
T2C0.0402
; #@! TA.AperFunction,Plated,PTH,ComponentDrill
T3C0.0600
%
G90
G05
T1
X7.6535Y-6.1752
X7.7795Y-3.2126
X7.8031Y-3.1811
X7.8031Y-5.4331
X7.8268Y-3.1496
X7.8268Y-4.685
X7.8504Y-3.1181
X7.8504Y-3.9291
T2
X7.183Y-2.2444
X7.2537Y-2.1737
X7.3244Y-2.103
X7.3661Y-2.4148
X7.3951Y-2.0323
X7.4369Y-2.4855
X7.4658Y-1.9616
X7.5076Y-2.5562
X7.5365Y-1.8909
X7.6072Y-1.8201
X7.6779Y-1.7494
X7.6779Y-2.7394
X7.7487Y-1.6787
X7.7487Y-2.6687
X7.8194Y-1.608
X7.8194Y-2.598
X7.8901Y-1.5373
X7.8901Y-2.5272
X7.9608Y-1.4666
X7.9608Y-2.4565
X8.0315Y-1.3959
X8.0315Y-2.3858
X8.1022Y-1.3252
X8.1022Y-2.3151
X8.1729Y-1.2545
X8.1729Y-2.2444
X8.2436Y-1.1837
X8.2436Y-2.1737
X8.3143Y-1.113
X8.3143Y-2.103
X8.385Y-1.0423
X8.385Y-2.0323
X8.4558Y-0.9716
X8.4558Y-1.9616
X8.5265Y-0.9009
X8.5265Y-1.8909
X8.5972Y-1.8201
X8.6679Y-1.7494
X8.7386Y-1.6787
X8.8093Y-1.608
X8.88Y-1.5373
X8.9507Y-1.4666
X9.0214Y-1.3959
T3
X2.2909Y-3.0417
X2.2909Y-3.7917
X2.2909Y-4.5417
X2.2909Y-5.2917
X2.2909Y-6.0417
X2.5409Y-2.9417
X2.5409Y-3.6917
X2.5409Y-4.4417
X2.5409Y-5.1917
X2.5409Y-5.9417
X3.3222Y-3.0417
X3.3222Y-3.7917
X3.3222Y-4.5417
X3.3222Y-5.2917
X3.3222Y-6.0417
X3.5722Y-2.9417
X3.5722Y-3.6917
X3.5722Y-4.4417
X3.5722Y-5.1917
X3.5722Y-5.9417
X4.2597Y-3.0417
X4.2597Y-3.7917
X4.2597Y-4.5417
X4.2597Y-5.2917
X4.2597Y-6.0417
X4.5097Y-2.9417
X4.5097Y-3.6917
X4.5097Y-4.4417
X4.5097Y-5.1917
X4.5097Y-5.9417
X5.0097Y-3.0417
X5.0097Y-3.7917
X5.0097Y-4.5417
X5.0097Y-5.2917
X5.0097Y-6.0417
X5.2597Y-2.9417
X5.2597Y-3.6917
X5.2597Y-4.4417
X5.2597Y-5.1917
X5.2597Y-5.9417
X5.7597Y-3.0417
X5.7597Y-3.7917
X5.7597Y-4.5417
X5.7597Y-5.2917
X6.0097Y-2.9417
X6.0097Y-3.6917
X6.0097Y-4.4417
X6.0097Y-5.1917
X6.2284Y-6.0417
X6.4784Y-5.9417
X6.5097Y-3.0417
X6.5097Y-3.7917
X6.5097Y-4.5417
X6.5097Y-5.2917
X6.7597Y-2.9417
X6.7597Y-3.6917
X6.7597Y-4.4417
X6.7597Y-5.1917
X7.2597Y-3.0417
X7.2597Y-3.7917
X7.2597Y-4.5417
X7.2597Y-5.2917
X7.5097Y-2.9417
X7.5097Y-3.6917
X7.5097Y-4.4417
X7.5097Y-5.1917
X8.0097Y-3.0417
X8.0097Y-3.7917
X8.0097Y-4.5417
X8.0097Y-5.2917
X8.1034Y-6.0417
X8.2597Y-2.9417
X8.2597Y-3.6917
X8.2597Y-4.4417
X8.2597Y-5.1917
X8.3534Y-5.9417
X8.7597Y-3.0417
X8.7597Y-3.7917
X8.7597Y-4.5417
X8.7597Y-5.2917
X9.0097Y-2.9417
X9.0097Y-3.6917
X9.0097Y-4.4417
X9.0097Y-5.1917
X9.5097Y-3.0417
X9.5097Y-3.7917
X9.5097Y-4.5417
X9.5097Y-5.2917
X9.5097Y-6.0417
X9.7597Y-2.9417
X9.7597Y-3.6917
X9.7597Y-4.4417
X9.7597Y-5.1917
X9.7597Y-5.9417
X10.2597Y-3.0417
X10.2597Y-3.7917
X10.2597Y-4.5417
X10.2597Y-5.2917
X10.2597Y-6.0417
X10.5097Y-2.9417
X10.5097Y-3.6917
X10.5097Y-4.4417
X10.5097Y-5.1917
X10.5097Y-5.9417
X11.0097Y-3.0417
X11.0097Y-3.7917
X11.0097Y-4.5417
X11.0097Y-5.2917
X11.1972Y-6.2292
X11.2597Y-2.9417
X11.2597Y-3.6917
X11.2597Y-4.4417
X11.2597Y-5.1917
X11.4472Y-6.1292
X11.7597Y-3.0417
X11.7597Y-3.7917
X11.7597Y-4.5417
X11.9472Y-5.2917
X11.9472Y-6.2292
X12.0097Y-2.9417
X12.0097Y-3.6917
X12.0097Y-4.4417
X12.1972Y-5.1917
X12.1972Y-6.1292
X12.5097Y-3.0417
X12.5097Y-3.7917
X12.6972Y-4.5417
X12.6972Y-6.2292
X12.7597Y-2.9417
X12.7597Y-3.6917
X12.9472Y-4.4417
X12.9472Y-6.1292
X13.4472Y-3.0417
X13.4472Y-3.7917
X13.4472Y-6.2292
X13.6972Y-2.9417
X13.6972Y-3.6917
X13.6972Y-6.1292
M30
